<?xml version="1.0" encoding="UTF-8"?>
<!DOCTYPE svg PUBLIC "-//W3C//DTD SVG 1.1//EN" "http://www.w3.org/Graphics/SVG/1.1/DTD/svg11.dtd">
<!-- Creator: CorelDRAW X7 -->
<svg xmlns="http://www.w3.org/2000/svg" xml:space="preserve" width="103px" height="72px" version="1.1" style="shape-rendering:geometricPrecision; text-rendering:geometricPrecision; image-rendering:optimizeQuality; fill-rule:evenodd; clip-rule:evenodd"
viewBox="0 0 10314 7177"
 xmlns:xlink="http://www.w3.org/1999/xlink">
 <defs>
  <style type="text/css">
   <![CDATA[
    .fil1 {fill:#434242}
    .fil0 {fill:#D68D54}
    .fil3 {fill:#434242;fill-rule:nonzero}
    .fil2 {fill:#D68D54;fill-rule:nonzero}
   ]]>
  </style>
 </defs>
 <g id="Layer_x0020_1">
  <metadata id="CorelCorpID_0Corel-Layer"/>
  <path class="fil0" d="M4623 50c-107,22 -211,52 -312,88 166,55 327,64 500,88 74,-53 141,-76 214,-105l306 -120c-252,-2 -463,-8 -708,49zm-1046 512c-1046,892 -1247,2632 107,3651 531,400 1118,557 1664,517 -138,-86 -178,-140 -266,-278 -387,-32 -787,-190 -1172,-506 -44,-36 -87,-75 -133,-112 -751,-602 -802,-1535 -424,-2269 91,-176 209,-336 346,-482 16,-18 8,-9 25,-26 -40,-176 -78,-329 -147,-495zm3150 3544c385,-386 630,-931 630,-1588 -111,515 -362,971 -699,1312 10,113 34,173 69,276z"/>
  <path class="fil1" d="M5556 318c-344,146 -425,277 -538,603 -119,-83 -289,-193 -410,-258 -324,-173 -625,-381 -947,-554 150,13 253,26 355,57 189,58 316,99 480,124 159,24 318,21 477,14 200,-10 383,-2 583,14z"/>
  <path class="fil1" d="M4893 1098c-104,14 -155,-4 -241,-51 -115,-63 -197,-133 -301,-187 -200,-104 -409,-164 -616,-278 45,121 87,225 106,333 32,194 52,338 98,476 82,244 176,393 336,451 263,96 553,-36 760,-190 -219,34 -340,70 -491,36 -173,-39 -262,-120 -314,-247 -74,-176 -42,-256 80,-275 96,-15 205,14 315,42 164,43 201,51 310,-21 99,-65 46,-101 -42,-89z"/>
  <path class="fil1" d="M6652 806c-70,-81 -137,-150 -209,-215 -202,-185 -375,-274 -664,-209 -156,35 -267,93 -352,183 -108,113 -166,233 -178,365 -17,191 38,321 136,431 197,222 483,348 766,445 310,106 598,136 911,150 446,19 911,-290 1295,-480 -209,49 -416,95 -625,138 -170,35 -314,53 -462,59 -164,6 -310,-3 -450,-28 -134,-24 -264,-63 -401,-117 -112,-44 -180,-98 -231,-175 -59,-90 -95,-164 -60,-221 58,-97 154,-52 240,-31 -67,-82 -115,-106 -211,-153 -47,-24 197,-102 253,-96 -104,-97 -237,-101 -379,-103 0,0 2,-20 18,-30 231,-141 457,13 603,87z"/>
  <path class="fil1" d="M6979 1560c71,14 179,19 172,-31 -3,-12 -5,-25 -8,-37 -64,-305 -171,-565 -401,-778 158,321 265,485 237,846z"/>
  <path class="fil1" d="M6860 1545c14,-198 6,-412 -176,-541 -35,-24 -72,-41 -103,-28 -61,26 -44,78 -15,127 87,151 205,279 294,442z"/>
  <path class="fil1" d="M5859 2686c26,-104 54,-199 92,-299 52,-142 56,-217 -12,-282 -103,-100 -245,-158 -365,-252 -53,-41 -104,-86 -157,-128 154,250 295,443 358,729 19,84 41,165 84,232z"/>
  <path class="fil1" d="M7230 2030c-149,89 -237,92 -369,-21 31,101 58,187 66,292 -70,12 -131,-100 -174,-147 12,147 64,359 -19,489 -57,-92 -90,-161 -167,-241 14,157 11,286 -6,427 -15,120 -49,222 -89,331 -50,134 -63,260 -69,394 -6,118 16,196 54,278 105,226 89,353 44,589 -137,56 -388,157 -511,-51 -52,-88 32,-171 135,-135 58,20 60,55 78,108 111,13 212,-74 166,-194 -15,-39 -51,-72 -99,-102 -58,-36 -119,-52 -201,-39 -174,27 -296,215 -177,366 37,47 72,81 133,115 146,82 273,89 472,52 107,-30 215,-60 322,-89 -74,-116 -160,-222 -198,-354 -28,-96 -54,-190 -59,-292 -4,-94 -4,-177 30,-276 27,-77 56,-149 105,-222 113,-169 212,-338 329,-504 100,-141 158,-263 195,-408 35,-139 30,-227 9,-366z"/>
  <path class="fil1" d="M7357 2060c5,140 12,205 -46,330 519,-128 927,-301 1340,-636 -440,172 -821,275 -1294,306z"/>
  <path class="fil1" d="M6115 4647c42,-17 39,-49 -2,-69 -21,-10 -41,-13 -62,-14 -33,-2 -49,-4 -80,-18 -38,-18 -69,-35 -96,-56 -66,-53 -107,-115 -137,-192 -53,-136 -115,-244 -220,-352 -23,-33 -46,-66 -69,-99 -12,-24 -23,-51 -34,-78 -49,-118 -101,-251 -227,-246 -58,2 -100,11 -126,44 -105,134 35,239 146,301 86,49 149,74 218,124 23,16 46,36 71,60 53,75 105,149 154,227 51,90 100,173 179,244 31,28 67,53 114,78 31,16 65,35 98,47 21,9 42,10 73,-1z"/>
  <path class="fil1" d="M4414 2224c-360,202 -457,617 -199,944 113,144 272,248 412,364 125,104 188,189 291,346 68,105 117,206 179,323 56,107 122,208 209,301 49,51 101,97 168,135 52,29 107,47 175,36 73,-12 102,-56 46,-69 -13,-2 -31,-4 -53,-2 -51,-6 -90,-18 -126,-35 -102,-48 -154,-105 -206,-182 -64,-95 -123,-196 -181,-296 -61,-104 -120,-207 -178,-312 -126,-227 -290,-401 -309,-675 -7,-105 -4,-193 52,-281 -105,73 -153,97 -204,213 -151,-308 -112,-478 -76,-810z"/>
  <path class="fil1" d="M5616 2267c-30,-38 -71,-73 -115,-50 -76,39 -71,99 -48,154 23,58 47,81 88,105 73,42 125,8 121,-71 -3,-52 -8,-90 -46,-138z"/>
  <g id="_190410475984">
   <path class="fil2" d="M414 6634c40,0 72,-3 98,-10 25,-6 46,-15 61,-27 16,-11 27,-24 33,-40 5,-15 8,-32 8,-52 0,-40 -19,-74 -57,-100 -38,-27 -103,-56 -196,-87 -41,-14 -81,-31 -122,-49 -40,-19 -76,-42 -109,-70 -32,-28 -58,-62 -78,-102 -20,-40 -31,-88 -31,-145 0,-57 11,-109 33,-155 21,-46 51,-85 91,-117 39,-32 87,-57 143,-74 56,-17 119,-26 189,-26 83,0 155,9 216,27 61,18 111,38 150,59l-80 220c-35,-18 -73,-34 -116,-48 -42,-13 -93,-20 -152,-20 -67,0 -115,9 -144,27 -29,19 -44,47 -44,85 0,23 6,42 16,57 11,16 26,30 46,42 20,13 42,24 68,34 25,11 54,21 85,32 64,23 120,47 167,70 48,23 88,51 119,81 32,31 55,68 71,109 15,42 23,93 23,152 0,116 -40,205 -121,269 -81,64 -203,96 -367,96 -54,0 -104,-4 -148,-10 -44,-7 -83,-15 -117,-24 -34,-10 -63,-20 -87,-31 -25,-10 -45,-20 -62,-30l79 -222c37,21 82,39 136,55 54,16 121,24 199,24zm1286 -250c0,-82 -18,-148 -55,-197 -37,-50 -92,-74 -164,-74 -24,0 -46,0 -66,2 -21,2 -37,4 -50,6l0 481c16,11 38,20 65,27 27,7 54,10 81,10 126,0 189,-85 189,-255zm272 -7c0,73 -9,139 -27,198 -18,60 -44,111 -78,154 -35,43 -78,76 -129,100 -51,24 -110,36 -177,36 -37,0 -71,-4 -103,-11 -33,-7 -64,-17 -93,-31l0 354 -266 0 0 -1238c23,-7 51,-14 82,-20 31,-7 63,-12 97,-17 34,-5 68,-9 104,-12 35,-3 68,-4 101,-4 77,0 146,11 207,35 60,23 112,55 153,98 42,42 74,94 96,154 22,61 33,129 33,204zm161 7c0,-83 13,-156 38,-219 26,-62 59,-114 101,-156 42,-42 90,-73 144,-95 54,-21 110,-32 167,-32 133,0 239,41 316,122 77,82 116,202 116,360 0,16 0,33 -2,51 -1,19 -2,35 -3,49l-604 0c6,55 32,99 77,131 45,32 106,48 182,48 49,0 97,-4 144,-13 47,-9 85,-20 115,-33l36 216c-15,7 -34,14 -57,21 -24,7 -51,14 -80,19 -29,5 -60,10 -94,13 -33,4 -66,6 -100,6 -84,0 -158,-13 -220,-38 -63,-25 -115,-59 -156,-103 -41,-43 -71,-95 -91,-154 -19,-60 -29,-124 -29,-193zm625 -102c-1,-22 -5,-44 -12,-66 -6,-21 -16,-40 -30,-57 -14,-17 -31,-30 -52,-41 -21,-11 -47,-16 -78,-16 -29,0 -55,5 -76,15 -22,10 -40,24 -54,40 -14,17 -25,36 -33,58 -8,22 -13,45 -17,67l352 0zm418 95c0,-68 11,-132 33,-192 22,-60 54,-113 95,-157 42,-45 93,-80 152,-107 60,-26 128,-39 204,-39 50,0 96,5 137,13 42,9 83,22 122,39l-55 212c-25,-9 -53,-17 -83,-25 -29,-7 -63,-10 -100,-10 -78,0 -137,24 -176,73 -38,49 -58,113 -58,193 0,84 19,150 55,196 36,47 100,70 190,70 32,0 67,-3 104,-9 37,-6 71,-15 101,-28l38 217c-31,14 -70,25 -116,34 -47,10 -98,15 -154,15 -85,0 -159,-13 -221,-39 -62,-25 -113,-60 -153,-104 -40,-44 -69,-96 -87,-157 -19,-60 -28,-125 -28,-195zm929 -704l266 -43 0 277 320 0 0 222 -320 0 0 330c0,56 10,101 29,134 20,33 60,50 119,50 29,0 58,-3 89,-8 30,-5 58,-13 83,-22l37 207c-32,13 -68,24 -107,34 -39,9 -88,14 -145,14 -72,0 -133,-10 -180,-29 -48,-20 -86,-47 -114,-83 -29,-35 -49,-77 -60,-127 -12,-50 -17,-106 -17,-166l0 -790zm1368 470c-24,-6 -52,-12 -84,-19 -32,-6 -67,-10 -104,-10 -16,0 -36,2 -59,5 -24,3 -41,6 -53,10l0 718 -266 0 0 -890c47,-17 104,-32 168,-47 65,-15 138,-23 218,-23 14,0 31,1 51,3 21,2 41,4 61,7 20,3 41,7 61,11 20,4 37,9 52,15l-45 220zm1066 232c0,74 -10,142 -32,203 -21,61 -52,114 -93,157 -40,43 -89,77 -145,101 -57,24 -120,36 -191,36 -69,0 -131,-12 -188,-36 -57,-24 -105,-58 -146,-101 -40,-43 -72,-96 -94,-157 -23,-61 -34,-129 -34,-203 0,-74 11,-141 35,-202 23,-60 55,-112 96,-155 41,-43 90,-76 147,-100 56,-24 118,-36 184,-36 68,0 131,12 187,36 57,24 105,57 146,100 40,43 72,95 94,155 23,61 34,128 34,202zm-271 0c0,-82 -17,-147 -49,-194 -33,-47 -80,-70 -141,-70 -60,0 -107,23 -141,70 -33,47 -50,112 -50,194 0,82 17,147 50,196 34,48 81,72 141,72 61,0 108,-24 141,-72 32,-49 49,-114 49,-196z"/>
   <path class="fil3" d="M7327 6872c-201,0 -355,-56 -460,-168 -105,-112 -158,-271 -158,-477 0,-103 16,-194 48,-274 32,-81 76,-149 132,-204 56,-55 123,-97 200,-126 78,-28 162,-43 252,-43 53,0 100,4 143,12 43,8 81,17 113,27 32,10 59,20 80,31 22,11 37,19 47,25l-81 225c-38,-20 -82,-38 -133,-52 -51,-14 -108,-21 -172,-21 -43,0 -85,7 -126,21 -41,14 -78,37 -109,69 -32,31 -57,72 -76,122 -19,50 -29,111 -29,182 0,58 7,111 19,160 13,50 33,92 61,128 28,36 64,64 110,85 45,21 100,31 164,31 41,0 77,-2 109,-7 32,-5 61,-10 86,-17 25,-7 47,-14 66,-22 19,-9 36,-16 52,-24l76 224c-39,24 -94,45 -166,64 -71,19 -154,29 -248,29zm1454 -497c0,74 -11,142 -32,203 -22,61 -53,114 -93,157 -41,43 -89,77 -146,101 -56,24 -120,36 -190,36 -69,0 -132,-12 -188,-36 -57,-24 -105,-58 -146,-101 -40,-43 -72,-96 -95,-157 -22,-61 -33,-129 -33,-203 0,-74 11,-141 34,-202 24,-60 56,-112 97,-155 41,-43 90,-76 146,-100 57,-24 118,-36 185,-36 68,0 130,12 187,36 56,24 105,57 145,100 41,43 72,95 95,155 23,61 34,128 34,202zm-272 0c0,-82 -16,-147 -49,-194 -32,-47 -79,-70 -140,-70 -61,0 -108,23 -141,70 -33,47 -50,112 -50,194 0,82 17,147 50,196 33,48 80,72 141,72 61,0 108,-24 140,-72 33,-49 49,-114 49,-196zm744 472l-267 0 0 -940 267 0 0 940zm25 -1211c0,48 -16,87 -48,115 -31,28 -69,42 -111,42 -43,0 -81,-14 -112,-42 -32,-28 -47,-67 -47,-115 0,-49 15,-88 47,-116 31,-28 69,-42 112,-42 42,0 80,14 111,42 32,28 48,67 48,116zm225 303c45,-13 103,-25 175,-36 71,-12 146,-17 225,-17 79,0 146,10 199,31 53,21 95,50 126,88 31,38 53,84 66,136 13,52 20,111 20,175l0 531 -267 0 0 -499c0,-85 -11,-146 -34,-182 -22,-36 -64,-53 -126,-53 -19,0 -40,0 -61,2 -22,2 -41,4 -57,6l0 726 -266 0 0 -908z"/>
  </g>
 </g>
</svg>
