<?xml version="1.0" encoding="utf-8"?>
<!-- Generator: Adobe Illustrator 19.0.0, SVG Export Plug-In . SVG Version: 6.00 Build 0)  -->
<svg version="1.1" id="Layer_1" xmlns="http://www.w3.org/2000/svg" xmlns:xlink="http://www.w3.org/1999/xlink" x="0px" y="0px"
	 viewBox="0 0 648 216" style="enable-background:new 0 0 648 216;" xml:space="preserve">
<style type="text/css">
	.st0{fill:#EAEAE9;}
	.st1{fill:#DEE2E1;}
	.st2{fill:#E5DEE1;}
	.st3{fill:#2B2C2B;}
	.st4{fill:#F7D16E;}
	.st5{fill:url(#XMLID_23_);}
	.st6{fill:url(#XMLID_25_);}
	.st7{fill:url(#XMLID_26_);}
	.st8{fill:#9DD6E3;}
	.st9{fill:#4AAEBF;}
	.st10{fill:#A5D5E0;}
	.st11{fill:#DEE1E3;}
	.st12{opacity:0.4;fill:#EB4D11;}
	.st13{fill:#B3D7C5;}
	.st14{opacity:0.4;fill:#FE8618;}
	.st15{fill:#D7D2B9;}
	.st16{fill:#E7E4DB;}
	.st17{opacity:0.4;fill:#BEC1BB;}
	.st18{opacity:0.3;fill:#BEC1BB;}
	.st19{opacity:0.3;fill:#E59215;}
</style>
<polygon id="XMLID_13_" class="st0" points="648,216 648,0 0,0 0,216 513.4,216 "/>
<path id="XMLID_42_" class="st1" d="M35.8,110.2V51.5c0-4.8-3.4-10.8-7.6-13.2L0,22v117.7l28.2-16.3C32.4,121,35.8,115,35.8,110.2z"
	/>
<path id="XMLID_43_" class="st2" d="M72.9,173c0-3.3-2.4-7.4-5.2-9.1l-35-20.2c-2.9-1.7-7.6-1.7-10.5,0L0,156.5V216h72.5
	c0.3-0.9,0.4-1.8,0.4-2.6V173z"/>
<path id="XMLID_45_" class="st0" d="M585.4,81.4L585.4,81.4l0,59c2.4,0.2,4.8,0.8,6.6,1.9l54.3,31.3c0.6,0.3,1.2,0.7,1.7,1.2V32.9
	l-51.9,30C590.2,66.2,585.4,74.6,585.4,81.4z"/>
<g id="XMLID_47_">
	<polygon id="XMLID_120_" class="st3" points="136.5,182.7 133.4,182.7 140.4,166 143.7,166 150.9,182.7 147.6,182.7 145.7,178.1 
		140.2,178.1 141.3,175.4 144.6,175.4 142,169.2 	"/>
	<path id="XMLID_121_" class="st3" d="M153,182.7V166h7.4c3.4,0,5.1,1.6,5.1,4.7c0,3.4-2.3,5.5-7,6.2l-0.4-2.8
		c2.8-0.5,4.2-1.6,4.2-3.3c0-1.4-0.7-2.1-2.1-2.1h-4.2v14H153z"/>
	<rect id="XMLID_122_" x="167.6" y="166" class="st3" width="3.1" height="16.8"/>
	<path id="XMLID_123_" class="st3" d="M173.8,182.1v-2.6c1.4,0.5,2.9,0.8,4.7,0.8c1.3,0,2-0.4,2-1.3c0-0.8-0.4-1.2-1.3-1.2H177
		c-2.5,0-3.7-1.2-3.7-3.7c0-2.6,1.8-3.9,5.4-3.9c1.5,0,3,0.2,4.3,0.7v2.6c-1.4-0.5-2.8-0.8-4.4-0.8c-1.7,0-2.5,0.4-2.5,1.3
		c0,0.8,0.5,1.2,1.5,1.2h2c2.7,0,4.1,1.2,4.1,3.7c0,2.6-1.7,3.9-5.2,3.9C176.7,182.8,175.2,182.6,173.8,182.1z"/>
	<rect id="XMLID_124_" x="185.5" y="179.8" class="st3" width="3.1" height="2.9"/>
	<path id="XMLID_127_" class="st3" d="M202.1,181.8c0,3.6-2.1,5.4-6.4,5.4c-1.5,0-2.8-0.2-4-0.6v-2.5c1.2,0.4,2.5,0.6,4,0.6
		c2.2,0,3.3-0.9,3.3-2.8c-0.9,0.4-1.9,0.6-3,0.6c-3.6,0-5.4-2-5.4-6c0-4.1,2.1-6.1,6.3-6.1c1.4,0,3.1,0.2,5.1,0.5V181.8z M199,173.2
		c-0.5-0.2-1.2-0.3-2.2-0.3c-2.1,0-3.2,1.2-3.2,3.5c0,2.3,0.9,3.4,2.8,3.4c0.9,0,1.7-0.2,2.6-0.6V173.2z"/>
	<path id="XMLID_128_" class="st3" d="M216,170.4v12.3h-2.4l-0.4-1.6c-1.4,1-2.9,1.6-4.5,1.6c-2.5,0-3.7-1.5-3.7-4.5v-7.8h3.1v7.8
		c0,1.4,0.6,2,1.8,2c1,0,2-0.4,3.1-1.2v-8.6H216z"/>
	<path id="XMLID_129_" class="st3" d="M218.9,182.7v-12.3h2.4l0.4,1.6c1.1-1,2.2-1.6,3.4-1.6v2.5c-1.1,0-2.2,0.5-3.1,1.4v8.4H218.9z
		"/>
	<path id="XMLID_130_" class="st3" d="M237.8,170.4v12.3h-2.4l-0.4-1.6c-1.4,1-2.9,1.6-4.5,1.6c-2.5,0-3.7-1.5-3.7-4.5v-7.8h3.1v7.8
		c0,1.4,0.6,2,1.8,2c1,0,2-0.4,3.1-1.2v-8.6H237.8z"/>
	<rect id="XMLID_131_" x="245.6" y="175.3" class="st3" width="5.8" height="2.5"/>
	<polygon id="XMLID_132_" class="st3" points="258.3,166 261.4,166 263.2,178 267.5,166 270.5,166 274.5,177.5 276.4,166 279.4,166 
		276.3,182.7 273.4,182.7 268.8,169.6 263.9,182.7 261,182.7 	"/>
	<path id="XMLID_135_" class="st3" d="M284.4,166v2.5h-3.1V166H284.4z M284.4,170.4v12.3h-3.1v-12.3H284.4z"/>
	<path id="XMLID_136_" class="st3" d="M287.3,182.7V166h3.1v5.4c1.3-0.6,2.6-1,4-1c3.1,0,4.7,1.2,4.7,3.5c0,1.7-1.1,3.1-3.3,4
		l3.8,4.7h-3.8l-3.2-4.4v-1.4c2.2-0.5,3.3-1.3,3.3-2.3c0-1.1-0.7-1.7-2.2-1.7c-1,0-2.2,0.3-3.4,1v8.9H287.3z"/>
	<path id="XMLID_139_" class="st3" d="M304.4,166v2.5h-3.1V166H304.4z M304.4,170.4v12.3h-3.1v-12.3H304.4z"/>
	<path id="XMLID_142_" class="st3" d="M307.3,170.9c1.6-0.3,3.3-0.5,5.1-0.5c4.1,0,6.2,1.9,6.2,5.8c0,4.3-1.9,6.5-5.8,6.5
		c-0.8,0-1.7-0.2-2.5-0.6v5h-3.1V170.9z M310.4,179.5c0.8,0.4,1.6,0.6,2.5,0.6c1.8,0,2.8-1.3,2.8-3.9c0-2.2-1-3.3-3-3.3
		c-0.9,0-1.6,0.1-2.2,0.2V179.5z"/>
	<path id="XMLID_145_" class="st3" d="M326.2,170.4c3.7,0,5.6,1.9,5.6,5.7c0,0.5,0,1-0.1,1.5h-8.1c0,1.7,1.3,2.6,3.8,2.6
		c1.2,0,2.5-0.1,3.7-0.4v2.5c-1.1,0.2-2.4,0.4-3.9,0.4c-4.4,0-6.6-2.1-6.6-6.3C320.4,172.4,322.3,170.4,326.2,170.4z M323.5,175.5
		h5.2v-0.1c0-1.7-0.9-2.6-2.6-2.6C324.5,172.8,323.7,173.7,323.5,175.5z"/>
	<path id="XMLID_148_" class="st3" d="M344.9,182c-1.9,0.5-3.7,0.7-5.5,0.7c-3.9,0-5.9-2.1-5.9-6.4c0-3.9,1.9-5.9,5.8-5.9
		c0.8,0,1.7,0.2,2.5,0.6v-5h3.1V182z M341.8,173.6c-0.6-0.4-1.4-0.6-2.4-0.6c-1.9,0-2.9,1.1-2.9,3.2c0,2.6,1,3.9,3,3.9
		c0.8,0,1.6-0.1,2.3-0.3V173.6z"/>
	<path id="XMLID_151_" class="st3" d="M350.9,166v2.5h-3.1V166H350.9z M350.9,170.4v12.3h-3.1v-12.3H350.9z"/>
	<path id="XMLID_154_" class="st3" d="M353.2,178.9c0-2.4,1.8-3.7,5.3-3.7c0.8,0,1.7,0.1,2.5,0.2v-0.9c0-1.1-0.8-1.7-2.4-1.7
		c-1.3,0-2.8,0.2-4.4,0.6V171c1.6-0.4,3.1-0.6,4.4-0.6c3.6,0,5.4,1.4,5.4,4.1v8.2h-1.8l-1.1-1.1c-1.1,0.7-2.2,1.1-3.5,1.1
		C354.7,182.7,353.2,181.4,353.2,178.9z M358.5,177.3c-1.5,0-2.2,0.5-2.2,1.5c0,1.1,0.6,1.6,1.9,1.6c1,0,2-0.3,2.9-1v-2
		C360.2,177.4,359.4,177.3,358.5,177.3z"/>
	<path id="XMLID_155_" class="st3" d="M372.2,182.7v-12.3c0-3.4,1.8-5.1,5.5-5.1c1,0,1.9,0.2,2.7,0.5v2.5c-0.8-0.3-1.6-0.5-2.5-0.5
		c-1.8,0-2.6,0.9-2.6,2.6h3.7v2.5h-3.7v9.8H372.2z"/>
	<path id="XMLID_158_" class="st3" d="M379.4,176.6c0-4.1,2-6.2,6-6.2s6,2.1,6,6.2c0,4.1-2,6.2-6,6.2
		C381.5,182.7,379.5,180.7,379.4,176.6z M385.5,180.4c2,0,3-1.3,3-3.9c0-2.5-1-3.8-3-3.8c-2,0-3,1.3-3,3.8
		C382.5,179.1,383.5,180.4,385.5,180.4z"/>
	<path id="XMLID_159_" class="st3" d="M393.9,182.7v-12.3h2.4l0.4,1.6c1.1-1,2.2-1.6,3.4-1.6v2.5c-1.1,0-2.2,0.5-3.1,1.4v8.4H393.9z
		"/>
	<polygon id="XMLID_160_" class="st3" points="406,166 409.1,166 410.9,178 415.2,166 418.2,166 422.2,177.5 424.1,166 427.1,166 
		424,182.7 421.1,182.7 416.5,169.6 411.6,182.7 408.7,182.7 	"/>
	<path id="XMLID_163_" class="st3" d="M434.2,170.4c3.7,0,5.6,1.9,5.6,5.7c0,0.5,0,1-0.1,1.5h-8.1c0,1.7,1.3,2.6,3.8,2.6
		c1.2,0,2.5-0.1,3.7-0.4v2.5c-1.1,0.2-2.4,0.4-3.9,0.4c-4.4,0-6.6-2.1-6.6-6.3C428.4,172.4,430.3,170.4,434.2,170.4z M431.5,175.5
		h5.2v-0.1c0-1.7-0.9-2.6-2.6-2.6C432.5,172.8,431.6,173.7,431.5,175.5z"/>
	<path id="XMLID_166_" class="st3" d="M442,166h3.1v5.4c0.9-0.6,2-0.9,3.1-0.9c3.5,0,5.2,2,5.2,5.9c0,4.3-2,6.4-6,6.4
		c-1.7,0-3.5-0.2-5.4-0.5V166z M445.1,179.9c0.7,0.2,1.5,0.3,2.5,0.3c1.9,0,2.8-1.3,2.8-4c0-2.2-0.8-3.2-2.4-3.2c-1,0-2,0.2-2.8,0.6
		V179.9z"/>
	<polygon id="XMLID_167_" class="st3" points="463,182.7 459.8,182.7 466.9,166 470.2,166 477.4,182.7 474.1,182.7 472.2,178.1 
		466.7,178.1 467.7,175.4 471.1,175.4 468.5,169.2 	"/>
	<path id="XMLID_168_" class="st3" d="M479.4,182.7V166h7.4c3.4,0,5.1,1.6,5.1,4.7c0,3.4-2.3,5.5-7,6.2l-0.4-2.8
		c2.8-0.5,4.2-1.6,4.2-3.3c0-1.4-0.7-2.1-2.1-2.1h-4.2v14H479.4z"/>
	<rect id="XMLID_169_" x="494" y="166" class="st3" width="3.1" height="16.8"/>
	<path id="XMLID_170_" class="st3" d="M500.3,182.1v-2.6c1.4,0.5,2.9,0.8,4.7,0.8c1.3,0,2-0.4,2-1.3c0-0.8-0.4-1.2-1.3-1.2h-2.2
		c-2.5,0-3.7-1.2-3.7-3.7c0-2.6,1.8-3.9,5.4-3.9c1.5,0,3,0.2,4.3,0.7v2.6c-1.4-0.5-2.8-0.8-4.4-0.8c-1.7,0-2.5,0.4-2.5,1.3
		c0,0.8,0.5,1.2,1.5,1.2h2c2.7,0,4.1,1.2,4.1,3.7c0,2.6-1.7,3.9-5.2,3.9C503.2,182.8,501.7,182.6,500.3,182.1z"/>
</g>
<g id="XMLID_1_">
	<path id="XMLID_2_" class="st4" d="M316.7,64.3v5.5l4.2-2.5c0.6-0.4,1.5-0.5,2.4-0.5v-24c1.5,0,3,0.3,4.2,1l7,4c0,0,0,0,0,0l-7-4
		c-2.3-1.3-6-1.3-8.3,0l-6.9,4c1.7,1.9,3.3,4.1,4.7,6.7c-1.3-1.9-4.2-3.5-7.7-5l-7,4l12.4,7.2C315.8,61.4,316.7,63,316.7,64.3z"/>
	
		<rect id="XMLID_58_" x="336.8" y="51.5" transform="matrix(0.866 0.5 -0.5 0.866 71.3707 -163.4346)" class="st4" width="7.7" height="0"/>
	<path id="XMLID_59_" class="st4" d="M356.7,108.9l-26.3,15.2h0L356.7,108.9c1.7-1,3.2-3.1,3.8-5.1
		C359.9,105.8,358.4,107.9,356.7,108.9z"/>
	<path id="XMLID_60_" class="st4" d="M308.8,110.1l1.7-2.9c3.9,1.8,8.3,2.8,12.8,2.8V98.6h-4.6c-1.3,0-1.6-0.7-0.6-1.5l3.3-2.8
		c0.5-0.4,1.2-0.6,1.8-0.6V71.2c-0.8,0-1.7,0.1-2.4,0.5l-4.2,2.5v10.5c0,1.3-0.9,2.9-2.1,3.6L297,98.5c-1.1,0.7-3,0.7-4.2,0
		l-7.1-4.1v7.4c0,2.6,1.9,5.9,4.2,7.2L316,124l5.3-3.1c0.5-0.3,1.3-0.4,2-0.4v-7.1C318.1,113.3,313.3,112.2,308.8,110.1z"/>
	<path id="XMLID_62_" class="st3" d="M360.8,101.7L360.8,101.7c0,0.7-0.1,1.4-0.3,2.1C360.7,103.1,360.8,102.4,360.8,101.7z"/>
	
		<linearGradient id="XMLID_23_" gradientUnits="userSpaceOnUse" x1="361.6389" y1="692.724" x2="306.4481" y2="692.724" gradientTransform="matrix(1 0 0 1 0 -590)">
		<stop  offset="0" style="stop-color:#F7C016"/>
		<stop  offset="1" style="stop-color:#F39924"/>
	</linearGradient>
	<path id="XMLID_61_" class="st5" d="M360.8,101.7L360.8,101.7c0,0.7-0.1,1.4-0.3,2.1C360.7,103.1,360.8,102.4,360.8,101.7z"/>
	<path id="XMLID_64_" class="st4" d="M349,98.5l-17.6-10.2c-1.1-0.7-2.1-2.3-2.1-3.6V74l-4-2.3c-0.6-0.3-1.3-0.5-2-0.5v22.5
		c0.7,0,1.3,0.2,1.8,0.6l3.3,2.8c1,0.8,0.8,1.5-0.6,1.5h-4.6v11.5c0.3,0,0.6,0,0.9,0c4.3-0.1,8.3-0.9,12.1-2.5l1.5,2.9
		c-4.3,2-8.4,2.8-13.5,2.8c-0.3,0-0.7,0-1,0v7.1c0.6,0,1.1,0.2,1.6,0.4l5.5,3.2l26.3-15.2c1.7-1,3.2-3.1,3.8-5.1
		c0.2-0.7,0.3-1.4,0.3-2.1V94l-7.7,4.5C352,99.1,350.1,99.1,349,98.5z"/>
	
		<linearGradient id="XMLID_25_" gradientUnits="userSpaceOnUse" x1="361.6389" y1="687.6259" x2="306.4481" y2="687.6259" gradientTransform="matrix(1 0 0 1 0 -590)">
		<stop  offset="0" style="stop-color:#F7C016"/>
		<stop  offset="1" style="stop-color:#F39924"/>
	</linearGradient>
	<path id="XMLID_63_" class="st6" d="M349,98.5l-17.6-10.2c-1.1-0.7-2.1-2.3-2.1-3.6V74l-4-2.3c-0.6-0.3-1.3-0.5-2-0.5v22.5
		c0.7,0,1.3,0.2,1.8,0.6l3.3,2.8c1,0.8,0.8,1.5-0.6,1.5h-4.6v11.5c0.3,0,0.6,0,0.9,0c4.3-0.1,8.3-0.9,12.1-2.5l1.5,2.9
		c-4.3,2-8.4,2.8-13.5,2.8c-0.3,0-0.7,0-1,0v7.1c0.6,0,1.1,0.2,1.6,0.4l5.5,3.2l26.3-15.2c1.7-1,3.2-3.1,3.8-5.1
		c0.2-0.7,0.3-1.4,0.3-2.1V94l-7.7,4.5C352,99.1,350.1,99.1,349,98.5z"/>
	<path id="XMLID_66_" class="st4" d="M323.3,42.8v24c0.7,0,1.5,0.2,2,0.5l4,2.3v-5.4c0-1.3,0.9-2.9,2.1-3.6l12.7-7.3l-6.7-3.9
		c-3.5,1.4-6.4,3.1-7.7,5c1.5-2.6,3.1-4.8,4.7-6.7l-7-4C326.3,43.2,324.8,42.8,323.3,42.8z"/>
	
		<linearGradient id="XMLID_26_" gradientUnits="userSpaceOnUse" x1="361.6389" y1="646.2664" x2="306.4481" y2="646.2664" gradientTransform="matrix(1 0 0 1 0 -590)">
		<stop  offset="0" style="stop-color:#F7C016"/>
		<stop  offset="1" style="stop-color:#F39924"/>
	</linearGradient>
	<path id="XMLID_65_" class="st7" d="M323.3,42.8v24c0.7,0,1.5,0.2,2,0.5l4,2.3v-5.4c0-1.3,0.9-2.9,2.1-3.6l12.7-7.3l-6.7-3.9
		c-3.5,1.4-6.4,3.1-7.7,5c1.5-2.6,3.1-4.8,4.7-6.7l-7-4C326.3,43.2,324.8,42.8,323.3,42.8z"/>
	<path id="XMLID_67_" class="st8" d="M276.9,66.7c0-1.2,0.7-2.7,1.7-3.6c-1,0.8-1.7,2.2-1.7,3.3h0v16c0,1,0.6,2.2,1.4,3
		c-0.8-0.9-1.3-2.1-1.3-3.2V66.7z"/>
	<path id="XMLID_70_" class="st8" d="M292.9,94.1c1.1,0.7,3,0.7,4.2,0l13.9-8c1.1-0.7,2.1-2.3,2.1-3.6v-16c0-0.1,0-0.2,0-0.3
		l-13.3-7.7c-1.3-0.7-3.3-0.7-4.6,0l-13.4,7.8c-1.3,0.7-2.3,2.5-2.3,4v15.6c0,0.1,0,0.3,0,0.4L292.9,94.1z M289.9,69.3l4.2,4.9v-6.5
		c3.6,0,6.5,2.9,6.5,6.5c0,3.6-2.9,6.5-6.5,6.5c-3.6,0-6.5-2.9-6.5-6.5C287.6,72.3,288.5,70.5,289.9,69.3z"/>
	<path id="XMLID_71_" class="st8" d="M311.6,63.5c0.7,0.7,1.2,1.7,1.3,2.7C312.8,65.2,312.3,64.2,311.6,63.5z"/>
	<path id="XMLID_72_" class="st9" d="M279.3,70.3c0-1.5,1-3.3,2.3-4l13.4-7.8c1.3-0.7,3.3-0.7,4.6,0l13.3,7.7l0,0c0,0,0,0,0,0
		c-0.1-0.9-0.6-1.9-1.3-2.7c-0.3-0.3-0.6-0.6-0.9-0.8l-13.4-7.8c-1.3-0.7-3.3-0.7-4.6,0l-13.4,7.8c-0.2,0.1-0.4,0.3-0.6,0.5
		c-1,0.9-1.7,2.3-1.7,3.6v15.6c0,1.1,0.6,2.3,1.3,3.2c0.3,0.3,0.6,0.6,1,0.8l0.1,0.1c0,0,0-0.1,0-0.1c0-0.1,0-0.3,0-0.4V70.3z"/>
	<path id="XMLID_75_" class="st3" d="M370.8,60.7l-17.6-10.2c-1.1-0.7-3-0.7-4.2,0l-1.1,0.6l-5.8-3.4c8.2-2.7,17.3-4.2,17.3-4.2
		s-2.3-8.3-3.2-8c-0.7,0.2-10.1,1-19,9.4l-9.7-5.6c-2.3-1.3-6-1.3-8.3,0l-9.7,5.6c-8.9-8.4-18.3-9.2-19-9.4c-0.9-0.3-3.2,8-3.2,8
		s9,1.5,17.2,4.2l-6.1,3.5l-1.4-0.8c-1.1-0.7-3-0.7-4.2,0l-17.6,10.2c-1.1,0.7-2.1,2.3-2.1,3.6v20.4c0,1.3,0.9,2.9,2.1,3.6l6.6,3.8
		v11.9c0,2.6,1.9,5.9,4.2,7.2l30.2,17.4l7.3,13l7.6-13.4l29.5-17c2.3-1.3,4.2-4.6,4.2-7.2V91.8l6-3.5c1.1-0.7,2.1-2.3,2.1-3.6V64.3
		C372.8,63,371.9,61.4,370.8,60.7z M309.2,49.5c3.5,1.4,6.4,3.1,7.7,5c-1.5-2.6-3.1-4.8-4.7-6.7l6.9-4c2.3-1.3,6-1.3,8.3,0l7,4
		c0,0,0,0,0,0c-1.6,1.9-3.2,4.1-4.7,6.7c1.3-1.9,4.2-3.5,7.7-5c0,0,0,0,0,0l6.7,3.9l0,0l-12.7,7.3c-1.1,0.7-2.1,2.3-2.1,3.6v5.4
		l-4-2.3c-0.6-0.3-1.3-0.5-2-0.5c-0.8,0-1.7,0.1-2.4,0.5l-4.2,2.5v-5.5c0-1.3-0.9-2.9-2.1-3.6l-12.4-7.2L309.2,49.5z M279.3,86.4
		L279.3,86.4c-0.4-0.3-0.8-0.5-1-0.9c-0.8-0.8-1.4-2-1.4-3v-16h0c0-1.2,0.7-2.6,1.7-3.3c0.2-0.2,0.4-0.3,0.6-0.5l13.4-7.8
		c1.3-0.7,3.3-0.7,4.6,0l13.4,7.8c0.3,0.2,0.7,0.5,0.9,0.8c0.7,0.7,1.2,1.7,1.3,2.7c0,0,0,0,0,0l0,0c0,0.1,0,0.2,0,0.3v16
		c0,1.3-0.9,2.9-2.1,3.6l-13.9,8c-1.1,0.7-3,0.7-4.2,0l-13.5-7.8C279.3,86.3,279.3,86.3,279.3,86.4z M360.8,101.7L360.8,101.7
		c0,0.7-0.1,1.4-0.3,2.1c-0.6,2.1-2.1,4.2-3.8,5.1l-26.3,15.2h0l-5.5-3.2c-0.4-0.3-1-0.4-1.6-0.4c-0.7,0-1.4,0.1-2,0.4L316,124
		l-26.1-15.1c-2.3-1.3-4.2-4.6-4.2-7.2v-7.4l7.1,4.1c1.1,0.7,3,0.7,4.2,0l17.6-10.2c1.1-0.7,2.1-2.3,2.1-3.6V74.1l4.2-2.5
		c0.6-0.4,1.5-0.5,2.4-0.5c0.7,0,1.5,0.2,2,0.5l4,2.3v10.7c0,1.3,0.9,2.9,2.1,3.6L349,98.5c1.1,0.7,3,0.7,4.2,0l7.7-4.5V101.7z
		 M369,82.5c0,1.3-0.9,2.9-2.1,3.6l-13.8,8c-1.1,0.7-3,0.7-4.2,0l-13.5-7.8c0,0,0,0,0,0l-0.1-0.1c-0.2-0.1-0.3-0.2-0.5-0.3
		c-1-0.7-1.8-2.2-1.8-3.4v-16h0c0-1.2,0.8-2.6,1.7-3.4c0.2-0.2,0.4-0.3,0.6-0.4l13.4-7.8c1.3-0.7,3.3-0.7,4.6,0l13.4,7.8
		c0.3,0.2,0.7,0.5,0.9,0.8c0.1,0.1,0.1,0.1,0.2,0.2c0,0,0,0,0,0.1c0.6,0.7,1,1.5,1.1,2.3c0,0,0,0.1,0,0.1l0,0c0,0.1,0,0.2,0,0.3
		V82.5z"/>
	<path id="XMLID_79_" class="st8" d="M368,63.8c0.5,0.7,0.9,1.5,1.1,2.3C368.9,65.3,368.5,64.4,368,63.8z"/>
	<path id="XMLID_82_" class="st8" d="M355.7,58.5c-1.3-0.7-3.3-0.7-4.6,0l-13.4,7.8c-1.3,0.7-2.3,2.5-2.3,4v15.5c0,0.2,0,0.3,0,0.5
		l13.5,7.8c1.1,0.7,3,0.7,4.2,0l13.8-8c1.1-0.7,2.1-2.3,2.1-3.6v-16c0-0.1,0-0.2,0-0.3L355.7,58.5z M351,80.7
		c-3.6,0-6.5-2.9-6.5-6.5c0-2,0.9-3.7,2.3-4.9l4.2,4.9v-6.5c3.6,0,6.5,2.9,6.5,6.5C357.5,77.8,354.6,80.7,351,80.7z"/>
	<path id="XMLID_83_" class="st8" d="M367.7,63.5c0.1,0.1,0.1,0.1,0.2,0.2C367.8,63.7,367.8,63.6,367.7,63.5z"/>
	<path id="XMLID_84_" class="st8" d="M333.1,82.2V66.7c0-1.2,0.7-2.7,1.7-3.6c-1,0.8-1.7,2.2-1.7,3.4h0v16c0,1.2,0.8,2.7,1.8,3.4
		C333.9,85.1,333.1,83.5,333.1,82.2z"/>
	<path id="XMLID_85_" class="st3" d="M318.1,97c-1,0.8-0.8,1.5,0.6,1.5h4.6h4.6c1.3,0,1.6-0.7,0.6-1.5l-3.3-2.8
		c-0.5-0.4-1.2-0.6-1.8-0.6c-0.7,0-1.3,0.2-1.8,0.6L318.1,97z"/>
	<path id="XMLID_86_" class="st3" d="M308.8,110.1c4.5,2.1,9.3,3.2,14.5,3.3c0.3,0,0.7,0,1,0c5.1-0.1,9.2-0.9,13.5-2.8l-1.5-2.9
		c-3.8,1.6-7.7,2.4-12.1,2.5c-0.3,0-0.6,0-0.9,0c-4.6-0.1-8.9-1.1-12.8-2.8L308.8,110.1z"/>
	<path id="XMLID_87_" class="st9" d="M335.4,70.3c0-1.5,1-3.3,2.3-4l13.4-7.8c1.3-0.7,3.3-0.7,4.6,0l13.3,7.7l0,0c0,0,0-0.1,0-0.1
		c-0.1-0.8-0.5-1.7-1.1-2.3c0,0,0,0,0-0.1c-0.1-0.1-0.1-0.1-0.2-0.2c-0.3-0.3-0.6-0.6-0.9-0.8L353.4,55c-1.3-0.7-3.3-0.7-4.6,0
		l-13.4,7.8c-0.2,0.1-0.4,0.3-0.6,0.4c-1,0.9-1.7,2.3-1.7,3.6v15.5c0,1.3,0.8,2.8,1.8,3.7c0.2,0.1,0.3,0.2,0.5,0.3l0.1,0.1
		c0,0,0,0,0,0c0-0.2,0-0.3,0-0.5V70.3z"/>
	<path id="XMLID_88_" class="st3" d="M294.1,80.7c3.6,0,6.5-2.9,6.5-6.5c0-3.6-2.9-6.5-6.5-6.5v6.5l-4.2-4.9c-1.4,1.2-2.3,3-2.3,4.9
		C287.6,77.8,290.5,80.7,294.1,80.7z"/>
	<path id="XMLID_89_" class="st3" d="M351,67.7v6.5l-4.2-4.9c-1.4,1.2-2.3,3-2.3,4.9c0,3.6,2.9,6.5,6.5,6.5c3.6,0,6.5-2.9,6.5-6.5
		C357.5,70.6,354.6,67.7,351,67.7z"/>
</g>
<path class="st10" d="M395.2,117.1c0-1.9,1.3-4.2,3-5.2l19.9-11.5c1.6-0.9,4.3-0.9,6,0l19.9,11.5c1.6,0.9,3,3.3,3,5.2v22.9
	c0,1.9-1.3,4.2-3,5.2L424,156.7c-1.6,0.9-4.3,0.9-6,0l-19.9-11.5c-1.6-0.9-3-3.3-3-5.2L395.2,117.1L395.2,117.1z"/>
<path id="XMLID_3_" class="st11" d="M431.8,53.3c0-3.1,2.2-6.9,4.9-8.4L469,26.3c2.7-1.5,7-1.5,9.7,0L511,44.9
	c2.7,1.5,4.8,5.3,4.8,8.4v37.3c0,3.1-2.2,6.9-4.8,8.4l-32.3,18.7c-2.7,1.5-7,1.5-9.7,0l-32.3-18.7c-2.7-1.5-4.9-5.3-4.9-8.4
	L431.8,53.3L431.8,53.3z"/>
<path class="st12" d="M160.7,89.2c0-1.9,1.3-4.2,2.9-5.1l19.6-11.3c1.6-0.9,4.3-0.9,5.9,0l19.6,11.3c1.6,0.9,2.9,3.2,2.9,5.1v22.6
	c0,1.9-1.3,4.2-2.9,5.1l-19.6,11.3c-1.6,0.9-4.3,0.9-5.9,0L163.6,117c-1.6-0.9-2.9-3.2-2.9-5.1L160.7,89.2L160.7,89.2z"/>
<path class="st10" d="M92.7,53.4c0-1.9,1.3-4.2,3-5.1l19.8-11.4c1.6-0.9,4.3-0.9,5.9,0l19.8,11.4c1.6,0.9,3,3.3,3,5.1v22.9
	c0,1.9-1.3,4.2-3,5.1l-19.8,11.4c-1.6,0.9-4.3,0.9-5.9,0L95.6,81.4c-1.6-0.9-3-3.3-3-5.1L92.7,53.4L92.7,53.4z"/>
<path class="st13" d="M179.8,36.5c0-1.3,0.9-2.9,2.1-3.6l13.8-8c1.1-0.7,3-0.7,4.1,0l13.8,8c1.1,0.7,2.1,2.3,2.1,3.6v16
	c0,1.3-0.9,2.9-2.1,3.6l-13.8,8c-1.1,0.7-3,0.7-4.1,0l-13.8-8c-1.1-0.7-2.1-2.3-2.1-3.6L179.8,36.5L179.8,36.5z"/>
<path id="XMLID_4_" class="st12" d="M501.9,78.7c0-1.9,1.3-4.2,2.9-5.1l19.6-11.3c1.6-0.9,4.3-0.9,5.9,0l19.6,11.3
	c1.6,0.9,2.9,3.2,2.9,5.1v22.6c0,1.9-1.3,4.2-2.9,5.1l-19.6,11.3c-1.6,0.9-4.3,0.9-5.9,0l-19.6-11.3c-1.6-0.9-2.9-3.2-2.9-5.1
	L501.9,78.7L501.9,78.7z"/>
<path id="XMLID_5_" class="st14" d="M423,42.6c0-1,0.7-2.3,1.6-2.8l10.8-6.3c0.9-0.5,2.4-0.5,3.3,0l10.8,6.3
	c0.9,0.5,1.6,1.8,1.6,2.8v12.5c0,1-0.7,2.3-1.6,2.8l-10.8,6.3c-0.9,0.5-2.4,0.5-3.3,0L424.6,58c-0.9-0.5-1.6-1.8-1.6-2.8L423,42.6
	L423,42.6z"/>
<path class="st15" d="M469.7,139c0-0.9,0.6-1.9,1.3-2.3l9-5.2c0.7-0.4,2-0.4,2.7,0l9,5.2c0.7,0.4,1.3,1.5,1.3,2.3v10.4
	c0,0.9-0.6,1.9-1.3,2.3l-9,5.2c-0.7,0.4-2,0.4-2.7,0l-9-5.2c-0.7-0.4-1.3-1.5-1.3-2.3L469.7,139L469.7,139z"/>
<path class="st15" d="M218.7,131.7c0-0.9,0.6-1.9,1.3-2.3l9-5.2c0.7-0.4,2-0.4,2.7,0l9,5.2c0.7,0.4,1.3,1.5,1.3,2.3v10.4
	c0,0.9-0.6,1.9-1.3,2.3l-9,5.2c-0.7,0.4-2,0.4-2.7,0l-9-5.2c-0.7-0.4-1.3-1.5-1.3-2.3L218.7,131.7L218.7,131.7z"/>
<path id="XMLID_8_" class="st16" d="M646.3,173.6L592,142.3c-1.9-1.1-4.2-1.7-6.6-1.9c-3.4-0.3-7,0.4-9.6,1.9l-54.2,31.3
	c-4.5,2.6-8.1,8.9-8.1,14.1h0V216H648v-3.7v-37.5C647.4,174.4,646.9,173.9,646.3,173.6z"/>
<path id="XMLID_10_" class="st17" d="M596.1,62.8c-5.9,3.4-10.7,11.7-10.7,18.5h0v59v23.4c0,6.8,4.8,15.1,10.7,18.5l51.9,30v-37.5
	V32.9L596.1,62.8z"/>
<path id="XMLID_6_" class="st18" d="M60.5,116.3c0-1.7,1.2-3.8,2.7-4.6l17.8-10.3c1.5-0.8,3.9-0.8,5.3,0l17.8,10.3
	c1.5,0.8,2.7,2.9,2.7,4.6v20.5c0,1.7-1.2,3.8-2.7,4.6l-17.8,10.3c-1.5,0.8-3.9,0.8-5.3,0l-17.8-10.3c-1.5-0.8-2.7-2.9-2.7-4.6
	L60.5,116.3L60.5,116.3z"/>
<path id="XMLID_7_" class="st19" d="M48.9,87.7c0-1.7,1.2-3.8,2.7-4.6l17.8-10.3c1.5-0.8,3.9-0.8,5.3,0l17.8,10.3
	c1.5,0.8,2.7,2.9,2.7,4.6v20.5c0,1.7-1.2,3.8-2.7,4.6l-17.8,10.3c-1.5,0.8-3.9,0.8-5.3,0l-17.8-10.3c-1.5-0.8-2.7-2.9-2.7-4.6
	L48.9,87.7L48.9,87.7z"/>
</svg>
