<?xml version="1.0" encoding="utf-8"?>
<!-- Generator: Adobe Illustrator 19.0.0, SVG Export Plug-In . SVG Version: 6.00 Build 0)  -->
<svg version="1.1" id="Layer_1" xmlns="http://www.w3.org/2000/svg" xmlns:xlink="http://www.w3.org/1999/xlink" x="0px" y="0px"
	 viewBox="0 0 648 168.5" style="enable-background:new 0 0 648 168.5;" xml:space="preserve">
<style type="text/css">
	.st0{fill:#EAEAE9;}
	.st1{fill:#DEE2E1;}
	.st2{fill:#E5DEE1;}
	.st3{fill:#F7D16E;}
	.st4{fill:url(#XMLID_54_);}
	.st5{fill:url(#XMLID_56_);}
	.st6{fill:#9DD6E3;}
	.st7{fill:#4AAEBF;}
	.st8{fill:#2B2C2B;}
	.st9{fill:#A5D5E0;}
	.st10{fill:#DEE1E3;}
	.st11{opacity:0.4;fill:#EB4D11;}
	.st12{fill:#B3D7C5;}
	.st13{opacity:0.4;fill:#FE8618;}
	.st14{fill:#D7D2B9;}
	.st15{fill:#E7E4DB;}
	.st16{opacity:0.4;fill:#BEC1BB;}
	.st17{opacity:0.3;fill:#BEC1BB;}
	.st18{opacity:0.3;fill:#E59215;}
</style>
<path id="XMLID_11_" class="st0" d="M0,0v136.5l22.2-12.8c2.9-1.7,7.6-1.7,10.5,0l35,20.2c2.9,1.7,5.2,5.8,5.2,9.1v15.5h440.5H648V0
	H0z"/>
<path id="XMLID_42_" class="st1" d="M35.8,90.2V31.5c0-4.8-3.4-10.8-7.6-13.2L0,2v117.7l28.2-16.3C32.4,101,35.8,95,35.8,90.2z"/>
<path id="XMLID_14_" class="st2" d="M67.7,143.9l-35-20.2c-2.9-1.7-7.6-1.7-10.5,0L0,136.5v32h72.9V153
	C72.9,149.7,70.6,145.6,67.7,143.9z"/>
<path id="XMLID_45_" class="st0" d="M585.4,61.4L585.4,61.4l0,59c2.4,0.2,4.8,0.8,6.6,1.9l54.3,31.3c0.6,0.3,1.2,0.7,1.7,1.2V12.9
	l-51.9,30C590.2,46.2,585.4,54.6,585.4,61.4z"/>
<g id="XMLID_1_">
	<path id="XMLID_2_" class="st3" d="M319.6,52.1v5l3.8-2.2c0.6-0.3,1.4-0.5,2.1-0.5V32.7c1.4,0,2.7,0.3,3.7,0.9l6.3,3.6c0,0,0,0,0,0
		l-6.3-3.6c-2.1-1.2-5.4-1.2-7.5,0l-6.2,3.6c1.5,1.7,2.9,3.7,4.3,6c-1.2-1.7-3.8-3.2-6.9-4.5l-6.3,3.6l11.1,6.4
		C318.8,49.4,319.6,50.9,319.6,52.1z"/>
	<path id="XMLID_60_" class="st3" d="M312.5,93.3l1.5-2.6c3.5,1.6,7.4,2.5,11.5,2.5V82.9h-4.1c-1.2,0-1.4-0.6-0.5-1.4l3-2.5
		c0.5-0.4,1.1-0.6,1.7-0.6V58.2c-0.8,0-1.5,0.1-2.1,0.5l-3.8,2.2v9.5c0,1.2-0.8,2.6-1.9,3.2l-15.9,9.2c-1,0.6-2.7,0.6-3.7,0
		l-6.4-3.7v6.6c0,2.4,1.7,5.3,3.7,6.5l23.5,13.6l4.8-2.8c0.5-0.3,1.1-0.4,1.8-0.4v-6.4C320.8,96.2,316.5,95.2,312.5,93.3z"/>
	<path id="XMLID_64_" class="st3" d="M348.6,82.8l-15.9-9.2c-1-0.6-1.9-2-1.9-3.2v-9.6l-3.6-2.1c-0.5-0.3-1.2-0.4-1.8-0.5v20.2
		c0.6,0,1.2,0.2,1.7,0.6l3,2.5c0.9,0.8,0.7,1.4-0.5,1.4h-4.1v10.4c0.3,0,0.6,0,0.9,0c3.9-0.1,7.4-0.8,10.8-2.2l1.3,2.6
		c-3.9,1.8-7.6,2.5-12.1,2.5c-0.3,0-0.6,0-0.9,0v6.4c0.5,0,1,0.1,1.4,0.4l5,2.9l23.7-13.7c1.5-0.9,2.9-2.7,3.4-4.6
		c0.2-0.6,0.3-1.3,0.3-1.8v-6.9l-6.9,4C351.4,83.4,349.7,83.4,348.6,82.8z"/>
	
		<linearGradient id="XMLID_54_" gradientUnits="userSpaceOnUse" x1="360.0296" y1="672.0325" x2="310.3749" y2="672.0325" gradientTransform="matrix(1 0 0 1 0 -590)">
		<stop  offset="0" style="stop-color:#F7C016"/>
		<stop  offset="1" style="stop-color:#F39924"/>
	</linearGradient>
	<path id="XMLID_63_" class="st4" d="M348.6,82.8l-15.9-9.2c-1-0.6-1.9-2-1.9-3.2v-9.6l-3.6-2.1c-0.5-0.3-1.2-0.4-1.8-0.5v20.2
		c0.6,0,1.2,0.2,1.7,0.6l3,2.5c0.9,0.8,0.7,1.4-0.5,1.4h-4.1v10.4c0.3,0,0.6,0,0.9,0c3.9-0.1,7.4-0.8,10.8-2.2l1.3,2.6
		c-3.9,1.8-7.6,2.5-12.1,2.5c-0.3,0-0.6,0-0.9,0v6.4c0.5,0,1,0.1,1.4,0.4l5,2.9l23.7-13.7c1.5-0.9,2.9-2.7,3.4-4.6
		c0.2-0.6,0.3-1.3,0.3-1.8v-6.9l-6.9,4C351.4,83.4,349.7,83.4,348.6,82.8z"/>
	<path id="XMLID_66_" class="st3" d="M325.5,32.7v21.6c0.7,0,1.3,0.2,1.8,0.5l3.6,2.1v-4.8c0-1.2,0.8-2.6,1.9-3.2l11.4-6.6l-6-3.5
		c-3.1,1.3-5.7,2.8-6.9,4.5c1.3-2.3,2.8-4.3,4.3-6l-6.3-3.6C328.2,33,326.9,32.7,325.5,32.7z"/>
	
		<linearGradient id="XMLID_56_" gradientUnits="userSpaceOnUse" x1="360.0296" y1="634.8217" x2="310.3749" y2="634.8217" gradientTransform="matrix(1 0 0 1 0 -590)">
		<stop  offset="0" style="stop-color:#F7C016"/>
		<stop  offset="1" style="stop-color:#F39924"/>
	</linearGradient>
	<path id="XMLID_65_" class="st5" d="M325.5,32.7v21.6c0.7,0,1.3,0.2,1.8,0.5l3.6,2.1v-4.8c0-1.2,0.8-2.6,1.9-3.2l11.4-6.6l-6-3.5
		c-3.1,1.3-5.7,2.8-6.9,4.5c1.3-2.3,2.8-4.3,4.3-6l-6.3-3.6C328.2,33,326.9,32.7,325.5,32.7z"/>
	<path id="XMLID_70_" class="st6" d="M298.1,78.8c1,0.6,2.7,0.6,3.7,0l12.5-7.2c1-0.6,1.9-2,1.9-3.2V54c0-0.1,0-0.2,0-0.3l-12-7
		c-1.1-0.7-3-0.7-4.1,0l-12.1,7c-1.1,0.7-2.1,2.3-2.1,3.6v14c0,0.1,0,0.2,0,0.4L298.1,78.8z M295.5,56.5l3.8,4.4v-5.9
		c3.2,0,5.8,2.6,5.8,5.9c0,3.2-2.6,5.9-5.8,5.9c-3.2,0-5.9-2.6-5.9-5.9C293.4,59.2,294.2,57.6,295.5,56.5z"/>
	<path id="XMLID_72_" class="st7" d="M285.9,57.4c0-1.3,0.9-3,2.1-3.6l12.1-7c1.1-0.7,3-0.7,4.1,0l12,7l0,0c0,0,0,0,0,0
		c-0.1-0.8-0.6-1.7-1.2-2.4c-0.3-0.3-0.5-0.5-0.9-0.7l-12.1-7c-1.1-0.7-3-0.7-4.1,0l-12.1,7c-0.2,0.1-0.4,0.3-0.5,0.4
		c-0.9,0.8-1.5,2.1-1.5,3.2v14c0,1,0.5,2.1,1.2,2.9c0.3,0.3,0.6,0.5,0.9,0.7l0.1,0.1c0,0,0-0.1,0-0.1c0-0.1,0-0.2,0-0.4V57.4z"/>
	<path id="XMLID_75_" class="st8" d="M368.2,48.8l-15.9-9.2c-1-0.6-2.7-0.6-3.7,0l-1,0.6l-5.2-3c7.4-2.4,15.5-3.8,15.5-3.8
		s-2.1-7.5-2.9-7.2c-0.6,0.2-9.1,0.9-17.1,8.4l-8.7-5c-2.1-1.2-5.4-1.2-7.5,0l-8.7,5c-8-7.6-16.4-8.2-17.1-8.4
		c-0.8-0.2-2.9,7.2-2.9,7.2s8.1,1.4,15.5,3.8l-5.5,3.2l-1.2-0.7c-1-0.6-2.7-0.6-3.7,0l-15.9,9.2c-1,0.6-1.9,2-1.9,3.2v18.3
		c0,1.2,0.8,2.6,1.9,3.2l5.9,3.4v10.7c0,2.4,1.7,5.3,3.7,6.5l27.2,15.7l6.6,11.7l6.8-12.1l26.5-15.3c2.1-1.2,3.7-4.1,3.7-6.5v-11
		l5.4-3.1c1-0.6,1.9-2,1.9-3.2V52.1C370.1,50.9,369.3,49.4,368.2,48.8z M312.9,38.8c3.1,1.3,5.7,2.8,6.9,4.5c-1.3-2.3-2.8-4.3-4.3-6
		l6.2-3.6c2.1-1.2,5.4-1.2,7.5,0l6.3,3.6c0,0,0,0,0,0c-1.5,1.7-2.9,3.7-4.3,6c1.2-1.7,3.8-3.2,6.9-4.5c0,0,0,0,0,0l6,3.5l0,0
		l-11.4,6.6c-1,0.6-1.9,2-1.9,3.2v4.8l-3.6-2.1c-0.5-0.3-1.2-0.4-1.8-0.5c-0.8,0-1.5,0.1-2.1,0.5l-3.8,2.2v-5c0-1.2-0.8-2.6-1.9-3.2
		l-11.1-6.4L312.9,38.8z M286,71.9L286,71.9c-0.4-0.2-0.7-0.5-0.9-0.8c-0.7-0.7-1.2-1.8-1.2-2.7V54h0c0-1.1,0.7-2.3,1.5-3
		c0.2-0.2,0.4-0.3,0.5-0.4l12.1-7c1.1-0.7,3-0.7,4.1,0l12.1,7c0.3,0.2,0.6,0.4,0.9,0.7c0.6,0.6,1.1,1.6,1.2,2.4c0,0,0,0,0,0l0,0
		c0,0.1,0,0.2,0,0.3v14.4c0,1.2-0.8,2.6-1.9,3.2l-12.5,7.2c-1,0.6-2.7,0.6-3.7,0L286,71.9C286,71.9,286,71.9,286,71.9z M359.3,85.7
		L359.3,85.7c0,0.6-0.1,1.2-0.3,1.8c-0.6,1.9-1.9,3.7-3.4,4.6l-23.7,13.7h0l-5-2.9c-0.4-0.2-0.9-0.3-1.4-0.4c-0.6,0-1.3,0.1-1.8,0.4
		l-4.8,2.8l-23.5-13.6c-2.1-1.2-3.7-4.1-3.7-6.5v-6.6l6.4,3.7c1,0.6,2.7,0.6,3.7,0l15.9-9.2c1-0.6,1.9-2,1.9-3.2v-9.5l3.8-2.2
		c0.6-0.3,1.4-0.5,2.1-0.5c0.7,0,1.3,0.2,1.8,0.5l3.6,2.1v9.6c0,1.2,0.8,2.6,1.9,3.2l15.9,9.2c1,0.6,2.7,0.6,3.7,0l6.9-4V85.7z
		 M366.7,68.4c0,1.2-0.8,2.6-1.9,3.2l-12.4,7.2c-1,0.6-2.7,0.6-3.7,0l-12.2-7c0,0,0,0,0,0l-0.1,0c-0.1-0.1-0.3-0.2-0.4-0.3
		c-0.9-0.7-1.6-2-1.6-3.1V54h0c0-1.1,0.7-2.3,1.6-3c0.2-0.1,0.3-0.3,0.5-0.4l12.1-7c1.1-0.7,3-0.7,4.1,0l12.1,7
		c0.3,0.2,0.6,0.4,0.9,0.7c0.1,0.1,0.1,0.1,0.2,0.2c0,0,0,0,0,0c0.5,0.6,0.9,1.4,1,2.1c0,0,0,0.1,0,0.1l0,0c0,0.1,0,0.2,0,0.3V68.4z
		"/>
	<path id="XMLID_82_" class="st6" d="M354.7,46.8c-1.1-0.7-3-0.7-4.1,0l-12.1,7c-1.1,0.7-2.1,2.3-2.1,3.6v14c0,0.1,0,0.3,0,0.4
		l12.2,7c1,0.6,2.7,0.6,3.7,0l12.4-7.2c1-0.6,1.9-2,1.9-3.2V54c0-0.1,0-0.2,0-0.3L354.7,46.8z M350.5,66.8c-3.2,0-5.9-2.6-5.9-5.9
		c0-1.8,0.8-3.4,2-4.4l3.8,4.4v-5.9c3.2,0,5.8,2.6,5.9,5.9C356.3,64.2,353.7,66.8,350.5,66.8z"/>
	<path id="XMLID_84_" class="st6" d="M334.3,68.2v-14c0-1.1,0.7-2.4,1.6-3.2c-0.9,0.7-1.6,2-1.6,3h0v14.4c0,1.1,0.7,2.4,1.6,3.1
		C335,70.7,334.3,69.3,334.3,68.2z"/>
	<path id="XMLID_85_" class="st8" d="M320.9,81.5c-0.9,0.8-0.7,1.4,0.5,1.4h4.1h4.1c1.2,0,1.4-0.6,0.5-1.4l-3-2.5
		c-0.5-0.4-1.1-0.6-1.7-0.6c-0.6,0-1.2,0.2-1.7,0.6L320.9,81.5z"/>
	<path id="XMLID_86_" class="st8" d="M312.5,93.3c4,1.9,8.4,2.9,13,2.9c0.3,0,0.6,0,0.9,0c4.6-0.1,8.2-0.8,12.1-2.5l-1.3-2.6
		c-3.4,1.4-6.9,2.2-10.8,2.2c-0.3,0-0.6,0-0.9,0c-4.1-0.1-8-1-11.5-2.5L312.5,93.3z"/>
	<path id="XMLID_87_" class="st7" d="M336.5,57.4c0-1.3,0.9-2.9,2.1-3.6l12.1-7c1.1-0.7,3-0.7,4.1,0l12,6.9l0,0c0,0,0-0.1,0-0.1
		c-0.1-0.7-0.5-1.5-1-2.1c0,0,0,0,0,0c-0.1-0.1-0.1-0.1-0.2-0.2c-0.3-0.3-0.5-0.5-0.9-0.7l-12.1-7c-1.1-0.7-3-0.7-4.1,0l-12.1,7
		c-0.2,0.1-0.4,0.2-0.5,0.4c-0.9,0.8-1.6,2.1-1.6,3.2v14c0,1.1,0.7,2.5,1.6,3.3c0.1,0.1,0.3,0.2,0.4,0.3l0.1,0c0,0,0,0,0,0
		c0-0.1,0-0.3,0-0.4V57.4z"/>
	<path id="XMLID_88_" class="st8" d="M299.3,66.8c3.2,0,5.8-2.6,5.8-5.9c0-3.2-2.6-5.9-5.8-5.9V61l-3.8-4.4c-1.2,1.1-2,2.7-2,4.4
		C293.4,64.2,296.1,66.8,299.3,66.8z"/>
	<path id="XMLID_89_" class="st8" d="M350.5,55.1V61l-3.8-4.4c-1.2,1.1-2,2.7-2,4.4c0,3.2,2.6,5.9,5.9,5.9c3.2,0,5.9-2.6,5.9-5.9
		C356.3,57.7,353.7,55.1,350.5,55.1z"/>
</g>
<path id="XMLID_94_" class="st9" d="M394.2,73.1c0-1.4,1-3.2,2.3-3.9l15.2-8.8c1.3-0.7,3.3-0.7,4.6,0l15.2,8.8
	c1.3,0.7,2.3,2.5,2.3,3.9v17.5c0,1.4-1,3.2-2.3,3.9l-15.2,8.8c-1.3,0.7-3.3,0.7-4.6,0l-15.2-8.8c-1.3-0.7-2.3-2.5-2.3-3.9
	L394.2,73.1L394.2,73.1z"/>
<path id="XMLID_3_" class="st10" d="M441.8,33.3c0-3.1,2.2-6.9,4.9-8.4L479,6.3c2.7-1.5,7-1.5,9.7,0L521,24.9
	c2.7,1.5,4.8,5.3,4.8,8.4v37.3c0,3.1-2.2,6.9-4.8,8.4l-32.3,18.7c-2.7,1.5-7,1.5-9.7,0l-32.3-18.7c-2.7-1.5-4.9-5.3-4.9-8.4
	L441.8,33.3L441.8,33.3z"/>
<path id="XMLID_90_" class="st11" d="M150.2,69.2c0-1.9,1.3-4.2,2.9-5.1l19.6-11.3c1.6-0.9,4.3-0.9,5.9,0l19.6,11.3
	c1.6,0.9,2.9,3.2,2.9,5.1v22.6c0,1.9-1.3,4.2-2.9,5.1l-19.6,11.3c-1.6,0.9-4.3,0.9-5.9,0L153.1,97c-1.6-0.9-2.9-3.2-2.9-5.1
	L150.2,69.2L150.2,69.2z"/>
<path id="XMLID_55_" class="st9" d="M92.7,33.4c0-1.9,1.3-4.2,3-5.1l19.8-11.4c1.6-0.9,4.3-0.9,5.9,0l19.8,11.4c1.6,0.9,3,3.3,3,5.1
	v22.9c0,1.9-1.3,4.2-3,5.1l-19.8,11.4c-1.6,0.9-4.3,0.9-5.9,0L95.6,61.4c-1.6-0.9-3-3.3-3-5.1L92.7,33.4L92.7,33.4z"/>
<path id="XMLID_52_" class="st12" d="M218.3,34.5c0-1.3,0.9-2.9,2.1-3.6l13.8-8c1.1-0.7,3-0.7,4.1,0l13.8,8c1.1,0.7,2.1,2.3,2.1,3.6
	v16c0,1.3-0.9,2.9-2.1,3.6l-13.8,8c-1.1,0.7-3,0.7-4.1,0l-13.8-8c-1.1-0.7-2.1-2.3-2.1-3.6L218.3,34.5L218.3,34.5z"/>
<path id="XMLID_4_" class="st11" d="M511.9,58.7c0-1.9,1.3-4.2,2.9-5.1l19.6-11.3c1.6-0.9,4.3-0.9,5.9,0l19.6,11.3
	c1.6,0.9,2.9,3.2,2.9,5.1v22.6c0,1.9-1.3,4.2-2.9,5.1l-19.6,11.3c-1.6,0.9-4.3,0.9-5.9,0l-19.6-11.3c-1.6-0.9-2.9-3.2-2.9-5.1
	L511.9,58.7L511.9,58.7z"/>
<path id="XMLID_5_" class="st13" d="M433,22.6c0-1,0.7-2.3,1.6-2.8l10.8-6.3c0.9-0.5,2.4-0.5,3.3,0l10.8,6.3
	c0.9,0.5,1.6,1.8,1.6,2.8v12.5c0,1-0.7,2.3-1.6,2.8l-10.8,6.3c-0.9,0.5-2.4,0.5-3.3,0L434.6,38c-0.9-0.5-1.6-1.8-1.6-2.8L433,22.6
	L433,22.6z"/>
<path id="XMLID_46_" class="st14" d="M456.7,103.8c0-0.7,0.5-1.6,1.2-2l7.7-4.4c0.6-0.4,1.7-0.4,2.3,0l7.7,4.4
	c0.6,0.4,1.2,1.3,1.2,2v8.9c0,0.7-0.5,1.6-1.2,2l-7.7,4.4c-0.6,0.4-1.7,0.4-2.3,0l-7.7-4.4c-0.6-0.4-1.2-1.3-1.2-2L456.7,103.8
	L456.7,103.8z"/>
<path id="XMLID_28_" class="st14" d="M211.7,98.7c0-0.9,0.6-1.9,1.3-2.3l9-5.2c0.7-0.4,2-0.4,2.7,0l9,5.2c0.7,0.4,1.3,1.5,1.3,2.3
	v10.4c0,0.9-0.6,1.9-1.3,2.3l-9,5.2c-0.7,0.4-2,0.4-2.7,0l-9-5.2c-0.7-0.4-1.3-1.5-1.3-2.3L211.7,98.7L211.7,98.7z"/>
<path id="XMLID_8_" class="st15" d="M646.5,131.7l-47-27.1c-1.6-0.9-3.6-1.5-5.7-1.6c-3-0.2-6.1,0.3-8.3,1.6l-46.9,27.1
	c-3.9,2.2-7,7.7-7,12.2h0v24.5H648v-3.2v-32.4C647.5,132.3,647,132,646.5,131.7z"/>
<path id="XMLID_10_" class="st16" d="M603.1,35.8c-5.1,2.9-9.3,10.2-9.3,16h0V103v20.2c0,5.9,4.2,13.1,9.3,16l44.9,25.9v-32.4V9.9
	L603.1,35.8z"/>
<path id="XMLID_6_" class="st17" d="M60.5,96.3c0-1.7,1.2-3.8,2.7-4.6l17.8-10.3c1.5-0.8,3.9-0.8,5.3,0L104,91.7
	c1.5,0.8,2.7,2.9,2.7,4.6v20.5c0,1.7-1.2,3.8-2.7,4.6l-17.8,10.3c-1.5,0.8-3.9,0.8-5.3,0l-17.8-10.3c-1.5-0.8-2.7-2.9-2.7-4.6
	L60.5,96.3L60.5,96.3z"/>
<path id="XMLID_7_" class="st18" d="M48.9,67.7c0-1.7,1.2-3.8,2.7-4.6l17.8-10.3c1.5-0.8,3.9-0.8,5.3,0l17.8,10.3
	c1.5,0.8,2.7,2.9,2.7,4.6v20.5c0,1.7-1.2,3.8-2.7,4.6l-17.8,10.3c-1.5,0.8-3.9,0.8-5.3,0L51.5,92.8c-1.5-0.8-2.7-2.9-2.7-4.6
	L48.9,67.7L48.9,67.7z"/>
<g id="XMLID_47_">
	<polygon id="XMLID_120_" class="st8" points="152.8,146.5 149.9,146.5 156.4,130.9 159.5,130.9 166.2,146.5 163.1,146.5 
		161.4,142.3 156.2,142.3 157.2,139.8 160.3,139.8 157.9,133.9 	"/>
	<path id="XMLID_121_" class="st8" d="M168.1,146.5v-15.6h6.9c3.2,0,4.7,1.5,4.7,4.4c0,3.2-2.2,5.1-6.5,5.8l-0.4-2.6
		c2.6-0.5,3.9-1.5,3.9-3.1c0-1.3-0.6-1.9-1.9-1.9H171v13.1H168.1z"/>
	<rect id="XMLID_122_" x="181.7" y="130.9" class="st8" width="2.9" height="15.6"/>
	<path id="XMLID_123_" class="st8" d="M187.6,146v-2.4c1.3,0.5,2.7,0.8,4.4,0.8c1.2,0,1.9-0.4,1.9-1.2c0-0.8-0.4-1.1-1.2-1.1h-2.1
		c-2.3,0-3.5-1.1-3.5-3.4c0-2.4,1.7-3.6,5.1-3.6c1.4,0,2.8,0.2,4,0.7v2.4c-1.3-0.5-2.6-0.8-4.1-0.8c-1.6,0-2.3,0.4-2.3,1.2
		c0,0.8,0.5,1.1,1.4,1.1h1.8c2.5,0,3.8,1.1,3.8,3.4c0,2.4-1.6,3.6-4.8,3.6C190.2,146.6,188.8,146.4,187.6,146z"/>
	<rect id="XMLID_124_" x="198.4" y="143.8" class="st8" width="2.9" height="2.7"/>
	<path id="XMLID_127_" class="st8" d="M213.9,145.6c0,3.3-2,5-6,5c-1.4,0-2.6-0.2-3.7-0.5v-2.3c1.1,0.4,2.4,0.5,3.7,0.5
		c2.1,0,3.1-0.9,3.1-2.6c-0.9,0.4-1.8,0.5-2.8,0.5c-3.4,0-5.1-1.9-5.1-5.6c0-3.8,2-5.7,5.9-5.7c1.3,0,2.9,0.2,4.8,0.5V145.6z
		 M211,137.7c-0.5-0.2-1.1-0.3-2-0.3c-2,0-3,1.1-3,3.3c0,2.1,0.9,3.2,2.6,3.2c0.8,0,1.6-0.2,2.4-0.6V137.7z"/>
	<path id="XMLID_128_" class="st8" d="M226.8,135.1v11.5h-2.2l-0.3-1.5c-1.3,1-2.7,1.5-4.2,1.5c-2.3,0-3.5-1.4-3.5-4.2v-7.3h2.9v7.2
		c0,1.3,0.5,1.9,1.6,1.9c0.9,0,1.9-0.4,2.8-1.1v-8H226.8z"/>
	<path id="XMLID_129_" class="st8" d="M229.5,146.5v-11.5h2.2l0.4,1.5c1-1,2.1-1.5,3.2-1.5v2.3c-1.1,0-2,0.4-2.9,1.3v7.8H229.5z"/>
	<path id="XMLID_130_" class="st8" d="M247.1,135.1v11.5h-2.2l-0.3-1.5c-1.3,1-2.7,1.5-4.2,1.5c-2.3,0-3.5-1.4-3.5-4.2v-7.3h2.9v7.2
		c0,1.3,0.5,1.9,1.6,1.9c0.9,0,1.9-0.4,2.8-1.1v-8H247.1z"/>
	<rect id="XMLID_131_" x="254.4" y="139.6" class="st8" width="5.4" height="2.3"/>
	<polygon id="XMLID_132_" class="st8" points="266.2,130.9 269.1,130.9 270.8,142.1 274.8,130.9 277.5,130.9 281.3,141.7 
		283.1,130.9 285.9,130.9 283,146.5 280.3,146.5 276,134.3 271.4,146.5 268.7,146.5 	"/>
	<path id="XMLID_135_" class="st8" d="M290.5,130.9v2.3h-2.9v-2.3H290.5z M290.5,135.1v11.5h-2.9v-11.5H290.5z"/>
	<path id="XMLID_136_" class="st8" d="M293.2,146.5v-15.6h2.9v5c1.2-0.6,2.4-0.9,3.7-0.9c2.9,0,4.4,1.1,4.4,3.3c0,1.6-1,2.9-3,3.8
		l3.5,4.4h-3.5l-3-4.1v-1.3c2.1-0.4,3.1-1.2,3.1-2.2c0-1-0.7-1.5-2.1-1.5c-1,0-2,0.3-3.1,0.9v8.2H293.2z"/>
	<path id="XMLID_139_" class="st8" d="M309.2,130.9v2.3h-2.9v-2.3H309.2z M309.2,135.1v11.5h-2.9v-11.5H309.2z"/>
	<path id="XMLID_142_" class="st8" d="M311.9,135.5c1.5-0.3,3.1-0.5,4.8-0.5c3.9,0,5.8,1.8,5.8,5.4c0,4-1.8,6-5.4,6
		c-0.8,0-1.5-0.2-2.3-0.5v4.7h-2.9V135.5z M314.7,143.5c0.7,0.4,1.5,0.6,2.3,0.6c1.7,0,2.6-1.2,2.6-3.6c0-2.1-0.9-3.1-2.8-3.1
		c-0.8,0-1.5,0.1-2,0.2V143.5z"/>
	<path id="XMLID_145_" class="st8" d="M329.4,135.1c3.5,0,5.2,1.8,5.2,5.3c0,0.5,0,0.9-0.1,1.4h-7.6c0,1.6,1.2,2.4,3.5,2.4
		c1.1,0,2.3-0.1,3.4-0.3v2.3c-1,0.2-2.2,0.3-3.7,0.3c-4.1,0-6.2-2-6.2-5.9C324.1,136.9,325.9,135.1,329.4,135.1z M326.9,139.8h4.9
		v-0.1c0-1.6-0.8-2.4-2.4-2.4C327.9,137.3,327.1,138.2,326.9,139.8z"/>
	<path id="XMLID_148_" class="st8" d="M346.8,145.8c-1.7,0.5-3.4,0.7-5.1,0.7c-3.7,0-5.5-2-5.5-6c0-3.7,1.8-5.5,5.4-5.5
		c0.8,0,1.5,0.2,2.4,0.5v-4.7h2.9V145.8z M344,138c-0.6-0.4-1.3-0.6-2.2-0.6c-1.8,0-2.7,1-2.7,3c0,2.4,0.9,3.6,2.8,3.6
		c0.8,0,1.5-0.1,2.1-0.3V138z"/>
	<path id="XMLID_151_" class="st8" d="M352.4,130.9v2.3h-2.9v-2.3H352.4z M352.4,135.1v11.5h-2.9v-11.5H352.4z"/>
	<path id="XMLID_154_" class="st8" d="M354.6,142.9c0-2.3,1.6-3.4,4.9-3.4c0.8,0,1.5,0.1,2.3,0.2v-0.9c0-1-0.7-1.5-2.2-1.5
		c-1.2,0-2.6,0.2-4.1,0.5v-2.3c1.5-0.4,2.9-0.5,4.1-0.5c3.4,0,5.1,1.3,5.1,3.8v7.7H363l-1-1c-1,0.7-2.1,1-3.3,1
		C356,146.5,354.6,145.3,354.6,142.9z M359.5,141.5c-1.4,0-2.1,0.5-2.1,1.4c0,1,0.6,1.5,1.7,1.5c1,0,1.8-0.3,2.7-0.9v-1.8
		C361.1,141.6,360.3,141.5,359.5,141.5z"/>
	<path id="XMLID_155_" class="st8" d="M372.3,146.5v-11.5c0-3.1,1.7-4.7,5.1-4.7c0.9,0,1.8,0.1,2.5,0.4v2.3
		c-0.7-0.3-1.5-0.4-2.3-0.4c-1.6,0-2.4,0.8-2.4,2.4h3.4v2.3h-3.4v9.2H372.3z"/>
	<path id="XMLID_158_" class="st8" d="M379,140.8c0-3.8,1.9-5.8,5.6-5.8s5.6,1.9,5.6,5.8c0,3.8-1.9,5.8-5.6,5.8
		C380.9,146.5,379,144.6,379,140.8z M384.7,144.3c1.8,0,2.8-1.2,2.8-3.6c0-2.3-0.9-3.5-2.8-3.5c-1.8,0-2.8,1.2-2.8,3.5
		C381.9,143.1,382.8,144.3,384.7,144.3z"/>
	<path id="XMLID_159_" class="st8" d="M392.5,146.5v-11.5h2.2l0.4,1.5c1-1,2.1-1.5,3.2-1.5v2.3c-1.1,0-2,0.4-2.9,1.3v7.8H392.5z"/>
	<polygon id="XMLID_160_" class="st8" points="403.7,130.9 406.6,130.9 408.3,142.1 412.3,130.9 415.1,130.9 418.9,141.7 
		420.6,130.9 423.4,130.9 420.5,146.5 417.8,146.5 413.5,134.3 409,146.5 406.3,146.5 	"/>
	<path id="XMLID_163_" class="st8" d="M430,135.1c3.5,0,5.2,1.8,5.2,5.3c0,0.5,0,0.9-0.1,1.4h-7.6c0,1.6,1.2,2.4,3.5,2.4
		c1.1,0,2.3-0.1,3.4-0.3v2.3c-1,0.2-2.2,0.3-3.7,0.3c-4.1,0-6.2-2-6.2-5.9C424.6,136.9,426.4,135.1,430,135.1z M427.5,139.8h4.9
		v-0.1c0-1.6-0.8-2.4-2.4-2.4C428.5,137.3,427.6,138.2,427.5,139.8z"/>
	<path id="XMLID_166_" class="st8" d="M437.3,130.9h2.9v5c0.9-0.6,1.8-0.9,2.9-0.9c3.2,0,4.9,1.8,4.9,5.5c0,4-1.9,6-5.6,6
		c-1.6,0-3.2-0.2-5-0.5V130.9z M440.2,143.9c0.7,0.2,1.4,0.3,2.3,0.3c1.7,0,2.6-1.2,2.6-3.7c0-2-0.7-3-2.2-3c-1,0-1.8,0.2-2.6,0.6
		V143.9z"/>
	<polygon id="XMLID_167_" class="st8" points="456.8,146.5 453.9,146.5 460.4,130.9 463.5,130.9 470.2,146.5 467.2,146.5 
		465.4,142.3 460.2,142.3 461.2,139.8 464.3,139.8 461.9,133.9 	"/>
	<path id="XMLID_168_" class="st8" d="M472.1,146.5v-15.6h6.9c3.2,0,4.7,1.5,4.7,4.4c0,3.2-2.2,5.1-6.5,5.8l-0.4-2.6
		c2.6-0.5,3.9-1.5,3.9-3.1c0-1.3-0.6-1.9-1.9-1.9H475v13.1H472.1z"/>
	<rect id="XMLID_169_" x="485.7" y="130.9" class="st8" width="2.9" height="15.6"/>
	<path id="XMLID_170_" class="st8" d="M491.6,146v-2.4c1.3,0.5,2.7,0.8,4.4,0.8c1.2,0,1.9-0.4,1.9-1.2c0-0.8-0.4-1.1-1.2-1.1h-2.1
		c-2.3,0-3.5-1.1-3.5-3.4c0-2.4,1.7-3.6,5.1-3.6c1.4,0,2.8,0.2,4,0.7v2.4c-1.3-0.5-2.6-0.8-4.1-0.8c-1.6,0-2.3,0.4-2.3,1.2
		c0,0.8,0.5,1.1,1.4,1.1h1.8c2.5,0,3.8,1.1,3.8,3.4c0,2.4-1.6,3.6-4.8,3.6C494.3,146.6,492.8,146.4,491.6,146z"/>
</g>
</svg>
