<?xml version="1.0" encoding="utf-8"?>
<!-- Generator: Adobe Illustrator 16.0.0, SVG Export Plug-In . SVG Version: 6.00 Build 0)  -->
<!DOCTYPE svg PUBLIC "-//W3C//DTD SVG 1.1//EN" "http://www.w3.org/Graphics/SVG/1.1/DTD/svg11.dtd">
<svg version="1.1" id="Layer_1" xmlns="http://www.w3.org/2000/svg" xmlns:xlink="http://www.w3.org/1999/xlink" x="0px" y="0px"
	 width="300px" height="220px" viewBox="0 0 300 220" enable-background="new 0 0 300 220" xml:space="preserve">
<g>
	<path fill="#2B2C2B" d="M106.945,47.713c0-2.999,2.124-6.678,4.721-8.177l37.686-21.756c2.597-1.5,6.845-1.5,9.441,0l37.688,21.756
		c2.596,1.5,4.721,5.179,4.721,8.177v43.513c0,2.999-2.125,6.679-4.721,8.177l-37.688,21.755c-2.597,1.498-6.845,1.498-9.441,0
		l-37.686-21.755c-2.597-1.499-4.721-5.179-4.721-8.177V47.713z"/>
	<path fill="#FED16E" d="M111.359,50.262c0-2.999,2.125-6.678,4.721-8.177l33.271-19.208c2.597-1.499,6.845-1.499,9.441,0
		l33.271,19.208c2.598,1.499,4.721,5.179,4.721,8.177v38.415c0,2.999-2.123,6.678-4.721,8.177l-33.271,19.21
		c-2.597,1.498-6.845,1.498-9.441,0l-33.271-19.21c-2.597-1.499-4.721-5.178-4.721-8.177V50.262z"/>
	
		<linearGradient id="SVGID_1_" gradientUnits="userSpaceOnUse" x1="403.6816" y1="-143.4688" x2="340.937" y2="-143.4688" gradientTransform="matrix(1 0 0 -1 -206 -74)">
		<stop  offset="0" style="stop-color:#FEC017"/>
		<stop  offset="1" style="stop-color:#F89923"/>
	</linearGradient>
	<path fill="url(#SVGID_1_)" d="M192.062,42.085l-33.271-19.208c-1.299-0.75-3.011-1.125-4.721-1.125v95.435
		c1.71,0,3.422-0.375,4.721-1.123l33.271-19.21c2.598-1.499,4.721-5.177,4.721-8.177V50.262
		C196.783,47.264,194.66,43.585,192.062,42.085z"/>
	<path fill="#2B2C2B" d="M97.076,46.184c0-1.499,1.062-3.339,2.361-4.088l20.041-11.571c1.299-0.749,3.423-0.749,4.722,0
		l20.041,11.571c1.299,0.75,2.361,2.589,2.361,4.088v23.14c0,1.499-1.062,3.339-2.361,4.088L124.2,84.985
		c-1.299,0.75-3.423,0.75-4.722,0L99.438,73.412c-1.299-0.749-2.361-2.59-2.361-4.088V46.184L97.076,46.184z"/>
	<path fill="#9DDBEE" d="M101.375,48.665c0-1.499,1.062-3.339,2.361-4.088l15.742-9.09c1.299-0.75,3.423-0.75,4.722,0l15.746,9.09
		c1.299,0.749,2.361,2.589,2.361,4.088v18.178c0,1.499-1.062,3.339-2.361,4.089L124.2,80.022c-1.299,0.75-3.423,0.75-4.722,0
		l-15.742-9.091c-1.299-0.75-2.361-2.59-2.361-4.089V48.665L101.375,48.665z"/>
	<path fill="#4CB0C1" d="M104.07,70.694V52.965c0-1.674,1.18-3.73,2.615-4.568l15.234-8.867c1.441-0.836,3.794-0.836,5.233,0
		l15.128,8.806c-0.224-1.547-1.29-3.254-2.57-3.998l-15.231-8.867c-1.44-0.836-3.793-0.836-5.233,0l-15.233,8.867
		c-1.438,0.837-2.617,2.892-2.617,4.566v17.731c0,1.674,1.178,3.729,2.617,4.565l0.105,0.064
		C104.091,71.071,104.07,70.879,104.07,70.694z"/>
	<path fill="#2B2C2B" d="M160.895,46.184c0-1.499,1.062-3.339,2.359-4.088l20.039-11.571c1.301-0.749,3.426-0.749,4.725,0
		l20.039,11.571c1.299,0.75,2.359,2.589,2.359,4.088v23.14c0,1.499-1.062,3.339-2.359,4.088l-20.041,11.574
		c-1.297,0.75-3.422,0.75-4.721,0l-20.041-11.574c-1.299-0.749-2.359-2.59-2.359-4.088V46.184L160.895,46.184z"/>
	<path fill="#9DDBEE" d="M165.205,48.671c0-1.499,1.063-3.339,2.361-4.088l15.727-9.081c1.299-0.749,3.424-0.749,4.723,0
		l15.727,9.081c1.299,0.75,2.361,2.589,2.361,4.088v18.162c0,1.499-1.062,3.339-2.361,4.088l-15.727,9.083
		c-1.299,0.749-3.424,0.749-4.723,0l-15.727-9.083c-1.299-0.749-2.361-2.59-2.361-4.088V48.671z"/>
	<path fill="#2B2C2B" d="M113.079,22.657c0,0,2.652-9.435,3.686-9.141c1.032,0.294,18.572,1.624,30.074,21.524
		C141.428,27.394,113.079,22.657,113.079,22.657z"/>
	<path fill="#2B2C2B" d="M195.074,22.657c0,0-2.652-9.435-3.684-9.141c-1.033,0.294-18.578,1.624-30.072,21.524
		C166.726,27.394,195.074,22.657,195.074,22.657z"/>
	<polygon fill="#2B2C2B" points="145.341,118.058 154.353,133.989 163.365,118.058 150.738,118.867 	"/>
	<path fill="#2B2C2B" d="M163.964,116.687c0-1.95-4.302-3.529-9.608-3.529c-5.308,0-9.612,1.579-9.612,3.529
		c0,1.946,4.304,3.526,9.612,3.526C159.663,120.213,163.964,118.633,163.964,116.687z"/>
	<path fill="#2B2C2B" d="M156.166,80.24c-1.151-0.959-3.037-0.959-4.189,0l-3.756,3.126c-1.152,0.959-0.868,1.744,0.631,1.744h10.44
		c1.499,0,1.784-0.784,0.631-1.744L156.166,80.24z"/>
	<path fill="#2B2C2B" d="M168.852,95.424c-4.29,1.81-8.761,2.752-13.701,2.816c-5.572,0.073-10.866-1.097-15.635-3.233l-1.922,3.25
		c5.398,2.521,11.244,3.811,17.604,3.724c5.771-0.073,10.405-0.988,15.352-3.209L168.852,95.424z"/>
	<path fill="#4CB0C1" d="M167.887,70.604V52.956c0-1.667,1.178-3.713,2.613-4.546l15.236-8.827c1.439-0.833,3.795-0.833,5.234,0
		l15.125,8.765c-0.221-1.541-1.289-3.239-2.568-3.979l-15.234-8.826c-1.438-0.833-3.793-0.833-5.23,0l-15.231,8.826
		c-1.441,0.834-2.616,2.878-2.616,4.545v17.65c0,1.669,1.175,3.713,2.612,4.546l0.106,0.061
		C167.904,70.979,167.887,70.789,167.887,70.604z"/>
	<path fill="#2B2C2B" d="M120.942,50.043v7.397l-4.815-5.604c-1.579,1.356-2.58,3.362-2.58,5.604c0,4.083,3.313,7.393,7.396,7.393
		c4.083,0,7.393-3.31,7.393-7.393S125.025,50.045,120.942,50.043z"/>
	<path fill="#2B2C2B" d="M185.59,50.043v7.397l-4.814-5.604c-1.574,1.356-2.578,3.362-2.578,5.604c0,4.083,3.312,7.393,7.395,7.393
		s7.393-3.31,7.393-7.393C192.982,53.357,189.676,50.045,185.59,50.043z"/>
	<path fill="#2B2C2B" d="M151.392,49.654l-8.073,4.704v4.89l8.073-4.705c1.364-0.795,3.603-0.795,4.971,0l8.465,4.934v-4.89
		l-8.465-4.933C154.993,48.857,152.756,48.857,151.392,49.654z"/>
	<path fill="#2B2C2B" d="M151.841,110.468l-6.483,3.778v3.93l6.483-3.779c1.1-0.641,2.896-0.641,3.996,0l6.799,3.963v-3.929
		l-6.799-3.961C154.736,109.829,152.94,109.829,151.841,110.468z"/>
</g>
<g>
	<path fill="#2B2C2B" d="M21.521,196.979h-8.329l18.585-43.783h8.726l18.984,43.783h-8.726l-4.991-11.938H31.226l2.787-7.041h8.819
		l-6.892-16.443L21.521,196.979z"/>
	<path fill="#2B2C2B" d="M64.846,196.979v-43.783h19.596c8.94,0,13.411,4.115,13.411,12.341c0,8.92-6.114,14.317-18.34,16.196
		l-1.163-7.228c7.349-1.326,11.022-4.235,11.022-8.727c0-3.633-1.817-5.451-5.452-5.451H72.959v36.65L64.846,196.979L64.846,196.979
		z"/>
	<path fill="#2B2C2B" d="M111.323,153.194v43.783h-8.113v-43.783H111.323z"/>
	<path fill="#2B2C2B" d="M119.745,195.448v-6.734c3.569,1.426,7.695,2.144,12.37,2.144c3.49,0,5.236-1.123,5.236-3.371
		c0-2.144-1.174-3.211-3.521-3.211h-5.818c-6.532,0-9.799-3.217-9.799-9.647c0-6.734,4.769-10.104,14.3-10.104
		c4.043,0,7.85,0.61,11.422,1.836v6.737c-3.572-1.43-7.451-2.143-11.636-2.143c-4.389,0-6.583,1.123-6.583,3.367
		c0,2.143,1.275,3.215,3.828,3.215h5.204c7.145,0,10.716,3.215,10.716,9.645c0,6.736-4.552,10.104-13.654,10.104
		C127.337,197.284,123.315,196.673,119.745,195.448z"/>
	<path fill="#2B2C2B" d="M158.479,189.479v7.5h-8.113v-7.5H158.479z"/>
	<path fill="#2B2C2B" d="M194.621,194.53c0,9.391-5.643,14.084-16.932,14.084c-3.961,0-7.469-0.51-10.533-1.531v-6.428
		c3.125,1.02,6.654,1.529,10.594,1.529c5.838,0,8.758-2.449,8.758-7.35c-2.408,1.022-5.002,1.53-7.777,1.53
		c-9.555,0-14.329-5.215-14.329-15.646c0-10.594,5.563-15.891,16.687-15.891c3.734,0,8.246,0.438,13.533,1.315V194.53
		L194.621,194.53z M186.508,172.116c-1.328-0.488-3.215-0.734-5.664-0.734c-5.613,0-8.42,3.095-8.42,9.277
		c0,5.98,2.418,8.973,7.256,8.973c2.326,0,4.604-0.551,6.828-1.651V172.116z"/>
	<path fill="#2B2C2B" d="M231.211,164.829v32.148h-6.338l-0.979-4.102c-3.693,2.735-7.611,4.102-11.756,4.102
		c-6.572,0-9.859-3.885-9.859-11.664v-20.484h8.113V185.1c0,3.553,1.551,5.327,4.652,5.327c2.635,0,5.316-1.051,8.055-3.153v-22.442
		h8.111V164.829z"/>
	<path fill="#2B2C2B" d="M238.867,196.979v-32.147h6.275l1.012,4.104c2.816-2.736,5.797-4.104,8.941-4.104v6.553
		c-3.021,0-5.727,1.256-8.115,3.768v21.828L238.867,196.979L238.867,196.979z"/>
	<path fill="#2B2C2B" d="M288.621,164.829v32.148h-6.338l-0.979-4.102c-3.695,2.735-7.613,4.102-11.758,4.102
		c-6.572,0-9.859-3.885-9.859-11.664v-20.484h8.113V185.1c0,3.553,1.551,5.327,4.656,5.327c2.631,0,5.314-1.051,8.051-3.153v-22.442
		h8.113V164.829z"/>
</g>
</svg>
