<?xml version="1.0" encoding="utf-8"?>
<!-- Generator: Adobe Illustrator 16.0.0, SVG Export Plug-In . SVG Version: 6.00 Build 0)  -->
<!DOCTYPE svg PUBLIC "-//W3C//DTD SVG 1.1//EN" "http://www.w3.org/Graphics/SVG/1.1/DTD/svg11.dtd">
<svg version="1.1" id="Layer_1" xmlns="http://www.w3.org/2000/svg" xmlns:xlink="http://www.w3.org/1999/xlink" x="0px" y="0px"
	 width="400px" height="130px" viewBox="0 0 400 130" enable-background="new 0 0 400 130" xml:space="preserve">
<g>
	<path fill="#2B2C2B" d="M20.966,42.072c0-2.724,1.93-6.066,4.289-7.428L59.49,14.879c2.359-1.362,6.219-1.362,8.577,0
		l34.235,19.765c2.359,1.362,4.289,4.704,4.289,7.428v39.528c0,2.725-1.93,6.066-4.289,7.428l-34.235,19.766
		c-2.358,1.361-6.219,1.361-8.578,0L25.256,89.028c-2.359-1.36-4.289-4.703-4.289-7.428L20.966,42.072L20.966,42.072z"/>
	<path fill="#FED16E" d="M24.976,44.387c0-2.724,1.93-6.066,4.289-7.429L59.49,19.509c2.359-1.362,6.219-1.362,8.577,0
		l30.225,17.449c2.359,1.362,4.289,4.705,4.289,7.429v34.897c0,2.725-1.93,6.066-4.289,7.43l-30.225,17.449
		c-2.358,1.361-6.218,1.361-8.577,0L29.265,86.714c-2.358-1.363-4.289-4.705-4.289-7.43V44.387L24.976,44.387z"/>
	
		<linearGradient id="SVGID_1_" gradientUnits="userSpaceOnUse" x1="349.3955" y1="-125.8354" x2="292.3956" y2="-125.8355" gradientTransform="matrix(1 0 0 -1 -246 -64)">
		<stop  offset="0" style="stop-color:#FEC017"/>
		<stop  offset="1" style="stop-color:#F89923"/>
	</linearGradient>
	<path fill="url(#SVGID_1_)" d="M98.29,36.958L68.066,19.509c-1.18-0.681-2.735-1.022-4.289-1.022v86.697
		c1.553,0,3.108-0.342,4.289-1.021l30.224-17.45c2.36-1.362,4.29-4.704,4.29-7.429V44.387C102.58,41.663,100.65,38.321,98.29,36.958
		z"/>
	<path fill="#2B2C2B" d="M12,40.682c0-1.362,0.965-3.034,2.144-3.714l18.208-10.512c1.18-0.681,3.109-0.681,4.289,0l18.208,10.512
		c1.179,0.681,2.144,2.352,2.144,3.714v21.021c0,1.362-0.965,3.034-2.144,3.714L36.641,75.932c-1.179,0.681-3.109,0.681-4.289,0
		L14.144,65.417C12.965,64.736,12,63.064,12,61.703V40.682L12,40.682z"/>
	<path fill="#9DDBEE" d="M15.906,42.935c0-1.362,0.965-3.034,2.145-3.714l14.302-8.258c1.18-0.681,3.109-0.681,4.289,0l14.306,8.258
		c1.179,0.681,2.144,2.352,2.144,3.714v16.514c0,1.362-0.965,3.033-2.144,3.714l-14.306,8.259c-1.179,0.682-3.109,0.682-4.289,0
		l-14.302-8.259c-1.18-0.681-2.145-2.353-2.145-3.714V42.935L15.906,42.935z"/>
	<path fill="#4CB0C1" d="M18.354,62.949V46.843c0-1.521,1.071-3.389,2.375-4.15l13.84-8.054c1.309-0.76,3.447-0.76,4.754,0
		l13.743,7.999c-0.203-1.405-1.172-2.956-2.335-3.632l-13.837-8.055c-1.309-0.759-3.446-0.759-4.754,0l-13.839,8.055
		c-1.307,0.76-2.377,2.627-2.377,4.148v16.108c0,1.521,1.07,3.388,2.377,4.147l0.097,0.058
		C18.373,63.291,18.354,63.117,18.354,62.949z"/>
	<path fill="#2B2C2B" d="M69.975,40.682c0-1.362,0.965-3.034,2.145-3.714l18.206-10.512c1.18-0.681,3.109-0.681,4.289,0
		l18.205,10.512c1.179,0.681,2.144,2.352,2.144,3.714v21.021c0,1.362-0.965,3.034-2.144,3.714L94.615,75.932
		c-1.18,0.681-3.109,0.681-4.289,0L72.12,65.417c-1.18-0.681-2.145-2.353-2.145-3.714V40.682z"/>
	<path fill="#9DDBEE" d="M73.893,42.942c0-1.362,0.965-3.034,2.144-3.714l14.289-8.25c1.18-0.681,3.109-0.681,4.289,0l14.288,8.25
		c1.179,0.681,2.145,2.353,2.145,3.714v16.499c0,1.362-0.965,3.034-2.145,3.714l-14.288,8.251c-1.18,0.681-3.109,0.681-4.289,0
		l-14.289-8.251c-1.179-0.681-2.144-2.352-2.144-3.714V42.942z"/>
	<path fill="#2B2C2B" d="M26.538,19.31c0,0,2.41-8.571,3.348-8.304c0.938,0.268,16.873,1.476,27.321,19.553
		C52.291,23.612,26.538,19.31,26.538,19.31z"/>
	<path fill="#2B2C2B" d="M101.026,19.31c0,0-2.408-8.571-3.347-8.304c-0.938,0.268-16.876,1.476-27.319,19.553
		C75.272,23.612,101.026,19.31,101.026,19.31z"/>
	<polygon fill="#2B2C2B" points="55.847,105.976 64.033,120.448 72.221,105.976 60.75,106.712 	"/>
	<ellipse fill="#2B2C2B" cx="64.034" cy="104.729" rx="8.731" ry="3.205"/>
	<path fill="#2B2C2B" d="M65.681,71.62c-1.047-0.872-2.759-0.872-3.806,0l-3.412,2.84c-1.047,0.872-0.788,1.583,0.573,1.583h9.485
		c1.361,0,1.62-0.712,0.573-1.583L65.681,71.62z"/>
	<path fill="#2B2C2B" d="M77.204,85.414c-3.898,1.646-7.958,2.5-12.447,2.558c-5.061,0.067-9.871-0.996-14.203-2.937l-1.746,2.952
		c4.905,2.289,10.215,3.463,15.992,3.385c5.242-0.066,9.453-0.896,13.947-2.916L77.204,85.414z"/>
	<path fill="#4CB0C1" d="M76.328,62.865V46.833c0-1.514,1.07-3.374,2.376-4.13l13.841-8.019c1.307-0.757,3.446-0.757,4.754,0
		l13.739,7.963c-0.201-1.4-1.17-2.943-2.332-3.617l-13.84-8.017c-1.306-0.757-3.446-0.757-4.753,0L76.277,39.03
		c-1.311,0.758-2.377,2.615-2.377,4.129v16.035c0,1.516,1.066,3.373,2.374,4.13l0.097,0.056
		C76.345,63.206,76.328,63.033,76.328,62.865z"/>
	<path fill="#2B2C2B" d="M33.682,44.187v6.72l-4.375-5.091c-1.434,1.232-2.343,3.054-2.343,5.091c0,3.709,3.009,6.716,6.717,6.716
		c3.709,0,6.716-3.007,6.716-6.716S37.391,44.19,33.682,44.187z"/>
	<path fill="#2B2C2B" d="M92.411,44.187v6.72l-4.374-5.091c-1.432,1.232-2.344,3.054-2.344,5.091c0,3.709,3.01,6.716,6.718,6.716
		s6.716-3.007,6.716-6.716S96.122,44.19,92.411,44.187z"/>
	<path fill="#2B2C2B" d="M61.342,43.834l-7.334,4.273v4.442l7.334-4.274c1.241-0.722,3.273-0.722,4.516,0l7.689,4.482v-4.442
		l-7.689-4.481C64.615,43.11,62.583,43.11,61.342,43.834z"/>
	<path fill="#2B2C2B" d="M61.751,99.081l-5.89,3.432v3.57l5.89-3.436c0.999-0.58,2.63-0.58,3.63,0l6.176,3.602v-3.568l-6.176-3.6
		C64.381,98.499,62.75,98.499,61.751,99.081z"/>
</g>
<g>
	<path fill="#2B2C2B" d="M147.354,81.829h-7.566l16.883-39.776h7.927l17.246,39.776h-7.927l-4.534-10.849H156.17l2.532-6.396h8.011
		l-6.261-14.937L147.354,81.829z"/>
	<path fill="#2B2C2B" d="M186.712,81.829V42.053h17.801c8.123,0,12.182,3.737,12.182,11.209c0,8.103-5.553,13.007-16.66,14.714
		l-1.057-6.564c6.678-1.206,10.014-3.849,10.014-7.928c0-3.301-1.65-4.951-4.951-4.951h-9.958v33.295L186.712,81.829L186.712,81.829
		z"/>
	<path fill="#2B2C2B" d="M228.936,42.054V81.83h-7.371V42.054H228.936z"/>
	<path fill="#2B2C2B" d="M236.586,80.438V74.32c3.242,1.297,6.988,1.945,11.236,1.945c3.17,0,4.756-1.021,4.756-3.06
		c0-1.946-1.066-2.92-3.199-2.92h-5.285c-5.934,0-8.902-2.921-8.902-8.762c0-6.119,4.332-9.179,12.992-9.179
		c3.672,0,7.129,0.556,10.375,1.669v6.119c-3.246-1.297-6.768-1.946-10.57-1.946c-3.984,0-5.979,1.02-5.979,3.059
		c0,1.948,1.158,2.921,3.477,2.921h4.729c6.49,0,9.736,2.921,9.736,8.763c0,6.119-4.135,9.179-12.406,9.179
		C243.482,82.106,239.828,81.552,236.586,80.438z"/>
	<path fill="#2B2C2B" d="M271.771,75.014v6.815H264.4v-6.815H271.771z"/>
	<path fill="#2B2C2B" d="M304.605,79.604c0,8.53-5.125,12.796-15.381,12.796c-3.6,0-6.785-0.463-9.568-1.391v-5.843
		c2.838,0.927,6.045,1.392,9.623,1.392c5.305,0,7.957-2.226,7.957-6.677c-2.188,0.929-4.545,1.392-7.064,1.392
		c-8.68,0-13.02-4.738-13.02-14.214c0-9.624,5.055-14.437,15.16-14.437c3.393,0,7.49,0.399,12.293,1.196V79.604z M297.236,59.243
		c-1.207-0.444-2.922-0.667-5.146-0.667c-5.102,0-7.648,2.81-7.648,8.428c0,5.434,2.195,8.15,6.592,8.15
		c2.113,0,4.182-0.5,6.203-1.501V59.243z"/>
	<path fill="#2B2C2B" d="M337.846,52.623V81.83h-5.758l-0.891-3.729c-3.355,2.487-6.916,3.729-10.68,3.729
		c-5.971,0-8.959-3.531-8.959-10.598V52.623h7.373v18.415c0,3.228,1.408,4.84,4.229,4.84c2.393,0,4.828-0.956,7.314-2.866V52.623
		H337.846z"/>
	<path fill="#2B2C2B" d="M344.801,81.829V52.622h5.701l0.918,3.728c2.561-2.486,5.268-3.728,8.125-3.728v5.953
		c-2.746,0-5.203,1.141-7.373,3.422v19.832H344.801z"/>
	<path fill="#2B2C2B" d="M390,52.623V81.83h-5.758l-0.891-3.729c-3.355,2.487-6.914,3.729-10.68,3.729
		c-5.971,0-8.957-3.531-8.957-10.598V52.623h7.369v18.415c0,3.228,1.41,4.84,4.23,4.84c2.391,0,4.828-0.956,7.314-2.866V52.623H390z
		"/>
</g>
</svg>
