<?xml version="1.0" encoding="utf-8"?>
<!-- Generator: Adobe Illustrator 18.0.0, SVG Export Plug-In . SVG Version: 6.00 Build 0)  -->
<!DOCTYPE svg PUBLIC "-//W3C//DTD SVG 1.1//EN" "http://www.w3.org/Graphics/SVG/1.1/DTD/svg11.dtd">
<svg version="1.1" id="Layer_1" xmlns="http://www.w3.org/2000/svg" xmlns:xlink="http://www.w3.org/1999/xlink" x="0px" y="0px"
	 viewBox="0 0 1255 328.3" enable-background="new 0 0 1255 328.3" xml:space="preserve">
<g>
	<path fill="#1EBAED" d="M97.5,38.8c23.3-5.7,45.6-8,66.5-8c0.5,0,1,0,1.5,0h0.1c18.9,0.1,36.5,2.1,52.5,5.1
		c21,4,39.2,9.7,53.6,15.3c14.8,5.5,41.5,16.8,59.1,33.7c0.3-5.8,0.4-11,0.4-15.4c0-7.5-0.3-12.8-0.4-15.3l0,0
		c-0.1-1.2-0.3-2.3-0.5-3.1c-0.2-0.9-0.5-1.6-0.8-2.1c-0.5-1.2-1-1.9-1.4-2.5c-0.4-0.6-0.7-1-1-1.3c-0.6-0.7-1-1-1.3-1.3
		c-0.3-0.3-0.6-0.5-0.8-0.7c-0.4-0.3-0.7-0.5-0.9-0.7c-0.4-0.3-0.8-0.5-1-0.7c-0.4-0.3-0.8-0.5-1-0.6c-0.3-0.2-0.4-0.3-0.5-0.3
		l0.1,0c-5.8-3.4-23.8-13.4-50.8-22.7c-13.5-4.6-29.3-9.1-46.9-12.4c-17.6-3.3-37.1-5.5-58.1-5.6l-0.1,0h0l0.1,0c-0.6,0-1.1,0-1.7,0
		c-23.1,0-47.9,2.5-73.8,8.9c-10.5,2.6-21.2,5.8-32,9.7c-3,10.6-5.6,22.9-6.5,35.7C67.3,47.5,82.6,42.4,97.5,38.8z M300.1,56.1
		L300.1,56.1L300.1,56.1z"/>
	<path fill="none" d="M153.4,325.3c0.6,0.2,1.2,0.4,1.8,0.6C154.6,325.7,154,325.5,153.4,325.3z"/>
	<path fill="#1A4276" d="M299.9,86.7c-0.6,11.7-2,25.8-4.8,41.3c-2.2,12.2-5.2,25.1-9.4,38.3c-4.2,13.2-9.6,26.5-16.4,39.5
		c-5.1,9.7-11,19.2-17.8,28.3c-10.2,13.6-22.5,26.2-37.4,37.2c-12.2,9-26.2,16.9-42.2,23.4c-2,0.8-4.1,1.6-6.1,2.4
		c-0.1,0-4.6,1.6-6.9,2.5c-13.7,4.8-29,8.4-43,7.7c11.2,6.8,23.5,12.8,36.9,17.8c0,0,0,0,0,0c0.2,0.1,0.5,0.2,0.7,0.3
		c0.6,0.2,1.2,0.4,1.8,0.6c6.7,2.3,10.6,2.3,10.6,2.3c2.9,0,6.2-0.8,8.2-1.5c14.6-5.1,27.9-11.4,40-18.5
		c19.5-11.5,35.8-25.2,49.4-40.3c13.6-15,24.5-31.3,33.2-47.9c7.7-14.8,13.7-29.7,18.4-44.4c7-21.9,11-43.1,13.3-61.4
		c0.2-1.9,0.5-3.8,0.7-5.7C321.9,102.2,311.9,94.1,299.9,86.7z"/>
	<path fill="#191F4B" d="M152.7,325.1C152.7,325.1,152.7,325.1,152.7,325.1c0.2,0.1,0.5,0.2,0.7,0.3
		C153.2,325.2,152.9,325.2,152.7,325.1z"/>
	<path fill="#191F4B" d="M138.1,284.6c-1.8-1-3.5-1.9-5.2-2.9c-16.7-9.9-30.6-21.6-42.2-34.5c-11.7-12.9-21.1-27-28.7-41.6
		c-6.8-12.9-12.1-26.3-16.3-39.4c-6.3-19.7-10-39-12.1-55.8c-0.3-2.6-0.6-5.1-0.9-7.6c-0.2-2-0.4-4.1-0.6-6
		C31.8,92,31,81.5,30.9,78.3c0-1.7-0.1-3.9-0.1-6.3c0-10.8,0.7-27.5,4.1-44.1c-8.3,3.7-16.7,7.9-25,12.5l0.1,0l-1.3,0.7
		c-4.6,2.5-7.6,7.2-8,12.5l0,0.2l0,0c-0.1,2.3-0.4,7.7-0.4,15.5c0,14.5,1,37.4,5.7,64c2.4,13.3,5.7,27.5,10.4,42.1
		c4.7,14.6,10.6,29.6,18.3,44.3c5.8,11.1,12.6,22,20.5,32.5c7.7,10.3,16.5,20.2,26.6,29.4c4,3.8,11.2,9.7,11.2,9.7
		C117.6,290.8,138.1,284.6,138.1,284.6z"/>
	<path fill="#191F4B" d="M420.4,104.3h37c2.9,10.4,6.9,23.7,12,39.7c5.2,16.1,9.2,29.2,12,39.3c2.9,10.2,4.5,15.2,4.9,15.2
		c0.4,0,4.4-12.9,12-38.8c7.6-25.8,12.7-44.4,15.3-55.6h36.4c0.7,1.8,1.1,3.5,1.1,5.2c0,1.5-0.3,2.5-0.9,3.1
		c-0.6,0.6-1.6,0.9-3.1,0.9h-5.9c-0.2,11-0.1,29.1,0.5,54.1c0.6,25.1,1.2,41.7,1.8,50.1h8.7c0.8,1.8,1.2,3.5,1.2,5.2
		c0,1.5-0.3,2.5-0.9,3.1c-0.6,0.6-1.7,0.9-3.2,0.9h-35.2c-0.8-2-1.2-3.9-1.2-5.7c0-1.3,0.3-2.2,0.9-2.7c0.6-0.6,1.7-0.9,3.1-0.9h5.3
		c0.5-10.4,0.3-42.1-0.6-95.1c-4.7,18-10.1,36.3-16.2,54.9c-6.1,18.6-10.2,29.7-12.1,33.1c-2,3.4-5.2,5.1-9.6,5.1
		c-6.4,0-9.9-0.2-10.7-0.7c-0.7-0.5-4.8-11-12-31.4c-7.3-20.5-13.7-41-19.2-61.5c-0.2,53.3-0.1,85.1,0.4,95.6h8.4
		c0.7,1.8,1.1,3.5,1.1,5.2c0,1.5-0.3,2.5-0.9,3.1c-0.6,0.6-1.6,0.9-3.1,0.9h-33.1c-0.7-2-1.1-3.9-1.1-5.7c0-1.3,0.3-2.2,0.9-2.7
		c0.6-0.6,1.7-0.9,3.1-0.9h6.6c0.7-8.3,1.3-25,1.8-50.1c0.6-25.1,0.8-43.1,0.7-54.1h-9.1c-0.7-2-1.1-3.9-1.1-5.7
		c0-1.3,0.3-2.2,0.9-2.7C418,104.6,419,104.3,420.4,104.3z"/>
	<path fill="#191F4B" d="M623.4,219.9c-5,2.9-10.2,5.2-15.5,6.7c-5.3,1.5-10.5,2.3-15.6,2.3c-8.1,0-14.1-1.9-18.1-5.7
		c-4-3.8-5.9-9.5-5.9-16.9c0-9.2,3.3-16.2,9.8-21c6.5-4.9,16.6-7.3,30.3-7.3h13.2c-0.4-10.5-1.9-17.9-4.5-22
		c-2.7-4.1-7.4-6.2-14.2-6.2c-3.6,0-7,0.4-10.3,1.1c-1.7,3.5-2.8,5.3-3.1,5.6c-0.3,0.2-2.1,0.8-5.2,1.6c-3.1,0.8-5.3,0.7-6.5-0.5
		c-1.2-1.1-2.5-3.1-3.8-6.1c-1.3-2.9-1.9-5.3-1.9-7.1c0-1.2,0.5-2.1,1.5-2.8c1-0.7,5-1.5,12.1-2.4c7.1-1,14.6-1.4,22.6-1.4
		c10.6,0,18.4,1.8,23.5,5.5c5.1,3.7,7.6,10.4,7.6,20.1v27.7c0,12.8,0.6,20.6,1.7,23.5c1.1,2.8,3,4,5.5,3.4c0.7,1.3,1.1,2.6,1.1,3.9
		c0,2-1.3,3.6-3.8,4.7c-2.5,1.1-6,1.6-10.3,1.6c-2.1,0-3.7-0.3-4.8-0.8C627.5,226.7,625.8,224.3,623.4,219.9z M621.6,189.5
		c-5.2-0.9-10.5-1.3-16-1.3c-6.8,0-11.6,1.1-14.3,3.4c-2.7,2.3-4.1,5.9-4.1,10.8c0,4.8,1.2,8.4,3.6,10.8c2.4,2.4,6.2,3.6,11.3,3.6
		c4,0,7.6-0.8,11.1-2.3c3.4-1.6,5.7-3.7,6.8-6.5c1.1-2.8,1.7-7.2,1.7-13.2V189.5z"/>
	<path fill="#191F4B" d="M692.8,217.8h9.5c0.8,1.6,1.2,3.2,1.2,5c0,1.6-0.3,2.7-1,3.3c-0.7,0.6-1.9,0.9-3.9,0.9h-35.3
		c-0.7-1.9-1.1-3.7-1.1-5.4c0-1.3,0.3-2.3,0.9-2.9c0.6-0.6,1.7-0.9,3.3-0.9h6.7c0.4-8.3,0.6-18.1,0.6-29.3c0-13.7-0.1-22.8-0.3-27.4
		c-0.2-4.6-0.7-7.7-1.5-9.5c-0.8-1.7-1.9-2.8-3.3-3.2c-1.4-0.4-3.2-0.6-5.3-0.6c-0.8-1.3-1.2-2.7-1.2-4.4c0-2.5,1.2-4,3.5-4.5
		c2.3-0.5,6.9-0.8,13.6-0.8c4.7,0,7.9,0.2,9.6,0.7c1.7,0.5,2.6,1.3,2.9,2.5c0.2,1.2,0.4,3.3,0.4,6.3v40.9
		C692.2,199.7,692.4,209.5,692.8,217.8z M680,122.7c-3.9,0-6.8-0.8-8.6-2.4c-1.9-1.6-2.8-4-2.8-7c0.1-3.3,1.3-5.9,3.6-7.9
		c2.3-2,5.6-3,9.9-3c4.2,0,7.2,0.9,9,2.6c1.8,1.7,2.7,4,2.7,6.9c0,3.2-1.1,5.9-3.3,7.9C688.2,121.7,684.8,122.7,680,122.7z"/>
	<path fill="#191F4B" d="M727.9,175.6c0-25.4-0.1-41.5-0.4-48.4c-0.2-6.9-0.7-11.4-1.3-13.5c-0.6-2.1-1.7-3.4-3.1-4
		c-1.4-0.6-3.3-0.9-5.7-0.9c-0.8-1.9-1.2-3.7-1.2-5.5c0-1.9,0.8-3,2.3-3.5c1.5-0.5,6.5-0.7,14.8-0.7c4.7,0,7.9,0.2,9.6,0.7
		c1.7,0.5,2.6,1.3,2.9,2.5c0.2,1.2,0.4,3.3,0.4,6.3v75.3c0.1,14.4,0.3,25.7,0.7,34.1h10c0.7,1.6,1.1,3.2,1.1,5c0,1.6-0.3,2.7-1,3.3
		c-0.7,0.6-1.9,0.9-3.8,0.9h-35.8c-0.8-1.9-1.2-3.7-1.2-5.4c0-1.3,0.3-2.3,1-2.9c0.7-0.6,1.7-0.9,3.2-0.9h6.7
		C727.6,209.5,727.9,195.4,727.9,175.6z"/>
	<path fill="#191F4B" d="M818.1,102.5c13,0,22,0.8,27.1,2.3c5,1.5,7.6,4.5,7.6,8.9c0,4-1.6,7.6-4.9,10.7
		c-12.6-5.8-24.3-8.6-35.1-8.6c-7.6,0-13,1.5-16.1,4.5c-3.1,3-4.7,7.2-4.7,12.5c0,5.6,1.9,10,5.6,13.3c3.7,3.3,10.9,6.6,21.4,9.9
		c12.4,3.7,21.8,8,28.2,12.8c6.4,4.8,9.8,12.6,10.1,23.4c0,12-4.1,21.2-12.4,27.3c-8.2,6.2-20.8,9.3-37.8,9.3
		c-11.8,0-20.8-0.8-26.9-2.5c-6.1-1.7-9.2-4.8-9.2-9.4c0-4.1,1.7-7.8,5.2-11c11.9,6.5,24.2,9.7,37,9.7c8.8,0,15.1-1.4,18.8-4.3
		c3.7-2.9,5.6-7.3,5.6-13.3c0-7.2-2.7-12.6-8-16.2c-5.4-3.6-13.9-7.3-25.7-11c-11.4-3.5-19.5-7.8-24.3-13.1
		c-4.8-5.2-7.2-12.1-7.2-20.6c0-10.6,3.9-19,11.8-25.3C792,105.7,803.4,102.5,818.1,102.5z"/>
	<path fill="#191F4B" d="M933.8,257.4c0.4-8.9,0.6-21,0.6-36.1c-3.7,2.3-7.8,4.2-12.5,5.6c-4.7,1.4-9.6,2.1-14.7,2.1
		c-10.8,0-18.8-3.2-24.1-9.7c-5.3-6.5-7.9-16.8-7.9-30.9c0-17.4,3.8-30.3,11.3-38.8c7.6-8.5,18.4-12.7,32.5-12.7
		c3.2,0,6.2,0.2,9.2,0.6c2.9,0.4,6.1,1.1,9.5,2l3.1-7.3c4.2,0,7.1,0.3,8.6,0.8c1.6,0.5,2.5,1.5,3,2.8c0.4,1.3,0.6,3.4,0.6,6.2
		l-0.2,85.1c0,11.3,0.2,21.5,0.6,30.4h7.7c0.8,1.6,1.2,3.2,1.2,5c0,1.6-0.3,2.7-1,3.3c-0.7,0.6-1.9,0.9-3.9,0.9h-35.8
		c-0.7-1.9-1.1-3.7-1.1-5.4c0-1.3,0.3-2.3,0.9-2.9c0.6-0.6,1.7-0.9,3.3-0.9H933.8z M916.5,148.8c-7.8,0-13.2,2.7-16.3,8
		c-3.1,5.3-4.6,13.4-4.6,24.1c0,12.3,1.6,21.4,4.7,27.2c3.1,5.8,8.1,8.7,14.8,8.7c4,0,7.5-0.7,10.7-2.2c3.2-1.4,5.4-3.6,6.7-6.6
		c1.3-2.9,1.9-7.9,1.9-14.9v-39.7c-2.3-1.3-4.9-2.4-8-3.3C923.4,149.2,920.1,148.8,916.5,148.8z"/>
	<path fill="#191F4B" d="M1052,190.9c0,12,0.5,19.5,1.4,22.2c1,2.8,2.9,4,5.8,3.7c0.7,1.4,1.1,2.8,1.1,4.2c0,2.2-1.7,3.9-5.1,5.1
		c-3.4,1.2-6.7,1.8-10,1.8c-2.1,0-3.6-0.4-4.6-1.3c-1-0.8-2.5-3.1-4.5-6.8c-4.8,2.8-9.8,4.9-14.9,6.6c-5.1,1.6-10.5,2.4-16.1,2.4
		c-7.4,0-13.2-2.1-17.3-6.2c-4.1-4.1-6.2-11.6-6.2-22.6c0-21.4-0.1-34.4-0.3-39c-0.2-4.6-0.7-7.7-1.5-9.5c-0.8-1.7-1.8-2.8-3.1-3.2
		c-1.3-0.4-2.6-0.6-4.1-0.6c-0.8-1.3-1.2-2.7-1.2-4.2c0-2.1,1.5-3.5,4.4-4.3c2.9-0.8,7-1.2,12.2-1.2c4.1,0,7,0.3,8.5,0.8
		c1.5,0.5,2.5,1.3,2.9,2.5c0.4,1.2,0.6,5.1,0.6,11.8v33.9c0,12.3,1.4,20.3,4.1,24.1c2.7,3.8,6.5,5.7,11.4,5.7c3.4,0,6.7-0.7,10-2.2
		c3.2-1.4,5.4-3.4,6.5-6c1.1-2.6,1.7-7.6,1.7-14.9c0-17.1-0.1-27.9-0.2-32.4c-0.1-4.4-0.6-7.6-1.3-9.5c-0.7-1.9-1.6-3-2.7-3.5
		c-1.1-0.4-2.6-0.6-4.4-0.6c-0.8-1.3-1.2-2.7-1.2-4.2c0-2.1,1.5-3.5,4.6-4.3c3.1-0.8,6.9-1.2,11.6-1.2c4.1,0,7,0.3,8.5,0.8
		c1.5,0.5,2.5,1.4,2.9,2.7c0.4,1.3,0.6,5.3,0.6,12V190.9z"/>
	<path fill="#191F4B" d="M1130.2,219.9c-5,2.9-10.2,5.2-15.5,6.7c-5.3,1.5-10.5,2.3-15.6,2.3c-8.1,0-14.1-1.9-18.1-5.7
		c-4-3.8-5.9-9.5-5.9-16.9c0-9.2,3.3-16.2,9.8-21c6.5-4.9,16.6-7.3,30.3-7.3h13.2c-0.4-10.5-1.9-17.9-4.5-22
		c-2.7-4.1-7.4-6.2-14.2-6.2c-3.6,0-7,0.4-10.3,1.1c-1.7,3.5-2.8,5.3-3.1,5.6c-0.3,0.2-2.1,0.8-5.2,1.6c-3.1,0.8-5.3,0.7-6.5-0.5
		c-1.2-1.1-2.5-3.1-3.8-6.1c-1.3-2.9-1.9-5.3-1.9-7.1c0-1.2,0.5-2.1,1.5-2.8c1-0.7,5-1.5,12.1-2.4c7.1-1,14.6-1.4,22.6-1.4
		c10.6,0,18.4,1.8,23.5,5.5c5.1,3.7,7.6,10.4,7.6,20.1v27.7c0,12.8,0.6,20.6,1.7,23.5c1.1,2.8,3,4,5.5,3.4c0.7,1.3,1.1,2.6,1.1,3.9
		c0,2-1.3,3.6-3.8,4.7c-2.5,1.1-6,1.6-10.3,1.6c-2.1,0-3.7-0.3-4.8-0.8C1134.3,226.7,1132.6,224.3,1130.2,219.9z M1128.4,189.5
		c-5.2-0.9-10.5-1.3-16-1.3c-6.8,0-11.6,1.1-14.3,3.4c-2.7,2.3-4.1,5.9-4.1,10.8c0,4.8,1.2,8.4,3.6,10.8c2.4,2.4,6.2,3.6,11.3,3.6
		c4,0,7.6-0.8,11.1-2.3c3.4-1.6,5.7-3.7,6.8-6.5c1.1-2.8,1.7-7.2,1.7-13.2V189.5z"/>
	<path fill="#191F4B" d="M1231.6,219.9c-5.5,3.2-10.6,5.5-15.3,6.9c-4.7,1.4-9.6,2.1-14.7,2.1c-10.2,0-18-3.1-23.5-9.2
		c-5.5-6.1-8.2-16.7-8.2-31.8c0-16.7,3.7-29.4,11-38.1c7.3-8.7,18.3-13.1,32.8-13.1c3.5,0,6.4,0.2,8.7,0.5c2.3,0.4,4.6,0.8,6.7,1.3
		c0-4.4-0.1-9.2-0.3-14.3c-0.2-5.1-0.6-8.6-1.3-10.7c-0.6-2.1-1.7-3.4-3.1-4c-1.5-0.6-3.3-0.9-5.6-0.9c-0.8-1.9-1.2-3.7-1.2-5.5
		c0-1.9,0.7-3,2.2-3.5c1.5-0.5,6.4-0.7,14.8-0.7c4.7,0,7.9,0.2,9.6,0.7c1.7,0.5,2.6,1.3,2.9,2.5c0.2,1.2,0.4,3.3,0.4,6.3v64.4
		c0,22.9,0.5,36.2,1.6,40c1,3.8,2.7,5.4,4.9,4.9c0.8,1.4,1.3,2.7,1.3,4c0,1.7-2,3.3-6,4.8c-4,1.5-7.2,2.2-9.8,2.2
		c-1.5,0-2.8-0.5-3.8-1.6C1234.7,226.2,1233.4,223.8,1231.6,219.9z M1210.7,148.8c-7.2,0-12.4,2.5-15.6,7.5
		c-3.2,5-4.8,13.7-4.8,25.9c0,10.8,1.5,19.3,4.6,25.4c3.1,6.1,8.2,9.2,15.5,9.2c3.8,0,7.3-0.8,10.5-2.3c3.2-1.5,5.4-3.5,6.5-6
		c1.2-2.5,1.8-8.6,1.8-18.4v-36.7c-2.2-1.2-4.8-2.3-7.9-3.2C1218.1,149.2,1214.6,148.8,1210.7,148.8z"/>
	<path fill="#1A4276" d="M208.4,147.1c7.5,6.4,14.4,12.6,20.7,18.5c9.3,8.7,17,16.4,22.5,22.2c17.3-33.9,19.6-70.7,19.6-87.6
		c0-2.6-0.1-4.7-0.1-6.3C262.3,106.1,241.9,130.7,208.4,147.1z"/>
	<path fill="#1EBAED" d="M259.9,81.9c-7.8-4.5-44.3-23.9-93.7-24.2h0h-0.1c-0.1,0-0.1,0-0.2,0s-0.1,0-0.2,0h-0.1h0h0h0
		C116.2,58,79.7,77.4,71.9,81.9c8.4,12.2,29.9,38.8,65.9,55.9c8.5,4,17.7,7.5,27.8,10.2l0.3-0.1l0.3,0.1
		c10.1-2.7,19.3-6.1,27.8-10.2C230,120.7,251.5,94.1,259.9,81.9z"/>
	<path fill="#1A4276" d="M80.1,187.7c5.5-5.7,13.2-13.5,22.5-22.2c6.2-5.9,13.2-12.1,20.7-18.5c-33.5-16.4-53.9-40.9-62.7-53.3
		c-0.1,1.6-0.1,3.7-0.1,6.3C60.5,117,62.8,153.8,80.1,187.7z"/>
	<path fill="#191F4B" d="M242.5,199.4c-0.3-0.3-3.1-3.6-3.8-4.3c-0.4-0.4-0.8-0.8-1.3-1.3c-4.8-4.9-15.4-15.5-21.1-20.9
		c-6.6-6.2-14-12.9-22-19.6c-8.4,3.9-17.5,7.3-27.4,10l-0.6,0.2c-0.2,0.1-0.5,0.1-0.7,0l-0.8-0.2c0,0,0,0,0,0
		c-9.9-2.6-19-6-27.3-9.9c-8,6.7-15.4,13.4-22,19.6c-5.8,5.5-11,10.6-15.5,15c-2.2,2.2-5.4,5.5-7.1,7.4c-0.6,0.6-1.1,1.1-1.3,1.4
		c-0.1,0.1-0.1,0.1-0.1,0.1l0,0c0,0,0,0.1-0.1,0.1c-1.5,1.6-2.9,3.2-4.2,4.8c5.1,8.2,12.2,17.8,21.9,26.9
		c10,9.4,22.7,18.2,38.6,24.6c0.1,0,1.1,0.5,1.7,0.7c1.1,0.4,2.7,1,4.5,1.6c3.3,1.2,7.5,2.6,11.2,3.6c0.2,0.1,0.5,0.1,0.7,0.2
		c0,0,0,0,0,0l0,0v0c0.2-0.1,0.5-0.1,0.7-0.2c3.8-1.1,8.1-2.5,11.4-3.7l0,0c1.7-0.6,3.3-1.2,5-1.8l0,0c0.3-0.1,0.6-0.2,0.8-0.3
		c0.1,0,0.1,0,0.1,0c0,0,0.1,0,0.1-0.1c16-6.4,28.7-15.2,38.6-24.6c9.7-9.1,16.8-18.7,21.9-26.9C244,201.2,243.3,200.3,242.5,199.4z
		"/>
</g>
</svg>
