<?xml version="1.0" encoding="utf-8"?>
<!-- Generator: Adobe Illustrator 18.0.0, SVG Export Plug-In . SVG Version: 6.00 Build 0)  -->
<!DOCTYPE svg PUBLIC "-//W3C//DTD SVG 1.1//EN" "http://www.w3.org/Graphics/SVG/1.1/DTD/svg11.dtd">
<svg version="1.1" id="Layer_1" xmlns="http://www.w3.org/2000/svg" xmlns:xlink="http://www.w3.org/1999/xlink" x="0px" y="0px"
	 viewBox="0 0 306 122" enable-background="new 0 0 306 122" xml:space="preserve">
<g>
	<g>
		<g>
			<path fill="#2DA09A" d="M0,0v122h122.1V0H0z M113.4,113.3H8.7V8.7h104.7V113.3z"/>
		</g>
		<g>
			<rect x="17.3" y="17.3" fill="#2DA09A" width="23.4" height="23.3"/>
		</g>
		<g>
			<rect x="49.4" y="17.3" fill="#2DA09A" width="23.4" height="23.3"/>
		</g>
		<g>
			<rect x="81.4" y="17.3" fill="#2DA09A" width="23.4" height="23.3"/>
		</g>
		<g>
			<rect x="17.3" y="81.3" fill="#2DA09A" width="23.4" height="23.3"/>
		</g>
		<g>
			<rect x="17.3" y="49.3" fill="#2DA09A" width="23.4" height="23.3"/>
		</g>
		<g>
			<rect x="49.4" y="81.3" fill="#2DA09A" width="23.4" height="23.3"/>
		</g>
		<g>
			<rect x="49.4" y="49.3" fill="#2DA09A" width="23.4" height="23.3"/>
		</g>
		<g>
			<rect x="81.4" y="81.3" fill="#2DA09A" width="23.4" height="23.3"/>
		</g>
		<g>
			<rect x="81.4" y="49.3" fill="#2DA09A" width="23.4" height="23.3"/>
		</g>
	</g>
	<g>
		<path fill="#2DA09A" d="M139.7,21c-1.9,0-3.3,0.7-4.3,2.1c-1,1.4-1.5,3.4-1.5,5.9c0,5.2,2,7.8,5.9,7.8c1.6,0,3.6-0.4,6-1.2v4.2
			c-1.9,0.8-4.1,1.2-6.4,1.2c-3.4,0-6-1-7.8-3.1c-1.8-2.1-2.7-5-2.7-8.9c0-2.4,0.4-4.6,1.3-6.4c0.9-1.8,2.2-3.2,3.8-4.2
			c1.7-1,3.6-1.5,5.8-1.5c2.3,0,4.6,0.6,6.9,1.7l-1.6,4c-0.9-0.4-1.8-0.8-2.6-1.1C141.4,21.2,140.5,21,139.7,21z"/>
		<path fill="#2DA09A" d="M150.1,18.1c0-1.6,0.9-2.4,2.7-2.4c1.8,0,2.7,0.8,2.7,2.4c0,0.8-0.2,1.3-0.7,1.8s-1.1,0.6-2,0.6
			C150.9,20.5,150.1,19.7,150.1,18.1z M155.2,40.7h-4.9V22.8h4.9V40.7z"/>
		<path fill="#2DA09A" d="M167.8,37.1c0.9,0,1.9-0.2,3.1-0.6v3.6c-1.2,0.5-2.7,0.8-4.5,0.8c-2,0-3.4-0.5-4.3-1.5
			c-0.9-1-1.3-2.5-1.3-4.4v-8.6h-2.3v-2.1l2.7-1.6l1.4-3.8h3.1v3.8h5v3.7h-5v8.6c0,0.7,0.2,1.2,0.6,1.5
			C166.7,36.9,167.2,37.1,167.8,37.1z"/>
		<path fill="#2DA09A" d="M172,22.8h5.4l3.4,10.1c0.3,0.9,0.5,1.9,0.6,3.1h0.1c0.1-1.1,0.3-2.1,0.7-3.1l3.3-10.1h5.2L183.1,43
			c-0.7,1.9-1.7,3.3-3,4.2c-1.3,0.9-2.8,1.4-4.5,1.4c-0.8,0-1.7-0.1-2.5-0.3v-3.9c0.6,0.1,1.2,0.2,1.9,0.2c0.9,0,1.6-0.3,2.3-0.8
			s1.2-1.3,1.5-2.4l0.3-0.9L172,22.8z"/>
		<path fill="#2DA09A" d="M207.4,34.2c0,2.1-0.8,3.8-2.3,5c-1.5,1.2-3.6,1.8-6.4,1.8c-2.5,0-4.7-0.5-6.6-1.4V35
			c1.6,0.7,2.9,1.2,4,1.5c1.1,0.3,2.1,0.4,3,0.4c1.1,0,1.9-0.2,2.5-0.6c0.6-0.4,0.9-1,0.9-1.9c0-0.5-0.1-0.9-0.4-1.2s-0.6-0.7-1.1-1
			c-0.5-0.3-1.5-0.9-3-1.6c-1.4-0.7-2.5-1.3-3.2-1.9c-0.7-0.6-1.3-1.3-1.7-2.2s-0.6-1.8-0.6-2.9c0-2.1,0.7-3.7,2.1-4.9
			c1.4-1.2,3.3-1.8,5.8-1.8c1.2,0,2.4,0.1,3.5,0.4s2.3,0.7,3.5,1.2l-1.6,3.9c-1.3-0.5-2.3-0.9-3.1-1.1c-0.8-0.2-1.6-0.3-2.4-0.3
			c-0.9,0-1.7,0.2-2.2,0.7s-0.8,1-0.8,1.7c0,0.4,0.1,0.8,0.3,1.1c0.2,0.3,0.5,0.6,1,0.9c0.4,0.3,1.5,0.9,3.2,1.6
			c2.2,1,3.7,2.1,4.5,3.1C207,31.3,207.4,32.6,207.4,34.2z"/>
		<path fill="#2DA09A" d="M231.1,28.7c0,3.9-1.1,6.8-3.3,8.9c-2.2,2.1-5.4,3.1-9.5,3.1h-6.6V17.2h7.4c3.8,0,6.8,1,8.9,3
			S231.1,25.1,231.1,28.7z M226,28.9c0-5-2.2-7.5-6.7-7.5h-2.6v15.3h2.1C223.6,36.6,226,34,226,28.9z"/>
		<path fill="#2DA09A" d="M254.9,40.7h-5.6l-6.1-9.9l-2.1,1.5v8.4h-5V17.2h5V28l2-2.8l6.4-8h5.5l-8.2,10.4L254.9,40.7z"/>
	</g>
	<g>
		<path fill="#2DA09A" d="M141.4,96.4h-9.5l-3.3,8.3h-1.8l9.4-23.5h1l9.2,23.5h-1.8L141.4,96.4z M132.5,94.9h8.4l-3.2-8.4
			c-0.3-0.7-0.6-1.6-1-2.8c-0.3,1-0.6,2-0.9,2.8L132.5,94.9z"/>
		<path fill="#2DA09A" d="M163.9,88c0,2.3-0.8,4-2.3,5.2c-1.5,1.2-3.7,1.8-6.5,1.8h-3.6v9.7h-1.6V81.2h5.7
			C161.1,81.2,163.9,83.5,163.9,88z M151.4,93.6h3.2c2.6,0,4.5-0.4,5.7-1.3c1.2-0.9,1.8-2.3,1.8-4.2c0-1.8-0.6-3.1-1.7-4
			c-1.1-0.9-2.8-1.3-5.2-1.3h-3.9V93.6z"/>
		<path fill="#2DA09A" d="M169,104.7V81.2h1.6v23.4H169z"/>
	</g>
	<g>
		<path fill="#2DA09A" d="M130,72.7V49.2h2.7v21h10.3v2.5H130z"/>
		<path fill="#2DA09A" d="M146.4,50.3c0-0.6,0.1-1.1,0.4-1.3c0.3-0.3,0.7-0.4,1.1-0.4c0.4,0,0.8,0.1,1.1,0.4
			c0.3,0.3,0.5,0.7,0.5,1.3c0,0.6-0.2,1-0.5,1.3c-0.3,0.3-0.7,0.4-1.1,0.4c-0.4,0-0.8-0.1-1.1-0.4C146.6,51.4,146.4,50.9,146.4,50.3
			z M149.3,72.7h-2.7V55.1h2.7V72.7z"/>
		<path fill="#2DA09A" d="M167,72.7V61.3c0-1.4-0.3-2.5-1-3.2c-0.7-0.7-1.7-1.1-3.1-1.1c-1.8,0-3.2,0.5-4,1.5
			c-0.9,1-1.3,2.6-1.3,4.9v9.2H155V55.1h2.2l0.4,2.4h0.1c0.5-0.9,1.3-1.5,2.3-2c1-0.5,2.1-0.7,3.3-0.7c2.1,0,3.7,0.5,4.8,1.5
			s1.6,2.7,1.6,4.9v11.5H167z"/>
		<path fill="#2DA09A" d="M177.7,63.7c0.5-0.7,1.2-1.5,2.1-2.6l5.7-6h3.2l-7.1,7.5l7.6,10.1h-3.2l-6.2-8.3l-2,1.7v6.6h-2.6V47.7h2.6
			V61c0,0.6,0,1.5-0.1,2.7H177.7z"/>
		<path fill="#2DA09A" d="M199.8,73c-2.6,0-4.6-0.8-6.1-2.4c-1.5-1.6-2.3-3.8-2.3-6.6c0-2.8,0.7-5.1,2.1-6.7
			c1.4-1.7,3.3-2.5,5.6-2.5c2.2,0,3.9,0.7,5.2,2.2c1.3,1.4,1.9,3.4,1.9,5.7v1.7h-12.1c0.1,2.1,0.6,3.6,1.6,4.7s2.4,1.6,4.2,1.6
			c1.9,0,3.8-0.4,5.6-1.2v2.4c-0.9,0.4-1.8,0.7-2.7,0.9C202,72.9,201,73,199.8,73z M199,57c-1.4,0-2.5,0.5-3.4,1.4
			c-0.8,0.9-1.3,2.2-1.5,3.8h9.2c0-1.7-0.4-3-1.1-3.9C201.5,57.5,200.4,57,199,57z"/>
		<path fill="#2DA09A" d="M222.7,70.3h-0.1c-1.2,1.8-3.1,2.7-5.5,2.7c-2.3,0-4.1-0.8-5.4-2.4s-1.9-3.8-1.9-6.7
			c0-2.9,0.6-5.1,1.9-6.7c1.3-1.6,3.1-2.4,5.4-2.4c2.4,0,4.2,0.9,5.5,2.6h0.2l-0.1-1.3l-0.1-1.2v-7.1h2.7v24.9h-2.2L222.7,70.3z
			 M217.4,70.8c1.8,0,3.1-0.5,4-1.5c0.8-1,1.2-2.6,1.2-4.8v-0.6c0-2.5-0.4-4.3-1.2-5.3c-0.8-1.1-2.2-1.6-4-1.6
			c-1.6,0-2.8,0.6-3.6,1.8c-0.8,1.2-1.2,2.9-1.2,5.1c0,2.2,0.4,3.9,1.2,5.1C214.6,70.2,215.8,70.8,217.4,70.8z"/>
		<path fill="#2DA09A" d="M258.5,60.7c0,3.9-1,6.8-3.2,8.9s-5.1,3.1-9.1,3.1h-6.5V49.2h7.2c3.6,0,6.5,1,8.5,3
			C257.5,54.3,258.5,57.1,258.5,60.7z M255.6,60.8c0-3.1-0.8-5.4-2.3-6.9s-3.8-2.3-6.8-2.3h-4v18.7h3.3c3.3,0,5.7-0.8,7.3-2.4
			S255.6,64,255.6,60.8z"/>
		<path fill="#2DA09A" d="M274.2,72.7l-0.5-2.5h-0.1c-0.9,1.1-1.8,1.8-2.6,2.2c-0.9,0.4-2,0.6-3.3,0.6c-1.7,0-3.1-0.4-4.1-1.3
			c-1-0.9-1.5-2.2-1.5-3.8c0-3.5,2.8-5.4,8.5-5.6l3-0.1v-1.1c0-1.4-0.3-2.4-0.9-3.1c-0.6-0.7-1.5-1-2.8-1c-1.5,0-3.1,0.4-5,1.3
			l-0.8-2c0.9-0.5,1.8-0.8,2.8-1.1c1-0.3,2.1-0.4,3.1-0.4c2.1,0,3.6,0.5,4.7,1.4c1,0.9,1.5,2.4,1.5,4.5v12H274.2z M268.2,70.8
			c1.7,0,3-0.5,3.9-1.4c0.9-0.9,1.4-2.2,1.4-3.8V64l-2.7,0.1c-2.1,0.1-3.6,0.4-4.6,1c-0.9,0.6-1.4,1.5-1.4,2.7c0,1,0.3,1.7,0.9,2.2
			C266.3,70.5,267.1,70.8,268.2,70.8z"/>
		<path fill="#2DA09A" d="M287.3,70.8c0.5,0,0.9,0,1.4-0.1c0.4-0.1,0.8-0.1,1-0.2v2c-0.3,0.1-0.7,0.3-1.3,0.3
			c-0.6,0.1-1.1,0.1-1.5,0.1c-3.4,0-5.1-1.8-5.1-5.4V57.2h-2.5v-1.3l2.5-1.1l1.1-3.7h1.5v4.1h5.1v2.1h-5.1v10.3
			c0,1.1,0.3,1.9,0.8,2.4C285.7,70.5,286.4,70.8,287.3,70.8z"/>
		<path fill="#2DA09A" d="M304,72.7l-0.5-2.5h-0.1c-0.9,1.1-1.7,1.8-2.6,2.2c-0.9,0.4-2,0.6-3.3,0.6c-1.7,0-3.1-0.4-4.1-1.3
			c-1-0.9-1.5-2.2-1.5-3.8c0-3.5,2.8-5.4,8.5-5.6l3-0.1v-1.1c0-1.4-0.3-2.4-0.9-3.1c-0.6-0.7-1.5-1-2.8-1c-1.5,0-3.1,0.4-5,1.3
			l-0.8-2c0.9-0.5,1.8-0.8,2.8-1.1c1-0.3,2.1-0.4,3.1-0.4c2.1,0,3.6,0.5,4.7,1.4c1,0.9,1.5,2.4,1.5,4.5v12H304z M298,70.8
			c1.7,0,3-0.5,3.9-1.4c0.9-0.9,1.4-2.2,1.4-3.8V64l-2.7,0.1c-2.1,0.1-3.6,0.4-4.6,1c-0.9,0.6-1.4,1.5-1.4,2.7c0,1,0.3,1.7,0.9,2.2
			C296.2,70.5,297,70.8,298,70.8z"/>
	</g>
</g>
</svg>
