<?xml version="1.0" encoding="utf-8"?>
<!-- Generator: Adobe Illustrator 16.0.0, SVG Export Plug-In . SVG Version: 6.00 Build 0)  -->
<!DOCTYPE svg PUBLIC "-//W3C//DTD SVG 1.1//EN" "http://www.w3.org/Graphics/SVG/1.1/DTD/svg11.dtd">
<svg version="1.1" id="Layer_1" xmlns="http://www.w3.org/2000/svg" xmlns:xlink="http://www.w3.org/1999/xlink" x="0px" y="0px"
	 width="200px" height="200px" viewBox="0 0 200 200" enable-background="new 0 0 200 200" xml:space="preserve">
<g>
	<path fill="#2B2C2B" d="M34.022,62.607c0-4.261,3.02-9.49,6.71-11.621l53.551-30.917c3.693-2.133,9.731-2.133,13.42,0
		l53.557,30.917c3.689,2.131,6.709,7.36,6.709,11.621v61.836c0,4.26-3.02,9.49-6.709,11.619l-53.557,30.918
		c-3.688,2.131-9.727,2.131-13.42,0l-53.551-30.918c-3.691-2.129-6.71-7.359-6.71-11.619V62.607z"/>
	<path fill="#FED16E" d="M40.299,66.228c0-4.26,3.019-9.489,6.707-11.62l47.278-27.297c3.693-2.131,9.731-2.131,13.42,0
		l47.284,27.297c3.689,2.13,6.707,7.359,6.707,11.62v54.59c0,4.265-3.018,9.492-6.707,11.621l-47.284,27.299
		c-3.688,2.131-9.727,2.131-13.42,0l-47.278-27.299c-3.688-2.129-6.707-7.356-6.707-11.621V66.228z"/>
	
		<linearGradient id="SVGID_1_" gradientUnits="userSpaceOnUse" x1="162.9717" y1="108.4756" x2="73.8019" y2="108.4756" gradientTransform="matrix(1 0 0 -1 0 202)">
		<stop  offset="0" style="stop-color:#FEC017"/>
		<stop  offset="1" style="stop-color:#F89923"/>
	</linearGradient>
	<path fill="url(#SVGID_1_)" d="M154.986,54.609l-47.282-27.297c-1.848-1.065-4.278-1.598-6.709-1.598v135.623
		c2.431,0,4.861-0.533,6.709-1.599l47.282-27.299c3.691-2.129,6.709-7.356,6.709-11.621v-54.59
		C161.695,61.968,158.678,56.739,154.986,54.609z"/>
	<path fill="#2B2C2B" d="M20,60.432c0-2.132,1.51-4.749,3.355-5.812l28.48-16.443c1.846-1.065,4.863-1.065,6.71,0l28.48,16.443
		c1.846,1.063,3.355,3.68,3.355,5.812v32.883c0,2.133-1.51,4.748-3.355,5.811l-28.48,16.449c-1.847,1.061-4.864,1.061-6.71,0
		l-28.48-16.449C21.51,98.062,20,95.447,20,93.314V60.432z"/>
	<path fill="#9DDBEE" d="M26.108,63.958c0-2.133,1.51-4.748,3.356-5.811l22.371-12.918c1.846-1.065,4.863-1.066,6.71,0
		l22.378,12.918c1.843,1.065,3.353,3.678,3.353,5.811v25.831c0,2.131-1.509,4.748-3.353,5.811l-22.378,12.92
		c-1.847,1.063-4.864,1.063-6.71,0L29.465,95.6c-1.847-1.062-3.356-3.68-3.356-5.811V63.958z"/>
	<path fill="#4CB0C1" d="M29.937,95.266V70.069c0-2.379,1.676-5.301,3.719-6.49l21.648-12.6c2.05-1.188,5.393-1.188,7.437,0
		l21.502,12.513c-0.319-2.198-1.835-4.624-3.653-5.681L58.942,45.21c-2.046-1.188-5.39-1.188-7.438,0L29.857,57.811
		c-2.047,1.188-3.719,4.109-3.719,6.488v25.199c0,2.379,1.672,5.3,3.719,6.488l0.151,0.09
		C29.968,95.801,29.937,95.527,29.937,95.266z"/>
	<path fill="#2B2C2B" d="M110.691,60.432c0-2.132,1.51-4.749,3.355-5.812l28.477-16.443c1.846-1.065,4.865-1.065,6.711,0
		l28.479,16.443c1.846,1.063,3.354,3.68,3.354,5.812v32.883c0,2.133-1.51,4.748-3.354,5.811l-28.479,16.449
		c-1.846,1.061-4.865,1.061-6.711,0l-28.477-16.449c-1.846-1.062-3.355-3.678-3.355-5.811V60.432z"/>
	<path fill="#9DDBEE" d="M116.822,63.968c0-2.13,1.508-4.745,3.355-5.812l22.348-12.904c1.846-1.065,4.865-1.065,6.711,0
		l22.348,12.904c1.848,1.067,3.357,3.681,3.357,5.812v25.812c0,2.127-1.51,4.742-3.352,5.808l-22.355,12.907
		c-1.846,1.066-4.865,1.066-6.711,0l-22.348-12.907c-1.846-1.065-3.354-3.681-3.354-5.808V63.968L116.822,63.968z"/>
	<path fill="#2B2C2B" d="M42.742,26.999c0,0,3.769-13.407,5.235-12.989c1.469,0.418,26.396,2.307,42.741,30.586
		C83.027,33.73,42.742,26.999,42.742,26.999z"/>
	<path fill="#2B2C2B" d="M159.268,26.999c0,0-3.77-13.407-5.236-12.989c-1.469,0.418-26.398,2.307-42.734,30.586
		C118.977,33.73,159.268,26.999,159.268,26.999z"/>
	<polygon fill="#2B2C2B" points="88.59,162.572 101.393,185.214 114.201,162.572 96.261,163.722 	"/>
	<path fill="#2B2C2B" d="M115.055,160.624c0-2.772-6.116-5.017-13.657-5.017c-7.543,0-13.66,2.244-13.66,5.017
		c0,2.766,6.117,5.013,13.66,5.013C108.938,165.636,115.055,163.389,115.055,160.624z"/>
	<path fill="#2B2C2B" d="M103.973,108.83c-1.638-1.362-4.315-1.362-5.953,0l-5.337,4.443c-1.639,1.363-1.234,2.479,0.896,2.479
		h14.835c2.132,0,2.538-1.114,0.896-2.479L103.973,108.83z"/>
	<path fill="#2B2C2B" d="M122,130.408c-6.1,2.572-12.452,3.912-19.474,4.002c-7.915,0.104-15.439-1.557-22.22-4.594l-2.731,4.619
		c7.677,3.581,15.983,5.413,25.021,5.293c8.196-0.104,14.788-1.404,21.815-4.562L122,130.408z"/>
	<path fill="#4CB0C1" d="M120.631,95.136v-25.08c0-2.369,1.672-5.278,3.713-6.461l21.652-12.544c2.047-1.184,5.393-1.184,7.436,0
		l21.494,12.458c-0.311-2.192-1.83-4.604-3.646-5.659l-21.648-12.541c-2.043-1.184-5.393-1.184-7.438,0L120.551,57.85
		c-2.051,1.187-3.719,4.091-3.719,6.459v25.083c0,2.371,1.668,5.278,3.711,6.46l0.152,0.088
		C120.656,95.669,120.631,95.398,120.631,95.136z"/>
	<path fill="#2B2C2B" d="M53.918,65.917v10.512l-6.846-7.965c-2.243,1.927-3.666,4.777-3.666,7.965
		c0,5.803,4.707,10.507,10.511,10.507c5.8,0,10.503-4.705,10.503-10.507C64.421,70.627,59.718,65.92,53.918,65.917z"/>
	<path fill="#2B2C2B" d="M145.789,65.917v10.512l-6.844-7.965c-2.238,1.927-3.664,4.777-3.664,7.965
		c0,5.803,4.705,10.507,10.508,10.507c5.801,0,10.506-4.705,10.506-10.507C156.293,70.627,151.596,65.92,145.789,65.917z"/>
	<path fill="#2B2C2B" d="M97.188,65.365l-11.474,6.683v6.951l11.474-6.687c1.939-1.13,5.118-1.13,7.062,0l12.029,7.012v-6.95
		l-12.029-7.009C102.306,64.231,99.127,64.231,97.188,65.365z"/>
	<path fill="#2B2C2B" d="M97.826,151.787l-9.215,5.369v5.584l9.215-5.373c1.563-0.906,4.114-0.906,5.679,0L113.17,163v-5.582
		l-9.665-5.631C101.94,150.877,99.39,150.877,97.826,151.787z"/>
</g>
</svg>
