<?xml version="1.0" encoding="utf-8"?>
<svg version="1.1" id="Layer_1" xmlns="http://www.w3.org/2000/svg" xmlns:xlink="http://www.w3.org/1999/xlink" x="0px" y="0px"
	 viewBox="0 0 115 32" enable-background="new 0 0 115 32" xml:space="preserve">
<path fill="#494849" d="M112.9,18.5c-0.7-0.7-1.8-1.1-3.3-1.1c-1.7,0-2.8,0.7-3.6,1.3c-0.4,0.3-0.7,0.5-1,0.5c0,0-0.1,0-0.1,0
	c-0.2,0-0.3-0.1-0.4-0.2c-0.2-0.3-0.1-0.9,0.1-1.5c0-0.1,0.1-0.3,0.2-0.6l0,0c0.6-1.8,2.2-7.1,2.2-9.2c0-1.2-0.2-2-0.8-2.5
	c-0.6-0.6-1.6-0.9-3-0.9c-0.6,0-1,0.2-1.3,0.5c-0.9,0.9-0.8,2.8-0.7,4.1c0,0.3,0,0.6,0,0.8c0,3.4-0.9,5.7-1.7,8l-0.1,0.4l-0.1,0.2
	c-0.1,0.1-0.7,0.6-1.4,1.1c-1.1,0.9-1.5,1-1.6,1c0,0,0-0.1,0-0.4c0-0.2,0.1-0.4,0.1-0.6c0-0.1,0-0.2,0-0.2c0-0.7-0.1-1.1-0.3-1.4
	c-0.3-0.4-0.7-0.5-1.3-0.5c-1.8,0-2.7,1.4-3.2,2l0,0c-0.1,0.1-0.2,0.2-0.3,0.4c-0.4,0.6-0.5,0.8-0.9,0.8c-0.1,0-0.3-0.1-0.3-0.2
	c-0.2-0.2-0.2-0.4,0-1.1c0-0.2,0.1-0.3,0.1-0.5c0.1-0.6,0.2-0.9,0.1-1c-0.2-0.3-1-0.4-2.4-0.4c-1.2,0-2.1,0.4-2.7,1.2
	c-0.5,0.7-0.6,1.6-0.6,2c0,1.2-0.6,3.6-1,5.8l-0.1,0.2c-0.9,0.9-3.3,3-5.8,3c-1.6,0-2.7-0.8-3.3-1.4c-0.7-0.8-1-1.7-1-2.2
	c0-0.2,0-0.3,0-0.4c0.1-0.2,0.3-0.4,0.5-0.4c0.1,0,0.1,0,0.2,0c0.1,0,0.2,0,0.4,0c0.1,0,0.1,0,0.2,0c0.1,0,2-0.1,3.8-1
	c2-0.9,3-2.4,3-4.2c0-1.1-0.3-1.8-0.8-2.3c-0.7-0.6-1.8-0.9-3.4-0.9c-4.2,0-7.5,1.9-8.8,5.1l-0.2,0.5l-0.4-0.4
	c-1.5-1.3-2.1-2.8-2.3-3.3l0,0l0,0c-0.1-0.6-0.3-1-0.7-1.3c-0.3-0.3-0.8-0.4-1.4-0.4c-0.1,0-0.7,0-1.3,0.3c-0.8,0.4-1.2,1-1.2,1.9
	c0,0.4,0.4,0.8,0.8,1.2c0.5,0.5,1,1,0.8,1.6c-0.4,1.1-1.3,3.4-2.1,4.5c-1.1,1.5-2.3,2.2-3.6,2.2c0,0-0.1,0-0.1,0
	c-0.7,0-1-0.3-1.2-0.6c-0.4-0.5-0.5-1.4-0.3-2.6c0.2-1.2,0.6-2.7,1-4c0.3-0.8,0.5-1.5,0.5-1.9c0-0.3,0.1-0.5,0.1-0.7
	c0.2-0.7,0.2-1.2,0.1-1.4c-0.2-0.2-0.8-0.3-1.7-0.3c-2.7,0-3.7,2.9-3.9,3.5c-0.1,0.5-0.3,0.9-0.4,1.4l0,0c-0.4,1.3-0.8,2.6-1,4.1
	l0,0.1l-0.1,0.1c-0.1,0.1-3,3.3-6,3.3c-1.3,0-2.4-0.3-3.1-0.9c-0.7-0.5-0.9-1.2-1.1-1.6c-0.1-0.2-0.1-0.3,0-0.4
	c0.5-0.2,3.5-1.4,5.1-2.5c1.8-1.2,3-2.3,3-4.2c0-1.1-0.3-1.8-0.8-2.3c-0.7-0.6-1.8-0.9-3.4-0.9c-2.6,0-5,0.8-6.7,2.2
	c-1.8,1.6-2.8,3.8-2.8,6.5l0,1.2c-0.1,0.1-0.3,0.3-0.8,0.4c-0.5,0.2-1.3,0.4-2.4,0.4c-1.2,0-2.3-0.8-3.3-2.5c-0.8-1.4-1.4-3.1-1.6-4
	c-0.6-2.1-1.4-3-2-3.5c-0.1-0.1-0.1-0.1-0.2-0.2c-0.3-0.3-0.6-0.6-0.4-0.8c0.1-0.1,0.5-0.3,1-0.5c1.3-0.5,3.4-1.4,5.3-2.9
	c2.2-1.8,3.4-4.1,3.4-6.6c0-1.4-0.3-2.5-1-3.5c-0.7-0.9-1.7-1.7-3-2.2c-2.2-0.8-4.7-1-6.6-1c-1.6,0-7,0.1-12.2,1.8
	C3.7,4.2,0.3,7.8,0,12.8c-0.1,1.5,0.3,2.7,1.1,3.6c0.8,0.9,2,1.3,3.6,1.3c1.7,0,3.4-0.7,4.6-1.9c0.8-0.8,1.1-1.6,1.2-2.2l0-0.2
	l-0.2,0.1c-0.5,0.1-0.9,0.2-1.3,0.2c-0.9,0-1.6-0.4-1.9-1.1c-0.3-0.6-0.4-1.4-0.4-1.8c0-2,1.4-4.2,3.7-5.9c2.2-1.7,5-2.6,7.4-2.7
	c-0.4,0.6-1.5,2.3-2,3.8c-0.7,2-6,20-6.9,23.9c-0.3,1.4-0.1,1.9,0,2.1C9,31.9,9.1,32,9.5,32c0.1,0,0.1,0,0.2,0c0.1,0,0.1,0,0.3,0
	c0.2,0,0.4,0,0.7,0l0,0c0.4,0,0.8,0,1.2,0c1.2,0,2.1-0.1,2.6-0.3c0.4-0.2,0.5-0.3,0.5-0.4c0.1-1.5,0.4-3.6,0.9-5.6
	c0.2-1.1,0.7-2.7,1.1-4.2l0,0c0.4-1.4,0.8-2.8,0.9-3.5c0.1-0.7,0.7-0.8,0.9-0.8c0.5,0,1,0.4,1.3,0.7c0.7,0.9,1.4,2.4,1.3,4.9
	c-0.1,2,0,5.5,1.8,7.5c0.9,0.9,2.1,1.4,3.6,1.4c0,0,0.1,0,0.1,0c2,0,4-0.8,5.3-1.5c1.2-0.6,2.1-1.2,2.4-1.6c0.4,1,1.9,3.3,6.6,3.3
	c1.8,0,3.6-0.4,5.5-1.3c1.5-0.7,2.5-1.5,3.1-1.9c0.1-0.1,0.2-0.2,0.3-0.2c0.1,0.1,0.1,0.3,0.1,0.5c0,0.2-0.1,1.1,0.6,1.8
	c0.6,0.6,1.6,1,2.9,1c2.3,0,4.9-0.9,7.1-2.4c2.3-1.7,4-4,4.7-6.5l0.2-0.7l0.5,0.5c0.5,0.5,1.1,0.9,1.8,1.3l0.3,0.1l0,0.3
	c-0.1,0.5-0.1,1-0.1,1.5l0,0c0,0.1,0,1.5,0.3,2.5c0,0,0.2,0.9,1.2,1.8c0.6,0.5,1.2,0.9,2,1.2c1,0.4,2.1,0.5,3.4,0.5
	c3.9,0,6.4-1.8,7.6-2.9l0.9-0.9l-0.3,1.2c-0.1,0.3-0.3,1.3-0.3,1.6c0,0.3,0,0.5,0.1,0.6l0,0.1h3.9c0.1,0,0.1,0,0.2,0l0,0
	c0.1,0,0.1,0,0.2,0c0.3,0,0.4,0,0.5-0.1c0.1-0.1,0.2-0.3,0.2-0.5c0.3-5.9,2.4-8.7,3.2-9.7l0,0l0,0c0.2-0.3,0.4-0.5,0.7-0.5
	c0.2,0,0.4,0.1,0.4,0.4l0,0l0,0c0.1,0.3,0.7,1.3,1.8,1.4c0,0,0.1,0,0.1,0c0.2,0,0.5,0,0.8-0.1l0,0c0.8-0.3,1.5-0.7,2.3-1.3
	c0.2-0.1,0.3-0.3,0.5-0.4l1-1l-0.3,1.4c-0.4,1.5-0.6,2.9-0.6,4.5c0,2.1,0.6,3.6,1.7,4.7c1.1,1,2.7,1.5,4.7,1.5l0,0
	c0.3,0,2.7,0,5.1-1.3c3.1-1.7,4.7-4.6,4.7-8.8C114,20.4,113.6,19.3,112.9,18.5z M108.5,24.2c-0.4,1.7-1.1,3.3-1.9,4.6
	c-0.4,0.7-0.8,1.2-1.2,1.5c-0.4,0.4-0.8,0.6-1.2,0.6c-0.7,0-1.2-0.6-1.5-1.6c-0.3-1.1-0.2-2.6,0.1-4.3c0.4-1.6,1-3.2,1.7-4.1
	c0.6-0.9,1.4-1.3,2.1-1.4l0,0c0.1,0,0.1,0,0.3,0c0.4,0,1,0.1,1.5,0.7C109,21,109,22.3,108.5,24.2z M73.8,22l0.1-0.2
	c0.6-1.2,1.6-3.3,3.5-3.4l0,0c0,0,0.1,0,0.2,0c0.4,0,0.8,0.1,1,0.4C78.9,19,79,19.4,79,20c0,0.9-0.9,2.1-1.7,2.9
	C76.2,24,75,24.6,74,24.6c-0.2,0-0.4-0.1-0.5-0.3C73.1,23.8,73.4,22.8,73.8,22z M43.5,18.4c0,0,0.1,0,0.2,0c0.4,0,0.8,0.1,1,0.4
	c0.3,0.3,0.5,0.7,0.5,1.2c0,0.9-0.9,2.1-1.7,2.9c-1.1,1.1-3.1,2.3-4.2,2.4c0-0.1,0-0.3-0.1-0.4c-0.2-0.8,0.4-2.5,0.7-3l0.1-0.2
	C40.7,20.6,41.6,18.6,43.5,18.4L43.5,18.4z M23.3,1.9c0.1,0,0.1-0.1,0.1-0.1c0.1-0.1,0.2-0.1,0.3-0.1c0.4,0,1.5,0.4,2.4,1.4
	c0.6,0.7,1.3,1.9,1.1,3.7c-0.2,1.9-0.7,3.6-1.4,4.9c-0.6,1.1-1.4,2-2.3,2.7c-1.6,1.2-3.4,1.3-4.2,1.3c-0.3,0-0.4,0-0.5,0l0,0
	c-0.2,0-0.3-0.1-0.4-0.2c-0.2-0.3-0.1-0.8,0.4-2.2c0.1-0.2,0.1-0.4,0.2-0.7C21,6,22.4,2.9,22.6,2.6C22.8,2.2,23.1,2,23.3,1.9z"/>
</svg>

