<?xml version="1.0" encoding="utf-8"?>
<!-- Generator: Adobe Illustrator 16.0.4, SVG Export Plug-In . SVG Version: 6.00 Build 0)  -->
<!DOCTYPE svg PUBLIC "-//W3C//DTD SVG 1.1//EN" "http://www.w3.org/Graphics/SVG/1.1/DTD/svg11.dtd">
<svg version="1.1" id="Calque_1" xmlns="http://www.w3.org/2000/svg" xmlns:xlink="http://www.w3.org/1999/xlink" x="0px" y="0px"
	 width="215.09px" height="32.44px" viewBox="0 0 215.09 32.44" enable-background="new 0 0 215.09 32.44" xml:space="preserve">
<path opacity="0.6" fill="#FFFFFF" enable-background="new    " d="M189.012,28.63c0-1.564,0.819-2.348,2.456-2.348h2.002v2.691
	c0,1.562-0.818,2.348-2.454,2.348h-2.004V28.63z"/>
<path fill="#FFFFFF" d="M59.577,8.239c2.813,0,5.283,0.868,7.408,2.604c2.195,1.824,3.295,4.048,3.295,6.675v13.803h-1.314
	c-1.119,0-1.953-0.604-2.498-1.809c-0.933,0.875-2.003,1.506-3.209,1.895c-1.205,0.389-2.434,0.582-3.682,0.582
	c-2.885,0-5.361-0.859-7.429-2.584c-2.196-1.809-3.294-4.035-3.294-6.676v-5.211c0-2.626,1.098-4.852,3.294-6.675
	C54.258,9.107,56.736,8.239,59.577,8.239z M64.142,14.245c-1.248-1.033-2.771-1.549-4.564-1.549s-3.323,0.516-4.587,1.549
	c-1.119,0.934-1.679,2.023-1.679,3.273v5.211c0,1.248,0.56,2.34,1.679,3.273c1.264,1.033,2.793,1.551,4.587,1.551
	c1.795,0,3.315-0.518,4.564-1.551c1.12-0.904,1.681-1.996,1.681-3.273v-5.211C65.823,16.255,65.262,15.164,64.142,14.245z"/>
<path fill="#FFFFFF" d="M79.969,8.927h5.254v1.981c0,1.637-0.781,2.454-2.347,2.454h-2.907v10.79c0,1.148,0.358,2.031,1.076,2.646
	c0.562,0.504,1.257,0.756,2.089,0.756v2.023c0,0.99-0.444,1.607-1.335,1.852c-0.746,0.23-1.507,0.145-2.282-0.258
	c-1.205-0.561-2.146-1.393-2.819-2.498c-0.791-1.221-1.188-2.729-1.188-4.521V3.243c0-1.564,0.818-2.346,2.456-2.346h2.003V8.927
	L79.969,8.927z"/>
<path fill="#FFFFFF" d="M87.896,23.116v-5.984c0-2.513,1.054-4.651,3.163-6.417c1.966-1.65,4.328-2.476,7.085-2.476
	c2.728,0,5.081,0.825,7.062,2.476c1.206,1.02,2.081,2.204,2.627,3.553l-1.96,0.989c-1.148,0.576-2.111,0.402-2.886-0.517
	c-0.259-0.286-0.46-0.487-0.604-0.603c-1.178-0.961-2.592-1.442-4.241-1.442c-1.681,0-3.095,0.481-4.241,1.442
	c-1.034,0.876-1.551,1.874-1.551,2.993v5.986c0,1.164,0.517,2.162,1.551,2.994c1.146,0.961,2.562,1.443,4.241,1.443
	c1.649,0,3.063-0.482,4.241-1.443c0.144-0.115,0.345-0.316,0.604-0.604c0.79-0.918,1.752-1.09,2.886-0.52l1.96,0.992
	c-0.546,1.363-1.421,2.547-2.627,3.553c-1.967,1.639-4.321,2.455-7.062,2.455c-2.771,0-5.134-0.816-7.085-2.455
	C88.949,27.782,87.896,25.644,87.896,23.116z"/>
<path fill="#FFFFFF" d="M116.64,31.321h-2.002c-1.637,0-2.456-0.783-2.456-2.348V3.243c0-1.564,0.819-2.346,2.456-2.346h2.002V9.81
	c1.751-1.048,3.684-1.571,5.792-1.571c2.729,0,5.082,0.825,7.062,2.476c2.11,1.766,3.166,3.904,3.166,6.417c0,2.369,0,4.732,0,7.096
	c0,2.361,0,4.727,0,7.096c-0.346,0-0.683,0-1.014,0c-0.33,0-0.659,0-0.988,0c-1.638,0-2.456-0.783-2.456-2.348V17.13
	c0-1.133-0.51-2.131-1.528-2.993c-1.177-0.961-2.591-1.442-4.242-1.442c-1.679,0-3.093,0.481-4.241,1.442
	c-1.033,0.876-1.551,1.874-1.551,2.993V31.321L116.64,31.321z"/>
<path fill="#FFFFFF" d="M142.523,13.362v17.959h-2.002c-1.637,0-2.456-0.783-2.456-2.348V8.754c0-2.642,0.854-4.673,2.563-6.093
	c1.378-1.178,3.062-1.766,5.061-1.766h2.949v2.001c0,1.637-0.782,2.455-2.347,2.455h-0.604c-0.834,0-1.528,0.251-2.089,0.754
	c-0.718,0.631-1.077,1.514-1.077,2.648v0.172h6.115v1.981c0,1.637-0.782,2.454-2.347,2.454h-3.768V13.362z"/>
<path fill="#FFFFFF" d="M151.783,11.275c0-1.565,0.816-2.348,2.454-2.348h2.003v14.189c0,1.164,0.51,2.162,1.527,2.994
	c1.164,0.961,2.576,1.443,4.242,1.443s3.079-0.482,4.243-1.443c1.033-0.818,1.55-1.816,1.55-2.994V11.274
	c0-1.565,0.818-2.348,2.454-2.348h2.003v14.188c0,2.498-1.055,4.639-3.166,6.418c-1.966,1.639-4.327,2.455-7.084,2.455
	c-2.756,0-5.11-0.816-7.062-2.455c-2.11-1.752-3.165-3.891-3.165-6.418V11.275z"/>
<path fill="#FFFFFF" d="M182.123,24.151c0,1.148,0.358,2.031,1.077,2.646c0.559,0.504,1.256,0.756,2.089,0.756v2.023
	c0,0.99-0.446,1.607-1.336,1.852c-0.746,0.23-1.507,0.145-2.281-0.258c-1.206-0.561-2.147-1.393-2.821-2.498
	c-0.789-1.221-1.185-2.729-1.185-4.521V3.243c0-1.564,0.817-2.346,2.455-2.346h2.002V24.151L182.123,24.151z"/>
<path opacity="0.6" fill="#FFFFFF" enable-background="new    " d="M203.743,24.151c0,1.148,0.357,2.031,1.075,2.646
	c0.56,0.504,1.257,0.756,2.09,0.756v2.023c0,0.99-0.446,1.607-1.336,1.852c-0.747,0.23-1.507,0.145-2.281-0.258
	c-1.206-0.561-2.146-1.393-2.821-2.498c-0.791-1.221-1.185-2.729-1.185-4.521V3.243c0-1.564,0.817-2.346,2.455-2.346h2.003V24.151
	L203.743,24.151z"/>
<path opacity="0.6" fill="#FFFFFF" enable-background="new    " d="M210.632,3.243c0-1.564,0.818-2.346,2.455-2.346h2.003v2.109
	c0,1.564-0.818,2.348-2.455,2.348h-2.003V3.243z M210.632,28.974V11.275c0-1.565,0.818-2.348,2.455-2.348h2.003v22.394h-2.003
	C211.451,31.321,210.632,30.538,210.632,28.974z"/>
<linearGradient id="SVGID_1_" gradientUnits="userSpaceOnUse" x1="45.2444" y1="814.3062" x2="35.0687" y2="836.1279" gradientTransform="matrix(1 0 0 -1 0.1401 840.9443)">
	<stop  offset="0" style="stop-color:#80A51B"/>
	<stop  offset="1" style="stop-color:#FFCE44"/>
</linearGradient>
<path fill="url(#SVGID_1_)" d="M50.562,0.462C50.469,0.252,50.249,0,49.72,0c-7.691,0-11.046,3.663-12.453,6.247
	c-1.337,1.821-1.812,6.182-2.341,11.055c-0.47,4.348-1.182,10.916-2.673,10.916c-0.246,0-0.591-0.195-0.973-0.549l-0.812-0.758
	l-0.248,1.08c-0.104,0.457-0.586,2.803,0.278,3.887c0.294,0.367,0.708,0.562,1.196,0.562c5.924,0,10.729-9.805,11.963-17.792
	c1.132-7.335,4.717-11.124,6.146-12.646C50.433,1.334,50.779,0.967,50.562,0.462z"/>
<g>
	
		<linearGradient id="SVGID_2_" gradientUnits="userSpaceOnUse" x1="19.4963" y1="811.4595" x2="12.0819" y2="827.3597" gradientTransform="matrix(1 0 0 -1 0.1401 840.9443)">
		<stop  offset="0.1" style="stop-color:#018F50"/>
		<stop  offset="0.2272" style="stop-color:#008B4C"/>
		<stop  offset="0.4347" style="stop-color:#007D43"/>
		<stop  offset="0.6965" style="stop-color:#006734"/>
		<stop  offset="1" style="stop-color:#004820"/>
	</linearGradient>
	<path fill="url(#SVGID_2_)" d="M12.187,32.44h-0.416l-3.054-6.895l2.28,2.121c0.551,0.512,0.9,0.619,1.097,0.619l0,0
		c1.201-0.002,2.039-4.174,2.712-7.525c0.69-3.445,1.408-7.158,2.782-9.677c6.127,2.397,5.029,7.481,5.029,7.481
		c-0.186-0.275-0.498-0.551-0.632-0.551c-0.812,0-1.643,2.643-2.311,4.764C18.323,27.083,16.637,32.44,12.187,32.44z"/>
</g>
<g>
	
		<linearGradient id="SVGID_3_" gradientUnits="userSpaceOnUse" x1="30.3152" y1="807.3491" x2="18.8263" y2="831.9871" gradientTransform="matrix(1 0 0 -1 0.1401 840.9443)">
		<stop  offset="0" style="stop-color:#B8C64A"/>
		<stop  offset="0.3373" style="stop-color:#83A56E"/>
		<stop  offset="0.6282" style="stop-color:#5F8D77"/>
		<stop  offset="0.8587" style="stop-color:#477E77"/>
		<stop  offset="1" style="stop-color:#3F7876"/>
	</linearGradient>
	<path fill="url(#SVGID_3_)" d="M31.673,32.44c-4.026,0-5.734-4.854-7.387-9.551c-1.406-3.998-2.734-7.775-5.172-7.775
		c-1.838,0-3.795,3.148-3.795,3.148c0.792-3.26,1.969-10.229,6.541-10.229c4.696,0,5.855,5.725,6.976,11.262
		c1.114,5.508,1.974,11.699,7.931,10.709C36.766,30.003,34.586,32.44,31.673,32.44z"/>
</g>
<g>
	
		<linearGradient id="SVGID_4_" gradientUnits="userSpaceOnUse" x1="13.0393" y1="808.4546" x2="0.9373" y2="834.4074" gradientTransform="matrix(1 0 0 -1 0.1401 840.9443)">
		<stop  offset="0" style="stop-color:#2DA05F"/>
		<stop  offset="1" style="stop-color:#ADCE6D"/>
	</linearGradient>
	<path fill="url(#SVGID_4_)" d="M12.187,32.44C5.459,32.44,0,19.81,0,11.567c0-4.189,1.654-6.226,5.056-6.226
		c3.186,0,3.469,4.832,3.795,10.427c0.391,6.68,0.508,15.201,7.705,14.252C16.556,30.021,15.069,32.44,12.187,32.44z"/>
</g>
</svg>
