<?xml version="1.0" encoding="UTF-8" standalone="no"?>
<svg width="432px" height="76px" viewBox="0 0 432 76" version="1.1" xmlns="http://www.w3.org/2000/svg" xmlns:xlink="http://www.w3.org/1999/xlink" xmlns:sketch="http://www.bohemiancoding.com/sketch/ns">
  <view viewBox="0 0 432 76" />
  <defs>
    <style type="text/css"><![CDATA[
      #main > g {
        display: none;
      }
      #main > g:target {
        display: inherit;
      }
    ]]></style>
  </defs>
    <g id="main" stroke="none" stroke-width="1" fill="none" fill-rule="evenodd">
      <g id="black" fill="#000000">
          <path d="M54.6047728,31.9109182 C54.7745102,25.8152655 58.0603221,22.2461004 63.2461795,22.2461004 C68.4168365,22.2461004 71.700115,25.8152655 71.879986,31.9109182 L54.6047728,31.9109182 L54.6047728,31.9109182 Z M81.6335527,38.9790682 L81.6335527,34.685543 C81.6335527,24.1133953 75.1303304,14.3859166 63.4108501,14.4736419 C51.2708264,14.4736419 44.007586,23.3439194 44.007586,37.2947431 C44.007586,51.275644 51.2708264,60.188531 62.8940377,60.188531 C71.5303777,60.188531 77.5294545,57.4740606 81.6335527,51.1979445 L73.9269683,46.4457415 C71.2669047,49.4960743 68.9361823,51.7017381 63.9251291,51.7017381 C58.9242095,51.7017381 54.7745102,48.132573 54.6047728,38.9790682 L81.6335527,38.9790682 L81.6335527,38.9790682 Z" id="Fill-1" sketch:type="MSShapeGroup"></path>
          <path d="M144.38572,66.5598917 C146.019759,66.900767 147.306724,66.900767 148.847027,66.900767 C152.533115,66.900767 154.595298,65.8831539 155.884795,63.42434 C156.905753,61.3064015 157.594836,60.0331319 157.594836,58.2460429 C157.594836,56.6344045 156.741083,54.7671095 156.234404,52.982527 L144.302118,15.2982594 L155.028508,15.2982594 L162.405751,42.4554951 L162.578022,42.4554951 L170.208605,15.2982594 L180.846326,15.2982594 L166.770789,59.5218189 C162.06121,72.1392186 158.283919,75.5078687 149.538644,75.5078687 C146.959649,75.5078687 145.677751,75.3324182 144.38572,75.1669934 L144.38572,66.5598917" id="Fill-2" sketch:type="MSShapeGroup"></path>
          <path d="M89.2312011,49.9973615 C89.2312011,56.2835034 92.3067413,60.188531 100.170396,60.188531 C103.086332,60.188531 105.657727,59.8451492 108.576197,59.5142996 L108.576197,50.8495498 C107.035894,51.1979445 105.320786,51.7017381 103.686747,51.7017381 C101.029217,51.7017381 99.8283879,51.017481 99.8283879,48.6488989 L99.8283879,23.77252 L119.750998,23.77252 L119.750998,49.9973615 C119.750998,56.2835034 122.829071,60.188531 130.692726,60.188531 C133.606129,60.188531 136.190191,59.8451492 139.108661,59.5142996 L139.108661,50.8495498 C137.558224,51.1979445 135.850716,51.7017381 134.209077,51.7017381 C131.54648,51.7017381 130.358318,51.0199875 130.358318,48.6488989 L130.358318,23.77252 L139.108661,23.77252 L139.108661,15.2982594 L130.358318,15.2982594 L130.358318,0.703281618 L119.750998,0.703281618 L119.750998,15.2982594 L99.8283879,15.2982594 L99.8283879,0.703281618 L89.2312011,0.703281618 L89.2312011,49.9973615" id="Fill-3" sketch:type="MSShapeGroup"></path>
          <path d="M189.310395,15.2255727 L194.450651,15.2255727 L194.450651,59.3162912 L189.310395,59.3162912 L189.310395,15.2255727 Z" id="Fill-4" sketch:type="MSShapeGroup"></path>
          <path d="M189.310395,0.868706404 L194.450651,0.868706404 L194.450651,8.34039259 L189.310395,8.34039259 L189.310395,0.868706404 Z" id="Fill-5" sketch:type="MSShapeGroup"></path>
          <path d="M205.655853,59.3137847 L205.655853,15.2255727 L210.791042,15.2255727 L210.791042,21.8500835 C215.356218,17.1028934 218.702831,14.3408008 225.656998,14.3408008 C230.627517,14.3408008 235.182559,17.4487816 236.472056,22.35889 C240.507753,17.6994252 244.791722,14.3408008 251.249343,14.3408008 C259.05473,14.3408008 263.001758,18.5365749 263.001758,26.2714369 L263.001758,59.3137847 L257.846301,59.3137847 L257.846301,25.755111 C257.846301,20.8349768 255.102635,18.3686437 250.132116,18.3686437 C246.180022,18.3686437 239.638799,22.5318341 236.895133,26.7852563 L236.895133,59.3137847 L231.74981,59.3137847 L231.74981,25.755111 C231.74981,20.8349768 229.003611,18.3686437 224.010292,18.3686437 C220.065797,18.3686437 213.537241,22.5318341 210.791042,26.7852563 L210.791042,59.3137847 L205.655853,59.3137847" id="Fill-6" sketch:type="MSShapeGroup"></path>
          <path d="M299.748637,48.8669588 C295.274663,53.3685182 289.331321,56.1631945 284.517872,56.1631945 C279.864028,56.1631945 276.514881,53.4587499 276.514881,48.6238345 C276.514881,43.0194433 279.258546,38.8612657 299.748637,34.4524445 L299.748637,48.8669588 L299.748637,48.8669588 Z M305.580509,59.3137847 C305.061164,56.3762416 304.891426,53.5063722 304.891426,51.2856697 L304.891426,28.1813412 C304.891426,18.3686437 300.088111,14.3408008 289.934268,14.3408008 C282.711562,14.3408008 277.191297,17.2006444 273.332938,24.3565196 L276.755553,26.3942522 C280.028698,21.278616 284.43427,18.3686437 289.754398,18.3686437 C297.417914,18.3686437 300.007043,21.3563156 300.007043,27.248947 L300.007043,30.3042926 C281.330863,34.3847707 271.359424,36.5954474 271.359424,48.6488989 C271.359424,55.9977697 276.684618,60.2010631 283.653985,60.2010631 C290.537216,60.2010631 294.580513,58.1783692 299.915841,54.0402431 L300.607457,59.3137847 L305.580509,59.3137847 L305.580509,59.3137847 Z" id="Fill-7" sketch:type="MSShapeGroup"></path>
          <path d="M362.001726,33.3972349 C362.095461,27.5046035 365.948753,18.2859313 375.058838,18.3686437 C382.856625,18.4538625 386.884721,24.2587686 387.915812,33.3972349 L362.001726,33.3972349 L362.001726,33.3972349 Z M393.068735,37.415052 C393.068735,23.7424428 387.320465,14.3408008 375.213375,14.3408008 C363.904305,14.3408008 356.858936,23.5745116 356.858936,37.2521337 C356.858936,52.844673 364.223512,60.2010631 375.912592,60.2010631 C384.401995,60.2010631 388.777166,57.2610135 393.577948,49.4384263 L389.385181,47.2152174 C384.916274,54.2031614 382.089006,56.1631945 376.338202,56.1631945 C366.212226,56.1631945 362.001726,47.4859125 362.001726,37.415052 L393.068735,37.415052 L393.068735,37.415052 Z" id="Fill-8" sketch:type="MSShapeGroup"></path>
          <path d="M402.852703,48.6764697 C407.070804,54.6342684 410.860761,56.1631945 416.697701,56.1631945 C422.37757,56.1631945 426.679273,52.511317 426.679273,47.7340497 C426.679273,34.8735258 400.375044,42.127152 400.375044,26.3691879 C400.375044,18.0327812 406.997335,14.3408008 414.546849,14.3408008 C422.030495,14.3408008 426.760341,17.2006444 429.927084,22.2836969 L425.99019,25.0132059 C422.977984,20.9252085 419.702306,18.3686437 414.374578,18.3686437 C409.391393,18.3686437 405.512766,20.749758 405.512766,26.1185443 C405.512766,36.9313098 431.827129,30.5424041 431.827129,47.7340497 C431.827129,55.6594008 424.432152,60.2010631 416.353159,60.2010631 C409.474995,60.2010631 403.285913,57.5091507 399.088079,51.3182534 L402.852703,48.6764697" id="Fill-9" sketch:type="MSShapeGroup"></path>
          <path d="M27.0287799,29.7278123 C27.0287799,33.8158097 23.7683019,37.0340737 19.7326053,37.0340737 C15.1927634,37.0340737 12.0285544,33.8158097 12.0285544,29.7278123 C12.0285544,25.6648793 15.1927634,22.4240574 19.7326053,22.4240574 C23.7683019,22.4240574 27.0287799,25.6648793 27.0287799,29.7278123 L27.0287799,29.7278123 Z M0.732150846,62.0182293 C0.511745574,62.717525 0.260939575,63.8679792 0.331874605,65.2239612 C0.66374921,72.1692958 8.15499507,75.4502207 20.1379484,75.4502207 C34.3426881,75.4502207 40.7673751,68.6728173 40.7673751,62.3916883 C40.7673751,44.7564035 11.4686743,54.4387664 11.4686743,47.3129684 C11.4686743,44.7564035 15.1547625,44.5859659 19.7731396,44.5859659 C30.9479403,44.5859659 36.5847418,38.6682701 36.5847418,30.3318634 C36.5847418,26.933136 35.563784,24.381584 34.1982847,22.5117826 C35.8196568,21.4891567 38.573456,21.4891567 41.0536487,21.4891567 L41.0536487,14.4235131 C35.9919276,14.2480626 32.6478476,15.5990317 30.5983319,18.3034763 C27.8597331,15.939907 23.4009597,14.4235131 19.6287362,14.4235131 C8.05112591,14.4235131 2.05458248,22.0355598 2.05458248,29.7629024 C2.05458248,35.1116372 4.96545211,38.495326 8.65660706,41.46044 C6.67042622,42.0394267 1.70497412,45.2652101 1.70497412,49.5010872 C1.70497412,55.240826 9.52556118,57.459022 19.3120619,58.0555538 C27.2593187,58.5518281 31.1379448,60.5369256 31.1379448,63.5822455 C31.1379448,65.5648365 28.6780193,68.314397 21.8429225,68.5023797 C10.7618574,68.8081649 9.5584953,65.5598236 10.2678456,62.1986927 L0.732150846,62.0182293 L0.732150846,62.0182293 Z" id="Fill-10" sketch:type="MSShapeGroup"></path>
          <path d="M332.34075,56.0704563 C345.686669,56.0704563 348.592472,59.6295957 348.592472,63.2614217 C348.592472,67.8406805 343.796757,70.7907559 332.682758,70.7907559 C323.440937,70.7907559 319.164568,67.8406805 319.164568,63.5095589 C319.164568,59.7148145 322.247708,56.0704563 332.34075,56.0704563 L332.34075,56.0704563 Z M353.469255,13.6014021 C349.960504,13.6014021 346.707626,14.9498647 344.148899,17.4938974 C341.316564,15.6240961 338.07382,14.4435646 333.799984,14.4435646 C323.022927,14.4435646 316.18023,20.6194233 316.18023,30.2666961 C316.18023,34.8334228 318.579354,39.064287 322.597316,41.7737445 C319.346972,42.4554951 315.929424,45.4932958 315.929424,49.2253792 C315.929424,52.942424 318.579354,54.3009124 321.824631,54.9676244 L321.824631,55.1330492 C315.577282,57.4289447 314.036978,60.6497152 314.036978,64.4369402 C314.036978,69.6979497 318.146143,74.8561953 333.46051,74.8561953 C348.757142,74.8561953 353.732728,69.3570744 353.732728,62.9280657 C353.732728,55.729581 348.161795,51.4987168 334.820942,51.4987168 C322.769587,51.4987168 321.057013,50.2329665 321.057013,47.6989596 C321.057013,46.0848147 322.333843,44.483202 325.150978,43.4555632 C327.382898,44.2175198 329.523615,44.8190644 332.34075,44.8190644 C341.747241,44.8190644 349.527294,40.2573506 349.527294,29.4195207 C349.527294,25.1886564 348.339132,22.5694307 346.375752,20.2008485 C348.161795,18.4237853 351.153733,18.1656223 353.469255,18.1656223 L353.469255,13.6014021 L353.469255,13.6014021 Z M321.312886,29.7629024 C321.312886,22.9027867 325.670323,18.4989783 332.860095,18.4989783 C340.039734,18.4989783 344.397171,22.0606241 344.397171,29.7629024 C344.397171,37.374949 340.039734,40.7611443 332.860095,40.7611443 C326.612746,40.7611443 321.312886,37.374949 321.312886,29.7629024 L321.312886,29.7629024 Z" id="Fill-11" sketch:type="MSShapeGroup"></path>
      </g>
      <g id="white" fill="#ffffff">
          <path d="M54.6047728,31.9109182 C54.7745102,25.8152655 58.0603221,22.2461004 63.2461795,22.2461004 C68.4168365,22.2461004 71.700115,25.8152655 71.879986,31.9109182 L54.6047728,31.9109182 L54.6047728,31.9109182 Z M81.6335527,38.9790682 L81.6335527,34.685543 C81.6335527,24.1133953 75.1303304,14.3859166 63.4108501,14.4736419 C51.2708264,14.4736419 44.007586,23.3439194 44.007586,37.2947431 C44.007586,51.275644 51.2708264,60.188531 62.8940377,60.188531 C71.5303777,60.188531 77.5294545,57.4740606 81.6335527,51.1979445 L73.9269683,46.4457415 C71.2669047,49.4960743 68.9361823,51.7017381 63.9251291,51.7017381 C58.9242095,51.7017381 54.7745102,48.132573 54.6047728,38.9790682 L81.6335527,38.9790682 L81.6335527,38.9790682 Z" id="Fill-1" sketch:type="MSShapeGroup"></path>
          <path d="M144.38572,66.5598917 C146.019759,66.900767 147.306724,66.900767 148.847027,66.900767 C152.533115,66.900767 154.595298,65.8831539 155.884795,63.42434 C156.905753,61.3064015 157.594836,60.0331319 157.594836,58.2460429 C157.594836,56.6344045 156.741083,54.7671095 156.234404,52.982527 L144.302118,15.2982594 L155.028508,15.2982594 L162.405751,42.4554951 L162.578022,42.4554951 L170.208605,15.2982594 L180.846326,15.2982594 L166.770789,59.5218189 C162.06121,72.1392186 158.283919,75.5078687 149.538644,75.5078687 C146.959649,75.5078687 145.677751,75.3324182 144.38572,75.1669934 L144.38572,66.5598917" id="Fill-2" sketch:type="MSShapeGroup"></path>
          <path d="M89.2312011,49.9973615 C89.2312011,56.2835034 92.3067413,60.188531 100.170396,60.188531 C103.086332,60.188531 105.657727,59.8451492 108.576197,59.5142996 L108.576197,50.8495498 C107.035894,51.1979445 105.320786,51.7017381 103.686747,51.7017381 C101.029217,51.7017381 99.8283879,51.017481 99.8283879,48.6488989 L99.8283879,23.77252 L119.750998,23.77252 L119.750998,49.9973615 C119.750998,56.2835034 122.829071,60.188531 130.692726,60.188531 C133.606129,60.188531 136.190191,59.8451492 139.108661,59.5142996 L139.108661,50.8495498 C137.558224,51.1979445 135.850716,51.7017381 134.209077,51.7017381 C131.54648,51.7017381 130.358318,51.0199875 130.358318,48.6488989 L130.358318,23.77252 L139.108661,23.77252 L139.108661,15.2982594 L130.358318,15.2982594 L130.358318,0.703281618 L119.750998,0.703281618 L119.750998,15.2982594 L99.8283879,15.2982594 L99.8283879,0.703281618 L89.2312011,0.703281618 L89.2312011,49.9973615" id="Fill-3" sketch:type="MSShapeGroup"></path>
          <path d="M189.310395,15.2255727 L194.450651,15.2255727 L194.450651,59.3162912 L189.310395,59.3162912 L189.310395,15.2255727 Z" id="Fill-4" sketch:type="MSShapeGroup"></path>
          <path d="M189.310395,0.868706404 L194.450651,0.868706404 L194.450651,8.34039259 L189.310395,8.34039259 L189.310395,0.868706404 Z" id="Fill-5" sketch:type="MSShapeGroup"></path>
          <path d="M205.655853,59.3137847 L205.655853,15.2255727 L210.791042,15.2255727 L210.791042,21.8500835 C215.356218,17.1028934 218.702831,14.3408008 225.656998,14.3408008 C230.627517,14.3408008 235.182559,17.4487816 236.472056,22.35889 C240.507753,17.6994252 244.791722,14.3408008 251.249343,14.3408008 C259.05473,14.3408008 263.001758,18.5365749 263.001758,26.2714369 L263.001758,59.3137847 L257.846301,59.3137847 L257.846301,25.755111 C257.846301,20.8349768 255.102635,18.3686437 250.132116,18.3686437 C246.180022,18.3686437 239.638799,22.5318341 236.895133,26.7852563 L236.895133,59.3137847 L231.74981,59.3137847 L231.74981,25.755111 C231.74981,20.8349768 229.003611,18.3686437 224.010292,18.3686437 C220.065797,18.3686437 213.537241,22.5318341 210.791042,26.7852563 L210.791042,59.3137847 L205.655853,59.3137847" id="Fill-6" sketch:type="MSShapeGroup"></path>
          <path d="M299.748637,48.8669588 C295.274663,53.3685182 289.331321,56.1631945 284.517872,56.1631945 C279.864028,56.1631945 276.514881,53.4587499 276.514881,48.6238345 C276.514881,43.0194433 279.258546,38.8612657 299.748637,34.4524445 L299.748637,48.8669588 L299.748637,48.8669588 Z M305.580509,59.3137847 C305.061164,56.3762416 304.891426,53.5063722 304.891426,51.2856697 L304.891426,28.1813412 C304.891426,18.3686437 300.088111,14.3408008 289.934268,14.3408008 C282.711562,14.3408008 277.191297,17.2006444 273.332938,24.3565196 L276.755553,26.3942522 C280.028698,21.278616 284.43427,18.3686437 289.754398,18.3686437 C297.417914,18.3686437 300.007043,21.3563156 300.007043,27.248947 L300.007043,30.3042926 C281.330863,34.3847707 271.359424,36.5954474 271.359424,48.6488989 C271.359424,55.9977697 276.684618,60.2010631 283.653985,60.2010631 C290.537216,60.2010631 294.580513,58.1783692 299.915841,54.0402431 L300.607457,59.3137847 L305.580509,59.3137847 L305.580509,59.3137847 Z" id="Fill-7" sketch:type="MSShapeGroup"></path>
          <path d="M362.001726,33.3972349 C362.095461,27.5046035 365.948753,18.2859313 375.058838,18.3686437 C382.856625,18.4538625 386.884721,24.2587686 387.915812,33.3972349 L362.001726,33.3972349 L362.001726,33.3972349 Z M393.068735,37.415052 C393.068735,23.7424428 387.320465,14.3408008 375.213375,14.3408008 C363.904305,14.3408008 356.858936,23.5745116 356.858936,37.2521337 C356.858936,52.844673 364.223512,60.2010631 375.912592,60.2010631 C384.401995,60.2010631 388.777166,57.2610135 393.577948,49.4384263 L389.385181,47.2152174 C384.916274,54.2031614 382.089006,56.1631945 376.338202,56.1631945 C366.212226,56.1631945 362.001726,47.4859125 362.001726,37.415052 L393.068735,37.415052 L393.068735,37.415052 Z" id="Fill-8" sketch:type="MSShapeGroup"></path>
          <path d="M402.852703,48.6764697 C407.070804,54.6342684 410.860761,56.1631945 416.697701,56.1631945 C422.37757,56.1631945 426.679273,52.511317 426.679273,47.7340497 C426.679273,34.8735258 400.375044,42.127152 400.375044,26.3691879 C400.375044,18.0327812 406.997335,14.3408008 414.546849,14.3408008 C422.030495,14.3408008 426.760341,17.2006444 429.927084,22.2836969 L425.99019,25.0132059 C422.977984,20.9252085 419.702306,18.3686437 414.374578,18.3686437 C409.391393,18.3686437 405.512766,20.749758 405.512766,26.1185443 C405.512766,36.9313098 431.827129,30.5424041 431.827129,47.7340497 C431.827129,55.6594008 424.432152,60.2010631 416.353159,60.2010631 C409.474995,60.2010631 403.285913,57.5091507 399.088079,51.3182534 L402.852703,48.6764697" id="Fill-9" sketch:type="MSShapeGroup"></path>
          <path d="M27.0287799,29.7278123 C27.0287799,33.8158097 23.7683019,37.0340737 19.7326053,37.0340737 C15.1927634,37.0340737 12.0285544,33.8158097 12.0285544,29.7278123 C12.0285544,25.6648793 15.1927634,22.4240574 19.7326053,22.4240574 C23.7683019,22.4240574 27.0287799,25.6648793 27.0287799,29.7278123 L27.0287799,29.7278123 Z M0.732150846,62.0182293 C0.511745574,62.717525 0.260939575,63.8679792 0.331874605,65.2239612 C0.66374921,72.1692958 8.15499507,75.4502207 20.1379484,75.4502207 C34.3426881,75.4502207 40.7673751,68.6728173 40.7673751,62.3916883 C40.7673751,44.7564035 11.4686743,54.4387664 11.4686743,47.3129684 C11.4686743,44.7564035 15.1547625,44.5859659 19.7731396,44.5859659 C30.9479403,44.5859659 36.5847418,38.6682701 36.5847418,30.3318634 C36.5847418,26.933136 35.563784,24.381584 34.1982847,22.5117826 C35.8196568,21.4891567 38.573456,21.4891567 41.0536487,21.4891567 L41.0536487,14.4235131 C35.9919276,14.2480626 32.6478476,15.5990317 30.5983319,18.3034763 C27.8597331,15.939907 23.4009597,14.4235131 19.6287362,14.4235131 C8.05112591,14.4235131 2.05458248,22.0355598 2.05458248,29.7629024 C2.05458248,35.1116372 4.96545211,38.495326 8.65660706,41.46044 C6.67042622,42.0394267 1.70497412,45.2652101 1.70497412,49.5010872 C1.70497412,55.240826 9.52556118,57.459022 19.3120619,58.0555538 C27.2593187,58.5518281 31.1379448,60.5369256 31.1379448,63.5822455 C31.1379448,65.5648365 28.6780193,68.314397 21.8429225,68.5023797 C10.7618574,68.8081649 9.5584953,65.5598236 10.2678456,62.1986927 L0.732150846,62.0182293 L0.732150846,62.0182293 Z" id="Fill-10" sketch:type="MSShapeGroup"></path>
          <path d="M332.34075,56.0704563 C345.686669,56.0704563 348.592472,59.6295957 348.592472,63.2614217 C348.592472,67.8406805 343.796757,70.7907559 332.682758,70.7907559 C323.440937,70.7907559 319.164568,67.8406805 319.164568,63.5095589 C319.164568,59.7148145 322.247708,56.0704563 332.34075,56.0704563 L332.34075,56.0704563 Z M353.469255,13.6014021 C349.960504,13.6014021 346.707626,14.9498647 344.148899,17.4938974 C341.316564,15.6240961 338.07382,14.4435646 333.799984,14.4435646 C323.022927,14.4435646 316.18023,20.6194233 316.18023,30.2666961 C316.18023,34.8334228 318.579354,39.064287 322.597316,41.7737445 C319.346972,42.4554951 315.929424,45.4932958 315.929424,49.2253792 C315.929424,52.942424 318.579354,54.3009124 321.824631,54.9676244 L321.824631,55.1330492 C315.577282,57.4289447 314.036978,60.6497152 314.036978,64.4369402 C314.036978,69.6979497 318.146143,74.8561953 333.46051,74.8561953 C348.757142,74.8561953 353.732728,69.3570744 353.732728,62.9280657 C353.732728,55.729581 348.161795,51.4987168 334.820942,51.4987168 C322.769587,51.4987168 321.057013,50.2329665 321.057013,47.6989596 C321.057013,46.0848147 322.333843,44.483202 325.150978,43.4555632 C327.382898,44.2175198 329.523615,44.8190644 332.34075,44.8190644 C341.747241,44.8190644 349.527294,40.2573506 349.527294,29.4195207 C349.527294,25.1886564 348.339132,22.5694307 346.375752,20.2008485 C348.161795,18.4237853 351.153733,18.1656223 353.469255,18.1656223 L353.469255,13.6014021 L353.469255,13.6014021 Z M321.312886,29.7629024 C321.312886,22.9027867 325.670323,18.4989783 332.860095,18.4989783 C340.039734,18.4989783 344.397171,22.0606241 344.397171,29.7629024 C344.397171,37.374949 340.039734,40.7611443 332.860095,40.7611443 C326.612746,40.7611443 321.312886,37.374949 321.312886,29.7629024 L321.312886,29.7629024 Z" id="Fill-11" sketch:type="MSShapeGroup"></path>
      </g>
        
    </g>
</svg>