<?xml version="1.0" encoding="UTF-8" standalone="no"?>
<!DOCTYPE svg PUBLIC "-//W3C//DTD SVG 1.1//EN" "http://www.w3.org/Graphics/SVG/1.1/DTD/svg11.dtd">
<svg width="100%" height="100%" viewBox="0 0 480 128" version="1.1" xmlns="http://www.w3.org/2000/svg" xmlns:xlink="http://www.w3.org/1999/xlink" xml:space="preserve" xmlns:serif="http://www.serif.com/" style="fill-rule:evenodd;clip-rule:evenodd;stroke-linejoin:round;stroke-miterlimit:1.41421;">
    <path d="M74.382,12.407C45.947,12.407 22.816,35.533 22.816,63.975C22.816,92.409 45.947,115.542 74.382,115.542C102.807,115.542 125.946,92.409 125.946,63.975C125.946,35.533 102.807,12.407 74.382,12.407M74.382,127.203C39.512,127.203 11.148,98.836 11.148,63.975C11.148,29.112 39.512,0.737 74.382,0.737C109.241,0.737 137.61,29.112 137.61,63.975C137.61,98.836 109.241,127.203 74.382,127.203" style="fill:white;fill-rule:nonzero;"/>
    <path d="M78.758,63.857C78.86,66.909 76.603,68.708 74.144,68.785C71.619,68.794 69.471,66.69 69.453,64.189C69.438,61.591 71.502,59.474 74.078,59.467C76.853,59.467 78.685,61.633 78.758,63.857M73.885,53.239C73.89,53.799 73.859,54.353 73.845,54.906C73.823,55.888 73.823,55.881 72.882,56.074C72.55,56.131 72.22,56.202 71.914,56.324C71.247,56.585 70.915,56.306 70.662,55.695C70.363,54.988 69.985,54.326 69.641,53.617C68.233,54.3 66.977,55.042 65.958,56.215C66.458,56.747 66.917,57.237 67.367,57.744C68.051,58.488 68.051,58.488 67.508,59.365C67.316,59.662 67.141,59.963 66.966,60.278C66.709,60.734 66.416,60.904 65.849,60.656C65.121,60.32 64.33,60.131 63.402,59.835C63.149,61.184 62.93,62.388 62.709,63.604C62.6,64.203 62.879,64.391 63.448,64.369C64.038,64.349 64.649,64.426 65.242,64.377C65.761,64.349 65.951,64.588 66.038,65.042C66.142,65.578 66.292,66.118 66.343,66.661C66.363,66.891 66.237,67.23 66.064,67.332C65.422,67.731 64.751,68.052 64.069,68.367C63.763,68.506 63.661,68.63 63.812,68.962C64.39,70.192 65.154,71.286 66.179,72.272C66.523,71.973 66.808,71.736 67.083,71.49C68.467,70.167 68.45,70.203 70.084,71.144C70.762,71.534 70.835,71.935 70.589,72.579C70.321,73.275 70.109,73.979 69.821,74.828C71.336,75.116 72.747,75.386 74.231,75.683C74.295,74.661 74.39,73.851 74.381,73.04C74.381,72.469 74.621,72.236 75.137,72.165C75.624,72.092 76.12,72.061 76.57,71.899C77.101,71.698 77.267,71.911 77.465,72.345C77.795,73.078 78.187,73.793 78.572,74.549C80.036,74.006 81.21,73.142 82.298,72.035C81.664,71.341 81.044,70.701 80.472,69.997C80.351,69.857 80.308,69.51 80.404,69.339C80.701,68.785 81.053,68.247 81.447,67.746C81.562,67.596 81.881,67.472 82.067,67.527C82.915,67.764 83.742,68.052 84.643,68.362C85.254,66.96 85.565,65.534 85.421,63.833C84.543,63.833 83.706,63.846 82.873,63.815C82.659,63.802 82.326,63.62 82.275,63.441C82.078,62.838 81.983,62.196 81.841,61.582C81.757,61.195 81.881,60.971 82.253,60.796C83.051,60.439 83.826,60.025 84.772,59.536C83.934,58.391 83.164,57.347 82.408,56.306C82.176,55.978 81.983,55.936 81.684,56.244C81.223,56.729 80.687,57.139 80.215,57.606C79.863,57.979 79.564,58.094 79.108,57.693C78.72,57.372 78.255,57.077 77.79,56.838C77.389,56.627 77.394,56.364 77.515,56.018C77.744,55.387 77.967,54.762 78.2,54.144C78.357,53.706 78.242,53.394 77.786,53.301C76.658,53.09 75.52,52.922 74.39,52.742C74.02,52.68 73.885,52.873 73.885,53.239" style="fill:white;"/>
    <path d="M40.044,77.346L40.044,90.447C39.087,91.005 38.445,92.044 38.445,93.247C38.445,95.043 39.904,96.494 41.701,96.494C43.495,96.494 44.952,95.043 44.952,93.247C44.952,91.771 43.967,90.524 42.616,90.13L42.616,79.29L58.541,74.816C58,74.092 57.526,73.328 57.106,72.55L40.044,77.346Z" style="fill:white;fill-rule:nonzero;"/>
    <g transform="matrix(-1,0,0,1,148.708,0)">
        <path d="M40.044,77.346L40.044,90.447C39.087,91.005 38.445,92.044 38.445,93.247C38.445,95.043 39.904,96.494 41.701,96.494C43.495,96.494 44.952,95.043 44.952,93.247C44.952,91.771 43.967,90.524 42.616,90.13L42.616,79.29L58.541,74.816C58,74.092 57.526,73.328 57.106,72.55L40.044,77.346Z" style="fill:white;fill-rule:nonzero;"/>
    </g>
    <path d="M38.446,36.823C38.446,38.017 39.088,39.056 40.045,39.639L40.045,52.724L56.278,57.327C56.604,56.521 56.987,55.73 57.428,54.966L42.616,50.778L42.616,39.946C43.965,39.546 44.953,38.301 44.953,36.823C44.953,35.027 43.494,33.574 41.702,33.574C39.903,33.574 38.446,35.027 38.446,36.823" style="fill:white;fill-rule:nonzero;"/>
    <g transform="matrix(-1,0,0,1,148.708,0)">
        <path d="M38.446,36.823C38.446,38.017 39.088,39.056 40.045,39.639L40.045,52.724L56.278,57.327C56.604,56.521 56.987,55.73 57.428,54.966L42.616,50.778L42.616,39.946C43.965,39.546 44.953,38.301 44.953,36.823C44.953,35.027 43.494,33.574 41.702,33.574C39.903,33.574 38.446,35.027 38.446,36.823" style="fill:white;fill-rule:nonzero;"/>
    </g>
    <path d="M58.938,64.203C58.938,72.551 65.722,79.338 74.073,79.338C82.414,79.338 89.199,72.551 89.199,64.203C89.199,55.861 82.414,49.073 74.073,49.073C65.722,49.073 58.938,55.861 58.938,64.203M91.566,64.203C91.566,73.858 83.723,81.71 74.073,81.71C64.416,81.71 56.566,73.858 56.566,64.203C56.566,54.548 64.416,46.714 74.073,46.714C83.723,46.714 91.566,54.548 91.566,64.203" style="fill:white;fill-rule:nonzero;"/>
    <path d="M54.934,63.02L43.718,63.02C43.262,61.268 41.685,59.952 39.786,59.952C37.536,59.952 35.715,61.786 35.715,64.023C35.715,66.278 37.536,68.094 39.786,68.094C41.685,68.094 43.262,66.79 43.718,65.042L54.934,65.042L54.934,63.02Z" style="fill:white;fill-rule:nonzero;"/>
    <g transform="matrix(-1,0,0,1,148.708,0)">
        <path d="M54.934,63.02L43.718,63.02C43.262,61.268 41.685,59.952 39.786,59.952C37.536,59.952 35.715,61.786 35.715,64.023C35.715,66.278 37.536,68.094 39.786,68.094C41.685,68.094 43.262,66.79 43.718,65.042L54.934,65.042L54.934,63.02Z" style="fill:white;fill-rule:nonzero;"/>
    </g>
    <path d="M158.511,93.875L133.91,23.686L153.332,23.686L167.577,72.898L179.754,29.901C181.132,25.755 183.983,23.686 188.3,23.686L202.026,23.686L177.161,93.875L158.511,93.875Z" style="fill:rgb(10,147,235);fill-rule:nonzero;"/>
    <path d="M232.584,62.797C225.503,64.177 221.961,67.457 221.961,72.64C222.313,78.162 225.246,80.926 230.774,80.926C235.605,80.926 239.495,79.544 242.425,76.78C245.187,74.02 246.569,70.133 246.569,65.125L246.569,58.649C242.425,60.376 237.767,61.756 232.584,62.797M233.102,95.166C226.192,95.691 220.329,94.739 215.485,92.325C208.235,88.692 204.614,82.306 204.614,73.156C204.784,66.075 207.201,60.722 211.865,57.098C216.526,53.472 224.207,51.14 234.912,50.108C242.514,49.242 246.312,46.909 246.312,43.113C245.969,39.139 242.168,37.155 234.912,37.155C228.694,37.155 225.157,38.794 224.3,42.074L206.682,42.074C208.751,29.121 217.906,22.651 234.137,22.651C253.482,22.651 263.316,29.121 263.668,42.074L263.668,65.905C263.668,77.817 259.345,86.107 250.72,90.767C246.053,93.182 240.183,94.652 233.102,95.166" style="fill:rgb(10,147,235);fill-rule:nonzero;"/>
    <path d="M284.501,92.971C277.86,92.367 274.622,88.176 274.788,80.408L274.788,3.742L283.861,3.742C286.107,3.742 288.091,4.606 289.819,6.334C291.547,8.057 292.404,10.13 292.404,12.545L292.404,23.686L303.029,23.686L303.029,27.573C303.029,30.162 302.158,32.277 300.431,33.917C298.705,35.556 296.636,36.377 294.213,36.377L292.404,36.377L292.404,75.223C292.404,78.162 294.134,79.633 297.584,79.633L303.029,79.633L303.029,93.1C297.328,93.618 291.155,93.574 284.501,92.971" style="fill:rgb(10,147,235);fill-rule:nonzero;"/>
    <path d="M336.946,62.797C329.871,64.177 326.332,67.457 326.332,72.64C326.675,78.162 329.612,80.926 335.136,80.926C339.978,80.926 343.856,79.544 346.793,76.78C349.555,74.02 350.942,70.133 350.942,65.125L350.942,58.649C346.793,60.376 342.129,61.756 336.946,62.797M337.473,95.166C330.565,95.691 324.688,94.739 319.857,92.325C312.608,88.692 308.975,82.306 308.975,73.156C309.15,66.075 311.571,60.722 316.227,57.098C320.892,53.472 328.58,51.14 339.285,50.108C346.875,49.242 350.685,46.909 350.685,43.113C350.333,39.139 346.534,37.155 339.285,37.155C333.067,37.155 329.528,38.794 328.662,42.074L311.055,42.074C313.124,29.121 322.278,22.651 338.507,22.651C357.842,22.651 367.691,29.121 368.03,42.074L368.03,65.905C368.03,77.817 363.718,86.107 355.079,90.767C350.415,93.182 344.552,94.652 337.473,95.166" style="fill:white;fill-rule:nonzero;"/>
    <path d="M423.971,59.172C423.971,45.01 418.963,37.931 408.951,37.931C398.938,37.931 394.016,45.01 394.191,59.172C394.707,72.641 399.715,79.372 409.208,79.372C418.706,79.372 423.632,72.641 423.971,59.172M394.191,112.528C394.191,118.397 391.252,121.33 385.378,121.33L376.575,121.33L376.575,54.246C377.433,33.355 388.397,22.909 409.47,22.909C431.223,22.909 442.105,34.734 442.105,58.39C442.105,82.216 432.775,94.48 414.134,95.167C405.321,95.167 398.681,91.541 394.191,84.292L394.191,112.528Z" style="fill:white;fill-rule:nonzero;"/>
    <path d="M459.451,23.685C465.152,23.685 467.996,26.536 467.996,32.23L467.996,93.875L450.379,93.875L450.379,23.685L459.451,23.685ZM459.451,3.742C465.316,3.742 468.173,6.593 467.996,12.287L467.996,17.468L450.379,17.468L450.379,3.742L459.451,3.742Z" style="fill:white;fill-rule:nonzero;"/>
    <path d="M137.434,102.169C132.991,109.469 127.374,115.97 120.765,121.33L366.282,121.33L366.282,117.875L366.282,105.622L366.282,102.169L137.434,102.169Z" style="fill:white;fill-rule:nonzero;"/>
</svg>
