<?xml version="1.0" encoding="utf-8"?>
<!-- Generator: Adobe Illustrator 23.0.3, SVG Export Plug-In . SVG Version: 6.00 Build 0)  -->
<svg version="1.1" id="Calque_1" xmlns="http://www.w3.org/2000/svg" xmlns:xlink="http://www.w3.org/1999/xlink" x="0px" y="0px"
	 viewBox="0 0 156 27.2" style="enable-background:new 0 0 156 27.2;" xml:space="preserve">
<style type="text/css">
	.st0{fill:#FFFFFF;}
	.st1{fill:url(#SVGID_1_);}
	.st2{fill:url(#SVGID_2_);}
	.st3{fill:url(#SVGID_3_);}
	.st4{fill:url(#SVGID_4_);}
</style>
<g>
	<path class="st0" d="M50.3,6.9c2.4,0,4.4,0.7,6.2,2.2c1.8,1.5,2.8,3.4,2.8,5.6v11.6h-1.1c-0.9,0-1.6-0.5-2.1-1.5
		c-0.8,0.7-1.7,1.3-2.7,1.6c-1,0.3-2,0.5-3.1,0.5c-2.4,0-4.5-0.7-6.2-2.2c-1.8-1.5-2.8-3.4-2.8-5.6v-4.4c0-2.2,0.9-4.1,2.8-5.6
		C45.8,7.6,47.9,6.9,50.3,6.9z M54.1,11.9c-1-0.9-2.3-1.3-3.8-1.3c-1.5,0-2.8,0.4-3.8,1.3c-0.9,0.8-1.4,1.7-1.4,2.7v4.4
		c0,1,0.5,2,1.4,2.7c1.1,0.9,2.3,1.3,3.8,1.3c1.5,0,2.8-0.4,3.8-1.3c0.9-0.8,1.4-1.7,1.4-2.7v-4.4C55.5,13.6,55,12.7,54.1,11.9z"/>
	<path class="st0" d="M67.4,7.5h4.4v1.7c0,1.4-0.7,2.1-2,2.1h-2.4v9c0,1,0.3,1.7,0.9,2.2c0.5,0.4,1.1,0.6,1.8,0.6v1.7
		c0,0.8-0.4,1.3-1.1,1.6c-0.6,0.2-1.3,0.1-1.9-0.2c-1-0.5-1.8-1.2-2.4-2.1c-0.7-1-1-2.3-1-3.8V2.7c0-1.3,0.7-2,2.1-2h1.7V7.5z"/>
	<path class="st0" d="M74,19.4v-5c0-2.1,0.9-3.9,2.7-5.4c1.6-1.4,3.6-2.1,5.9-2.1c2.3,0,4.3,0.7,5.9,2.1c1,0.9,1.7,1.8,2.2,3
		l-1.6,0.8c-1,0.5-1.8,0.3-2.4-0.4c-0.2-0.2-0.4-0.4-0.5-0.5c-1-0.8-2.2-1.2-3.6-1.2c-1.4,0-2.6,0.4-3.6,1.2
		c-0.9,0.7-1.3,1.6-1.3,2.5v5c0,1,0.4,1.8,1.3,2.5c1,0.8,2.1,1.2,3.6,1.2c1.4,0,2.6-0.4,3.6-1.2c0.1-0.1,0.3-0.3,0.5-0.5
		c0.7-0.8,1.5-0.9,2.4-0.4l1.6,0.8c-0.5,1.1-1.2,2.1-2.2,3c-1.6,1.4-3.6,2.1-5.9,2.1c-2.3,0-4.3-0.7-5.9-2.1
		C74.9,23.3,74,21.5,74,19.4z"/>
	<path class="st0" d="M98.1,26.3h-1.7c-1.4,0-2.1-0.7-2.1-2V2.7c0-1.3,0.7-2,2.1-2h1.7v7.5c1.5-0.9,3.1-1.3,4.9-1.3
		c2.3,0,4.3,0.7,5.9,2.1c1.8,1.5,2.7,3.3,2.7,5.4c0,2,0,4,0,5.9c0,2,0,4,0,5.9c-0.3,0-0.6,0-0.8,0c-0.3,0-0.6,0-0.8,0
		c-1.4,0-2.1-0.7-2.1-2v-9.9c0-1-0.4-1.8-1.3-2.5c-1-0.8-2.2-1.2-3.6-1.2c-1.4,0-2.6,0.4-3.6,1.2c-0.9,0.7-1.3,1.6-1.3,2.5V26.3z"/>
	<path class="st0" d="M119.8,11.2v15.1h-1.7c-1.4,0-2.1-0.7-2.1-2v-17c0-2.2,0.7-3.9,2.1-5.1c1.2-1,2.6-1.5,4.2-1.5h2.5v1.7
		c0,1.4-0.7,2.1-2,2.1h-0.5c-0.7,0-1.3,0.2-1.8,0.6c-0.6,0.5-0.9,1.3-0.9,2.2v0.1h5.1v1.7c0,1.4-0.7,2.1-2,2.1H119.8z"/>
	<path class="st0" d="M127.6,9.5c0-1.3,0.7-2,2.1-2h1.7v11.9c0,1,0.4,1.8,1.3,2.5c1,0.8,2.2,1.2,3.6,1.2s2.6-0.4,3.6-1.2
		c0.9-0.7,1.3-1.5,1.3-2.5V9.5c0-1.3,0.7-2,2.1-2h1.7v11.9c0,2.1-0.9,3.9-2.7,5.4c-1.6,1.4-3.6,2.1-5.9,2.1c-2.3,0-4.3-0.7-5.9-2.1
		c-1.8-1.5-2.7-3.3-2.7-5.4V9.5z"/>
	<path class="st0" d="M153,20.2c0,1,0.3,1.7,0.9,2.2c0.5,0.4,1.1,0.6,1.8,0.6v1.7c0,0.8-0.4,1.3-1.1,1.6c-0.6,0.2-1.3,0.1-1.9-0.2
		c-1-0.5-1.8-1.2-2.4-2.1c-0.7-1-1-2.3-1-3.8V2.7c0-1.3,0.7-2,2.1-2h1.7V20.2z"/>
	<linearGradient id="SVGID_1_" gradientUnits="userSpaceOnUse" x1="38.3774" y1="22.3356" x2="29.8451" y2="4.038">
		<stop  offset="0" style="stop-color:#73A434"/>
		<stop  offset="1" style="stop-color:#FFCB4E"/>
	</linearGradient>
	<path class="st1" d="M42.7,0.4C42.6,0.2,42.5,0,42,0c-6.4,0-9.3,3.1-10.4,5.2c-1.1,1.5-1.5,5.2-2,9.3c-0.4,3.6-1,9.2-2.2,9.2
		c-0.2,0-0.5-0.2-0.8-0.5l-0.7-0.6l-0.2,0.9c-0.1,0.4-0.5,2.3,0.2,3.3c0.2,0.3,0.6,0.5,1,0.5c5,0,9-8.2,10-14.9
		c0.9-6.2,4-9.3,5.2-10.6C42.6,1.1,42.9,0.8,42.7,0.4z"/>
	<g>
		<linearGradient id="SVGID_2_" gradientUnits="userSpaceOnUse" x1="16.7878" y1="24.7227" x2="10.5717" y2="11.3921">
			<stop  offset="0.1" style="stop-color:#009559"/>
			<stop  offset="0.2917" style="stop-color:#008C52"/>
			<stop  offset="0.6042" style="stop-color:#007440"/>
			<stop  offset="0.9968" style="stop-color:#004C22"/>
			<stop  offset="1" style="stop-color:#004C22"/>
		</linearGradient>
		<path class="st2" d="M10.5,27.2h-0.3l-2.6-5.8l1.9,1.8c0.5,0.4,0.8,0.5,0.9,0.5l0,0c1,0,1.7-3.5,2.3-6.3c0.6-2.9,1.2-6,2.3-8.1
			c5.1,2,4.2,6.3,4.2,6.3c-0.2-0.2-0.4-0.5-0.5-0.5c-0.7,0-1.4,2.2-1.9,4C15.7,22.7,14.3,27.2,10.5,27.2z"/>
	</g>
	<g>
		<linearGradient id="SVGID_3_" gradientUnits="userSpaceOnUse" x1="25.859" y1="28.1687" x2="16.2259" y2="7.5105">
			<stop  offset="0" style="stop-color:#ABC457"/>
			<stop  offset="0.3196" style="stop-color:#79A462"/>
			<stop  offset="0.6182" style="stop-color:#518A6B"/>
			<stop  offset="0.8549" style="stop-color:#397B71"/>
			<stop  offset="1" style="stop-color:#307573"/>
		</linearGradient>
		<path class="st3" d="M26.9,27.2c-3.4,0-4.8-4.1-6.2-8c-1.2-3.4-2.3-6.5-4.3-6.5c-1.5,0-3.2,2.6-3.2,2.6c0.7-2.7,1.7-8.6,5.5-8.6
			c3.9,0,4.9,4.8,5.8,9.4c0.9,4.6,1.7,9.8,6.6,9C31.1,25.2,29.3,27.2,26.9,27.2z"/>
	</g>
	<g>
		<linearGradient id="SVGID_4_" gradientUnits="userSpaceOnUse" x1="11.3754" y1="27.2402" x2="1.2282" y2="5.4795">
			<stop  offset="0" style="stop-color:#25A669"/>
			<stop  offset="1" style="stop-color:#A0CF77"/>
		</linearGradient>
		<path class="st4" d="M10.5,27.2C4.9,27.2,0.3,16.6,0.3,9.7c0-3.5,1.4-5.2,4.2-5.2c2.7,0,2.9,4.1,3.2,8.7
			c0.3,5.6,0.4,12.7,6.5,11.9C14.2,25.2,13,27.2,10.5,27.2z"/>
	</g>
</g>
</svg>
