<?xml version="1.0" encoding="iso-8859-1"?>
<!-- Generator: Adobe Illustrator 16.0.0, SVG Export Plug-In . SVG Version: 6.00 Build 0)  -->
<!DOCTYPE svg PUBLIC "-//W3C//DTD SVG 1.1//EN" "http://www.w3.org/Graphics/SVG/1.1/DTD/svg11.dtd">
<svg version="1.1" xmlns="http://www.w3.org/2000/svg" xmlns:xlink="http://www.w3.org/1999/xlink" x="0px" y="0px"
	 width="573.667px" height="159.817px" viewBox="0 0 573.667 159.817" style="enable-background:new 0 0 573.667 159.817;"
	 xml:space="preserve">
<g id="Layer_2">
</g>
<g id="Layer_3">
</g>
<g id="Layer_4">
</g>
<g id="Layer_5">
</g>
<g id="Layer_7">
	<g>
		<rect y="90" style="fill:#0062BF;" width="18" height="34"/>
		<g>
			<path style="fill:#6BB533;" d="M153.031,123.702c-2.47,1.17-7.28,2.08-13.26,2.08c-22.361,0-33.021-18.461-33.021-43.292
				c0-33.021,18.331-45.892,35.361-45.892c5.98,0,10.141,1.17,11.831,2.34l-2.86,14.301c-1.95-0.91-4.16-1.69-7.93-1.69
				c-9.62,0-18.331,8.32-18.331,30.031c0,20.931,7.93,29.121,18.331,29.121c2.86,0,6.11-0.65,8.19-1.3L153.031,123.702z"/>
			<path style="fill:#6BB533;" d="M160.755,36.147h16.82v88.854h-16.82V36.147z"/>
			<path style="fill:#6BB533;" d="M206.464,45.521c0.128,5.393-3.724,9.117-8.859,9.117c-4.623,0-8.475-3.724-8.346-9.117
				c-0.128-5.649,3.98-9.116,8.603-9.116C202.741,36.404,206.464,39.871,206.464,45.521z M189.644,125.002V62.213h16.82v62.789
				H189.644z"/>
			<path style="fill:#6BB533;" d="M253.074,123.975c-1.67,0.771-5.907,1.798-10.658,1.798c-15.922,0-26.323-11.043-26.323-31.587
				c0-19.389,11.428-32.871,28.762-32.871c3.981,0,7.576,0.898,9.245,1.669l-2.183,13.226c-1.412-0.514-3.467-1.156-6.292-1.156
				c-8.089,0-12.84,7.704-12.84,18.619c0,11.428,4.751,18.361,12.583,18.361c2.439,0,4.494-0.385,6.292-1.284L253.074,123.975z"/>
			<path style="fill:#6BB533;" d="M276.442,89.691h0.257c1.156-3.596,2.055-6.164,3.21-8.731l8.09-18.747h18.104l-15.151,26.323
				l16.051,36.466h-18.747l-8.988-25.809l-2.825,5.393v20.416h-16.82V36.147h16.82V89.691z"/>
			<path style="fill:#0F7AB3;" d="M368.592,94.011c-0.394-8.404-1.05-19.829-0.787-29.284h-0.395
				c-1.576,9.455-3.939,20.354-5.646,27.183l-7.616,31.647h-12.213l-7.354-31.122c-1.707-7.091-4.071-18.122-5.384-27.708h-0.395
				c-0.263,9.586-0.788,20.748-1.313,29.546l-1.445,30.728h-14.839l6.435-88.508h18.122l7.091,32.042
				c2.495,11.162,4.728,21.011,6.304,30.991h0.263c1.313-9.849,3.283-19.829,5.646-30.991l6.96-32.042h18.122l5.384,88.508h-15.364
				L368.592,94.011z"/>
			<path style="fill:#0F7AB3;" d="M410.425,99.578c0.257,9.759,5.906,13.354,13.354,13.354c4.751,0,8.988-1.026,11.942-2.054
				l2.311,12.07c-4.365,1.67-10.914,2.825-17.334,2.825c-17.078,0-26.451-11.3-26.451-30.945c0-21.058,10.914-33.641,25.167-33.641
				c13.482,0,21.314,10.657,21.314,29.661c0,4.494-0.128,6.934-0.514,8.731H410.425z M425.448,87.765
				c0-8.089-2.055-14.381-7.063-14.381c-5.521,0-7.704,8.089-7.832,14.381H425.448z"/>
			<path style="fill:#0F7AB3;" d="M470.003,45.264v16.949h12.326v11.941h-12.326v28.634c0,7.319,3.081,9.117,6.42,9.117
				c1.669,0,2.953-0.129,4.366-0.386l0.128,13.098c-2.312,0.642-5.778,1.155-10.272,1.155c-4.879,0-9.116-1.155-12.069-3.98
				c-3.467-3.339-5.394-8.09-5.394-17.977V74.154h-7.447V62.213h7.447V49.244L470.003,45.264z"/>
			<path style="fill:#0F7AB3;" d="M503.386,99.578c0.257,9.759,5.906,13.354,13.354,13.354c4.751,0,8.988-1.026,11.942-2.054
				l2.311,12.07c-4.365,1.67-10.914,2.825-17.334,2.825c-17.078,0-26.451-11.3-26.451-30.945c0-21.058,10.914-33.641,25.167-33.641
				c13.482,0,21.314,10.657,21.314,29.661c0,4.494-0.128,6.934-0.514,8.731H503.386z M518.409,87.765
				c0-8.089-2.055-14.381-7.063-14.381c-5.521,0-7.704,8.089-7.832,14.381H518.409z"/>
			<path style="fill:#0F7AB3;" d="M543.062,81.088c0-6.292-0.257-13.097-0.514-18.875h14.638l0.898,9.117h0.386
				c2.825-6.677,7.832-10.144,12.455-10.144c1.669,0,2.568,0,3.595,0.256v16.692c-1.026-0.257-2.183-0.257-3.595-0.257
				c-3.596,0-8.347,2.44-10.272,8.988c-0.385,1.413-0.642,3.595-0.642,6.292v31.844h-16.949V81.088z"/>
		</g>
		<rect x="24" y="60" style="fill:#0062BF;" width="19" height="64"/>
		<rect x="49" y="36" style="fill:#0062BF;" width="19" height="88"/>
		<rect x="74" style="fill:#0062BF;" width="20" height="124"/>
		<g>
			<path style="fill:#FFFFFF;" d="M89.773,158.517c-6.633-8.32-20.822-15.978-20.653-15.867l0,0
				c-11.128-4.272-15.494-8.274-17.342-11.044l0,0c-1.021-1.553-1.154-2.709-1.154-3.042l0,0l-0.025-0.461l0.222-0.394
				c0.827-1.556,1.92-2.697,3.104-3.468l0,0c2.573-1.596,5.366-1.66,7.647-1.276l0,0L46.195,99.479l-0.007-0.55
				c-0.101-5.156,1.201-8.292,3.47-9.789l0,0c4.669-2.729,9.951,1.248,10.1,1.209l0,0l0.335,0.232l5.367,8.188
				c0.083-0.057,0.167-0.11,0.245-0.163l0,0c2.735-1.606,5.836-0.78,7.502-0.162l0,0c0.464-0.479,0.956-0.883,1.494-1.229l0,0
				c3.475-2.2,7.629-1.722,9.358-1.416l0,0c0.086-0.063,0.165-0.122,0.25-0.173l0,0c6.484-3.839,13.884,2.837,14.004,2.799l0,0
				l0.18,0.143l0.14,0.185c1.259,1.637,2.461,3.343,3.604,5.072l0,0c10.743,16.464,15.733,35.916,15.781,36.022l0,0l0.303,1.188
				l-26.253,17.94l-1.25,0.843L89.773,158.517L89.773,158.517z M91.037,157.455l1.271-1.062L91.037,157.455L91.037,157.455z"/>
		</g>
		<g>
			<path style="fill:#231F20;" d="M89.773,158.517c-6.633-8.32-20.822-15.978-20.653-15.867l0,0
				c-11.128-4.272-15.494-8.274-17.342-11.044l0,0c-1.021-1.553-1.154-2.709-1.154-3.042l0,0l-0.025-0.461l0.222-0.394
				c0.827-1.556,1.92-2.697,3.104-3.468l0,0c2.573-1.596,5.366-1.66,7.647-1.276l0,0L46.195,99.479l-0.007-0.55
				c-0.101-5.156,1.201-8.292,3.47-9.789l0,0c4.669-2.729,9.951,1.248,10.1,1.209l0,0l0.335,0.232l5.367,8.188
				c0.083-0.057,0.167-0.11,0.245-0.163l0,0c2.735-1.606,5.836-0.78,7.502-0.162l0,0c0.464-0.479,0.956-0.883,1.494-1.229l0,0
				c3.475-2.2,7.629-1.722,9.358-1.416l0,0c0.086-0.063,0.165-0.122,0.25-0.173l0,0c6.484-3.839,13.884,2.837,14.004,2.799l0,0
				l0.18,0.143l0.14,0.185c1.259,1.637,2.461,3.343,3.604,5.072l0,0c10.743,16.464,15.733,35.916,15.781,36.022l0,0l0.303,1.188
				l-26.253,17.94l-1.25,0.843L89.773,158.517L89.773,158.517z M91.037,157.455l1.271-1.062L91.037,157.455L91.037,157.455z
				 M54.549,129.799c1.086,1.694,4.725,5.418,15.67,9.609l0,0c0.098,0.077,13.224,6.96,21,15.707l0,0l23.171-15.829
				c-1.261-4.366-6.127-20.247-14.917-33.653l0,0c-1.032-1.57-2.111-3.115-3.239-4.591l0,0c-0.43-0.327-1.818-1.375-3.597-2.147l0,0
				c-2.169-0.958-4.544-1.387-6.319-0.194l0,0c-0.187,0.118-0.342,0.247-0.474,0.361l0,0l-0.615,0.564l-0.833-0.212
				c-0.005,0.021-1.128-0.286-2.729-0.308l0,0c-1.59-0.039-3.531,0.225-4.965,1.175l0,0c-0.551,0.364-1.034,0.805-1.438,1.394l0,0
				l-0.739,1.069l-1.261-0.596c0,0.02-0.946-0.443-2.193-0.715l0,0c-1.246-0.295-2.627-0.275-3.357,0.237l0,0
				c-0.312,0.212-0.556,0.468-0.78,0.911l0,0l-1.203,2.64l-7.905-12.081c-0.41-0.248-1.209-0.682-2.178-0.999l0,0
				c-1.438-0.486-2.983-0.619-3.985,0.061l0,0c-0.966,0.639-2.03,2.242-2.067,6.448l0,0l20.84,31.849l-5.513-2.856
				c-0.015,0.018-1.32-0.688-3.182-1.062l0,0c-1.869-0.395-4.073-0.408-5.808,0.734l0,0c-0.64,0.423-1.231,0.985-1.764,1.793l0,0
				C54.244,129.29,54.368,129.508,54.549,129.799L54.549,129.799z"/>
		</g>
		<g>
			<polygon points="84.209,99.555 90.366,108.958 92.358,107.663 85.204,96.161 			"/>
		</g>
		<g>
			<polygon points="65.249,104.488 73.594,117.246 75.581,115.948 65.791,100.424 			"/>
		</g>
		<g>
			<polygon points="74.559,102.77 81.125,112.813 83.116,111.515 75.468,99.249 			"/>
		</g>
	</g>
</g>
</svg>
