<?xml version="1.0" encoding="UTF-8"?>
<svg xmlns="http://www.w3.org/2000/svg" id="Layer_2" viewBox="0 0 295.041 135.747">
  <defs>
    <style>.cls-1{fill:#0580c2;}.cls-2{fill:#545758;}</style>
  </defs>
  <g id="logos">
    <g>
      <g>
        <path class="cls-1" d="M48.117,.058V31.751c-5.59-4.725-10.776-6.742-17.864-6.742-17.864,0-30.253,14.522-30.253,35.555,0,21.148,12.678,36.131,30.657,36.131,6.742,0,12.678-2.305,17.403-6.915v5.302h14.522V0l-14.464,.058h0Zm-1.614,73.587c-2.017,5.302-7.895,9.047-14.406,9.047-10.257,0-16.827-8.471-16.827-21.609,0-13.657,6.627-22.186,17.288-22.186,6.454,0,12.678,4.034,14.233,9.335,.864,2.593,1.153,6.166,1.153,13.542,0,5.82-.403,9.451-1.441,11.871Z"></path>
        <path class="cls-1" d="M126.948,72.089v-25.24c0-8.183-.864-11.352-4.437-15.098-4.149-4.495-11.813-6.915-21.321-6.915-9.623,0-19.304,2.305-28.64,7.03l6.051,11.64c9.623-4.149,14.406-5.302,21.033-5.302,8.932,0,12.562,3.169,12.678,10.949v2.19c-11.64,1.153-15.559,1.614-20.169,2.42-14.694,2.881-21.609,9.335-21.609,20.284,0,12.966,11.237,22.762,26.047,22.762,7.895,0,14.118-2.881,18.555-8.471,1.441,4.725,5.302,7.607,11.813,8.471l7.376-11.237c-6.685-2.708-7.376-4.149-7.376-13.484Zm-14.694,1.268c0,4.034-.576,5.59-2.593,7.318-2.593,2.305-7.03,3.919-10.776,3.919-7.03,0-12.85-4.61-12.85-10.257,0-4.61,3.054-7.318,9.796-8.932,4.495-1.037,8.183-1.441,16.423-2.305v10.257Z"></path>
        <path class="cls-1" d="M159.449,71.513c0,8.471,1.729,10.488,8.932,10.488,2.42,0,5.186-.288,8.183-.864l1.844,12.793c-4.725,1.268-10.084,2.017-14.694,2.017-13.542,0-18.843-5.59-18.843-19.593V38.897h-12.505v-12.505h12.505V5.244L159.391,.058V26.392h18.094v12.505h-18.037v32.616h0Z"></path>
        <path class="cls-1" d="M209.64,71.513c0,8.471,1.729,10.488,8.932,10.488,2.42,0,5.186-.288,8.183-.864l1.844,12.793c-4.725,1.268-10.084,2.017-14.694,2.017-13.542,0-18.843-5.59-18.843-19.593V38.897h-12.505v-12.505h12.505V5.244L209.583,.058V26.392h18.037v12.505h-18.037l.058,32.616h0Z"></path>
        <path class="cls-1" d="M261.33,24.664c-19.132,0-31.982,14.579-31.982,36.419,0,21.148,13.542,35.843,33.134,35.843,19.189,0,32.558-14.81,32.558-35.843,0-21.552-13.657-36.419-33.711-36.419Zm.576,58.086c-10.661,0-17.691-8.759-17.691-21.898s7.203-22.186,17.864-22.186c10.373,0,17.288,8.817,17.288,22.186,0,13.081-7.088,21.898-17.46,21.898Z"></path>
      </g>
      <g>
        <path class="cls-2" d="M38.49,127.66h-1.906c-.22,0-.398-.06-.534-.181s-.237-.274-.305-.461l-1.703-4.829h-8.171l-1.703,4.829c-.059,.167-.161,.317-.305,.447s-.322,.195-.534,.195h-1.906l7.282-20.001h2.503l7.282,20.001Zm-11.933-7.425h6.798l-2.86-8.137c-.186-.502-.369-1.13-.546-1.884-.093,.381-.183,.733-.272,1.054s-.177,.603-.261,.844l-2.86,8.123Z"></path>
        <g>
          <path class="cls-2" d="M47.618,101.812h5.165v11.057l9.297-11.057h6.349l-10.591,12.14,11.023,13.599h-6.743l-9.252-11.951h-.082v11.951h-5.165v-25.739Z"></path>
          <path class="cls-2" d="M70.871,109.554c1.905-.89,4.488-1.437,6.587-1.437,5.791,0,8.195,2.408,8.195,8.002v2.441c0,1.917,.038,3.354,.067,4.753,.045,1.44,.12,2.765,.231,4.239h-4.347c-.186-.994-.186-2.248-.231-2.832h-.074c-1.139,2.099-3.61,3.275-5.858,3.275-3.365,0-6.647-2.021-6.647-5.635,0-2.851,1.369-4.507,3.245-5.422,1.883-.927,4.325-1.116,6.386-1.116h2.724c0-3.059-1.361-4.09-4.272-4.09-2.106,0-4.205,.815-5.865,2.073l-.141-4.25Zm5.783,14.827c1.511,0,2.694-.663,3.469-1.693,.811-1.068,1.027-2.434,1.027-3.911h-2.136c-2.21,0-5.5,.368-5.5,3.278,0,1.627,1.37,2.326,3.141,2.326Z"></path>
          <path class="cls-2" d="M100.338,112.546c-1.518-.517-2.635-.815-4.428-.815-1.333,0-2.926,.484-2.926,2.111,0,3.018,8.605,1.105,8.605,7.964,0,4.422-3.952,6.189-7.965,6.189-1.898,0-3.803-.324-5.612-.808l.298-4.057c1.548,.778,3.171,1.251,4.868,1.251,1.251,0,3.245-.473,3.245-2.326,0-3.721-8.589-1.176-8.589-8.031,0-4.102,3.573-5.907,7.443-5.907,2.329,0,3.833,.365,5.389,.7l-.328,3.729Z"></path>
          <path class="cls-2" d="M119.43,126.484c-1.801,.997-3.87,1.511-6.528,1.511-6.268,0-9.922-3.614-9.922-9.84,0-5.508,2.918-10.038,8.82-10.038,7.034,0,9.051,4.827,9.051,11.474h-13.145c.231,3.048,2.367,4.79,5.426,4.79,2.397,0,4.466-.882,6.297-1.917v4.019Zm-3.312-10.294c-.142-2.385-1.243-4.459-4.012-4.459s-4.168,1.924-4.399,4.459h8.411Z"></path>
          <path class="cls-2" d="M130.73,122.431h.075l4.57-13.874h5.017l-7.124,18.85c-1.585,4.205-2.724,8.34-7.897,8.34-1.169,0-2.36-.186-3.498-.517l.328-3.651c.625,.223,1.332,.328,2.553,.328,1.987,0,3.2-1.358,3.2-3.391l-7.264-19.959h5.456l4.585,13.874Z"></path>
          <path class="cls-2" d="M141.649,109.554c1.913-.89,4.488-1.437,6.594-1.437,5.791,0,8.195,2.408,8.195,8.002v2.441c0,1.917,.037,3.354,.067,4.753,.037,1.44,.111,2.765,.223,4.239h-4.347c-.193-.994-.193-2.248-.231-2.832h-.067c-1.146,2.099-3.618,3.275-5.858,3.275-3.372,0-6.655-2.021-6.655-5.635,0-2.851,1.37-4.507,3.253-5.422,1.883-.927,4.317-1.116,6.386-1.116h2.724c0-3.059-1.362-4.09-4.272-4.09-2.122,0-4.213,.815-5.866,2.073l-.148-4.25Zm5.791,14.827c1.511,0,2.686-.663,3.461-1.693,.811-1.068,1.035-2.434,1.035-3.911h-2.136c-2.218,0-5.508,.368-5.508,3.278,0,1.627,1.377,2.326,3.149,2.326Z"></path>
        </g>
        <g>
          <path class="cls-2" d="M179.295,123.528c.136,0,.258,.06,.369,.182l.966,1.158c-.746,.949-1.65,1.689-2.713,2.22-1.063,.53-2.345,.795-3.844,.795-1.313,0-2.503-.249-3.57-.747s-1.978-1.196-2.732-2.094c-.754-.898-1.339-1.975-1.754-3.231-.415-1.256-.623-2.637-.623-4.145s.222-2.889,.667-4.145c.445-1.256,1.07-2.335,1.875-3.238,.805-.902,1.769-1.602,2.891-2.1,1.122-.498,2.361-.747,3.716-.747,1.339,0,2.493,.228,3.463,.683,.97,.456,1.832,1.075,2.586,1.857l-.801,1.242c-.059,.093-.127,.169-.203,.23-.076,.061-.186,.091-.33,.091-.11,0-.227-.044-.349-.132-.123-.089-.269-.198-.438-.328s-.369-.27-.597-.418c-.229-.149-.5-.288-.813-.419-.313-.129-.678-.239-1.093-.327-.415-.089-.894-.132-1.436-.132-.974,0-1.866,.183-2.674,.551-.809,.368-1.506,.891-2.091,1.571-.585,.679-1.04,1.507-1.366,2.484-.326,.978-.489,2.071-.489,3.28,0,1.248,.163,2.359,.489,3.336,.326,.976,.771,1.803,1.334,2.477s1.231,1.189,2.002,1.542c.77,.354,1.6,.531,2.49,.531,.542,0,1.029-.035,1.462-.105s.832-.179,1.201-.327c.369-.149,.712-.338,1.029-.566s.638-.5,.96-.817c.144-.14,.284-.21,.419-.21Z"></path>
          <path class="cls-2" d="M200.785,117.666c0,1.499-.216,2.873-.648,4.125-.432,1.251-1.042,2.328-1.83,3.23-.788,.903-1.735,1.603-2.84,2.101-1.106,.498-2.328,.747-3.667,.747s-2.559-.249-3.659-.747c-1.101-.498-2.046-1.198-2.834-2.101-.788-.902-1.398-1.979-1.83-3.23-.432-1.252-.648-2.627-.648-4.125s.216-2.872,.648-4.124c.432-1.251,1.042-2.331,1.83-3.238,.788-.908,1.733-1.612,2.834-2.115,1.1-.502,2.32-.753,3.659-.753s2.561,.251,3.667,.753c1.106,.503,2.053,1.207,2.84,2.115,.788,.907,1.398,1.987,1.83,3.238,.432,1.252,.648,2.627,.648,4.124Zm-2.529,0c0-1.227-.153-2.33-.458-3.308-.305-.976-.737-1.803-1.296-2.477s-1.237-1.194-2.033-1.556c-.796-.363-1.686-.544-2.669-.544-.974,0-1.86,.181-2.655,.544-.796,.362-1.476,.881-2.04,1.556s-.998,1.501-1.303,2.477c-.305,.978-.458,2.08-.458,3.308s.153,2.329,.458,3.301c.305,.972,.739,1.796,1.303,2.471,.563,.675,1.243,1.19,2.04,1.548,.795,.359,1.681,.538,2.655,.538,.983,0,1.872-.179,2.669-.538,.796-.358,1.474-.874,2.033-1.548,.559-.675,.991-1.499,1.296-2.471,.305-.972,.458-2.073,.458-3.301Z"></path>
          <path class="cls-2" d="M213.423,121.135c.089,.247,.176,.496,.261,.747,.085-.261,.174-.509,.267-.747s.199-.477,.318-.719l6.164-12.296c.11-.214,.225-.344,.343-.391,.119-.046,.288-.07,.508-.07h1.817v20.001h-2.161v-14.697c0-.195,.004-.405,.013-.628s.021-.451,.038-.684l-6.24,12.506c-.212,.419-.508,.628-.89,.628h-.356c-.381,0-.678-.209-.89-.628l-6.379-12.547c.025,.241,.044,.48,.057,.712,.013,.233,.019,.447,.019,.642v14.697h-2.161v-20.001h1.817c.22,0,.39,.024,.508,.07,.119,.047,.233,.177,.343,.391l6.29,12.311c.119,.222,.222,.458,.311,.704Z"></path>
          <path class="cls-2" d="M230.243,120.178v7.481h-2.453v-20.001h5.376c1.151,0,2.153,.147,3.005,.441,.852,.292,1.557,.71,2.116,1.249,.559,.54,.976,1.191,1.252,1.954s.413,1.614,.413,2.555c0,.93-.148,1.781-.445,2.553-.297,.773-.731,1.438-1.303,1.996-.572,.558-1.281,.993-2.129,1.305-.847,.311-1.817,.467-2.909,.467h-2.923Zm0-2.149h2.923c.702,0,1.323-.103,1.861-.307s.989-.49,1.354-.858,.64-.808,.826-1.32c.186-.512,.28-1.075,.28-1.688,0-1.275-.358-2.271-1.074-2.988-.716-.716-1.798-1.074-3.246-1.074h-2.923v8.234Z"></path>
          <path class="cls-2" d="M256.295,127.66h-1.906c-.22,0-.398-.06-.534-.181s-.237-.274-.305-.461l-1.703-4.829h-8.171l-1.703,4.829c-.059,.167-.161,.317-.305,.447s-.322,.195-.534,.195h-1.906l7.282-20.001h2.503l7.282,20.001Zm-11.933-7.425h6.798l-2.86-8.137c-.186-.502-.369-1.13-.546-1.884-.093,.381-.183,.733-.272,1.054s-.177,.603-.261,.844l-2.86,8.123Z"></path>
          <path class="cls-2" d="M260.355,107.75c.106,.06,.227,.184,.362,.37l10.547,15.074c-.025-.241-.042-.477-.051-.705-.008-.228-.013-.448-.013-.663v-14.166h2.161v20.001h-1.245c-.195,0-.358-.037-.489-.111-.131-.075-.261-.2-.388-.377l-10.535-15.06c.017,.233,.03,.461,.038,.684s.013,.428,.013,.614v14.25h-2.161v-20.001h1.271c.22,0,.383,.031,.489,.091Z"></path>
          <path class="cls-2" d="M284.825,119.704v7.956h-2.452v-7.956l-6.672-12.045h2.161c.22,0,.394,.061,.521,.182s.237,.27,.33,.446l4.169,7.775c.168,.325,.311,.632,.426,.921,.114,.288,.217,.572,.311,.85,.092-.288,.194-.576,.305-.865,.109-.288,.249-.59,.418-.907l4.156-7.775c.076-.148,.18-.29,.311-.425,.131-.136,.303-.203,.515-.203h2.186l-6.685,12.045Z"></path>
        </g>
      </g>
    </g>
  </g>
</svg>
