<?xml version="1.0" encoding="UTF-8"?><svg id="Layer_1" xmlns="http://www.w3.org/2000/svg" viewBox="0 0 1200 206.4"><defs><style>.cls-1{fill:#3e8bf6;}</style></defs><path class="cls-1" d="M473.996,38.588c-38.042,0-65.043,26.754-65.043,64.06,0,39.025,29.701,63.814,67.497,63.814,17.811,0,41.273-5.728,54.304-21.873,1.341-1.661,1.266-4.055-.256-5.553l-12.331-12.142c-1.563-1.539-4.093-1.584-5.651-.04-10.061,9.968-22.898,13.836-34.595,13.836-18.162,0-33.381-10.063-35.342-30.433h91.748c1.012,0,1.89-.738,2.023-1.742,.317-2.39,.476-4.873,.476-7.833,0-18.651-6.627-33.87-17.919-44.912-11.042-11.046-26.75-17.183-44.912-17.183Zm-31.173,51.296c2.212-16.444,13.747-26.507,30.437-26.507,8.834,0,16.444,2.947,21.841,8.592,4.173,4.662,7.363,10.553,8.345,17.915h-60.624Z"/><path class="cls-1" d="M1182.081,55.771c-11.042-11.046-26.75-17.183-44.912-17.183-38.042,0-65.043,26.754-65.043,64.06,0,39.025,29.701,63.814,67.497,63.814,17.811,0,41.274-5.728,54.305-21.873,1.34-1.662,1.265-4.055-.256-5.553l-12.331-12.142c-1.564-1.539-4.092-1.584-5.651-.04-10.061,9.968-22.898,13.836-34.595,13.836-18.162,0-33.38-10.063-35.341-30.433h91.747c1.012,0,1.89-.738,2.024-1.742,.316-2.39,.476-4.873,.476-7.832,0-18.651-6.627-33.87-17.919-44.912Zm-76.085,34.112c2.212-16.444,13.747-26.507,30.437-26.507,8.834,0,16.444,2.947,21.841,8.592,4.173,4.662,7.363,10.553,8.345,17.915h-60.623Z"/><path class="cls-1" d="M690.309,138.423c.008-.053,.003-.107,.011-.16h-6.357v-56.506h0V46.38c0-2.812-2.279-5.091-5.091-5.091h-18.824c-2.812,0-5.091,2.28-5.091,5.091v8.858c-10.794-10.282-25.255-16.65-41.923-16.65-36.817,0-62.588,27.49-62.588,64.06,0,36.077,25.529,63.814,62.588,63.814,18.896,0,33.375-7.855,43.684-19.631v4.958c0,6.749,5.471,12.219,12.219,12.219h20.583c2.812,0,5.091-2.28,5.091-5.091v-15.561c0-2.532-1.881-4.539-4.302-4.932Zm-71.878-.677c-20.123,0-34.606-15.465-34.606-35.099,0-19.88,14.483-35.341,34.606-35.341,18.162,0,34.116,12.76,34.116,35.341,0,22.335-15.954,35.099-34.116,35.099Z"/><path class="cls-1" d="M1063.068,138.264h-9.168v-47.151c0-31.416-19.88-52.525-50.317-52.525-18.405,0-32.641,7.609-42.215,18.902-8.341-12.028-21.841-18.902-39.267-18.902s-30.385,7.462-38.979,18.556v-11.007c0-2.812-2.28-5.091-5.091-5.091h-18.824c-2.812,0-5.091,2.279-5.091,5.091v108.33c0,5.269,4.271,9.54,9.54,9.54h33.731c2.812,0,5.091-2.279,5.091-5.091v-15.561c0-2.812-2.279-5.091-5.091-5.091h-9.155v-44.45c0-15.954,10.306-26.018,25.278-26.018,14.729,0,23.317,10.063,23.317,26.018v60.653c0,5.269,4.271,9.54,9.54,9.54h30.158c2.798,0,5.067-2.268,5.067-5.067v-15.61c0-2.798-2.269-5.067-5.067-5.067h-5.581v-44.45c0-15.954,10.553-26.018,25.278-26.018s23.564,10.063,23.564,26.018v44.45l.013,12.723v3.48c0,5.269,4.271,9.54,9.54,9.54h33.731c2.812,0,5.091-2.279,5.091-5.091v-15.561c0-2.812-2.28-5.091-5.091-5.091Z"/><path class="cls-1" d="M822.771,.023h-27.431c-2.812,0-5.092,2.28-5.092,5.091v15.561c0,2.812,2.28,5.091,5.092,5.091h1.453c-.001,.009,0,.018-.001,.028h4.086v25.068c-10.063-7.609-22.581-12.275-36.817-12.275-36.813,0-62.585,27.49-62.585,64.06,0,36.077,25.525,63.814,62.585,63.814,17.858,0,31.725-7.063,41.899-17.774v10.228c0,2.812,2.28,5.091,5.091,5.091h18.824c2.812,0,5.091-2.279,5.091-5.091v-17.109c.008,0,.015-.004,.023-.005V12.242c0-6.749-5.471-12.219-12.219-12.219Zm-53.309,137.724c-20.127,0-34.606-15.465-34.606-35.099,0-19.88,14.479-35.341,34.606-35.341,18.162,0,34.112,12.76,34.112,35.341,0,22.335-15.95,35.099-34.112,35.099Z"/><path class="cls-1" d="M225.466,29.543h-59.576c-20.931,0-38.411,14.655-42.819,34.255-4.407-19.6-21.886-34.255-42.818-34.255H20.677C9.257,29.543,0,38.8,0,50.219v104.829c0,11.42,9.257,20.677,20.677,20.677H60.209s.001,.001,.002,.001c41.229,.126,54.747,9.808,61.262,29.595,.268,.611,.889,1.055,1.599,1.055,.713,0,1.331-.439,1.597-1.055,6.513-19.787,20.034-29.469,61.262-29.595,.001,0,.001-.001,.002-.001h39.534c11.42,0,20.677-9.257,20.677-20.677V50.219c0-11.419-9.257-20.677-20.677-20.677Zm-122.185,112.293c0,1.219-.988,2.207-2.207,2.207H33.738c-1.219,0-2.207-.988-2.207-2.207v-8.38c0-1.219,.988-2.207,2.207-2.207H101.074c1.219,0,2.207,.988,2.207,2.207v8.38Zm0-26.083c0,1.219-.988,2.207-2.207,2.207H33.738c-1.219,0-2.207-.988-2.207-2.207v-8.38c0-1.219,.988-2.207,2.207-2.207H101.074c1.219,0,2.207,.988,2.207,2.207v8.38Zm0-26.083c0,1.219-.988,2.207-2.207,2.207H33.738c-1.219,0-2.207-.988-2.207-2.207v-8.38c0-1.219,.988-2.207,2.207-2.207H101.074c1.219,0,2.207,.988,2.207,2.207v8.38Zm111.33,52.166c0,1.219-.988,2.207-2.207,2.207h-67.334c-1.219,0-2.207-.988-2.207-2.207v-8.38c0-1.219,.988-2.207,2.207-2.207h67.334c1.219,0,2.207,.988,2.207,2.207v8.38Zm0-26.083c0,1.219-.988,2.207-2.207,2.207h-67.334c-1.219,0-2.207-.988-2.207-2.207v-8.38c0-1.219,.988-2.207,2.207-2.207h67.334c1.219,0,2.207,.988,2.207,2.207v8.38Zm0-26.083c0,1.219-.988,2.207-2.207,2.207h-67.334c-1.219,0-2.207-.988-2.207-2.207v-8.38c0-1.219,.988-2.207,2.207-2.207h67.334c1.219,0,2.207,.988,2.207,2.207v8.38Z"/><path class="cls-1" d="M414.034,44.915c-3.989-2.687-13.364-7.221-30.408-6.327-15.445,.81-27.49,8.102-35.589,21.109v-2.454c0-.033-.004-.059-.004-.091v-3.648c0-6.749-5.471-12.22-12.22-12.22h-26.614c-2.812,0-5.091,2.279-5.091,5.091v16.079c0,2.812,2.28,5.091,5.091,5.091h4.693s-1.979,.002-1.981,.003h2.742s.004,.002,.006,.002h5.64v70.713h-9.144c-2.785,0-5.042,2.258-5.042,5.042v15.66c0,2.784,2.257,5.041,5.041,5.041h52.385c2.784,0,5.04-2.257,5.04-5.04v-15.662c0-2.784-2.257-5.041-5.041-5.041h-9.123v-40.277c0-17.183,10.085-28.875,26.26-29.697,7.531-.383,12.856,.768,16.122,1.869,.91,.307,1.86-.156,2.262-1.027,3.742-8.106,8.877-15.263,15.171-21.278,.884-.845,.814-2.254-.2-2.937Z"/></svg>