<svg width="74" height="80" viewBox="0 0 74 80" fill="none" xmlns="http://www.w3.org/2000/svg">
<g clip-path="url(#clip0_4690_62543)">
<path d="M28.1847 0.0455435L7.53915 14.2126C7.48192 14.3031 7.45154 14.4079 7.45154 14.515C7.45154 14.6221 7.48192 14.727 7.53915 14.8175L15.4683 20.2163C15.4888 20.2445 15.5157 20.2675 15.5468 20.2833C15.5778 20.2991 15.6122 20.3074 15.6471 20.3074C15.682 20.3074 15.7164 20.2991 15.7475 20.2833C15.7786 20.2675 15.8055 20.2445 15.826 20.2163L28.5555 11.4546C28.6726 11.4546 28.6726 11.331 28.6726 11.2139V0.403296C28.6726 0.0455435 28.4319 -0.0780438 28.1847 0.0455435Z" fill="#482DEB"/>
<path d="M72.5071 49.2788L44.6479 68.4934C44.5243 68.6105 44.5243 68.6105 44.5243 68.734V79.6618C44.5243 79.9024 44.8885 80.1431 45.0056 79.9024L72.8648 60.6879C72.9884 60.5708 72.9884 60.5708 72.9884 60.4472V49.5195C73.1055 49.2788 72.7477 49.1617 72.5071 49.2788Z" fill="#482DEB"/>
<path d="M57.3773 48.5568C57.3978 48.585 57.4247 48.608 57.4558 48.6238C57.4869 48.6397 57.5213 48.6479 57.5562 48.6479C57.5911 48.6479 57.6255 48.6397 57.6566 48.6238C57.6877 48.608 57.7146 48.585 57.7351 48.5568L65.6642 43.158C65.7168 43.127 65.7604 43.0827 65.7906 43.0297C65.8209 42.9766 65.8368 42.9166 65.8368 42.8555C65.8368 42.7945 65.8209 42.7344 65.7906 42.6814C65.7604 42.6284 65.7168 42.5841 65.6642 42.5531L45.1292 28.3861C44.8885 28.2625 44.6478 28.3861 44.6478 28.6267V39.5545C44.6478 39.6715 44.6478 39.7951 44.7649 39.7951L57.3773 48.5568Z" fill="#482DEB"/>
<path d="M0.696306 21.0619C0.455636 20.9383 0.214966 21.0619 0.214966 21.3026V32.2303C0.214966 32.3474 0.214966 32.4709 0.332049 32.4709L28.1847 51.679C28.2293 51.7113 28.2819 51.7307 28.3367 51.735C28.3916 51.7394 28.4465 51.7285 28.4956 51.7036C28.5447 51.6788 28.586 51.6408 28.6149 51.594C28.6438 51.5472 28.6593 51.4934 28.6596 51.4383V40.5106C28.6596 40.3935 28.6596 40.2765 28.5425 40.2765L0.696306 21.0619Z" fill="#482DEB"/>
</g>
<defs>
<clipPath id="clip0_4690_62543">
<rect width="72.7929" height="80" fill="white" transform="translate(0.214966)"/>
</clipPath>
</defs>
</svg>
