<?xml version="1.0" encoding="UTF-8" standalone="no"?>
<svg width="260px" height="80px" viewBox="0 0 260 80" version="1.1" xmlns="http://www.w3.org/2000/svg" xmlns:xlink="http://www.w3.org/1999/xlink" xmlns:sketch="http://www.bohemiancoding.com/sketch/ns">
    <!-- Generator: Sketch 3.1.1 (8761) - http://www.bohemiancoding.com/sketch -->
    <title>header-logo-blue</title>
    <desc>Created with Sketch.</desc>
    <defs>
        <linearGradient x1="50%" y1="0%" x2="50%" y2="100%" id="linearGradient-1">
            <stop stop-color="#0091E6" offset="0%"></stop>
            <stop stop-color="#0079BF" offset="100%"></stop>
        </linearGradient>
    </defs>
    <g id="Page-1" stroke="none" stroke-width="1" fill="none" fill-rule="evenodd" sketch:type="MSPage">
        <g id="Trello-Logo---White" sketch:type="MSLayerGroup" transform="translate(-362.000000, -160.000000)" fill="url(#linearGradient-1)">
            <g id="Logo" transform="translate(362.000000, 160.000000)" sketch:type="MSShapeGroup">
                <path d="M212.493017,52.5263308 C208.741182,54.0568079 205.780534,59.3443769 201.277722,62.3496471 C200.998508,62.536 200.719295,62.6291765 200.533153,62.6291765 C200.160868,62.6291765 199.695512,62.2564706 199.695512,60.5792941 C199.695512,54.8023529 201.556936,52.0070588 203.139146,47.9072941 C208.630346,33.6512941 218.030536,21.4451765 226.406942,8.12094118 C227.058441,7.096 227.430725,5.97788235 227.430725,4.76658824 C227.430725,3.74164706 227.058441,2.90305882 226.593085,1.87811765 C226.2208,1.03952941 224.545519,0.294117647 222.684095,0.294117647 C221.660312,0.294117647 220.7296,0.387294118 219.519675,0.387294118 C215.145329,0.387294118 214.214617,6.81647059 213.190834,8.49364706 C206.210495,20.3270588 198.206373,34.9557647 194.111241,45.2983529 C193.213228,47.6169012 192.243209,49.9354495 191.505903,52.3150101 C187.459084,53.4881842 184.427388,59.1846168 179.685207,62.3496471 C179.405993,62.536 179.12678,62.6291765 178.940637,62.6291765 C178.568353,62.6291765 178.102997,62.2564706 178.102997,60.5792941 C178.102997,54.8023529 179.96442,52.0070588 181.546631,47.9072941 C187.037831,33.6512941 196.43802,21.4451765 204.814427,8.12094118 C205.465925,7.096 205.83821,5.97788235 205.83821,4.76658824 C205.83821,3.74164706 205.465925,2.90305882 205.000569,1.87811765 C204.628285,1.03952941 202.953003,0.294117647 201.09158,0.294117647 C200.067797,0.294117647 199.137085,0.387294118 197.927159,0.387294118 C193.552814,0.387294118 192.622102,6.81647059 191.598319,8.49364706 C184.61798,20.3270588 176.613858,34.9557647 172.518725,45.2983529 C172.193164,46.1389095 171.858138,46.9794661 171.528168,47.8229299 L171.528168,47.8229299 C171.426273,47.8774169 171.322219,47.9365041 171.215729,48.0004706 C166.469098,50.7957647 162.467037,55.7341176 156.696624,59.0884706 C155.579769,59.7407059 152.136136,62.1632941 149.344,62.1632941 C148.692502,62.1632941 148.134075,61.9769412 147.575647,61.6974118 C146.738007,61.3247059 145.900366,59.5543529 145.900366,58.9952941 C145.900366,58.5294118 145.993437,58.4362353 146.924149,57.8771765 C155.114414,52.9388235 161.815539,45.8574118 167.585953,38.776 C169.72659,36.1670588 172.518725,31.0423529 172.518725,27.3152941 C172.518725,24.8927059 171.681085,22.0974118 168.795878,21.0724706 C166.748312,20.3270588 164.421532,19.9543529 162.560108,19.9543529 C157.627336,19.9543529 153.997559,22.1905882 151.949993,24.3336471 C149.865458,26.5615469 147.849129,28.8491956 145.975842,31.2172603 C144.018555,29.525544 141.257823,28.8061176 138.640814,28.8061176 C135.569464,28.8061176 129.799051,32.6263529 126.820773,34.8625882 C126.355417,35.2352941 126.076203,35.4216471 125.890061,35.4216471 C125.79699,35.4216471 125.703919,35.3284706 125.703919,35.1421176 C125.703919,35.0489412 125.890061,34.2103529 125.890061,32.7195294 C125.890061,31.4150588 125.610847,29.7378824 124.400922,27.688 C124.121708,27.2221176 122.446427,26.1971765 120.398861,26.1971765 C117.885939,26.1971765 115.559159,27.4084706 115.559159,28.7129412 C115.559159,29.6447059 116.3968,30.0174118 116.3968,30.856 C116.3968,31.3218824 116.024515,33.4649412 115.466088,35.5148235 C113.883878,41.4781176 111.929383,47.3482353 109.881817,53.2183529 C108.764963,56.4795294 105.042115,59.368 105.042115,62.9087059 C105.042115,64.0268235 105.786685,65.5176471 106.810468,66.6357647 C108.485749,68.4992941 109.509532,69.1515294 110.998671,69.1515294 C111.650169,69.1515294 112.394739,68.9651765 113.046237,68.4061176 C114.442305,67.1948235 115.186875,65.9835294 115.559159,64.3063529 C117.97901,53.3115294 124.959349,45.8574118 132.684258,40.9190588 C135.290251,39.2418824 138.826956,37.4715294 139.292312,37.4715294 C139.769489,37.4715294 140.515782,37.6919633 141.267781,37.9067974 L141.267781,37.9067974 C139.108379,41.4329319 137.358716,45.1515841 136.220963,49.1185882 C135.848678,50.4230588 135.662536,51.6343529 135.662536,52.9388235 C135.662536,55.0818824 136.127892,57.3181176 136.872461,59.4611765 C137.896244,62.4428235 139.571525,65.0517647 141.898305,66.2630588 C146.17958,68.4992941 149.250929,69.7105882 152.043064,69.7105882 C153.625275,69.7105882 154.8352,69.4310588 156.138197,68.6856471 C162.255475,65.2206403 166.006,62.591903 168.714193,60.2570137 C168.78845,62.6243891 169.254584,63.9359747 170.936515,65.704 C172.611797,67.4743529 175.21779,69.0583529 178.661424,69.8037647 C179.219851,69.8969412 179.778278,69.9901176 180.336705,69.9901176 C184.276689,69.9901176 188.068414,66.7841002 190.992203,63.6058967 L190.992203,63.6058967 C191.330722,64.2994376 191.822653,64.9614646 192.529031,65.704 C194.204312,67.4743529 196.810305,69.0583529 200.253939,69.8037647 C200.812366,69.8969412 201.370793,69.9901176 201.92922,69.9901176 C206.544519,69.9901176 210.95638,65.5908882 214.008015,61.9903957 C215.025077,64.0964258 217.867233,66.1786328 221.288027,67.8470588 C222.218739,68.3129412 223.335593,68.5924706 224.359376,68.5924706 C228.361437,68.5924706 231.246644,65.3312941 233.480353,62.9087059 C239.250766,56.5727059 242.415186,48.7458824 244.835037,38.8691765 C245.02118,38.1237647 245.300393,37.8442353 245.672678,37.8442353 C246.60339,37.8442353 247.813315,37.8442353 249.116312,37.6578824 C251.629234,37.2851765 253.583729,36.4465882 255.910508,36.0738824 C257.306576,35.7943529 257.120434,35.3284706 258.423431,34.8625882 C259.354142,34.4898824 260.098712,34.1171765 260.098712,33.1854118 C260.098712,31.6014118 257.213505,29.9242353 252.839159,29.9242353 C249.395525,29.9242353 247.347959,30.2037647 245.951892,30.2037647 C243.811254,30.2037647 243.252827,29.5515294 241.856759,25.9176471 C241.856759,25.9176471 243.252827,29.5515294 241.856759,25.9176471 C241.577546,25.1722353 241.298332,24.7995294 240.460692,24.0541176 C238.506197,22.3769412 236.086346,21.8178824 234.131851,21.8178824 C229.478292,21.8178824 225.476231,26.5698824 222.684095,30.5764706 C222.032597,31.5082353 221.101885,32.2536471 220.450386,33.2785882 C216.616484,39.0359478 212.945733,45.5283205 212.493017,52.5263308 L212.493017,52.5263308 Z M93.5012881,20.7929412 C95.8280678,20.7929412 97.1310644,20.6065882 97.410278,20.6065882 C97.6894915,20.6065882 97.8756339,20.6997647 97.8756339,20.9792941 C97.8756339,21.1656471 97.7825627,21.4451765 97.1310644,22.8428235 C91.453722,35.0489412 87.5447322,47.4414118 84.1010983,61.1383529 C84.0080271,61.5110588 83.7288136,62.9087059 83.7288136,64.3063529 C83.7288136,65.6108235 84.1010983,67.0084706 85.4040949,67.7538824 C87.9170169,69.2447059 89.9645831,69.8969412 91.3606508,69.8969412 C93.4082169,69.8969412 94.432,68.5924706 94.432,66.4494118 C94.432,64.5858824 94.5250712,62.6291765 94.8042847,61.1383529 C97.410278,47.4414118 101.319268,36.7261176 107.368895,25.5449412 C110.254102,20.2338824 110.626386,19.9543529 110.626386,19.4884706 C110.626386,19.3021176 110.533315,19.0225882 110.347173,18.7430588 C114.07002,17.9044706 118.537437,17.3454118 122.632569,17.3454118 C123.097925,17.3454118 124.959349,17.9976471 125.238563,18.2771765 C125.890061,18.9294118 126.541559,19.5816471 127.658414,19.5816471 C128.589125,19.5816471 130.171336,18.9294118 130.729763,18.5567059 C132.032759,17.6249412 132.684258,16.6 132.684258,14.9228235 C132.684258,13.3388235 126.820773,9.42541176 122.725641,9.42541176 C117.699797,9.42541176 113.139308,10.0776471 108.858034,10.9162353 C106.99661,11.2889412 100.295485,12.3138824 95.4557831,12.3138824 C90.8022237,12.3138824 91.0814373,11.6616471 89.1269424,11.6616471 C88.0100881,11.6616471 87.451661,12.2207059 86.9863051,12.6865882 C86.5209492,13.1524706 86.2417356,15.016 86.2417356,16.6931765 C86.2417356,17.5317647 86.2417356,18.184 86.7070915,18.7430588 C88.1031593,20.4202353 90.8022237,20.7929412 93.5012881,20.7929412 C93.5012881,20.7929412 90.8022237,20.7929412 93.5012881,20.7929412 Z M162.467037,28.3402353 C162.467037,29.1788235 162.187824,29.7378824 161.070969,31.5082353 C159.954115,33.2785882 160.419471,33.2785882 159.023403,35.1421176 C156.324339,38.776 152.973776,42.4098824 148.599431,46.4164706 C147.389505,47.5345882 147.203363,47.5345882 147.01722,47.5345882 C146.924149,47.5345882 146.738007,47.4414118 146.738007,47.2550588 C146.738007,46.9755294 146.831078,46.6028235 147.76179,44.6461176 C150.646997,38.5896471 154.183702,34.5830588 158.092692,30.6696471 C160.233329,28.5265882 161.536325,27.7811765 162.001681,27.7811765 C162.280895,27.7811765 162.467037,27.8743529 162.467037,28.3402353 C162.467037,28.3402353 162.467037,27.8743529 162.467037,28.3402353 Z M234.03878,30.7628235 C234.131851,30.7628235 234.224922,30.856 234.317993,31.0423529 C234.411064,31.3218824 234.597207,31.6014118 235.062563,31.9741176 C235.434847,32.2536471 235.434847,33.5581176 235.434847,34.5830588 C235.434847,43.6211765 230.315932,51.0752941 225.290088,58.6225882 C224.173234,60.2997647 223.521736,60.5792941 222.963308,60.5792941 C222.497953,60.5792941 221.753383,59.368 221.474169,58.6225882 C221.101885,57.5976471 221.008814,56.3863529 221.008814,55.9204706 C221.008814,48.6527059 227.896081,37.8442353 232.456569,31.8809412 C233.201139,30.856 233.759566,30.7628235 234.03878,30.7628235 C234.03878,30.7628235 233.759566,30.7628235 234.03878,30.7628235 Z" id="Type"></path>
                <path d="M22.0417161,10.5882353 C17.9810698,10.5882353 14.6892655,13.8768888 14.6892655,17.9490031 L14.6892655,62.0509969 C14.6892655,66.1162367 17.9742031,69.4117647 22.0417161,69.4117647 L66.0938771,69.4117647 C70.1545234,69.4117647 73.4463277,66.1231112 73.4463277,62.0509969 L73.4463277,17.9490031 C73.4463277,13.8837633 70.1613902,10.5882353 66.0938771,10.5882353 L22.0417161,10.5882353 Z M51.4169028,18.2352941 C49.4673945,18.2352941 47.8870056,19.8153897 47.8870056,21.7663376 L47.8870056,40.5866036 C47.8870056,42.5367451 49.4616599,44.1176471 51.4169028,44.1176471 L62.2780124,44.1176471 C64.2275208,44.1176471 65.8079096,42.5375515 65.8079096,40.5866036 L65.8079096,21.7663376 C65.8079096,19.8161961 64.2332554,18.2352941 62.2780124,18.2352941 L51.4169028,18.2352941 Z M25.8575808,18.2352941 C23.9080724,18.2352941 22.3276836,19.8139439 22.3276836,21.766231 L22.3276836,55.2925925 C22.3276836,57.2426751 23.9023378,58.8235294 25.8575808,58.8235294 L36.7186904,58.8235294 C38.6681988,58.8235294 40.2485876,57.2448796 40.2485876,55.2925925 L40.2485876,21.766231 C40.2485876,19.8161484 38.6739334,18.2352941 36.7186904,18.2352941 L25.8575808,18.2352941 Z" id="Board"></path>
            </g>
        </g>
    </g>
</svg>