<?xml version="1.0" encoding="utf-8"?>
<!-- Generator: Adobe Illustrator 18.1.0, SVG Export Plug-In . SVG Version: 6.00 Build 0)  -->
<!DOCTYPE svg PUBLIC "-//W3C//DTD SVG 1.1//EN" "http://www.w3.org/Graphics/SVG/1.1/DTD/svg11.dtd">
<svg version="1.1" id="Layer_1" xmlns="http://www.w3.org/2000/svg" xmlns:xlink="http://www.w3.org/1999/xlink" x="0px" y="0px"
	 viewBox="0 0 138 35" enable-background="new 0 0 138 35" xml:space="preserve">
<g>
	<g>
		<g>
			<g>
				<path fill="#205081" d="M45.6,12.9h-3.1c-0.3,0-0.5,0.2-0.5,0.5v2.7c0,0.3,0.2,0.5,0.5,0.5h3.1c0.3,0,0.5-0.2,0.5-0.5v-2.7
					C46.1,13.2,45.9,12.9,45.6,12.9z"/>
			</g>
		</g>
	</g>
	<g>
		<g>
			<path fill="#205081" d="M30.4,0.3c0-0.1-0.1-0.1-0.2-0.1h-1.8c-0.1,0-0.2,0.1-0.2,0.1l-2.3,7.3c0,0.1,0,0.1,0,0.2
				c0,0.1,0.1,0.1,0.2,0.1h1.3c0.1,0,0.2-0.1,0.2-0.1l1.6-5.4c0,0,0-0.1,0.2-0.1c0.1,0,0.2,0.1,0.2,0.1l0.7,2.5h-1
				c-0.1,0-0.2,0.1-0.2,0.1l-0.3,1c0,0.1,0,0.1,0,0.2c0,0,0.1,0.1,0.2,0.1h1.7l0.4,1.4c0,0.1,0.1,0.1,0.2,0.1h1.3
				c0.1,0,0.1,0,0.2-0.1c0,0,0-0.1,0-0.2L30.4,0.3z"/>
			<path fill="#205081" d="M35.9,6.7c0-0.1,0-0.1-0.1-0.1c0,0-0.1,0-0.2,0c-0.2,0.1-0.4,0.1-0.6,0.1c-0.3,0-0.4-0.1-0.4-0.4V3.4h1.1
				c0.1,0,0.2-0.1,0.2-0.2V2.4c0-0.1-0.1-0.2-0.2-0.2h-1.1V0.8c0-0.1,0-0.1-0.1-0.1c0,0-0.1-0.1-0.2,0l-1.2,0.2
				c-0.1,0-0.2,0.1-0.2,0.2v1.2h-0.6c-0.1,0-0.2,0.1-0.2,0.2v0.9c0,0.1,0.1,0.2,0.2,0.2h0.6v3c0,1,0.5,1.5,1.6,1.5
				c0.3,0,0.8-0.1,1.1-0.2C36,7.7,36,7.7,36,7.6L35.9,6.7z"/>
			<path fill="#205081" d="M38,0h-1.2c-0.1,0-0.2,0.1-0.2,0.2v7.5c0,0.1,0.1,0.2,0.2,0.2H38c0.1,0,0.2-0.1,0.2-0.2V0.2
				C38.2,0.1,38.1,0,38,0z"/>
			<path fill="#205081" d="M41,2.1c-0.6,0-1.3,0.1-1.8,0.2c-0.1,0-0.2,0.1-0.1,0.2l0.1,0.8c0,0.1,0,0.1,0.1,0.1c0,0,0.1,0,0.1,0
				c0.5-0.1,1-0.1,1.4-0.1c0.8,0,1,0.2,1,0.7v0.5h-1.2c-1.2,0-1.7,0.5-1.7,1.6c0,1.1,0.6,1.7,1.5,1.7c0.6,0,1.1-0.2,1.6-0.4l0,0.2
				c0,0.1,0.1,0.1,0.2,0.1h0.9c0.1,0,0.2-0.1,0.2-0.2V4.1C43.3,2.6,42.7,2.1,41,2.1z M41.7,5.8v0.7c-0.2,0.1-0.5,0.2-1,0.2
				c-0.4,0-0.5-0.1-0.5-0.5c0-0.3,0.1-0.5,0.5-0.5H41.7z"/>
			<path fill="#205081" d="M46.2,4.3c-0.7-0.2-0.7-0.2-0.7-0.6c0-0.3,0-0.4,0.6-0.4c0.4,0,1,0.1,1.4,0.1c0.1,0,0.1,0,0.1,0
				c0,0,0.1-0.1,0.1-0.1l0.1-0.9c0-0.1-0.1-0.2-0.2-0.2c-0.4-0.1-1.1-0.2-1.6-0.2c-1.8,0-2.1,0.7-2.1,1.7c0,1.1,0.2,1.5,1.6,1.8
				c0.9,0.2,0.9,0.4,0.9,0.6c0,0.3,0,0.5-0.6,0.5c-0.5,0-1-0.1-1.5-0.2c-0.1,0-0.1,0-0.2,0c0,0-0.1,0.1-0.1,0.1l-0.2,0.8
				c0,0.1,0,0.2,0.1,0.2C44.6,7.8,45.3,8,45.9,8c1.7,0,2.1-0.7,2.1-1.8C47.9,5,47.7,4.7,46.2,4.3z"/>
			<path fill="#205081" d="M50.7,4.3c-0.7-0.2-0.7-0.2-0.7-0.6c0-0.3,0-0.4,0.6-0.4c0.4,0,1,0.1,1.4,0.1c0.1,0,0.1,0,0.2,0
				c0,0,0.1-0.1,0.1-0.1l0.1-0.9c0-0.1-0.1-0.2-0.1-0.2c-0.4-0.1-1.1-0.2-1.6-0.2c-1.8,0-2.1,0.7-2.1,1.7c0,1.1,0.2,1.5,1.6,1.8
				c0.9,0.2,0.9,0.4,0.9,0.6c0,0.3,0,0.5-0.6,0.5c-0.5,0-1-0.1-1.5-0.2c-0.1,0-0.1,0-0.2,0c0,0-0.1,0.1-0.1,0.1l-0.2,0.8
				c0,0.1,0,0.2,0.1,0.2C49,7.8,49.8,8,50.3,8c1.7,0,2.1-0.7,2.1-1.8C52.4,5,52.2,4.7,50.7,4.3z"/>
			<path fill="#205081" d="M54.4,0h-1.2C53.1,0,53,0.1,53,0.2v1c0,0.1,0.1,0.2,0.2,0.2h1.2c0.1,0,0.2-0.1,0.2-0.2v-1
				C54.6,0.1,54.5,0,54.4,0z"/>
			<path fill="#205081" d="M54.4,2.2h-1.2c-0.1,0-0.2,0.1-0.2,0.2v5.3c0,0.1,0.1,0.2,0.2,0.2h1.2c0.1,0,0.2-0.1,0.2-0.2V2.4
				C54.6,2.3,54.5,2.2,54.4,2.2z"/>
			<path fill="#205081" d="M57.4,2.1c-0.6,0-1.3,0.1-1.8,0.2c-0.1,0-0.2,0.1-0.1,0.2l0.1,0.8c0,0.1,0,0.1,0.1,0.1c0,0,0.1,0,0.1,0
				c0.5-0.1,1-0.1,1.4-0.1c0.8,0,1,0.2,1,0.7v0.5h-1.2c-1.2,0-1.7,0.5-1.7,1.6c0,1.1,0.6,1.7,1.5,1.7c0.6,0,1.1-0.2,1.6-0.4l0.1,0.2
				c0,0.1,0.1,0.1,0.2,0.1h0.9c0.1,0,0.2-0.1,0.2-0.2V4.1C59.7,2.6,59.1,2.1,57.4,2.1z M58.2,5.8v0.7c-0.2,0.1-0.5,0.2-1,0.2
				c-0.4,0-0.5-0.1-0.5-0.5c0-0.3,0.1-0.5,0.5-0.5H58.2z"/>
			<path fill="#205081" d="M64,2.1c-0.6,0-1.4,0.2-2.2,0.5l-0.1-0.3c0-0.1-0.1-0.1-0.2-0.1h-0.9c-0.1,0-0.2,0.1-0.2,0.2v5.3
				c0,0.1,0.1,0.2,0.2,0.2h1.2c0.1,0,0.2-0.1,0.2-0.2V4c0.4-0.2,1-0.4,1.4-0.4c0.3,0,0.4,0.1,0.4,0.4v3.7c0,0.1,0.1,0.2,0.2,0.2h1.2
				c0.1,0,0.2-0.1,0.2-0.2V3.8C65.3,2.6,64.9,2.1,64,2.1z"/>
		</g>
	</g>
</g>
<g>
	<g>
		<g>
			<g>
				<path fill="#205081" d="M67.3,18.4c-1.5,0-3.1,0.4-4.1,0.8v-5.7c0-0.3-0.2-0.5-0.5-0.5h-3.1c-0.3,0-0.5,0.2-0.5,0.5v19.8
					c0,0.3,0.2,0.5,0.4,0.5c1.9,0.3,4.2,0.5,5.5,0.5c5.8,0,7-2.5,7-6.2v-4.3C72,20.2,70.4,18.4,67.3,18.4z M65.2,30.6
					c-0.8,0-1.4,0-2-0.1v-7.7c0.9-0.4,2.1-0.8,3-0.8c1.2,0,1.7,0.5,1.7,1.6v4.5C67.9,29.8,67.5,30.6,65.2,30.6z"/>
				<path fill="#205081" d="M86.3,18.7h-3.1c-0.3,0-0.5,0.2-0.5,0.5V29c-1.1,0.6-2.7,1.2-3.6,1.2c-0.7,0-1-0.3-1-1v-10
					c0-0.3-0.2-0.5-0.5-0.5h-3.1c-0.3,0-0.5,0.2-0.5,0.5v10.4c0,3,1.2,4.6,3.6,4.6c1.6,0,3.9-0.6,5.8-1.5l0.2,0.8
					c0.1,0.2,0.3,0.4,0.5,0.4l2.3,0c0.3,0,0.5-0.2,0.5-0.5V19.2C86.8,19,86.6,18.7,86.3,18.7z"/>
				<path fill="#205081" d="M98.7,30.7c0-0.1-0.1-0.3-0.2-0.4c-0.1-0.1-0.3-0.1-0.4-0.1c-0.9,0.2-1.8,0.3-2.7,0.3
					c-2,0-2.5-0.5-2.5-2.2v-4.1c0-1.7,0.6-2.2,2.5-2.2c0.5,0,1.6,0.1,2.7,0.3c0.1,0,0.3,0,0.4-0.1c0.1-0.1,0.2-0.2,0.2-0.4l0.4-2.4
					c0-0.3-0.1-0.5-0.4-0.6c-1.2-0.4-2.6-0.5-3.4-0.5c-4.7,0-6.6,1.7-6.6,5.9v4c0,4.2,1.9,5.9,6.6,5.9c1.1,0,2.4-0.2,3.4-0.5
					c0.3-0.1,0.4-0.3,0.4-0.6L98.7,30.7z"/>
				<path fill="#205081" d="M120.1,18.4c-4.2,0-6.3,2.1-6.3,6v3.9c0,4,2.1,5.9,6.5,5.9c1.8,0,3.7-0.3,5.3-0.9
					c0.2-0.1,0.4-0.3,0.3-0.6l-0.5-2.2c0-0.1-0.1-0.3-0.2-0.3c-0.1-0.1-0.3-0.1-0.4-0.1c-1.4,0.4-2.8,0.6-4.1,0.6
					c-2.3,0-2.7-0.7-2.7-2.3v-0.5h7.7c0.3,0,0.5-0.2,0.5-0.5v-2.8C126.1,20.4,124.2,18.4,120.1,18.4z M117.9,24.5V24
					c0-1.5,0.7-2.1,2.2-2.1c1.7,0,2,0.8,2,2.1v0.5H117.9z"/>
				<path fill="#205081" d="M45.6,18.7h-3.1c-0.3,0-0.5,0.2-0.5,0.5v14.2c0,0.3,0.2,0.5,0.5,0.5h3.1c0.3,0,0.5-0.2,0.5-0.5V19.2
					C46.1,18.9,45.9,18.7,45.6,18.7z"/>
				<path fill="#205081" d="M45.6,12.9h-3.1c-0.3,0-0.5,0.2-0.5,0.5v2.7c0,0.3,0.2,0.5,0.5,0.5h3.1c0.3,0,0.5-0.2,0.5-0.5v-2.7
					C46.1,13.2,45.9,12.9,45.6,12.9z"/>
				<g>
					<path fill="#205081" d="M37.8,23.1c1.3-0.7,1.8-1.7,1.8-3.2v-2.1c0-3-1.8-4.5-5.6-4.5h-7.6c-0.3,0-0.5,0.2-0.5,0.5v19.6
						c0,0.3,0.2,0.5,0.5,0.5h8.2c3.6,0,5.7-1.8,5.7-4.9v-2.1C40.3,25.1,39.4,23.7,37.8,23.1z M30.1,16.9h3.4c1.6,0,1.8,0.7,1.8,1.4
						v1.8c0,1.2-0.5,1.7-1.8,1.7h-0.7c-0.3,0-0.5,0.2-0.5,0.5v2.5c0,0.3,0.2,0.5,0.5,0.5h1.3c1.4,0,1.9,0.5,1.9,1.8v1.5
						c0,1.3-0.6,1.7-2.2,1.7h-3.7V16.9z"/>
				</g>
				<path fill="#205081" d="M57.2,30.9c0-0.1-0.1-0.3-0.2-0.4c-0.1-0.1-0.3-0.1-0.4-0.1c-0.5,0.1-1.1,0.2-1.5,0.2
					c-0.8,0-1.1-0.3-1.1-1.1v-7.5h3c0.3,0,0.5-0.2,0.5-0.5v-2.3c0-0.3-0.2-0.5-0.5-0.5h-3v-3.6c0-0.2-0.1-0.3-0.2-0.4
					c-0.1-0.1-0.3-0.1-0.4-0.1L50.3,15c-0.3,0-0.5,0.3-0.5,0.5v3.2h-1.7c-0.3,0-0.5,0.2-0.5,0.5v2.3c0,0.3,0.2,0.5,0.5,0.5h1.7v8
					c0,2.7,1.4,4.1,4.3,4.1c0.8,0,2.2-0.2,3.1-0.5c0.2-0.1,0.4-0.3,0.3-0.6L57.2,30.9z"/>
				<path fill="#205081" d="M136.3,30.9c0-0.1-0.1-0.3-0.2-0.4c-0.1-0.1-0.3-0.1-0.4-0.1c-0.6,0.1-1.1,0.2-1.5,0.2
					c-0.8,0-1.1-0.3-1.1-1.1v-7.5h3c0.3,0,0.5-0.2,0.5-0.5v-2.3c0-0.3-0.2-0.5-0.5-0.5h-3v-3.6c0-0.2-0.1-0.3-0.2-0.4
					c-0.1-0.1-0.3-0.1-0.4-0.1l-3.1,0.4c-0.3,0-0.5,0.3-0.5,0.5v3.2h-1.7c-0.3,0-0.5,0.2-0.5,0.5v2.3c0,0.3,0.2,0.5,0.5,0.5h1.7v8
					c0,2.7,1.4,4.1,4.3,4.1c0.8,0,2.2-0.2,3.1-0.5c0.2-0.1,0.4-0.3,0.3-0.6L136.3,30.9z"/>
			</g>
		</g>
	</g>
</g>
<path fill="#205081" d="M113.2,33l-4.1-6.8l4-6.7c0.1-0.2,0.1-0.4,0-0.5c-0.1-0.2-0.3-0.3-0.5-0.3h-3.4c-0.2,0-0.4,0.1-0.5,0.3
	l-3.8,6.6V13.4c0-0.3-0.2-0.5-0.5-0.5h-3.1c-0.3,0-0.5,0.2-0.5,0.5v19.9c0,0.3,0.2,0.5,0.5,0.5h3.1c0.3,0,0.5-0.2,0.5-0.5v-6.5
	l4,6.8c0.1,0.2,0.3,0.3,0.4,0.3h3.4c0,0,0,0,0,0c0.3,0,0.5-0.2,0.5-0.5C113.3,33.2,113.3,33.1,113.2,33z"/>
<path fill="#205081" d="M10.2,11.5L10.2,11.5L10.2,11.5C4.6,11.5,0,13,0,14.9c0,0.5,1.2,7.6,1.7,10.4c0.2,1.3,3.5,3.1,8.5,3.1l0,0v0
	c5,0,8.2-1.8,8.5-3.1c0.5-2.8,1.7-9.9,1.7-10.4C20.3,13,15.8,11.5,10.2,11.5z M10.2,26.1c-1.8,0-3.2-1.4-3.2-3.2
	c0-1.8,1.4-3.2,3.2-3.2c1.8,0,3.2,1.4,3.2,3.2C13.4,24.6,12,26.1,10.2,26.1z M10.2,15.9c-3.6,0-6.5-0.6-6.5-1.4
	c0-0.8,2.9-1.4,6.5-1.4c3.6,0,6.5,0.6,6.5,1.4C16.7,15.3,13.8,15.9,10.2,15.9z"/>
<path fill="#205081" d="M17.5,28c-0.2,0-0.3,0.1-0.3,0.1s-2.5,2-7,2c-4.5,0-7-2-7-2S3,28,2.9,28c-0.2,0-0.4,0.1-0.4,0.4
	c0,0,0,0.1,0,0.1c0.4,2.1,0.7,3.6,0.7,3.8c0.3,1.5,3.3,2.7,6.9,2.7l0,0h0h0l0,0c3.6,0,6.6-1.2,6.9-2.7c0-0.2,0.3-1.7,0.7-3.8
	c0,0,0-0.1,0-0.1C17.8,28.2,17.7,28,17.5,28z"/>
<circle fill="#205081" cx="10.2" cy="22.8" r="1.6"/>
</svg>
