<?xml version="1.0" encoding="UTF-8"?> <svg xmlns="http://www.w3.org/2000/svg" xmlns:xlink="http://www.w3.org/1999/xlink" width="142px" height="42px" viewBox="0 0 142 42" version="1.1"><title>symanto-logo</title><g id="UI" stroke="none" stroke-width="1" fill="none" fill-rule="evenodd"><g id="Mainpage---0" transform="translate(-120.000000, -23.000000)" fill="#1C223B" fill-rule="nonzero"><path d="M236.858101,55.0344731 C237.510299,55.0344731 238.221788,55.2717655 238.666469,55.8353349 L238.666469,55.8353349 L238.696114,55.8353349 L238.696114,55.1827809 L239.407603,55.1827809 L239.407603,62.3015527 C239.407603,63.9329379 238.370015,64.7337997 236.976682,64.7337997 C235.494414,64.7337997 234.634698,63.8736148 234.545762,62.6278297 L234.545762,62.6278297 L235.257251,62.6278297 C235.316541,63.4880146 235.939094,64.0812456 236.976682,64.0812456 C237.984625,64.0812456 238.666469,63.4880146 238.666469,62.3608758 L238.666469,62.3608758 L238.666469,61.1744138 C238.221788,61.7379832 237.510299,61.9752756 236.858101,61.9752756 C235.405477,61.9752756 234.42718,61.026106 234.42718,59.5726901 L234.42718,59.5726901 L234.42718,57.4370586 C234.42718,55.9539811 235.375832,55.0344731 236.858101,55.0344731 Z M199.771735,55.1531193 L197.429751,62.9837683 C197.074006,64.1998918 196.392163,64.5854919 195.502801,64.5854919 L195.502801,64.5854919 L195.117411,64.5854919 L195.117411,63.9329379 L195.443511,63.9329379 C196.184645,63.9329379 196.570035,63.6066608 196.777553,62.805799 L196.777553,62.805799 L196.98507,61.9752756 L196.54039,61.9752756 L194.524504,55.1827809 L195.265638,55.1827809 L197.074006,61.3820446 L197.192588,61.3820446 L199.030601,55.1531193 L199.771735,55.1531193 Z M246.522493,55.1531193 L244.180509,62.9837683 C243.824764,64.1998918 243.142921,64.5854919 242.253559,64.5854919 L242.253559,64.5854919 L241.868169,64.5854919 L241.868169,63.9329379 L242.194269,63.9329379 C242.935403,63.9329379 243.320793,63.6066608 243.528311,62.805799 L243.528311,62.805799 L243.735828,61.9752756 L243.291148,61.9752756 L241.275262,55.1827809 L242.016396,55.1827809 L243.824764,61.3820446 L243.943346,61.3820446 L245.781359,55.1531193 L246.522493,55.1531193 Z M183.496424,55.0344731 C184.978693,55.0344731 185.927345,55.9539811 185.927345,57.3777355 L185.927345,57.3777355 L185.927345,59.6616748 C185.927345,61.1447522 184.949047,62.0642603 183.496424,62.0642603 C182.844226,62.0642603 182.132737,61.8269679 181.688056,61.2633984 L181.688056,61.2633984 L181.688056,64.5558304 L180.976567,64.5558304 L180.976567,55.1531193 L181.688056,55.1531193 L181.688056,55.8353349 C182.132737,55.2717655 182.844226,55.0344731 183.496424,55.0344731 Z M254.467454,55.0344731 C255.920078,55.0344731 256.839084,55.8649965 256.86873,57.2590893 L256.86873,57.2590893 L256.86873,62.0049372 L256.157241,62.0049372 L256.157241,61.2040753 C255.653269,61.8269679 254.94178,62.1235834 254.11171,62.1235834 C252.748022,62.1235834 251.858661,61.29306 251.858661,60.0769365 C251.858661,58.8014899 252.807313,58.0896127 254.348873,58.0896127 L254.348873,58.0896127 L256.157241,58.0896127 L256.157241,57.2590893 C256.157241,56.2802582 255.593979,55.7166887 254.4971,55.7166887 C253.429866,55.7166887 252.896249,56.2505966 252.836959,57.08112 L252.836959,57.08112 L252.095824,57.08112 C252.155115,55.7760118 253.133412,55.0344731 254.467454,55.0344731 Z M229.594984,55.0344731 C231.106898,55.0344731 232.085195,55.9836427 232.085195,57.4667201 L232.085195,57.4667201 L232.085195,59.6913363 C232.085195,61.1744138 231.106898,62.1235834 229.594984,62.1235834 C228.08307,62.1235834 227.104772,61.1744138 227.104772,59.6913363 L227.104772,59.6913363 L227.104772,57.4667201 C227.104772,55.9836427 228.08307,55.0344731 229.594984,55.0344731 Z M218.626195,55.0344731 C220.138109,55.0344731 221.116406,55.9836427 221.116406,57.4667201 L221.116406,57.4667201 L221.116406,59.6913363 C221.116406,61.1744138 220.138109,62.1235834 218.626195,62.1235834 C217.11428,62.1235834 216.135983,61.1744138 216.135983,59.6913363 L216.135983,59.6913363 L216.135983,57.4667201 C216.135983,55.9836427 217.11428,55.0344731 218.626195,55.0344731 Z M203.981379,55.0344731 C205.434002,55.0344731 206.47159,55.9539811 206.47159,57.2887508 L206.47159,57.2887508 L205.760101,57.2887508 C205.671165,56.3099197 205.018967,55.7166887 203.981379,55.7166887 C202.914145,55.7166887 202.202656,56.3692428 202.202656,57.4667201 L202.202656,57.4667201 L202.202656,59.6913363 C202.202656,60.7888136 202.943791,61.4413677 203.981379,61.4413677 C205.078258,61.4413677 205.671165,60.8481367 205.760101,59.8099825 L205.760101,59.8099825 L206.47159,59.8099825 C206.4123,61.2040753 205.434002,62.1235834 203.981379,62.1235834 C202.469465,62.1235834 201.491167,61.1744138 201.491167,59.6913363 L201.491167,59.6913363 L201.491167,57.4667201 C201.491167,55.9836427 202.469465,55.0344731 203.981379,55.0344731 Z M190.552024,55.0641347 C192.093583,55.0641347 192.923654,55.8649965 192.982944,57.08112 L192.982944,57.08112 L192.271455,57.08112 C192.212165,56.2505966 191.708193,55.7166887 190.552024,55.7166887 C189.544081,55.7166887 188.921528,56.2209351 188.921528,56.8734892 C188.921528,57.5260432 189.395854,57.7633356 190.196279,58.000628 L190.196279,58.000628 L191.263513,58.3269051 C192.330746,58.6828437 193.01259,59.0981053 193.071881,60.106598 C193.071881,61.3227215 192.004647,62.0939218 190.581669,62.0939218 C189.217982,62.0939218 188.061812,61.3523831 188.061812,59.8396441 L188.061812,59.8396441 L188.773301,59.8396441 C188.773301,60.8481367 189.48479,61.4413677 190.552024,61.4413677 C191.678548,61.4413677 192.330746,60.8777983 192.330746,60.1659211 C192.330746,59.513367 191.826775,59.2464131 190.996704,58.9794591 L190.996704,58.9794591 L189.929471,58.6531821 C188.921528,58.3269051 188.210039,57.9116434 188.210039,56.9031507 C188.210039,55.8056734 189.158691,55.0641347 190.552024,55.0641347 Z M260.129721,55.1827809 L260.129721,61.9752756 L259.418232,61.9752756 L259.418232,55.1827809 L260.129721,55.1827809 Z M224.258816,52.542903 L224.258816,60.3142289 C224.258816,61.0557676 224.584915,61.29306 225.207468,61.3227215 L225.207468,61.3227215 L225.355695,61.3227215 L225.355695,61.9752756 L225.118532,61.9752756 C224.051298,61.9752756 223.547327,61.4710293 223.547327,60.4625366 L223.547327,60.4625366 L223.547327,52.542903 L224.258816,52.542903 Z M209.436128,52.542903 L209.436128,55.8353349 C209.851163,55.2717655 210.562652,55.0344731 211.244496,55.0344731 C212.726765,55.0344731 213.675417,55.9539811 213.675417,57.407397 L213.675417,57.407397 L213.675417,61.9456141 L212.963928,61.9456141 L212.963928,57.4370586 C212.963928,56.3395813 212.282084,55.6870272 211.214851,55.6870272 C210.117972,55.6870272 209.436128,56.3989044 209.436128,57.4370586 L209.436128,57.4370586 L209.436128,61.9456141 L208.724639,61.9456141 L208.724639,52.542903 L209.436128,52.542903 Z M256.09795,58.6828437 L254.319227,58.6828437 C253.251994,58.6828437 252.540505,59.1574284 252.540505,60.0176134 C252.540505,60.9074598 253.192703,61.4413677 254.200646,61.4413677 C255.356816,61.4413677 256.127595,60.6701674 256.127595,59.6023517 L256.127595,59.6023517 L256.09795,59.6023517 L256.09795,58.6828437 Z M229.565338,55.7166887 C228.468459,55.7166887 227.786616,56.3692428 227.786616,57.4667201 L227.786616,57.4667201 L227.786616,59.6913363 C227.786616,60.7888136 228.468459,61.4413677 229.565338,61.4413677 C230.662217,61.4413677 231.344061,60.7888136 231.344061,59.6913363 L231.344061,59.6913363 L231.344061,57.4667201 C231.344061,56.3692428 230.632572,55.7166887 229.565338,55.7166887 Z M218.626195,55.7166887 C217.529316,55.7166887 216.847472,56.3692428 216.847472,57.4667201 L216.847472,57.4667201 L216.847472,59.6913363 C216.847472,60.7888136 217.529316,61.4413677 218.626195,61.4413677 C219.723074,61.4413677 220.404917,60.7888136 220.404917,59.6913363 L220.404917,59.6913363 L220.404917,57.4667201 C220.404917,56.3692428 219.693428,55.7166887 218.626195,55.7166887 Z M183.466779,55.7166887 C182.3699,55.7166887 181.688056,56.4285659 181.688056,57.4667201 L181.688056,57.4667201 L181.688056,59.6616748 C181.688056,60.699829 182.3699,61.4117062 183.466779,61.4117062 C184.534012,61.4117062 185.215856,60.7591521 185.215856,59.6616748 L185.215856,59.6616748 L185.215856,57.4667201 C185.215856,56.3692428 184.534012,55.7166887 183.466779,55.7166887 Z M236.887746,55.7166887 C235.790867,55.7166887 235.109024,56.3692428 235.109024,57.4667201 L235.109024,57.4667201 L235.109024,59.5430286 C235.109024,60.6405059 235.790867,61.29306 236.887746,61.29306 C237.984625,61.29306 238.666469,60.5811828 238.666469,59.5430286 L238.666469,59.5430286 L238.666469,57.4667201 C238.666469,56.4285659 237.95498,55.7166887 236.887746,55.7166887 Z M140.480983,29.2289253 C141.281409,29.2289253 141.963252,29.911141 141.963252,30.7120028 L141.963252,30.7120028 L141.963252,42.9622226 C141.963252,44.8902233 142.763677,47.1148395 146.261832,47.1148395 C148.722398,47.1148395 150.590057,45.6614236 150.590057,43.3774843 L150.590057,43.3774843 L150.590057,30.7416643 C150.590057,29.9408025 151.153319,29.2585869 152.013035,29.2585869 C152.783814,29.2585869 153.465658,29.9408025 153.436013,30.7416643 L153.436013,30.7416643 L153.436013,50.3182868 C153.436013,56.0429658 148.752043,60.699829 143.030486,60.699829 L143.030486,60.699829 L141.903961,60.699829 C141.133182,60.699829 140.480983,60.0769365 140.480983,59.2760746 C140.480983,58.5048744 141.103536,57.8523203 141.903961,57.8523203 L141.903961,57.8523203 L143.030486,57.8523203 C147.180838,57.8523203 150.560411,54.4709037 150.560411,50.3182868 L150.560411,50.3182868 L150.560411,48.4496092 C149.463532,49.4581019 147.536583,50.0216713 146.232186,50.0216713 C141.696444,50.0216713 139.058005,47.3521319 139.058005,42.932561 L139.058005,42.932561 L139.058005,30.7120028 C139.058005,29.911141 139.621268,29.2289253 140.480983,29.2289253 Z M260.159366,52.8395185 L260.159366,53.9369958 L259.358941,53.9369958 L259.358941,52.8395185 L260.159366,52.8395185 Z M212.133857,29.2585869 C212.934282,29.2585869 213.616126,29.9408025 213.616126,30.7416643 L213.616126,30.7416643 L213.616126,31.2755722 C214.624069,30.0891103 216.758536,29.5552024 217.973996,29.5552024 C222.480094,29.5552024 225.118532,32.2247418 225.118532,36.6443126 L225.118532,36.6443126 L225.118532,48.6275785 C225.118532,49.4877634 224.466334,50.0809944 223.636263,50.1106559 C222.776547,50.1106559 222.213285,49.4877634 222.213285,48.6275785 L222.213285,48.6275785 L222.213285,36.6443126 C222.213285,34.8349581 221.442505,32.4916957 217.973996,32.4916957 C215.424494,32.4916957 213.616126,34.1527425 213.616126,36.555328 L213.616126,36.555328 L213.616126,48.5979169 C213.616126,49.4877634 212.934282,50.0809944 212.133857,50.0809944 C211.274141,50.0809944 210.710879,49.4581019 210.710879,48.5979169 L210.710879,48.5979169 L210.710879,30.7416643 C210.710879,29.9408025 211.274141,29.2585869 212.133857,29.2585869 Z M203.65528,29.3475715 C204.396414,29.3475715 205.078258,30.0297872 205.078258,30.7713259 L205.078258,30.7713259 L205.078258,48.6869016 C205.078258,49.5470865 204.396414,50.1106559 203.65528,50.1106559 C202.795564,50.1106559 202.232302,49.5470865 202.232302,48.6869016 L202.232302,48.6869016 L202.232302,48.4792707 C201.135423,49.4877634 199.238119,50.0513328 197.874431,50.0513328 C193.338689,50.0513328 190.611314,47.3224703 190.611314,42.9622226 L190.611314,42.9622226 L190.611314,36.7036357 C190.611314,32.4027111 193.45727,29.6145255 197.874431,29.6145255 C199.208473,29.6145255 201.165068,30.1780949 202.232302,31.1865876 L202.232302,31.1865876 L202.232302,30.7713259 C202.232302,30.0297872 202.795564,29.3475715 203.65528,29.3475715 Z M160.69913,29.1992638 C161.499555,29.1992638 162.181399,29.8814794 162.181399,30.6823412 L162.181399,30.6823412 L162.181399,31.2162491 C163.189341,30.0297872 165.323809,29.4958793 166.539269,29.4958793 C169.266644,29.4958793 171.312175,30.4747104 172.49799,32.2247418 C173.861677,30.0594487 176.974441,29.4958793 178.160256,29.4958793 C182.666354,29.4958793 185.304792,32.1654187 185.304792,36.5849895 L185.304792,36.5849895 L185.304792,48.5682554 C185.304792,49.4581019 184.652594,50.0513328 183.852169,50.0513328 C182.992453,50.0513328 182.429191,49.4284403 182.429191,48.5682554 L182.429191,48.5682554 L182.429191,36.5849895 C182.429191,34.8052966 181.658411,32.4620342 178.160256,32.4620342 C175.610754,32.4620342 173.802386,34.1230809 173.802386,36.5256664 L173.802386,36.5256664 L173.802386,48.5682554 C173.802386,49.4581019 173.120542,50.0513328 172.320117,50.0513328 L172.320117,50.0513328 L172.201536,50.0513328 C171.34182,50.0513328 170.778558,49.4284403 170.778558,48.5682554 L170.778558,48.5682554 L170.778558,36.5849895 C170.778558,34.775635 170.007778,32.4323726 166.539269,32.4323726 C163.989767,32.4323726 162.181399,34.0934194 162.181399,36.4960049 L162.181399,36.4960049 L162.181399,48.5385938 C162.181399,49.4284403 161.499555,50.0216713 160.69913,50.0216713 C159.839414,50.0216713 159.276152,49.3987788 159.276152,48.5385938 L159.276152,48.5385938 L159.276152,30.6823412 C159.276152,29.8814794 159.839414,29.1992638 160.69913,29.1992638 Z M253.844901,29.5255408 C258.350999,29.5255408 261.019082,32.1950802 261.019082,36.6146511 L261.019082,36.6146511 L261.019082,42.9622226 C261.019082,47.3817934 258.262062,50.0513328 253.844901,50.0513328 C249.279513,50.0513328 246.61143,47.3817934 246.61143,42.9622226 L246.61143,42.9622226 L246.61143,36.6146511 C246.61143,32.3137264 249.42774,29.5255408 253.844901,29.5255408 Z M120.855745,34.7163119 C121.092908,31.5721877 124.235317,29.31791 128.00028,29.5848639 C130.164393,29.7331717 132.150633,30.7713259 133.306802,32.3137264 C133.810774,32.9662805 133.662547,33.9154501 133.010349,34.3900349 C132.35815,34.8942812 131.409498,34.7459735 130.935172,34.0934194 C130.282974,33.2332345 129.097159,32.6400035 127.763117,32.5510188 C126.78482,32.4620342 125.806522,32.669665 125.035743,33.1442498 C124.294608,33.5891731 123.849927,34.2417271 123.790637,34.9239428 L123.790637,34.9239428 L123.790637,35.2205583 C123.879573,36.1993894 124.917161,37.1782205 126.310494,37.6231437 C126.873756,37.801113 127.466663,37.9494208 128.089216,38.068067 C129.660421,38.394344 131.439144,38.7799442 132.832476,40.174037 C134.077582,41.419822 134.640844,42.9028995 134.522263,44.4749616 C134.374036,46.224993 133.455029,47.737732 131.824534,48.7758862 C130.579428,49.5767481 129.037868,50.0216713 127.437018,50.0216713 C127.199855,50.0216713 126.992337,50.0216713 126.78482,49.9920097 C124.205672,49.7843789 121.863687,48.4792707 120.707518,46.55127 C120.292482,45.8690544 120.529645,44.9495464 121.211489,44.5342847 C121.567234,44.3266539 121.952623,44.2673308 122.338013,44.3563154 C122.723403,44.4749616 123.049502,44.712254 123.25702,45.038531 C123.938864,46.1656699 125.391487,46.9368702 127.021983,47.0555164 C128.207798,47.144501 129.334322,46.8775471 130.223683,46.3139776 C131.053754,45.7800698 131.52808,45.038531 131.587371,44.2673308 C131.617016,43.5851151 131.320562,42.8435764 130.727655,42.2503454 C129.956875,41.4791451 128.800705,41.2418527 127.466663,40.9452372 C126.814465,40.7969295 126.132621,40.6782833 125.421132,40.4409909 C122.87163,39.6104675 121.092908,37.6824668 120.855745,35.5171738 C120.826099,35.2502198 120.826099,34.9832659 120.855745,34.7163119 Z M233.359947,23 C234.160372,23 234.842215,23.6228925 234.842215,24.4830775 L234.842215,24.4830775 L234.842215,29.8221563 L240.119092,29.8221563 C240.889872,29.8221563 241.571716,30.5043719 241.571716,31.2162491 C241.571716,32.076434 240.919517,32.6400035 240.119092,32.6400035 L240.119092,32.6400035 L234.842215,32.6400035 L234.842215,32.6400035 L234.842215,44.3266539 C234.842215,45.8690544 236.116967,47.144501 237.658526,47.144501 C239.200086,47.144501 240.474837,45.8690544 240.474837,44.3266539 C240.474837,43.525792 241.127035,42.8732379 241.92746,42.8732379 C242.727885,42.8732379 243.380084,43.525792 243.380084,44.3266539 C243.380084,47.4707781 240.830581,50.0513328 237.658526,50.0219245 C234.545762,50.0219245 232.025905,47.5301012 231.936968,44.4453001 L231.936968,44.4453001 L231.936968,32.6103419 L229.091012,32.6103419 C228.231296,32.6103419 227.727325,32.0467725 227.727325,31.1865876 C227.727325,30.4747104 228.231296,29.7924948 229.091012,29.7924948 L229.091012,29.7924948 L231.936968,29.7924948 L231.936968,24.4830775 C231.936968,23.593231 232.500231,23 233.359947,23 Z M253.844901,32.4620342 C251.117527,32.4620342 249.546322,33.9154501 249.546322,36.6146511 L249.546322,36.6146511 L249.546322,42.9622226 C249.546322,44.8605617 250.317102,47.144501 253.844901,47.144501 C256.542631,47.144501 258.08419,45.6614236 258.08419,42.9622226 L258.08419,42.9622226 L258.08419,36.6146511 C258.08419,34.8052966 257.343056,32.4620342 253.844901,32.4620342 Z M197.904077,32.4916957 C195.176702,32.4916957 193.605497,33.9451116 193.605497,36.6443126 L193.605497,36.6443126 L193.605497,42.9028995 C193.605497,44.8309002 194.376277,47.0555164 197.904077,47.0555164 C200.601806,47.0555164 202.232302,45.6021005 202.232302,42.9028995 L202.232302,42.9028995 L202.232302,36.6443126 C202.232302,34.8349581 201.402231,32.4916957 197.904077,32.4916957 Z" id="symanto-logo"></path></g></g></svg> 