<?xml version="1.0" encoding="UTF-8" standalone="no"?>
<!-- Created with Inkscape (http://www.inkscape.org/) -->

<svg
   xmlns:dc="http://purl.org/dc/elements/1.1/"
   xmlns:cc="http://creativecommons.org/ns#"
   xmlns:rdf="http://www.w3.org/1999/02/22-rdf-syntax-ns#"
   xmlns:svg="http://www.w3.org/2000/svg"
   xmlns="http://www.w3.org/2000/svg"
   xmlns:sodipodi="http://sodipodi.sourceforge.net/DTD/sodipodi-0.dtd"
   xmlns:inkscape="http://www.inkscape.org/namespaces/inkscape"
   width="260"
   height="100"
   id="svg4806"
   version="1.1"
   inkscape:version="0.91 r13725"
   viewBox="0 0 260 99.999999"
   sodipodi:docname="logo_white.svg"
   inkscape:export-filename="/home/fvayssie/Google Drive/fabien.vayssiere@pims.io/Commun/Communication/Identité visuelle/logo_white.png"
   inkscape:export-xdpi="244.19568"
   inkscape:export-ydpi="244.19568">
  <defs
     id="defs4808" />
  <sodipodi:namedview
     id="base"
     pagecolor="#ff9800"
     bordercolor="#666666"
     borderopacity="1.0"
     inkscape:pageopacity="0"
     inkscape:pageshadow="2"
     inkscape:zoom="2"
     inkscape:cx="-10.472902"
     inkscape:cy="-80.13445"
     inkscape:current-layer="layer1"
     inkscape:document-units="px"
     showgrid="false"
     inkscape:window-width="1920"
     inkscape:window-height="1147"
     inkscape:window-x="0"
     inkscape:window-y="0"
     inkscape:window-maximized="1"
     fit-margin-top="0"
     fit-margin-left="0"
     fit-margin-right="0"
     fit-margin-bottom="0" />
  <metadata
     id="metadata4811">
    <rdf:RDF>
      <cc:Work
         rdf:about="">
        <dc:format>image/svg+xml</dc:format>
        <dc:type
           rdf:resource="http://purl.org/dc/dcmitype/StillImage" />
        <dc:title></dc:title>
      </cc:Work>
    </rdf:RDF>
  </metadata>
  <g
     id="layer1"
     inkscape:label="Layer 1"
     inkscape:groupmode="layer"
     transform="translate(-221.46041,-296.89837)">
    <g
       id="g3340"
       transform="matrix(0.70424111,0,0,0.7613319,133.09374,71.556921)">
      <path
         inkscape:connector-curvature="0"
         id="path2992-3-3-6"
         d="m 271.5061,348.65334 c -0.96664,6e-5 -1.89142,0.17561 -2.77397,0.52826 -0.84054,0.35278 -1.57713,0.84291 -2.20748,1.46987 -0.63042,0.5879 -1.13482,1.29291 -1.5132,2.11584 -0.37822,0.78383 -0.56648,1.62647 -0.56648,2.52778 l 0,0.17655 0,20.99155 c 0.57702,-0.0123 1.1402,-0.03 1.73408,-0.0365 3.61666,-0.0394 7.82858,0.0555 12.44973,0.24942 l 0,-21.20453 0,-0.17656 c 0,-0.9013 -0.18834,-1.74395 -0.56657,-2.52778 -0.3783,-0.82292 -0.88277,-1.52794 -1.5132,-2.11583 -0.63042,-0.62697 -1.38648,-1.11709 -2.26902,-1.46987 -0.84062,-0.35268 -1.76525,-0.5282 -2.77389,-0.52826 z"
         style="font-style:normal;font-variant:normal;font-weight:500;font-stretch:normal;font-size:40px;line-height:125%;font-family:Station;-inkscape-font-specification:'Station Medium';letter-spacing:-2px;word-spacing:0px;fill:#ffffff;fill-opacity:1;stroke:none" />
      <path
         inkscape:connector-curvature="0"
         id="path2994-5-2-3"
         d="m 319.02117,347.19553 c -3.19412,5e-5 -5.77859,0.49019 -7.75379,1.46987 -1.93328,0.94061 -4.26624,2.74244 -6.99797,5.40727 l -0.0632,-0.0588 c -0.2522,-1.60669 -1.02934,-2.87909 -2.33212,-3.8197 -1.30285,-0.97967 -2.85867,-1.46981 -4.66585,-1.46987 -0.96664,6e-5 -1.89127,0.17561 -2.77389,0.52826 -0.84054,0.35277 -1.5966,0.84291 -2.26903,1.46987 -0.6305,0.5879 -1.13497,1.29291 -1.5132,2.11583 -0.37822,0.78383 -0.56656,1.62648 -0.56656,2.52779 l 0,21.94856 c 4.51621,0.29478 9.28277,0.659 14.17781,1.06353 l 0.006,-1.90845 c -8e-5,-6.03516 0.90362,-10.42388 2.7108,-13.16718 1.84918,-2.7824 4.74848,-4.17415 8.69904,-4.17421 6.26206,6e-5 9.39317,5.09515 9.39317,15.28441 l 0,5.85566 c 4.80064,0.47122 9.57751,0.96189 14.31153,1.46006 l 0,-5.25874 c 0,-6.03516 0.88247,-10.44355 2.64771,-13.22604 1.76501,-2.74321 4.60107,-4.11529 8.5097,-4.11535 3.36208,6e-5 5.77936,1.15583 7.2504,3.46799 1.4288,2.27303 2.1427,6.15338 2.14277,11.63987 l 0,9.73702 c 5.27943,0.59793 9.78286,1.12723 14.27699,1.65903 l 0.033,-15.04061 c -7e-5,-15.59739 -6.91302,-23.39596 -20.73993,-23.39602 -7.60707,6e-5 -13.6374,2.82149 -18.09221,8.46472 -4.03473,-5.64323 -9.49881,-8.46466 -16.39121,-8.46472 z"
         style="font-style:normal;font-variant:normal;font-weight:500;font-stretch:normal;font-size:40px;line-height:125%;font-family:Station;-inkscape-font-specification:'Station Medium';letter-spacing:-2px;word-spacing:0px;fill:#ffffff;fill-opacity:1;stroke:none" />
      <g
         id="text2985-4-1"
         style="font-style:normal;font-variant:normal;font-weight:normal;font-stretch:normal;font-size:40px;line-height:125%;font-family:FontAwesome;-inkscape-font-specification:FontAwesome;letter-spacing:-2px;word-spacing:0px;fill:#1a1a1a;fill-opacity:1;stroke:none"
         transform="matrix(3.2277012,0,0,3.0097557,-418.98375,-258.98583)">
        <path
           sodipodi:nodetypes="cccccczccccccsccccccscccccc"
           inkscape:connector-curvature="0"
           id="path2990-0-7"
           d="m 192.76164,191.02699 c -2.72362,0.0168 -2.66727,4.15902 -0.0426,4.1654 2.06523,0.007 4.13045,0.0175 6.19568,0.0221 4.30988,2e-5 6.46873,1.54429 6.46875,4.65625 -2e-5,3.20314 -2.08335,4.81251 -6.25,4.8125 l -6.30452,0 c 0,0 -0.91434,-0.0883 -1.46769,0.39097 -0.55335,0.47927 -0.47779,1.40107 -0.47779,1.40107 l 0,12.36421 0,0.0312 c -10e-6,0.31251 0.0703,0.63281 0.1875,0.90625 0.11718,0.27344 0.29166,0.51041 0.5,0.71875 0.20833,0.19531 0.4453,0.33854 0.71875,0.46875 0.27343,0.11718 0.5625,0.1875 0.875,0.1875 0.3125,0 0.60156,-0.0703 0.875,-0.1875 0.27343,-0.13021 0.5104,-0.27344 0.71875,-0.46875 0.20832,-0.20834 0.3828,-0.44531 0.5,-0.71875 0.11718,-0.27344 0.15624,-0.59374 0.15625,-0.90625 -10e-6,-0.0131 -10e-6,-0.0182 0,-0.0312 l 0,-9.96875 4.125,0 c 3.15103,0 5.64582,-0.79165 7.46875,-2.40625 1.84894,-1.61457 2.74998,-3.78384 2.75,-6.53125 -2e-5,-2.56508 -0.862,-4.71351 -2.59375,-6.40625 -0.97658,-0.97653 -2.12241,-1.6484 -3.4375,-2 -1.27605,-0.35153 -3.16147,-0.49997 -5.6875,-0.5 z"
           style="font-weight:500;font-family:Station;-inkscape-font-specification:'Station Medium';fill:#ffffff;fill-opacity:1" />
        <path
           id="path3771-2-1"
           d="m 213.92633,196.89064 c -0.8073,2e-5 -1.48438,-0.27992 -2.03125,-0.83984 -0.57292,-0.57289 -0.85938,-1.25649 -0.85937,-2.05078 -1e-5,-0.75519 0.28645,-1.41925 0.85937,-1.99219 0.55989,-0.55987 1.23047,-0.83982 2.01172,-0.83985 0.76822,3e-5 1.44531,0.27998 2.03125,0.83985 0.55989,0.5469 0.83984,1.21747 0.83984,2.01172 0,0.79429 -0.27995,1.47138 -0.83984,2.03125 -0.54688,0.55992 -1.21745,0.83986 -2.01172,0.83984"
           style="font-weight:500;font-family:Station;-inkscape-font-specification:'Station Medium';fill:#ffffff;fill-opacity:1"
           inkscape:connector-curvature="0" />
        <path
           sodipodi:nodetypes="cccccccccsssscccssscccccccccczscccccccccccc"
           inkscape:connector-curvature="0"
           id="path2996-7-8"
           transform="matrix(0.23836493,0,0,0.23836493,148.38897,117.26288)"
           d="m 443.88086,352.16211 c -6.88285,8e-5 -12.75552,2.23952 -17.61719,6.71875 -4.69779,4.53401 -7.04692,10.26964 -7.04687,17.20703 -5e-5,5.24414 1.39375,9.50571 4.17968,12.7832 2.02115,2.62208 5.76202,5.27066 11.22461,7.94727 3.76513,1.66245 7.46122,3.67521 11.14453,5.4082 4.75239,2.78594 7.12887,5.81821 7.12891,9.09571 -3e-5,4.56801 -2.05001,7.51517 -6.71528,8.34111 -4.66527,0.82594 -10.35238,-0.52215 -16.10312,-1.73177 -12.21476,-2.72989 -39.24237,-6.72059 -73.41015,-10.1875 -34.16777,-3.46687 -69.96837,-6.31514 -89.44532,-6.08789 -19.70357,0.2299 -32.17112,4.61749 -39.89453,9.75 -3.86169,2.56627 -6.49275,5.2991 -8.17773,7.56445 -1.68502,2.26539 -2.67969,4.76758 -2.67969,4.76758 -4.3252,11.18006 12.63301,17.31365 16.52148,6.10352 0.0145,0.008 0.0772,-0.0508 0.30079,-0.35157 0.52978,-0.71227 1.61864,-1.96848 3.78515,-3.4082 4.33306,-2.87954 13.15115,-6.60793 30.34961,-6.80859 17.42505,-0.20347 53.58096,2.56033 87.46094,5.99804 33.88003,3.43767 66.6353,7.74103 75.70312,9.76758 2.88251,0.43023 5.34179,0.79642 8.35352,1.03906 1.90808,0.15718 3.59945,0.23092 5.21289,0.23636 7.40764,-0.0269 13.76663,-2.65597 19.0625,-7.375 5.79024,-5.18943 8.68546,-11.63562 8.68555,-19.33789 -9e-5,-5.89952 -1.72075,-10.62509 -5.16211,-14.17578 -1.74808,-1.74799 -4.2342,-3.60375 -7.45703,-5.57031 -3.22296,-1.96648 -7.2927,-3.98865 -12.20899,-6.06445 -6.99209,-2.8951 -10.48832,-5.92737 -10.48828,-9.09571 -4e-5,-1.74795 0.57351,-3.16719 1.7207,-4.25976 1.20173,-1.09245 2.89813,-1.86319 4.43762,-2.01813 1.53949,-0.15494 3.65171,-0.29223 6.62488,0.42633 3.21465,0.77692 6.46893,2.97406 7.32032,3.74023 0.76475,0.7648 1.66713,1.3658 2.70507,1.80274 1.03782,0.38227 2.15757,0.5743 3.35938,0.57422 1.20169,8e-5 2.32143,-0.21919 3.35937,-0.65625 1.09245,-0.49156 2.02037,-1.11993 2.78516,-1.88477 0.76471,-0.76467 1.36567,-1.66518 1.80273,-2.70312 0.49161,-1.09245 0.73824,-2.26701 0.73829,-3.52344 -5e-5,-1.3656 -0.30155,-2.62234 -0.90235,-3.76953 -2.05164,-3.49062 -6.05646,-5.98992 -9.42187,-7.21094 -1.1928,-0.44725 -4.32708,-1.76785 -7.57617,-2.36719 -3.89332,-0.71722 -7.99272,-0.68355 -9.66016,-0.68359 z"
           style="font-weight:500;font-family:Station;-inkscape-font-specification:'Station Medium';fill:#ffffff;fill-opacity:1" />
      </g>
      <path
         id="path2996-4-4-3"
         style="font-style:normal;font-variant:normal;font-weight:500;font-stretch:normal;font-size:40px;line-height:125%;font-family:Station;-inkscape-font-specification:'Station Medium';letter-spacing:-2px;word-spacing:0px;fill:#1a1ff0;fill-opacity:0;stroke:none"
         d="m 386.4913,376.31838 c -2.64768,-2.54734 -3.97152,-5.93722 -3.97159,-10.16966 7e-5,-5.52576 2.22751,-10.1501 6.68235,-13.87311 4.24481,-3.52704 9.37214,-5.29058 15.38203,-5.29058 7.22872,0 13.04949,2.41015 17.46234,7.23046 l -0.0629,0 c 1.00869,1.05811 1.51302,2.39056 1.51299,3.99734 3e-5,0.86215 -0.16817,1.68514 -0.50433,2.46893 -0.37822,0.78378 -0.86154,1.45002 -1.44995,1.99866 -0.58834,0.54865 -1.28182,0.97974 -2.08035,1.29327 -0.84053,0.35268 -1.74412,0.52905 -2.71075,0.52905 -1.09271,0 -2.10137,-0.23506 -3.02597,-0.70539 -0.9666,-0.43112 -1.76513,-1.03855 -2.39557,-1.82232 l 0,0.0587 c -0.37822,-0.50949 -0.69344,-0.84258 -0.94562,-0.99933 -0.84052,-0.70542 -1.74409,-1.25407 -2.71075,-1.64597 -1.00863,-0.3919 -2.12234,-0.58784 -3.34119,-0.58784 -4.79107,0 -7.18664,2.03785 -7.18667,6.11357 3e-5,2.35134 1.82823,4.52637 5.48458,6.52506 0.71448,0.3135 1.42896,0.62699 2.14338,0.94054 0.71448,0.35269 1.42897,0.7054 2.14339,1.05812 0.71451,0.31349 1.42897,0.62702 2.14342,0.94055 0.67246,0.31349 1.38691,0.62702 2.14339,0.94055 4.20276,1.92025 7.0816,3.82094 8.63662,5.70207 2.14341,2.35134 3.21511,5.40811 3.21507,9.17036 4e-5,4.97702 -1.80716,9.0919 -5.4215,12.3447 -3.74042,3.21348 -8.25836,4.82024 -13.55383,4.8203 -2.35351,-6e-5 -4.53892,-0.35274 -6.55627,-1.05811 -2.01728,-0.66627 -3.82447,-1.68519 -5.42154,-3.0568 -0.75643,-0.54868 -1.36583,-1.2541 -1.8282,-2.11621 -0.46224,-0.82303 -0.6934,-1.72439 -0.69343,-2.70409 3e-5,-0.9014 0.18914,-1.74398 0.56736,-2.52772 0.33626,-0.74464 0.79856,-1.39129 1.38691,-1.93987 0.58841,-0.54871 1.3029,-0.9994 2.14339,-1.35204 0.79857,-0.31356 1.66013,-0.47034 2.58468,-0.47028 0.92464,-6e-5 1.78621,0.13724 2.58468,0.41149 0.79856,0.31347 1.492,0.74455 2.08038,1.29324 1.26084,1.05808 2.66876,1.58713 4.22374,1.58719 1.21881,-6e-5 2.2905,-0.39196 3.21508,-1.1757 0.88261,-0.78383 1.32391,-1.80276 1.32387,-3.05677 4e-5,-2.27303 -2.68974,-4.44806 -8.06925,-6.52506 -3.78245,-1.48923 -6.91348,-2.93924 -9.39313,-4.35003 -2.47955,-1.41086 -4.39181,-2.7433 -5.73672,-3.99735"
         inkscape:connector-curvature="0" />
    </g>
  </g>
</svg>
