<?xml version="1.0" standalone="no"?><!DOCTYPE svg PUBLIC "-//W3C//DTD SVG 1.1//EN" "http://www.w3.org/Graphics/SVG/1.1/DTD/svg11.dtd"><svg viewBox="0 0 100 90" version="1.1"	xmlns="http://www.w3.org/2000/svg" xmlns:xlink="http://www.w3.org/1999/xlink" xml:space="preserve"	x="0px" y="0px" width="100px" height="90px">	<g id="logo">		<path d="M 100 61.3837 L 100 28.6168 C 100 26.4381 98.7496 23.9664 97.2213 23.124 L 53.9407 1.5062 C 50.0811 -0.5648 48.8573 -0.3295 45 1.6474 L 2.7776 23.1202 C 1.2498 23.9649 0 26.4381 0 28.6168 L 0 61.3837 C 0 63.5621 1.2498 66.0362 2.7776 66.8805 L 45.0187 88.3636 C 49.5222 90.8828 50.5576 90.0546 54.0258 88.4844 L 97.2213 66.877 C 98.7496 66.0341 100 63.5621 100 61.3837 Z" fill="#ffffff"/>		<path d="M 37.476 45.4665 C 37.476 39.7905 41.8408 35.1892 47.2256 35.1892 C 52.6104 35.1892 56.975 39.7905 56.975 45.4665 C 56.975 51.1425 52.6104 55.7438 47.2256 55.7438 C 41.8408 55.7438 37.476 51.1425 37.476 45.4665 ZM 74 54.6389 C 73.4625 54.7764 72.9307 54.9231 72.3655 54.9231 C 71.2145 54.9231 70.9222 54.6184 70.1405 53.9962 C 69.3803 53.3755 69 52.5118 69 51.3951 L 69 26 L 57 26 L 57 30.3172 C 55.4522 28.5475 53.6607 27.9727 51.6463 27.1527 C 49.6266 26.3416 47.4072 25.9305 45.0506 25.9305 C 42.2166 25.9305 39.6651 26.4561 37.3739 27.4996 C 35.0877 28.542 33.1391 29.9475 31.5099 31.7069 C 29.9029 33.4755 28.6539 35.5304 27.7746 37.8787 C 26.9061 40.2314 26.4715 42.7125 26.4715 45.3287 C 26.4715 48.0045 26.9061 50.521 27.7746 52.8704 C 28.6539 55.2187 29.9029 57.2768 31.5099 59.0409 C 33.1391 60.7991 35.0877 62.2058 37.3739 63.2539 C 39.6651 64.2962 42.2166 64.8174 45.0506 64.8174 C 47.8142 64.8174 50.3062 64.2858 52.5326 63.2069 C 54.7476 62.1211 56.5988 60.4418 58.0811 58.1566 C 59.0258 60.1153 60.3559 61.7156 62.0666 62.9594 C 63.7875 64.2011 65.7588 64.8174 67.9842 64.8174 C 69.5267 64.8174 70.9215 64.6387 72.4689 64.2858 C 73.0387 64.1484 73.4732 63.7796 74 63.5746 L 74 54.6389 Z" fill="#F05023"/>	</g></svg>