<svg version="1.2" baseProfile="tiny" xmlns="http://www.w3.org/2000/svg" viewBox="0 0 158.8 158.8" xml:space="preserve"><path fill="#0084C6" d="M124.2 119.2c-6.3 8.4-13.8 15.4-22.7 20.8-7.4 4.5-14.9 8.7-22.3 13-.5.3-.8.2-1.3 0-7.1-4.1-14.3-8.2-21.4-12.4-9.5-5.7-17.4-13.1-24-22-5-6.7-8.9-14-11.7-21.8-2.4-6.7-4-13.6-4.6-20.7-.2-2.7-.4-5.5-.4-8.2V22.4c0-.7.2-1.1.9-1.5C24.4 16.5 32.6 13 41 10.3c8-2.5 16.2-4.2 24.6-5.1 8.3-.9 16.5-.9 24.8-.1 10.9 1 21.5 3.4 31.7 7.2 6.5 2.4 12.7 5.3 18.8 8.7.4.2.6.5.6 1 0 16.3.1 32.6-.1 48.9-.1 8.4-1.8 16.5-4.5 24.4-2.4 7.1-5.7 13.8-10 20"/><path fill="none" stroke="#FFF" stroke-width="5" stroke-miterlimit="10" d="m41.6 66.1 6.1 31.6 18.9 16.9 10.9 2.3 10.6-2.6L106.9 98l6.9-31.9-13-31.3H54.1z"/><path fill="none" stroke="#FFF" stroke-width="5" stroke-miterlimit="10" d="m52 59.8 10.6-6.9 8.3 6.5-8.8 5.4zm50.7 0-10.6-6.9-8.6 6 9.1 5.9zm-25-4.3-5.5 4.9-3 22.1-7.9 11.2 16.4 8.3 14.9-8.5L85.3 82l-2.8-21.6z"/><path fill="none" stroke="#FFF" stroke-width="5" stroke-miterlimit="10" d="m41.6 66.1 36.1 20 36.1-20M61.3 93.7l31.3-.2"/></svg>