<?xml version="1.0" encoding="UTF-8"?>
<svg height="24.57" viewBox="0,0,165.894,24.5743" width="165.89" xmlns="http://www.w3.org/2000/svg" xmlns:xlink="http://www.w3.org/1999/xlink">
 <clipPath id="a">
  <path d="m0 0h652v510h-652z"/>
 </clipPath>
 <clipPath id="b">
  <path d="m0 0h652v510h-652z"/>
 </clipPath>
 <clipPath id="c">
  <path d="m107.463 416.585v-17.997l1.575.011c1.765.013 3.528.025 5.293.034l.235.001v7.903h12.453v-7.033h.236c1.819 0 3.64 0 5.463.001l.235.001-.014 11.044c-.003 1.003-1.205 2.29-2.066 2.77-.81.45-1.993.668-3.618.669h-.236v-5.131l-13.592-.001-.638.612v7.116z"/>
 </clipPath>
 <clipPath id="d">
  <path d="m0 0h652v510h-652z"/>
 </clipPath>
 <clipPath id="e">
  <path d="m132.953 416.585v-17.9964h-25.49v17.9964z"/>
 </clipPath>
 <linearGradient id="f" gradientUnits="userSpaceOnUse">
  <stop offset="0" stop-color="#729bc7"/>
  <stop offset="1" stop-color="#547395"/>
 </linearGradient>
 <linearGradient id="g" gradientTransform="matrix(0 -17.996 -17.996 0 120.21 416.59)" x2="1" xlink:href="#f"/>
 <clipPath id="h">
  <path d="m175.82 416.585-.029-14.736 2.139-2.378h20.771v1.089l-2.227 1.767-11.747.001c-1.118 0-1.862.139-2.216.416-.452.353-.519 1.181-.519 1.643v8.129l-3.646 4.069z"/>
 </clipPath>
 <clipPath id="i">
  <path d="m0 0h652v510h-652z"/>
 </clipPath>
 <clipPath id="j">
  <path d="m198.701 416.585v-17.1139h-22.9101v17.1139z"/>
 </clipPath>
 <linearGradient id="k" gradientTransform="matrix(0 -17.1139 -17.1139 0 187.25 416.59)" x2="1" xlink:href="#f"/>
 <clipPath id="l">
  <path d="m153.738 416.585-4.961-5.49h2.55l.315.321c.258.265.516.527.776.791l3.21-3.682h-9.151l-8.065-8.928 6.291.015.07.077c1.097 1.216 2.194 2.433 3.29 3.65l.675.75c.261.271.472.506.664.723.364.408.651.73 1.109 1.101.472.385 1.162.417 1.887.417l.262-.001c.101 0 .201.001.294.003l4.448.001 6.477-7.006h6.85l-.355.394c-5.046 5.596-10.091 11.19-15.14 16.786l-.07.078z"/>
 </clipPath>
 <clipPath id="m">
  <path d="m0 0h652v510h-652z"/>
 </clipPath>
 <clipPath id="n">
  <path d="m170.729 416.585v-17.2578h-32.3178v17.2578z"/>
 </clipPath>
 <linearGradient id="o" gradientTransform="matrix(0 -17.2581 -17.2581 0 154.57 416.59)" x2="1" xlink:href="#f"/>
 <clipPath id="p">
  <path d="m215.62 418.201-1.844-.132-1.808-.221-1.776-.309-.551-.166-.086-.047c-.345-.299-.692-.596-1.039-.895l-2.511-.879-1.319-.565-1.2-.622-1.068-.68-.922-.728c-.253-.249-.504-.499-.774-.773-.201-.258-.397-.519-.613-.811l-.283-.519 2.168-.753.456.662.507.552.539.465.189.151c.247.17.492.34.716.499.319.179.636.36.938.533.359.169.72.336 1.067.497l1.182.453 1.286.397 1.374.336 1.446.267 1.454.187 1.579.123 1.551.04 1.552-.04 1.532-.116 1.501-.192 1.443-.266 1.375-.335 1.286-.397 1.183-.451.195-.09c.294-.136.591-.274.868-.405l.934-.528.632-.439.817-.67.503-.547.366-.521.241-.492c.04-.136.08-.274.119-.41l.062-.503-.037-.418-.016-.059c-.042-.146-.084-.292-.115-.401l-.236-.497-.366-.529-.427-.467-.726-.644-.797-.554c-.318-.181-.635-.36-.938-.532l-1.063-.501-.112-.042c-.364-.138-.726-.275-1.073-.41l-1.301-.4-1.361-.331c-.484-.09-.971-.179-1.444-.267l-1.5-.193-1.314-.101-1.77-.057-1.554.039c-.114.008-.227.017-.345.027l-1.187.09-1.499.194c-.488.089-.972.178-1.445.265l-1.373.333-1.008.314-1.068-1.91.248-.1s.244-.099.412-.154c.324-.115.644-.196.954-.275.173-.044.35-.089.542-.144l1.157-.256 2.113-.38 1.71-.202 1.114-.774 2.418-.097h.006l1.867.045.096.007c.578.042 1.157.083 1.747.126l1.812.221c.578.101 1.161.202 1.756.304l.187.043c.494.115.99.231 1.499.347l1.602.467 1.503.543 1.387.611c.272.145.542.29.813.436l.449.242 1.127.739c.314.257.631.514.97.789l.811.838.646.879c.15.292.299.583.447.874l.352.685.193.171c.09.031.175.063.23.088l.564.102h2.634v1.705l-2.595-.003-.564.096-.268.097-.195.172-.352.685c-.147.29-.297.581-.466.903l-.646.872-.811.834c-.319.256-.636.513-.971.786l-1.124.733-1.26.675-1.386.611-1.502.54-1.602.468c-.557.126-1.115.256-1.685.387l-1.755.304-1.811.22-1.842.132c-.618.014-1.234.029-1.863.046-.616-.017-1.233-.032-1.86-.047"/>
 </clipPath>
 <clipPath id="q">
  <path d="m0 0h652v510h-652z"/>
 </clipPath>
 <clipPath id="r">
  <path d="m240.179 418.248v-18.82h-40.3527v18.82z"/>
 </clipPath>
 <linearGradient id="s" gradientTransform="matrix(0 -18.8197 -18.8197 0 220 418.25)" x2="1" xlink:href="#f"/>
 <clipPath id="t">
  <path d="m216.341 410.297c-.098-.009-.199-.016-.311-.023l-.313-.041-.866-.212-.73-.344c-.058-.04-.118-.082-.2-.138l-.04-.035c-.041-.035-.082-.07-.129-.114-.049-.048-.096-.1-.154-.167-.037-.051-.074-.105-.123-.179l-.135-.35-.009-.378.054-.218.105-.222c.034-.051.071-.101.121-.169.045-.051.092-.101.149-.158.049-.045.101-.09.181-.158l.424-.262.711-.272.653-.145.931-.07.006.235-.005-.235h.006l.327.007.616.064.869.212.508.213.419.267c.055.046.111.092.178.154l.27.339c.021.041.04.08.058.12l.081.236.009.374-.09.302c-.018.039-.037.079-.07.136l-.272.336c-.043.039-.088.076-.134.113l-.048.04c-.06.04-.118.081-.197.136l-.391.204-.609.216-.902.164c-.101.006-.199.013-.308.022l-.322.008-.318-.008z"/>
 </clipPath>
 <clipPath id="u">
  <path d="m0 0h652v510h-652z"/>
 </clipPath>
 <clipPath id="v">
  <path d="m220.002 410.306v-3.66431h-6.67091v3.66431z"/>
 </clipPath>
 <linearGradient id="w" gradientTransform="matrix(0 -3.66437 -3.66437 0 216.67 410.31)" x2="1" xlink:href="#f"/>
 <clipPath id="x">
  <path d="m82.656 381.703h176.63v36.545h-176.63z"/>
 </clipPath>
 <g clip-path="url(#a)" transform="matrix(1.25 0 0 -1.25 -134.33 522.81)">
  <g clip-path="url(#b)">
   <g clip-path="url(#c)">
    <g clip-path="url(#d)">
     <g clip-path="url(#e)">
      <path d="m0 0h652v510h-652z" fill="url(#g)"/>
     </g>
    </g>
   </g>
   <g clip-path="url(#h)">
    <g clip-path="url(#i)">
     <g clip-path="url(#j)">
      <path d="m0 0h652v510h-652z" fill="url(#k)"/>
     </g>
    </g>
   </g>
   <g clip-path="url(#l)">
    <g clip-path="url(#m)">
     <g clip-path="url(#n)">
      <path d="m0 0h652v510h-652z" fill="url(#o)"/>
     </g>
    </g>
   </g>
   <g clip-path="url(#p)">
    <g clip-path="url(#q)">
     <g clip-path="url(#r)">
      <path d="m0 0h652v510h-652z" fill="url(#s)"/>
     </g>
    </g>
   </g>
   <g clip-path="url(#t)">
    <g clip-path="url(#u)">
     <g clip-path="url(#v)">
      <path d="m0 0h652v510h-652z" fill="url(#w)"/>
     </g>
    </g>
   </g>
   <g clip-path="url(#x)">
    <path d="m238.97 411.939c-.038.019-.092.028-.169.028h-.118v-.279h.124c.06 0 .103.006.132.018.056.02.082.06.082.121 0 .055-.016.093-.051.112m-.149.125c.096 0 .168-.01.213-.03.082-.032.123-.098.123-.196 0-.068-.026-.121-.078-.154-.027-.017-.065-.029-.113-.036.059-.011.105-.036.135-.076.028-.042.042-.083.042-.122v-.057c0-.018 0-.038.001-.058.002-.021.004-.035.007-.041l.006-.009h-.132c0 .002 0 .004-.002.007 0 .003 0 .006-.002.009l-.001.024v.064c0 .09-.025.15-.075.178-.028.016-.081.024-.155.024h-.107v-.306h-.139v.779zm-.424.041c-.12-.12-.179-.264-.179-.433 0-.171.059-.317.178-.437.12-.121.263-.181.436-.181.168 0 .314.06.433.181.119.12.18.266.18.437 0 .169-.061.313-.18.433-.119.121-.265.18-.433.18-.169 0-.316-.059-.435-.18m.941-.938c-.14-.139-.309-.21-.505-.21-.197 0-.367.071-.504.21-.138.139-.206.307-.206.505 0 .196.068.362.206.502.139.139.307.208.504.208.196 0 .365-.069.505-.208.137-.138.207-.306.207-.502 0-.197-.07-.365-.207-.505" fill="#729bc7"/>
   </g>
  </g>
 </g>
</svg>
