<?xml version="1.0" encoding="UTF-8" standalone="no"?>
<svg
   xmlns:dc="http://purl.org/dc/elements/1.1/"
   xmlns:cc="http://creativecommons.org/ns#"
   xmlns:rdf="http://www.w3.org/1999/02/22-rdf-syntax-ns#"
   xmlns:svg="http://www.w3.org/2000/svg"
   xmlns="http://www.w3.org/2000/svg"
   xmlns:sodipodi="http://sodipodi.sourceforge.net/DTD/sodipodi-0.dtd"
   xmlns:inkscape="http://www.inkscape.org/namespaces/inkscape"
   width="1600px"
   height="1200px"
   viewBox="0 0 1600 1200"
   version="1.1"
   id="svg2004"
   sodipodi:docname="pointing.svg"
   inkscape:version="0.92.3 (2405546, 2018-03-11)">
  <metadata
     id="metadata2010">
    <rdf:RDF>
      <cc:Work
         rdf:about="">
        <dc:format>image/svg+xml</dc:format>
        <dc:type
           rdf:resource="http://purl.org/dc/dcmitype/StillImage" />
      </cc:Work>
    </rdf:RDF>
  </metadata>
  <defs
     id="defs2008" />
  <sodipodi:namedview
     pagecolor="#ffffff"
     bordercolor="#666666"
     borderopacity="1"
     objecttolerance="10"
     gridtolerance="10"
     guidetolerance="10"
     inkscape:pageopacity="0"
     inkscape:pageshadow="2"
     inkscape:window-width="1890"
     inkscape:window-height="1524"
     id="namedview2006"
     showgrid="false"
     inkscape:zoom="0.32"
     inkscape:cx="800"
     inkscape:cy="553.125"
     inkscape:window-x="0"
     inkscape:window-y="0"
     inkscape:window-maximized="0"
     inkscape:current-layer="svg2004" />
  <title
     id="title1798">pointing</title>
  <path
     d="m 843.01644,703.18057 c 4.32549,15.86652 8.65102,31.73331 12.95981,47.51705 27.84677,-7.50875 55.71029,-14.93458 83.55705,-22.44324 -2.41401,-14.52619 -4.76185,-29.15188 -7.17593,-43.67813 -29.74149,6.25117 -59.5827,12.43607 -89.34093,18.60432 z"
     id="path1856"
     inkscape:connector-curvature="0"
     style="fill:#ef2929;fill-rule:nonzero;stroke:none;stroke-width:0.84616113" />
  <g
     transform="matrix(13.538198,0,0,13.538198,-666.53345,-2206.7048)"
     id="layer1-1"
     inkscape:label="Layer 1"
     style="fill:#555753"
     inkscape:export-xdpi="60"
     inkscape:export-ydpi="60">
    <path
       inkscape:connector-curvature="0"
       id="path826"
       d="m 97.660062,176.7064 c -1.183516,0.40573 -0.585431,4.66449 -2.267369,1.80047 -1.083073,-1.94325 -4.57582,0.94232 -6.705689,-0.53564 -3.484384,-0.79463 -7.270858,1.06915 -9.024291,3.91292 0.80087,1.1692 2.436521,-0.13406 0.76579,1.75042 -0.147121,3.74902 -2.6452,6.23066 -5.070249,8.80633 -2.928803,4.16057 -3.416791,9.35219 -5.027608,14.03187 -1.880397,1.97227 -5.117237,4.11775 -2.82239,6.97356 0.117638,3.73619 2.4352,6.85036 2.693439,10.58885 1.521481,2.92357 2.415504,6.4538 4.959162,8.58352 3.257542,0.86843 6.371803,1.93388 9.423613,3.49331 5.595746,1.27956 11.3902,0.2268 16.93899,-0.83839 8.0698,-1.06667 16.32423,-2.5175 24.42697,-0.96765 5.15525,0.6189 10.43604,3.14841 15.58515,1.09788 2.78629,-1.10794 6.11186,-4.12155 4.38411,-7.34818 2.72575,-1.09952 -0.32579,-4.65184 0.55565,-5.57823 -0.44537,-2.11163 0.38033,-5.48161 -3.22475,-4.59174 -3.26069,0.19607 -6.3219,-0.54893 -9.43089,-1.37239 -3.07223,-0.41394 -5.97576,-0.76766 -7.83177,-3.48178 -2.37254,-0.67361 -5.16457,-2.75956 -7.20235,-2.41854 -2.24038,2.64746 -6.56598,1.52244 -9.67245,2.645 -2.69573,1.30374 -5.72022,0.43406 -5.21348,-2.98042 -2.65803,-2.23654 -4.40715,-5.25175 -3.63102,-9.0178 0.0196,-1.36204 0.62141,-6.92802 1.15023,-3.06388 2.47305,1.36442 8.6624,3.40484 8.5388,-1.44907 0.84482,-2.70881 3.39144,-4.83696 2.69861,-8.13049 1.56156,-1.45554 5.40499,-1.93198 5.0498,-4.80614 -2.95169,-0.49524 -6.27975,-1.18453 -8.55438,-3.53503 -2.37896,-2.65993 -6.12105,-2.20683 -9.295202,-2.63208 -0.895993,0.0313 -1.331629,-0.92687 -2.196426,-0.93668 z m 0.416768,1.46158 c 1.280218,1.26343 2.52756,1.23198 4.14649,1.36135 0.9934,-0.10921 2.78566,-0.44573 4.20124,0.57195 2.3349,0.4179 -0.10438,3.88686 2.69243,2.36202 2.15224,0.53458 5.86844,1.98737 7.08451,2.17618 -2.52597,0.64085 -5.10523,-1.81686 -7.37477,0.73884 -1.67003,2.07689 2.09112,1.43458 0.54065,3.49204 2.37519,0.21906 2.22192,3.06138 1.03866,4.44649 -0.79331,0.79865 -3.11858,-0.57129 -3.19286,2.03759 -0.66649,2.00537 1.25419,2.05346 1.25822,0.1438 0.76291,1.63046 -0.55763,4.72167 -1.08145,1.77657 -0.78897,1.84796 -3.17989,1.23759 -2.9527,-0.0481 -1.14281,0.8186 -0.69074,-3.65104 1.18292,-3.77598 1.61887,-0.90595 2.61244,-6.66772 0.13908,-5.29567 0.50132,1.71176 -0.98384,4.25237 -0.2623,0.90639 -1.46023,-2.6693 -2.27215,3.60787 -1.92108,3.25381 -1.22046,2.93842 -3.732442,0.24559 -2.31486,-1.78278 0.61163,-1.55819 1.08641,-3.12696 1.04154,-4.26177 0.0162,-1.10715 -0.27325,-3.2856 -1.08298,-4.09676 -0.68255,-1.34684 -4.666227,-1.86826 -2.087323,-3.00279 0.08713,-0.1882 -1.42228,-0.63529 -1.055417,-1.00317 z m -8.6739,1.94024 c 2.757345,-0.0243 6.583401,-0.19535 6.946815,3.21001 0.348219,1.57008 0.594768,3.15036 -0.728005,1.561 -1.932038,2.74165 1.358793,5.83923 3.584532,7.26384 1.224548,1.33804 0.168928,3.8322 -0.435618,5.23634 -2.254786,-1.48853 -3.722125,-5.04542 -6.194144,-6.91479 -2.05399,-0.19011 -3.036886,-6.50502 -4.224565,-3.0103 0.11012,3.36488 3.4618,5.33991 5.458105,7.6499 1.989168,2.2789 3.581402,4.86694 4.458587,7.76209 0.899578,2.3299 0.42587,4.77589 0.873443,7.26141 2.36604,0.55059 3.99202,2.27983 3.48452,5.07298 -0.39639,3.69629 -1.04395,7.42579 -2.8992,10.71604 -1.602448,2.76215 -5.659107,0.86352 -7.775852,1.95441 -0.275612,3.34348 5.570432,1.35115 7.563734,0.88828 5.855908,-1.25341 11.936428,-2.13875 17.895648,-0.9564 2.94945,0.38843 5.87418,0.70235 8.72595,1.3512 2.25418,0.82352 5.1799,1.52953 7.75343,2.04317 2.95032,0.90533 6.21341,0.74771 8.92373,-0.87248 1.88258,-0.91328 0.52874,-3.91986 1.90613,-1.01134 0.0459,3.50893 -4.34719,5.11379 -7.37928,5.15301 -5.97286,0.0987 -11.56904,-2.58391 -17.53974,-2.6579 -6.88637,-0.54563 -13.67818,0.8531 -20.397973,2.13614 -4.481427,0.48409 -9.167106,1.81555 -13.60756,0.56957 -2.614869,-0.33682 -3.963038,-3.14824 -6.361394,-3.44759 -3.043169,1.36898 -4.099313,-1.68429 -4.630377,-3.71731 -2.973391,-2.01768 -3.65624,-5.88139 -3.636954,-9.19714 -1.456045,-0.9729 -1.819874,-6.30081 -2.015076,-6.03057 0.250534,-2.27801 2.925761,-3.31471 3.496278,-5.66128 1.180011,-2.73265 1.202524,-5.52195 2.248279,-8.23554 0.787311,-1.96372 1.621511,-3.80642 2.774738,-5.57126 1.646792,-2.58058 5.040104,-3.98183 5.751329,-7.09285 -2.226339,-1.20035 0.348212,-2.8502 0.783442,-4.74937 1.545139,-1.00679 3.441906,-1.14743 5.197048,-0.70327 z m 8.040456,0.99778 c 2.172219,-0.20565 3.890904,5.7158 2.009797,1.77945 -1.47872,-2.68665 -0.955761,3.27227 -1.796269,-0.14987 -0.05753,-0.50438 -0.404559,-1.16326 -0.213528,-1.62958 z m 13.057304,4.81849 c 0.37385,0.43287 -0.50103,0.21436 0,0 z m -3.8982,1.92115 c 0.49473,0.16026 -0.38383,0.1396 0,0 z m -2.14766,0.86207 c -0.10691,0.63106 -0.35154,0.26101 0,0 z m 6.76682,2.28452 c -0.13223,0.28163 0.19177,0.34495 0,0 z m 7.5e-4,0.56829 c 0.34648,0.25196 0.0242,0.39023 0,0 z m -2.31248,2.85204 c 0.33906,0.22971 -0.18758,0.28478 0,0 z m -7.50397,1.59093 c 0.27907,0.41235 -0.61539,0.49342 0,0 z m 0.81388,0.74834 c 1.16565,1.22331 -0.72043,1.69155 0,0 z m 4.38996,0.35797 c -0.75115,0.0474 -0.0656,0.64338 0,0 z m -0.57562,0.41272 c -1.31198,0.36035 -0.64916,1.14111 0,0 z m 13.80738,14.33904 c 1.5931,1.80156 7.64162,1.36105 6.01674,4.647 -3.05177,1.34347 -6.55987,1.38218 -9.80091,2.17497 -3.15425,1.1769 -7.00466,0.5958 -9.69395,2.82754 -0.46723,-2.08647 -4.06904,-1.37928 -2.28436,-4.39454 2.08235,-2.89832 6.85034,-2.63834 10.18862,-3.34592 1.9986,-0.30309 3.85652,-0.82028 5.57386,-1.90905 z m 10.72344,5.67247 c 3.35317,0.37429 6.7663,1.44562 9.95567,2.01783 -2.81121,1.12533 -5.94525,1.55626 -8.92397,2.28499 -4.11655,0.83438 -8.23341,2.00005 -12.4655,1.80472 -1.87631,-1.58537 -6.33162,1.01221 -6.44007,-2.75527 4.80738,-1.71339 9.99033,-1.85189 14.9503,-2.99596 0.9941,0.0113 1.94803,-0.24454 2.92357,-0.35631 z m -26.08455,1.55103 c -0.28684,0.23309 0.29125,0.44975 0,0 z m -3.41704,0.59431 c -0.35754,0.30705 0.49719,0.18673 0,0 z m 42.37113,0.86939 c -0.83542,1.30848 -5.49959,1.2857 -7.67867,2.16979 -3.86637,1.01077 -7.94648,1.91087 -11.83779,2.20263 4.21461,-0.78454 8.38108,-2.0966 12.59395,-2.97498 1.76827,-0.37052 4.67348,-1.05566 6.92251,-1.39744 z m -40.07851,0.11759 c 3.70897,0.0848 -1.10341,4.31251 -0.21032,0.78265 l 0.16675,-0.53263 z m 5.44807,0.89947 c 3.07652,0.81261 5.18129,3.74586 8.72325,3.23796 0.997,0.0507 -1.2222,0.96692 -0.95925,1.20429 -2.64912,-0.37054 -5.33123,-0.21454 -7.99763,-0.25875 -0.12127,-2.0406 -2.93378,-2.88995 0.23363,-4.1835 z m 35.12509,0.304 c 0.80258,0.52818 -3.38071,0.20143 -0.33542,0.0143 z m -1.88472,0.29628 c -1.90607,1.03152 -5.55915,1.32762 -8.02974,2.39914 -3.36712,1.27754 -6.9587,1.78818 -10.5408,2.16432 -1.40089,0.53563 -5.82644,-0.65835 -5.67516,-0.72346 4.24533,0.76229 8.58271,0.0778 12.7684,-0.75518 3.7767,-1.23868 7.57687,-2.33639 11.4773,-3.08482 z m -36.09645,0.084 c 1.44661,1.2372 -3.03275,2.23858 -0.56444,0.65176 l 0.42603,-0.46766 z m 37.59794,0.62863 c -1.24541,1.19745 -5.26785,1.70887 -7.59139,2.46553 -3.10444,0.7165 -6.2838,1.95656 -9.36895,2.12592 3.79914,-1.13145 7.85768,-1.74028 11.59439,-3.25266 1.77484,-0.4813 3.50679,-1.27379 5.36595,-1.33879 z m 0.76453,0.96578 c -2.20533,1.334 -6.00875,1.99555 -8.8763,2.70264 -3.26543,0.0727 4.20325,-1.25465 5.46588,-1.83337 1.10536,-0.41653 2.22138,-0.793 3.41042,-0.86927 z m -42.07735,0.0993 c 1.92031,0.40736 0.49292,1.24443 0,0 z m 2.32096,0.1305 c 0.0943,1.44537 -0.97523,1.62804 0,0 z m 1.65628,0.09 c 3.53903,1.69207 -2.35724,1.98647 -0.058,0.009 z m 17.5103,0.6504 c 0.28291,0.19505 -0.94981,0.23516 0,0 z m -1.60828,0.15229 c 0.59948,0.28752 -0.81106,0.20986 0,0 z m 23.12571,0.14477 c 1.30531,2.01351 -2.91169,1.19586 -4.06053,2.19122 -3.55111,0.5396 -7.10331,1.03396 -10.6467,1.6079 -2.54638,-0.76604 3.07899,-1.16563 4.09598,-1.29137 3.22599,-0.32137 6.64506,-0.86705 9.56134,-1.94035 0.6195,1.69739 -0.35072,-0.90491 1.04991,-0.5674 z m -24.58999,0.008 c 0.66373,0.0522 -0.70768,0.0665 0,0 z m -18.66115,0.62381 c 3.98235,0.86179 -2.93349,1.85313 0,0 z m 24.28503,1.65031 c 0.60393,0.27929 -1.48835,0.18047 0,0 z m 15.1718,1.09069 c 1.76163,1.42215 -4.64158,2.05695 -6.16537,1.62524 -3.55953,-0.42065 3.02608,-1.26586 3.96981,-1.25237 0.71293,-0.22794 1.45483,-0.30218 2.19556,-0.37287 z"
       style="fill:#555753;stroke-width:1" />
  </g>
</svg>
