<?xml version="1.0" encoding="UTF-8" standalone="no"?><!DOCTYPE svg PUBLIC "-//W3C//DTD SVG 1.1//EN" "http://www.w3.org/Graphics/SVG/1.1/DTD/svg11.dtd"><svg width="100%" height="100%" viewBox="0 0 300 100" version="1.1" xmlns="http://www.w3.org/2000/svg" xmlns:xlink="http://www.w3.org/1999/xlink" xml:space="preserve" xmlns:serif="http://www.serif.com/" style="fill-rule:evenodd;clip-rule:evenodd;stroke-linejoin:round;stroke-miterlimit:2;"><rect id="MainLogo" x="0" y="0" width="300" height="100" style="fill:none;"/><g id="MainLogo1" serif:id="MainLogo"><path id="Square" d="M100,1.813c0,-1.001 -0.815,-1.813 -1.817,-1.813l-96.368,0c-1,0 -1.815,0.812 -1.815,1.813l0,96.372c0,1.002 0.815,1.815 1.815,1.815l96.368,0c1.002,0 1.817,-0.813 1.817,-1.815l0,-96.372Z" style="fill:#f00000;"/><g id="Blocks"><path d="M148.552,60.077c0,-6.468 -3.741,-9.533 -6.668,-10.894c2.45,-1.157 5.988,-4.629 5.988,-10.008c0,-8.308 -5.511,-13.618 -14.968,-13.618l-19.457,0l0,48.478l20.273,0c8.641,0 14.832,-4.902 14.832,-13.958Zm-10.137,-20.494c0,3.336 -2.245,5.583 -6.26,5.583l-9.252,0l0,-11.167l9.252,0c4.015,0 6.26,2.247 6.26,5.584Zm0.68,20.017c0,3.268 -2.04,5.992 -6.327,5.992l-9.865,0l0,-11.915l9.865,0c4.287,0 6.327,2.655 6.327,5.923Z" style="fill-rule:nonzero;"/><path d="M170.051,74.035l0,-7.49l-3.402,0c-2.245,0 -3.13,-1.089 -3.13,-3.199l0,-37.789l-8.844,0l0,38.333c0,5.038 3.061,10.145 10.342,10.145l5.034,0Z" style="fill-rule:nonzero;"/><path d="M201.756,56.264c0,-6.4 -0.816,-10.418 -4.013,-13.753c-2.178,-2.316 -5.783,-4.358 -11.022,-4.358c-5.239,0 -8.777,2.042 -10.954,4.358c-3.197,3.335 -4.014,7.353 -4.014,13.753c0,6.468 0.817,10.486 4.014,13.822c2.177,2.315 5.715,4.357 10.954,4.357c5.239,0 8.844,-2.042 11.022,-4.357c3.197,-3.336 4.013,-7.354 4.013,-13.822Zm-8.844,0c0,3.677 -0.205,6.809 -2.042,8.648c-1.019,1.02 -2.381,1.566 -4.149,1.566c-1.77,0 -3.063,-0.546 -4.082,-1.566c-1.837,-1.839 -2.042,-4.971 -2.042,-8.648c0,-3.676 0.205,-6.741 2.042,-8.58c1.019,-1.02 2.312,-1.564 4.082,-1.564c1.768,0 3.13,0.544 4.149,1.564c1.837,1.839 2.042,4.904 2.042,8.58Z" style="fill-rule:nonzero;"/><path d="M233.461,69.608l-5.988,-5.923c-1.837,1.975 -3.402,2.793 -5.714,2.793c-2.109,0 -3.743,-0.75 -5.036,-2.316c-1.36,-1.702 -1.973,-4.154 -1.973,-7.898c0,-3.745 0.613,-6.128 1.973,-7.83c1.293,-1.566 2.927,-2.314 5.036,-2.314c2.312,0 3.877,0.817 5.714,2.791l5.988,-5.992c-3.13,-3.268 -6.804,-4.766 -11.702,-4.766c-7.076,0 -15.853,3.744 -15.853,18.111c0,14.366 8.777,18.179 15.853,18.179c4.898,0 8.572,-1.566 11.702,-4.835Z" style="fill-rule:nonzero;"/><path d="M270.063,74.035l-13.607,-21.175l12.655,-14.298l-10.682,0l-11.771,14.501l0,-27.506l-8.843,0l0,48.478l8.843,0l0,-10.553l3.743,-4.221l8.708,14.774l10.954,0Z" style="fill-rule:nonzero;"/><path d="M300,62.868c0,-5.992 -3.538,-9.736 -10.546,-10.416l-5.578,-0.545c-3.13,-0.272 -3.674,-1.771 -3.674,-3.065c0,-1.769 1.496,-3.404 5.034,-3.404c3.061,0 6.191,0.544 8.232,2.383l5.442,-5.515c-3.401,-3.2 -8.027,-4.153 -13.538,-4.153c-7.212,0 -13.675,3.949 -13.675,11.303c0,6.536 3.946,9.327 10.342,9.941l5.578,0.544c2.79,0.272 3.742,1.497 3.742,3.268c0,2.655 -3.198,3.677 -6.259,3.677c-2.722,0 -6.532,-0.408 -9.457,-3.337l-5.783,5.787c4.49,4.495 9.526,5.107 15.104,5.107c8.368,0 15.036,-3.744 15.036,-11.575Z" style="fill-rule:nonzero;"/></g><g id="PDF"><path d="M36.271,43.991c0,-5.428 -3.944,-9.957 -10.531,-9.957l-12.369,0l0,31.932l6.23,0l0,-12.02l6.139,0c6.587,0 10.531,-4.529 10.531,-9.955Zm-6.228,0c0,2.6 -1.794,4.349 -4.616,4.349l-5.826,0l0,-8.745l5.826,0c2.822,0 4.616,1.794 4.616,4.396Z" style="fill:#fff;fill-rule:nonzero;"/><path d="M63.026,49.865c0,-4.799 0.357,-9.194 -3.228,-12.781c-2.105,-2.109 -5.109,-3.05 -8.424,-3.05l-11.518,0l0,31.932l11.518,0c3.315,0 6.319,-0.943 8.424,-3.05c3.585,-3.587 3.228,-8.252 3.228,-13.051Zm-6.23,0c0,4.844 -0.179,7.13 -1.344,8.566c-1.076,1.3 -2.509,1.973 -4.661,1.973l-4.705,0l0,-20.809l4.705,0c2.152,0 3.585,0.672 4.661,1.974c1.165,1.434 1.344,3.453 1.344,8.296Z" style="fill:#fff;fill-rule:nonzero;"/><path d="M88.749,39.595l0,-5.561l-21.018,0l0,31.932l6.23,0l0,-12.961l12.592,0l0,-5.562l-12.592,0l0,-7.848l14.788,0Z" style="fill:#fff;fill-rule:nonzero;"/></g></g></svg>