<svg xmlns="http://www.w3.org/2000/svg" viewBox="0 0 277.83 50.32"><defs><style>.cls-1{fill:#018EF5;}</style></defs><title>ReadMe</title><path class="cls-1" d="M729.23,150.79a7.74,7.74,0,0,0,8.12,7.33,11.4,11.4,0,0,0,8.48-3.91,0.8,0.8,0,0,1,1.28-.12l2.93,3.17a0.91,0.91,0,0,1,.12,1.34c-0.61,1-4.82,6.35-13.49,6.35s-15.81-5.74-15.81-15.5a15,15,0,0,1,15.08-15.38c9.52,0,14.28,5.74,14.28,15.75a1,1,0,0,1-1,1h-20Zm13.25-4.7c-0.12-2.81-1.89-5.62-6.23-5.62-3.54,0-6.23,1.77-6.9,5.62h13.12Z" transform="translate(-621.2 -124.84)"/><path class="cls-1" d="M877.86,150.68A7.74,7.74,0,0,0,886,158a11.4,11.4,0,0,0,8.48-3.91,0.8,0.8,0,0,1,1.28-.12l2.93,3.17a0.91,0.91,0,0,1,.12,1.34c-0.61,1-4.82,6.35-13.49,6.35s-15.81-5.74-15.81-15.5A15,15,0,0,1,884.57,134c9.52,0,14.28,5.74,14.28,15.75a1,1,0,0,1-1,1h-20ZM891.1,146c-0.12-2.81-1.89-5.62-6.23-5.62-3.54,0-6.23,1.77-6.9,5.62H891.1Z" transform="translate(-621.2 -124.84)"/><path class="cls-1" d="M779.14,164.5a2.49,2.49,0,0,1-2.81-2.81v-2.56h-0.18c-0.85,2.08-3.3,5.8-9.28,5.8-8.48,0-13.67-6.35-13.67-15.38,0-9.89,5.8-15.57,13.73-15.57,5.8,0,8.55,3.17,9,4.27h0.12v-2.87a0.77,0.77,0,0,1,.85-0.85h5.49a0.8,0.8,0,0,1,.85.85V158h2.28a0.71,0.71,0,0,1,.79.85v4.76a0.76,0.76,0,0,1-.79.85h-6.43Zm-3.66-14.89c0-5.74-3.11-8.67-7-8.67-4.33,0-7.26,3.42-7.26,8.73s3.11,8.48,7.26,8.48C772.19,158.15,775.48,155.28,775.48,149.6Z" transform="translate(-621.2 -124.84)"/><path class="cls-1" d="M718.91,141.63a17.59,17.59,0,0,1,4.86-6.16,0.61,0.61,0,0,0-.28-1,22.23,22.23,0,0,0-4.16-.42c-9.95,0-12.33,7.94-12.33,7.94h-0.24v-6.78a0.85,0.85,0,0,0-.85-0.85h-9.1a0.85,0.85,0,0,0-.85.85v4.76a0.77,0.77,0,0,0,.85.85h3v17.09H697.6a0.75,0.75,0,0,0-.85.85v4.76a0.8,0.8,0,0,0,.85.85H710a0.85,0.85,0,0,0,.85-0.85v-4.76a0.85,0.85,0,0,0-.85-0.85h-2.11v-7.45c0-4.15,5-8.91,10.39-8.4A0.65,0.65,0,0,0,718.91,141.63Z" transform="translate(-621.2 -124.84)"/><path class="cls-1" d="M817.45,157.87V125.69a0.75,0.75,0,0,0-.85-0.85h-9a0.79,0.79,0,0,0-.92.85v4.76a0.79,0.79,0,0,0,.92.85h2v4.4c0,1.28.12,2.5,0.12,2.5h-0.12c-0.55-1.16-2.93-4.33-8.42-4.33-8.48,0-13.92,6.35-13.92,15.32,0,9.95,5.8,15.57,13.73,15.57,5.74,0,8.73-3.72,9.22-4.94h0.12v3a1.56,1.56,0,0,0,1.56,1.56h4.3a1.23,1.23,0,0,0,1.23-1.23v-5.25Zm-14.89.06c-4.39,0-7.26-3.54-7.26-8.79s3.11-8.42,7.26-8.42c3.72,0,7,2.75,7,8.48S806.53,157.93,802.56,157.93Z" transform="translate(-621.2 -124.84)"/><path class="cls-1" d="M868.13,157.95h-2.25V144.7c0-6.29-3.54-10.74-10.13-10.74s-8.67,4.21-9.22,5c-1.47-3.05-4.46-5-8.79-5-6.78,0-8.91,4.7-9.22,5.25h-0.18v-3.54a1.11,1.11,0,0,0-1.34-1.28h-4.4a1.33,1.33,0,0,0-1.33,1.33v26.86a1.84,1.84,0,0,0,1.84,1.84h8.45a0.85,0.85,0,0,0,.85-0.85V158.8a0.75,0.75,0,0,0-.85-0.85h-2.12V145a5.44,5.44,0,0,1,5.37-4c3.91,0,5,2.56,5,6.29l0,16.38a0.71,0.71,0,0,0,.71.72h9.62a0.8,0.8,0,0,0,.85-0.85V158.8a0.75,0.75,0,0,0-.85-0.85h-2.19V145.68a7.62,7.62,0,0,0-.18-1.16,5.22,5.22,0,0,1,5.07-3.48c3.85,0,5,2.56,5,6.29v14.28a2.81,2.81,0,0,0,2.81,2.81h7.5a0.85,0.85,0,0,0,.85-0.85V158.8A0.75,0.75,0,0,0,868.13,157.95Z" transform="translate(-621.2 -124.84)"/><path class="cls-1" d="M676.26,131.43H661.71a10.72,10.72,0,0,0-10.46,8.36,10.72,10.72,0,0,0-10.46-8.36H626.25a5,5,0,0,0-5,5v25.6a5,5,0,0,0,5,5h9.34c10.64,0,13.82,2.56,15.34,7.83a0.28,0.28,0,0,0,.28.21h0.06a0.28,0.28,0,0,0,.28-0.21c1.53-5.27,4.71-7.83,15.34-7.83h9.34a5,5,0,0,0,5-5v-25.6A5,5,0,0,0,676.26,131.43Zm-29.81,27.63a0.36,0.36,0,0,1-.36.36h-16.7a0.36,0.36,0,0,1-.36-0.36v-2.38a0.36,0.36,0,0,1,.36-0.36h16.7a0.36,0.36,0,0,1,.36.36v2.38Zm0-6.34a0.36,0.36,0,0,1-.36.36h-16.7a0.36,0.36,0,0,1-.36-0.36v-2.38a0.36,0.36,0,0,1,.36-0.36h16.7a0.36,0.36,0,0,1,.36.36v2.38Zm0-6.34a0.36,0.36,0,0,1-.36.36h-16.7a0.36,0.36,0,0,1-.36-0.36V144a0.36,0.36,0,0,1,.36-0.36h16.7a0.36,0.36,0,0,1,.36.36v2.38Zm27,12.67a0.36,0.36,0,0,1-.36.36h-16.7a0.36,0.36,0,0,1-.36-0.36v-2.38a0.36,0.36,0,0,1,.36-0.36h16.7a0.36,0.36,0,0,1,.36.36v2.38Zm0-6.34a0.36,0.36,0,0,1-.36.36h-16.7a0.36,0.36,0,0,1-.36-0.36v-2.38a0.36,0.36,0,0,1,.36-0.36h16.7a0.36,0.36,0,0,1,.36.36v2.38Zm0-6.34a0.36,0.36,0,0,1-.36.36h-16.7a0.36,0.36,0,0,1-.36-0.36V144a0.36,0.36,0,0,1,.36-0.36h16.7a0.36,0.36,0,0,1,.36.36v2.38Z" transform="translate(-621.2 -124.84)"/></svg>
