<?xml version="1.0" encoding="UTF-8"?> <svg xmlns="http://www.w3.org/2000/svg" xmlns:xlink="http://www.w3.org/1999/xlink" width="1815px" height="500px" viewBox="0 0 1815 500"><!-- Generator: Sketch 51.2 (57519) - http://www.bohemiancoding.com/sketch --><title>Stormglass - Blue circled</title><desc>Created with Sketch.</desc><defs></defs><g id="Stormglass---Blue-circled" stroke="none" stroke-width="1" fill="none" fill-rule="evenodd"><g id="Group" fill-rule="nonzero"><circle id="Oval" fill="#323B47" cx="249.5" cy="249.5" r="249.5"></circle><path d="M257,292.875644 L289.177732,274.297822 C292.391858,272.442145 296.564426,273.651952 298.497423,277 C300.430419,280.348048 299.391858,284.566501 296.177732,286.422178 L264,305 L296.177732,323.577822 C299.391858,325.433499 300.430419,329.651952 298.497423,333 C296.564426,336.348048 292.391858,337.557855 289.177732,335.702178 L257,317.124356 L257,354.28 C257,357.991354 253.865993,361 250,361 C246.134007,361 243,357.991354 243,354.28 L243,317.124356 L210.822268,335.702178 C207.608142,337.557855 203.435574,336.348048 201.502577,333 C199.569581,329.651952 200.608142,325.433499 203.822268,323.577822 L236,305 L203.822268,286.422178 C200.608142,284.566501 199.569581,280.348048 201.502577,277 C203.435574,273.651952 207.608142,272.442145 210.822268,274.297822 L243,292.875644 L243,255.72 C243,252.008646 246.134007,249 250,249 C253.865993,249 257,252.008646 257,255.72 L257,292.875644 Z M250,407 C181.343281,407 134,374.331939 134,303.612427 C134,280.265563 142.358803,260.118668 159.18472,236.412343 C162.828707,231.278267 166.744367,226.111423 172.166216,219.195547 C171.210566,220.414532 182.529943,206.055724 185.597904,202.082468 C216.961305,161.46434 230.640172,130.887349 230.640172,86.4854859 C230.640172,74.23359 240.559995,67.9491727 250.429998,68.0003096 C260.229742,68.0510824 270.053371,74.3084893 270.053371,86.4854859 C270.053371,130.996355 283.569404,161.304809 314.75438,201.739588 C316.602949,204.136463 318.496566,206.560854 321.040851,209.795861 C321.780172,210.735893 322.617831,211.799625 324.193756,213.80069 C325.472341,215.424739 326.414973,216.624175 327.337614,217.802062 C332.453316,224.333014 336.126044,229.161541 339.579369,233.969095 C357.293747,258.630208 366,279.27886 366,303.612427 C366,375.202776 319.380042,407 250,407 Z M249.5,392 C296.620956,392 349,375.385355 349,304.233035 C349,233.080714 253.607876,201.338963 253.607876,86.7099694 C253.607876,83.1360755 246.081657,83.0574918 246.081657,86.7099694 C246.081657,201.053786 150,234.300989 150,304.233035 C150,374.165081 202.379044,392 249.5,392 Z" id="Stormglass-logo" fill="#FFFFFF"></path></g><path d="M725.139648,298.798828 C725.139648,288.870393 722.311714,281.057971 716.655762,275.361328 C710.999809,269.664685 700.440833,264.212266 684.978516,259.003906 C669.516199,253.795547 658.163773,247.97692 650.920898,241.547852 C641.399366,233.165648 636.638672,222.098051 636.638672,208.344727 C636.638672,194.754164 641.317987,183.686566 650.676758,175.141602 C660.035529,166.596637 672.120369,162.324219 686.931641,162.324219 C702.068435,162.324219 714.438103,167.288362 724.041016,177.216797 C733.643928,187.145232 738.445312,199.921797 738.445312,215.546875 L724.407227,215.546875 C724.407227,203.583925 721.050327,193.920121 714.336426,186.555176 C707.622525,179.19023 698.487688,175.507812 686.931641,175.507812 C675.701116,175.507812 666.851107,178.539195 660.381348,184.602051 C653.911589,190.664907 650.676758,198.497673 650.676758,208.100586 C650.676758,217.052454 653.728485,224.376599 659.832031,230.073242 C665.935577,235.769885 675.660415,240.835753 689.006836,245.270996 C702.353257,249.70624 712.444302,254.304175 719.280273,259.064941 C726.116245,263.825707 731.161768,269.420541 734.416992,275.849609 C737.672217,282.278678 739.299805,289.846962 739.299805,298.554688 C739.299805,312.470773 734.600145,323.680784 725.200684,332.185059 C715.801223,340.689333 703.37052,344.941406 687.908203,344.941406 C677.491484,344.941406 667.99044,342.805197 659.404785,338.532715 C650.81913,334.260233 644.10533,328.116088 639.263184,320.100098 C634.421037,312.084107 632,302.623752 632,291.71875 L645.916016,291.71875 C645.916016,304.251365 649.700157,314.098271 657.268555,321.259766 C664.836952,328.42126 675.050066,332.001953 687.908203,332.001953 C699.138728,332.001953 708.151496,328.990916 714.946777,322.96875 C721.742059,316.946584 725.139648,308.890024 725.139648,298.798828 Z M788.37207,176.728516 L788.37207,210.419922 L810.955078,210.419922 L810.955078,222.626953 L788.37207,222.626953 L788.37207,310.395508 C788.37207,317.638383 789.450347,323.029767 791.606934,326.569824 C793.76352,330.109881 797.364558,331.879883 802.410156,331.879883 C804.607433,331.879883 807.862609,331.472986 812.175781,330.65918 L812.541992,342.866211 C809.449529,344.249681 805.014352,344.941406 799.236328,344.941406 C783.367108,344.941406 775.229169,334.036567 774.822266,312.226562 L774.822266,222.626953 L754.436523,222.626953 L754.436523,210.419922 L774.822266,210.419922 L774.822266,176.728516 L788.37207,176.728516 Z M832.927734,269.746094 C832.927734,250.70303 837.240842,235.647842 845.867188,224.580078 C854.493533,213.512314 866.252855,207.978516 881.145508,207.978516 C896.119541,207.978516 907.899208,213.430935 916.484863,224.335938 C925.070518,235.24094 929.403971,250.255438 929.485352,269.379883 L929.485352,283.417969 C929.485352,302.786555 925.151899,317.882433 916.484863,328.706055 C907.817828,339.529677 896.11954,344.941406 881.389648,344.941406 C866.659757,344.941406 854.981814,339.651746 846.355469,329.072266 C837.729124,318.492786 833.253257,303.925874 832.927734,285.371094 L832.927734,269.746094 Z M846.599609,283.417969 C846.599609,298.636144 849.671682,310.598915 855.815918,319.306641 C861.960154,328.014366 870.484646,332.368164 881.389648,332.368164 C892.538793,332.368164 901.063284,328.177125 906.963379,319.794922 C912.863474,311.412719 915.854166,299.409258 915.935547,283.78418 L915.935547,269.746094 C915.935547,254.527919 912.84313,242.544803 906.658203,233.796387 C900.473276,225.047971 891.96913,220.673828 881.145508,220.673828 C870.647408,220.673828 862.306021,224.946246 856.121094,233.491211 C849.936167,242.036176 846.762371,253.795498 846.599609,268.769531 L846.599609,283.417969 Z M1012.49316,223.115234 C1009.23794,222.54557 1006.38966,222.260742 1003.94824,222.260742 C996.461226,222.260742 990.174667,224.824193 985.088379,229.951172 C980.00209,235.078151 976.401052,242.198848 974.285156,251.313477 L974.285156,342.5 L960.735352,342.5 L960.735352,210.419922 L974.041016,210.419922 L974.285156,230.195312 C980.714225,215.384041 990.80527,207.978516 1004.55859,207.978516 C1008.13934,207.978516 1010.86555,208.507482 1012.7373,209.56543 L1012.49316,223.115234 Z M1048.74805,210.419922 L1049.11426,230.195312 C1057.3337,215.384041 1069.13371,207.978516 1084.51465,207.978516 C1101.5232,207.978516 1112.50942,216.075765 1117.47363,232.270508 C1121.62404,224.213827 1126.97474,218.151062 1133.52588,214.082031 C1140.07702,210.013 1147.21806,207.978516 1154.94922,207.978516 C1178.71236,207.978516 1190.87858,223.277842 1191.44824,253.876953 L1191.44824,342.5 L1177.89844,342.5 L1177.89844,254.731445 C1177.73568,243.338159 1175.61981,234.854357 1171.55078,229.279785 C1167.48175,223.705213 1160.80864,220.917969 1151.53125,220.917969 C1143.14905,221.08073 1136.06904,224.335906 1130.29102,230.683594 C1124.51299,237.031282 1121.21713,245.006462 1120.40332,254.609375 L1120.40332,342.5 L1106.73145,342.5 L1106.73145,255.097656 C1106.73145,243.541609 1104.59524,234.956083 1100.32275,229.34082 C1096.05027,223.725558 1089.39751,220.917969 1080.36426,220.917969 C1072.95862,220.917969 1066.54999,223.48142 1061.13818,228.608398 C1055.72637,233.735377 1051.79982,241.059523 1049.3584,250.581055 L1049.3584,342.5 L1035.80859,342.5 L1035.80859,210.419922 L1048.74805,210.419922 Z M1394.20703,321.870117 C1388.26625,329.519895 1380.77934,335.277487 1371.74609,339.143066 C1362.71285,343.008646 1352.82525,344.941406 1342.08301,344.941406 C1323.85375,344.941406 1309.53098,338.837952 1299.11426,326.630859 C1288.69754,314.423767 1283.28581,297.496853 1282.87891,275.849609 L1282.87891,232.636719 C1282.87891,209.931527 1287.8227,192.536682 1297.71045,180.45166 C1307.59819,168.366639 1321.69717,162.324219 1340.00781,162.324219 C1356.36532,162.324219 1369.18257,166.840775 1378.45996,175.874023 C1387.73735,184.907272 1392.94563,197.927975 1394.08496,214.936523 L1380.16895,214.936523 C1378.70409,201.26458 1374.69616,191.275259 1368.14502,184.968262 C1361.59388,178.661264 1352.25559,175.507812 1340.12988,175.507812 C1325.64413,175.507812 1314.80033,180.329542 1307.59814,189.973145 C1300.39596,199.616747 1296.79492,213.756417 1296.79492,232.392578 L1296.79492,273.408203 C1296.79492,291.962983 1300.76217,306.367136 1308.69678,316.621094 C1316.63139,326.875051 1327.76002,332.001953 1342.08301,332.001953 C1357.62671,332.001953 1370.32189,327.0785 1380.16895,317.231445 L1380.16895,270.966797 L1341.22852,270.966797 L1341.22852,257.905273 L1394.20703,257.905273 L1394.20703,321.870117 Z M1446.45312,342.5 L1432.78125,342.5 L1432.78125,155 L1446.45312,155 L1446.45312,342.5 Z M1553.75293,342.5 C1552.53222,338.268208 1551.71843,332.164753 1551.31152,324.189453 C1547.24249,330.781283 1542.01387,335.88784 1535.62549,339.509277 C1529.23711,343.130715 1522.29952,344.941406 1514.8125,344.941406 C1503.41921,344.941406 1494.54886,341.72692 1488.20117,335.297852 C1481.85348,328.868783 1478.67969,319.713601 1478.67969,307.832031 C1478.67969,294.892513 1483.09452,284.63871 1491.92432,277.070312 C1500.75411,269.501915 1512.94068,265.677084 1528.48438,265.595703 L1551.18945,265.595703 L1551.18945,247.163086 C1551.18945,237.722935 1548.8498,230.9481 1544.17041,226.838379 C1539.49102,222.728658 1532.63481,220.673828 1523.60156,220.673828 C1515.21936,220.673828 1508.3428,223.11521 1502.97168,227.998047 C1497.60056,232.880884 1494.91504,239.187787 1494.91504,246.918945 L1481.36523,246.796875 C1481.36523,235.973253 1485.4342,226.797726 1493.57227,219.27002 C1501.71033,211.742313 1511.92344,207.978516 1524.21191,207.978516 C1537.47695,207.978516 1547.52731,211.315071 1554.36328,217.988281 C1561.19925,224.661492 1564.61719,234.386329 1564.61719,247.163086 L1564.61719,311.982422 C1564.61719,324.92194 1565.79719,334.606088 1568.15723,341.035156 L1568.15723,342.5 L1553.75293,342.5 Z M1516.52148,331.879883 C1524.49678,331.879883 1531.55645,329.804708 1537.70068,325.654297 C1543.84492,321.503885 1548.34113,315.970087 1551.18945,309.052734 L1551.18945,276.948242 L1529.70508,276.948242 C1517.33522,277.111003 1508.01728,279.857558 1501.75098,285.187988 C1495.48467,290.518419 1492.35156,297.70015 1492.35156,306.733398 C1492.35156,323.497805 1500.40812,331.879883 1516.52148,331.879883 Z M1667.64453,310.029297 C1667.64453,304.332654 1665.28453,299.348166 1660.56445,295.075684 C1655.84438,290.803201 1647.84885,286.123886 1636.57764,281.037598 C1625.30642,275.951309 1617.43297,271.719581 1612.95703,268.342285 C1608.4811,264.96499 1605.18523,261.282572 1603.06934,257.294922 C1600.95344,253.307272 1599.89551,248.587267 1599.89551,243.134766 C1599.89551,232.962189 1603.55758,224.559766 1610.88184,217.927246 C1618.20609,211.294726 1627.68679,207.978516 1639.32422,207.978516 C1651.85683,207.978516 1661.8665,211.518519 1669.35352,218.598633 C1676.84053,225.678746 1680.58398,235.037377 1680.58398,246.674805 L1667.03418,246.674805 C1667.03418,239.187788 1664.47073,232.982609 1659.34375,228.059082 C1654.21677,223.135555 1647.54366,220.673828 1639.32422,220.673828 C1631.34892,220.673828 1625.02167,222.708313 1620.34229,226.777344 C1615.6629,230.846375 1613.32324,236.136035 1613.32324,242.646484 C1613.32324,247.936224 1615.11359,252.249332 1618.69434,255.585938 C1622.27508,258.922543 1630.00613,263.439099 1641.8877,269.135742 C1654.17617,274.506863 1662.63963,278.94204 1667.27832,282.441406 C1671.91702,285.940773 1675.41633,289.826639 1677.77637,294.099121 C1680.13641,298.371603 1681.31641,303.437471 1681.31641,309.296875 C1681.31641,320.201877 1677.53226,328.868783 1669.96387,335.297852 C1662.39547,341.72692 1652.42649,344.941406 1640.05664,344.941406 C1626.95436,344.941406 1616.3547,341.360713 1608.25732,334.199219 C1600.15995,327.037725 1596.11133,317.801163 1596.11133,306.489258 L1609.7832,306.489258 C1610.19011,314.7087 1612.93666,321.076638 1618.02295,325.593262 C1623.10924,330.109886 1630.45373,332.368164 1640.05664,332.368164 C1648.35746,332.368164 1655.03057,330.333679 1660.07617,326.264648 C1665.12177,322.195618 1667.64453,316.783888 1667.64453,310.029297 Z M1779.2168,310.029297 C1779.2168,304.332654 1776.85679,299.348166 1772.13672,295.075684 C1767.41664,290.803201 1759.42112,286.123886 1748.1499,281.037598 C1736.87869,275.951309 1729.00523,271.719581 1724.5293,268.342285 C1720.05336,264.96499 1716.7575,261.282572 1714.6416,257.294922 C1712.52571,253.307272 1711.46777,248.587267 1711.46777,243.134766 C1711.46777,232.962189 1715.12985,224.559766 1722.4541,217.927246 C1729.77836,211.294726 1739.25906,207.978516 1750.89648,207.978516 C1763.4291,207.978516 1773.43876,211.518519 1780.92578,218.598633 C1788.4128,225.678746 1792.15625,235.037377 1792.15625,246.674805 L1778.60645,246.674805 C1778.60645,239.187788 1776.04299,232.982609 1770.91602,228.059082 C1765.78904,223.135555 1759.11593,220.673828 1750.89648,220.673828 C1742.92118,220.673828 1736.59394,222.708313 1731.91455,226.777344 C1727.23517,230.846375 1724.89551,236.136035 1724.89551,242.646484 C1724.89551,247.936224 1726.68585,252.249332 1730.2666,255.585938 C1733.84735,258.922543 1741.57839,263.439099 1753.45996,269.135742 C1765.74843,274.506863 1774.21189,278.94204 1778.85059,282.441406 C1783.48928,285.940773 1786.98859,289.826639 1789.34863,294.099121 C1791.70867,298.371603 1792.88867,303.437471 1792.88867,309.296875 C1792.88867,320.201877 1789.10453,328.868783 1781.53613,335.297852 C1773.96774,341.72692 1763.99876,344.941406 1751.62891,344.941406 C1738.52663,344.941406 1727.92696,341.360713 1719.82959,334.199219 C1711.73222,327.037725 1707.68359,317.801163 1707.68359,306.489258 L1721.35547,306.489258 C1721.76237,314.7087 1724.50893,321.076638 1729.59521,325.593262 C1734.6815,330.109886 1742.02599,332.368164 1751.62891,332.368164 C1759.92973,332.368164 1766.60284,330.333679 1771.64844,326.264648 C1776.69404,322.195618 1779.2168,316.783888 1779.2168,310.029297 Z" id="Storm-Glass" fill="#323B47"></path></g></svg> 