<svg xmlns="http://www.w3.org/2000/svg" id="Type" viewBox="0 0 251.82 92.69"><defs><style>.cls-1{fill:#5a5f5f;}.cls-2{fill:#b2def9;}.cls-3{fill:#0091eb;}</style></defs><title>CTI_OT_Primary_Logo_RGB</title><path class="cls-1" d="M128.76 43.8a1.33 1.33 0 0 1 1.33-1.36 1.35 1.35 0 0 1 1.36 1.36v.73a4.7 4.7 0 0 1 4-2.2c2.76 0 5.45 2.18 5.45 6.1 0 3.89-2.67 6.1-5.45 6.1a4.8 4.8 0 0 1-4-2.07v4.16a1.35 1.35 0 0 1-2.69 0V43.8zm9.41 4.67a3.48 3.48 0 0 0-3.36-3.76 3.54 3.54 0 0 0-3.43 3.76 3.54 3.54 0 0 0 3.43 3.76 3.44 3.44 0 0 0 3.36-3.76zM148.38 54.59a5.86 5.86 0 0 1-6-6.1 5.83 5.83 0 0 1 5.74-6.12 5.56 5.56 0 0 1 5.58 5.78 1.26 1.26 0 0 1-1.27 1.29H145a3.28 3.28 0 0 0 3.38 3 4.22 4.22 0 0 0 2.78-1 1 1 0 0 1 .69-.24 1.06 1.06 0 0 1 1.15 1.01 1.17 1.17 0 0 1-.36.82 6 6 0 0 1-4.26 1.56zm2.67-7c-.18-1.74-1.2-3.09-3-3.09s-2.8 1.27-3 3.09h6zM155.37 43.8a1.33 1.33 0 0 1 1.33-1.36 1.35 1.35 0 0 1 1.36 1.36v.58a4.26 4.26 0 0 1 3.67-2c2.65 0 4.18 1.78 4.18 4.49v6.23a1.31 1.31 0 0 1-1.33 1.33 1.33 1.33 0 0 1-1.36-1.33v-5.45c0-1.82-.91-2.87-2.51-2.87a2.61 2.61 0 0 0-2.65 2.91v5.41a1.35 1.35 0 0 1-2.69 0v-9.3zM179.33 41.29h-3.78a1.27 1.27 0 1 1 0-2.54h10.35a1.27 1.27 0 0 1 0 2.54h-3.8v11.79a1.38 1.38 0 0 1-2.76 0V41.29zM186.32 50.94c0-2.54 2-3.78 4.85-3.78a9.82 9.82 0 0 1 3.16.49v-.33c0-1.67-1-2.56-2.91-2.56a7 7 0 0 0-2.6.47 1.52 1.52 0 0 1-.42.07 1.12 1.12 0 0 1-1.13-1.11 1.18 1.18 0 0 1 .73-1.07 10.07 10.07 0 0 1 3.78-.69 5.26 5.26 0 0 1 3.89 1.31 4.87 4.87 0 0 1 1.27 3.63v5.79a1.28 1.28 0 0 1-1.31 1.29 1.22 1.22 0 0 1-1.31-1.13v-.46a4.77 4.77 0 0 1-3.83 1.71c-2.21 0-4.17-1.27-4.17-3.63zm8.05-.85v-.79a7.46 7.46 0 0 0-2.67-.47c-1.74 0-2.76.73-2.76 2 0 1.13 1 1.78 2.29 1.78 1.77 0 3.14-1.02 3.14-2.51zM199.29 43.8a1.33 1.33 0 0 1 1.33-1.36A1.35 1.35 0 0 1 202 43.8V45c.62-1.47 1.78-2.58 3-2.58a1.25 1.25 0 0 1 1.33 1.33 1.26 1.26 0 0 1-1.12 1.25c-1.91.33-3.23 1.8-3.23 4.58v3.52a1.34 1.34 0 0 1-1.36 1.33 1.32 1.32 0 0 1-1.33-1.33v-9.3zM208.48 56.88a1.1 1.1 0 0 1-.76-1.07 1.14 1.14 0 0 1 1.13-1.11 1.06 1.06 0 0 1 .49.11 7.19 7.19 0 0 0 3.6.93c2.4 0 3.71-1.25 3.71-3.6v-.91a4.92 4.92 0 0 1-4.14 2.16 5.28 5.28 0 0 1-5.34-5.5 5.3 5.3 0 0 1 5.34-5.52 5.07 5.07 0 0 1 4.12 2v-.59a1.35 1.35 0 0 1 2.69 0v8.12a6 6 0 0 1-1.49 4.43 6.61 6.61 0 0 1-4.83 1.6 10.15 10.15 0 0 1-4.52-1.05zm8.21-9a3.28 3.28 0 0 0-3.45-3.23 3.17 3.17 0 0 0-3.34 3.23 3.2 3.2 0 0 0 3.34 3.23 3.28 3.28 0 0 0 3.45-3.24zM227.08 54.59a5.86 5.86 0 0 1-6-6.1 5.83 5.83 0 0 1 5.74-6.12 5.56 5.56 0 0 1 5.58 5.78 1.26 1.26 0 0 1-1.27 1.29h-7.36a3.28 3.28 0 0 0 3.38 3 4.22 4.22 0 0 0 2.78-1 1 1 0 0 1 .69-.24 1.06 1.06 0 0 1 1.07 1.09 1.17 1.17 0 0 1-.36.82 6 6 0 0 1-4.25 1.48zm2.67-7c-.18-1.74-1.2-3.09-3-3.09s-2.8 1.27-3 3.09h6zM234.91 51.08v-6.19h-.45a1.16 1.16 0 0 1 0-2.31h.45v-2a1.35 1.35 0 0 1 2.69 0v2h2.11a1.16 1.16 0 1 1 0 2.31h-2.11v5.76a1.28 1.28 0 0 0 1.45 1.47 6.32 6.32 0 0 0 .67-.07 1.13 1.13 0 0 1 1.13 1.11 1.16 1.16 0 0 1-.71 1 5.36 5.36 0 0 1-1.85.31c-1.97.05-3.38-.81-3.38-3.39zM243 53.15a1 1 0 0 1-.51-.93 1.08 1.08 0 0 1 1.09-1.09 1.17 1.17 0 0 1 .58.16 6.2 6.2 0 0 0 3.38 1.14c1.16 0 1.82-.49 1.82-1.27 0-.91-1.25-1.22-2.62-1.65-1.74-.49-3.67-1.2-3.67-3.45 0-2.22 1.85-3.58 4.18-3.58a8.08 8.08 0 0 1 3.69 1 1.14 1.14 0 0 1 .64 1 1.08 1.08 0 0 1-1.11 1.09 1.05 1.05 0 0 1-.53-.13 6.41 6.41 0 0 0-2.76-.8c-1 0-1.65.49-1.65 1.16 0 .87 1.27 1.22 2.65 1.67 1.71.53 3.65 1.31 3.65 3.43 0 2.47-1.91 3.69-4.36 3.69a8 8 0 0 1-4.47-1.44zM110.6 46.58a8.145 8.145 0 0 1 16.29 0 8.145 8.145 0 0 1-16.29 0zm13.42 0a5.34 5.34 0 0 0-5.29-5.58 5.26 5.26 0 0 0-5.25 5.5 5.32 5.32 0 0 0 5.29 5.52 5.24 5.24 0 0 0 5.23-5.44z"/><path class="cls-2" d="M9.92 68.41a9.92 9.92 0 0 1 0-19.84h57.4v19.84H9.92z"/><path class="cls-3" d="M43.58 72.85v9.92a9.92 9.92 0 0 1-19.84 0v-9.92h19.84z"/><path class="cls-2" d="M47.48 19.84V9.92a9.92 9.92 0 1 1 19.84 0v9.92H47.48z"/><path class="cls-3" d="M23.74 24.28h57.4a9.92 9.92 0 1 1 0 19.84h-57.4V24.28z"/></svg>