<svg xmlns="http://www.w3.org/2000/svg" xmlns:xlink="http://www.w3.org/1999/xlink" preserveAspectRatio="xMidYMid" width="277" height="383" viewBox="0 0 277 383">
  <defs>
    <style>
      .cls-1 {
        fill: #fff;
      }

      .cls-1, .cls-2, .cls-3 {
        fill-rule: evenodd;
      }

      .cls-2, .cls-5 {
        fill: #ced4df;
      }

      .cls-3, .cls-4 {
        fill: #2a313a;
      }
    </style>
  </defs>
  <path d="M-0.000,91.000 C-0.000,88.000 -0.000,85.000 -0.000,82.000 C11.581,82.000 23.163,82.000 35.035,82.000 C35.035,73.796 34.971,66.484 35.051,59.174 C35.153,49.882 39.601,44.032 48.539,41.980 C51.352,41.335 51.897,40.074 51.830,37.560 C51.711,33.070 51.627,28.555 51.961,24.082 C52.868,11.956 63.701,1.493 75.415,1.562 C75.461,9.121 74.769,16.907 81.354,22.766 C87.980,28.663 96.152,26.357 103.833,27.229 C103.945,28.829 103.148,37.978 108.105,41.815 C111.157,41.815 114.058,41.815 116.388,41.815 C117.555,33.631 119.102,25.876 119.595,18.054 C119.851,13.996 120.654,11.091 124.264,9.095 C125.852,8.217 127.760,7.267 128.608,5.815 C131.887,0.203 137.157,1.605 142.037,1.571 C143.163,1.562 144.610,1.548 145.364,2.184 C148.837,5.115 152.144,8.244 155.440,11.377 C156.106,12.009 156.825,12.926 156.911,13.774 C157.671,21.190 158.328,28.618 158.933,36.050 C159.089,37.963 158.956,39.899 158.956,41.862 C162.951,41.862 166.214,41.862 168.715,41.862 C170.030,39.091 171.375,36.921 172.097,34.560 C172.886,31.980 173.099,29.224 173.651,26.037 C177.004,26.037 180.461,26.071 183.917,26.030 C194.008,25.913 201.142,19.118 201.765,8.978 C201.949,5.992 201.927,2.993 202.000,-0.000 C203.000,-0.000 204.000,-0.000 205.000,-0.000 C224.975,6.591 227.146,22.538 225.275,39.946 C238.764,43.562 242.091,48.007 242.089,61.514 C242.089,67.790 242.089,74.067 242.089,81.000 C254.109,81.000 265.554,81.000 277.000,81.000 C277.000,83.667 277.000,86.333 277.000,89.000 C276.704,90.285 276.317,91.557 276.128,92.857 C273.706,109.483 271.743,126.192 268.772,142.718 C266.542,155.122 263.113,167.317 260.050,179.563 C258.086,187.412 253.034,192.695 245.465,195.403 C235.112,199.107 222.870,194.614 218.949,185.449 C222.926,185.449 226.721,185.564 230.506,185.424 C237.752,185.157 242.892,180.138 242.772,173.621 C242.651,167.093 237.441,162.257 230.187,162.063 C226.447,161.962 222.703,162.045 218.187,162.045 C224.619,152.321 233.311,150.041 243.118,151.060 C244.489,143.410 244.013,137.250 237.002,132.801 C233.594,130.639 230.931,127.106 228.359,123.855 C216.071,108.328 207.588,91.376 208.950,70.799 C209.242,66.376 208.992,61.917 208.992,57.402 C206.309,57.402 204.265,57.402 201.874,57.402 C201.874,69.742 201.987,81.717 201.767,93.686 C201.730,95.756 200.755,98.199 199.407,99.784 C194.876,105.107 189.769,109.946 185.332,115.340 C183.620,117.422 182.313,120.463 182.203,123.123 C181.825,132.271 182.058,141.445 182.058,150.608 C182.058,154.695 182.058,158.782 182.058,162.764 C198.573,164.721 207.922,172.690 208.330,186.467 C208.942,207.108 208.697,227.782 208.443,248.437 C208.352,255.852 202.980,260.529 195.471,260.983 C194.019,261.070 192.566,261.157 190.901,261.257 C190.901,268.447 190.901,275.330 190.901,282.868 C197.102,282.868 202.998,282.868 209.054,282.868 C210.445,298.428 211.849,313.349 213.054,328.286 C213.300,331.347 214.037,332.828 217.483,333.440 C224.448,334.677 229.767,340.048 229.981,346.582 C230.378,358.709 230.035,370.859 230.000,383.000 C208.667,383.000 187.333,383.000 166.000,383.000 C166.843,357.723 167.685,332.446 168.558,306.275 C161.189,306.275 154.831,306.275 149.190,306.275 C149.190,281.935 149.190,258.457 149.190,234.746 C151.947,234.594 155.032,234.424 158.148,234.253 C158.148,218.620 158.148,203.418 158.148,187.862 C154.309,188.693 149.593,185.337 147.986,191.438 C141.297,191.379 134.609,191.320 127.920,191.261 C126.637,185.975 122.776,188.231 119.393,188.131 C119.393,203.627 119.393,218.830 119.393,234.217 C122.068,234.460 124.455,234.677 126.002,234.818 C126.002,258.983 126.002,282.536 126.002,306.551 C121.597,306.551 116.980,306.551 111.826,306.551 C111.826,309.298 111.793,311.584 111.831,313.869 C112.214,336.913 112.608,359.956 113.000,383.000 C91.667,383.000 70.333,383.000 49.000,383.000 C49.075,372.008 49.100,361.015 49.240,350.024 C49.348,341.546 53.965,335.484 61.716,333.435 C63.116,333.065 64.544,332.796 66.119,332.445 C67.461,317.624 68.941,303.043 70.009,288.432 C70.322,284.136 71.395,282.022 76.126,282.582 C79.535,282.985 83.030,282.660 86.642,282.660 C86.642,275.154 86.642,268.266 86.642,261.297 C85.681,261.178 85.038,261.052 84.390,261.023 C73.443,260.538 69.119,256.060 69.115,245.159 C69.110,226.162 69.104,207.165 69.119,188.168 C69.126,179.971 72.162,172.950 78.911,168.394 C83.185,165.509 88.428,164.060 93.961,161.651 C93.961,155.691 93.990,148.715 93.953,141.739 C93.912,134.083 95.788,125.651 93.176,118.991 C90.563,112.331 83.600,107.278 78.217,101.846 C75.188,98.789 73.932,95.635 74.048,91.303 C74.340,80.359 74.145,69.402 74.145,58.033 C71.837,58.138 70.138,58.215 68.128,58.306 C68.128,63.161 68.228,67.475 68.103,71.784 C67.945,77.258 68.390,82.905 67.199,88.166 C63.032,106.564 53.772,122.365 39.324,134.389 C32.920,139.719 33.396,145.294 34.153,152.146 C44.365,150.944 52.703,153.562 59.070,163.024 C54.813,163.024 51.385,163.001 47.958,163.029 C39.894,163.094 34.573,167.702 34.513,174.641 C34.454,181.572 39.702,186.254 47.783,186.406 C51.325,186.473 54.869,186.417 58.968,186.417 C52.781,195.510 44.094,199.118 34.642,197.133 C25.242,195.159 18.520,188.151 16.683,178.588 C16.026,175.169 15.038,171.816 14.291,168.413 C10.798,152.493 7.044,136.621 3.971,120.619 C2.096,110.852 1.288,100.880 -0.000,91.000 Z" class="cls-1"/>
  <path d="M182.000,129.000 L173.000,139.000 L173.000,174.000 L182.000,163.000 L182.000,129.000 Z" class="cls-2"/>
  <path d="M94.000,129.000 L103.000,139.000 L103.000,174.000 L94.000,163.000 L94.000,129.000 Z" class="cls-2"/>
  <path d="M108.000,361.000 L108.000,377.000 L54.000,377.000 L54.000,361.000 L108.000,361.000 Z" class="cls-2"/>
  <path d="M226.000,361.000 L226.000,377.000 L172.000,377.000 L172.000,361.000 L226.000,361.000 Z" class="cls-2"/>
  <path d="M204.000,87.000 L72.000,87.000 L72.000,102.000 L105.000,140.000 L171.000,140.000 L204.000,102.000 L204.000,87.000 Z" class="cls-3"/>
  <path d="M202.000,42.000 L74.000,42.000 L74.000,97.000 L107.000,135.000 L169.000,135.000 L202.000,97.000 L202.000,42.000 Z" class="cls-2"/>
  <path d="M34.153,152.146 C44.365,150.944 52.703,153.562 59.070,163.024 C54.813,163.024 51.385,163.001 47.958,163.029 C39.894,163.094 34.573,167.702 34.513,174.641 C34.454,181.572 39.702,186.254 47.783,186.406 C51.325,186.473 54.869,186.417 58.968,186.417 C52.781,195.510 44.094,199.118 34.642,197.133 C25.242,195.159 18.520,188.151 16.683,178.588 C16.026,175.169 15.038,171.816 14.291,168.413 C10.798,152.493 7.044,136.621 3.971,120.619 C2.096,110.852 1.288,100.880 -0.000,91.000 C-0.000,88.000 -0.000,85.000 -0.000,82.000 C11.581,82.000 23.163,82.000 35.035,82.000 C35.035,82.000 17.553,121.257 34.153,152.146 Z" class="cls-2"/>
  <path d="M242.883,152.355 C232.682,151.149 224.353,153.774 217.992,163.265 C222.245,163.265 225.669,163.242 229.093,163.269 C237.148,163.335 242.463,167.956 242.523,174.916 C242.583,181.868 237.339,186.564 229.267,186.716 C225.729,186.783 222.189,186.728 218.094,186.728 C224.274,195.848 232.953,199.466 242.394,197.476 C251.784,195.496 258.499,188.467 260.335,178.875 C260.991,175.446 261.978,172.083 262.724,168.670 C266.213,152.702 269.963,136.783 273.032,120.733 C274.906,110.937 275.714,100.936 277.000,91.027 C277.000,88.018 277.000,85.009 277.000,82.000 C265.431,82.000 253.861,82.000 242.002,82.000 C242.002,82.000 259.465,121.374 242.883,152.355 Z" class="cls-2"/>
  <path d="M191.000,264.000 L191.000,234.000 L148.000,234.000 L148.000,229.000 L194.000,229.000 L194.000,264.000 L191.000,264.000 Z" class="cls-3"/>
  <path d="M87.000,263.000 L87.000,234.000 L130.000,234.000 L130.000,229.000 L84.000,229.000 L84.000,263.000 L87.000,263.000 Z" class="cls-3"/>
  <path d="M191.000,281.000 L191.000,306.000 L148.000,306.000 L148.000,311.000 L194.000,311.000 L194.000,281.000 L191.000,281.000 Z" class="cls-3"/>
  <path d="M87.000,281.000 L87.000,306.000 L128.000,306.000 L128.000,311.000 L84.000,311.000 L84.000,281.000 L87.000,281.000 Z" class="cls-3"/>
  <path d="M158.000,160.000 L119.000,160.000 L129.000,194.000 L149.000,194.000 L158.000,160.000 Z" class="cls-2"/>
  <circle cx="224" cy="57" r="9" class="cls-4"/>
  <circle cx="189" cy="183" r="9" class="cls-5"/>
  <circle cx="86" cy="183" r="9" class="cls-5"/>
  <circle cx="52" cy="57" r="9" class="cls-4"/>
  <circle cx="139" cy="118" r="11" class="cls-4"/>
  <circle cx="139" cy="118" r="5" class="cls-5"/>
  <circle cx="26" cy="175" r="4" class="cls-4"/>
  <circle cx="252" cy="175" r="4" class="cls-4"/>
  <circle cx="268" cy="90" r="4" class="cls-4"/>
  <circle cx="9" cy="90" r="4" class="cls-4"/>
  <rect x="92" y="53" width="33" height="4" class="cls-4"/>
  <rect x="92" y="63" width="33" height="4" class="cls-4"/>
  <rect x="92" y="72" width="33" height="4" class="cls-4"/>
  <path d="M92.000,80.000 L125.000,80.000 L125.000,84.000 L96.008,84.000 L92.000,80.000 Z" class="cls-3"/>
  <path d="M99.000,89.000 L125.000,89.000 L125.000,93.000 L103.008,93.000 L99.000,89.000 Z" class="cls-3"/>
  <path d="M106.000,98.000 L125.000,98.000 L125.000,102.000 L110.008,102.000 L106.000,98.000 Z" class="cls-3"/>
  <rect x="153" y="53" width="33" height="4" class="cls-4"/>
  <rect x="153" y="63" width="33" height="4" class="cls-4"/>
  <rect x="153" y="72" width="33" height="4" class="cls-4"/>
  <path d="M186.000,80.000 L153.000,80.000 L153.000,84.000 L181.992,84.000 L186.000,80.000 Z" class="cls-3"/>
  <path d="M179.000,89.000 L153.000,89.000 L153.000,93.000 L174.992,93.000 L179.000,89.000 Z" class="cls-3"/>
  <path d="M172.000,98.000 L153.000,98.000 L153.000,102.000 L167.992,102.000 L172.000,98.000 Z" class="cls-3"/>
  <rect x="153" y="244" width="34" height="5" class="cls-4"/>
  <rect x="153" y="257" width="34" height="5" class="cls-4"/>
  <rect x="153" y="280" width="34" height="5" class="cls-4"/>
  <rect x="153" y="293" width="34" height="5" class="cls-4"/>
  <rect x="89" y="244" width="34" height="5" class="cls-4"/>
  <rect x="89" y="257" width="34" height="5" class="cls-4"/>
  <rect x="89" y="280" width="34" height="5" class="cls-4"/>
  <rect x="89" y="293" width="34" height="5" class="cls-4"/>
</svg>
