<?xml version="1.0" encoding="utf-8"?>
<!-- Generator: Adobe Illustrator 18.1.1, SVG Export Plug-In . SVG Version: 6.00 Build 0)  -->
<svg version="1.1" id="Layer_1" xmlns="http://www.w3.org/2000/svg" xmlns:xlink="http://www.w3.org/1999/xlink" x="0px" y="0px"
	 viewBox="0 96 1500 558" enable-background="new 0 96 1500 558" xml:space="preserve">
<g>
	<path fill="#ffffff" d="M1407.5,319.5c-45.1,0-81,33.2-82.3,79.6c0,45.1,35.8,79.6,82.3,79.6s82.3-33.2,82.3-79.6
		C1488.4,352.7,1452.6,319.5,1407.5,319.5z M1407.5,436.3c-19.9,0-35.8-17.3-35.8-38.5s14.6-38.5,35.8-38.5
		c21.2,0,35.8,17.3,35.8,38.5C1443.3,420.4,1427.4,436.3,1407.5,436.3z"/>
	<path fill="#ffffff" d="M662.8,319.5c-43.8,0-79.6,33.2-82.3,79.6c0,45.1,35.8,79.6,82.3,79.6s82.3-33.2,82.3-79.6
		C743.7,352.7,707.9,319.5,662.8,319.5z M662.8,436.3c-18.6,0-35.8-17.3-35.8-38.5s14.6-38.5,35.8-38.5s35.8,17.3,35.8,38.5
		C698.6,420.4,682.7,436.3,662.8,436.3z"/>
	<path fill="#ffffff" d="M1139.3,423c-17.3,0-27.9,11.9-26.5,26.5c0,14.6,11.9,26.5,26.5,26.5s26.5-11.9,26.5-26.5
		C1165.9,435,1153.9,423,1139.3,423z"/>
	<rect x="11" y="324.8" fill="#ffffff" width="45.1" height="152.7"/>
	<rect x="11" y="259.7" fill="#ffffff" width="45.1" height="41.2"/>
	<rect x="1238.9" y="324.8" fill="#ffffff" width="45.1" height="152.7"/>
	<rect x="1238.9" y="259.7" fill="#ffffff" width="45.1" height="41.2"/>
	<path fill="#ffffff" d="M466.3,324.8C465,324.8,465,324.8,466.3,324.8c-1.3,0-1.3,0-2.7,0c-15.9,0-29.2,6.6-37.2,11.9v-9.3h-2.7
		h-42.5h-2.7v211.1h2.7h42.5h2.7v-67.7c8,6.6,21.2,11.9,37.2,11.9h1.3c0,0,0,0,1.3,0s1.3,0,2.7,0c2.7,0,4,0,6.6,0
		c37.2-4,66.4-34.5,67.7-78.3C542,356.6,506.1,324.8,466.3,324.8z M425.2,403.1c0-22.6,14.6-39.8,35.8-39.8
		c21.2,0,35.8,17.3,35.8,39.8s-15.9,39.8-35.8,39.8C439.8,441.6,425.2,425.7,425.2,403.1z"/>
	<polygon fill="#ffffff" points="788.9,477.4 832.7,477.4 831.4,364.6 876.5,364.6 876.5,324.8 788.9,324.8 	"/>
	<polygon fill="#ffffff" points="997.3,283.6 950.8,283.6 950.8,327.4 924.3,327.4 924.3,367.3 950.8,367.3 950.8,477.4 
		1033.1,477.4 1033.1,437.6 993.3,437.6 993.3,367.3 1037.1,367.3 1037.1,327.4 997.3,327.4 	"/>
	<polygon fill="#ffffff" points="332.2,476.1 332.2,326.1 99.9,326.1 99.9,478.8 145.1,478.8 145.1,367.3 195.5,367.3 195.5,478.8 
		239.3,478.8 239.3,367.3 289.8,367.3 289.8,477.4 334.9,477.4 334.9,476.1 	"/>
</g>
</svg>
