<svg width="685" height="237" fill="none" xmlns="http://www.w3.org/2000/svg"><path d="M311.483 89.918h5.959V48.206h17.025V43.1h-39.726v5.107h16.742v41.712zm160.036-46.819h-8.229l-23.551 19.579v-19.58h-5.959v46.82h5.959V66.934l24.402 22.7.284.284h8.513l-27.241-25.254 25.822-21.565zm32.064 25.254h24.119v-5.108h-24.119V48.206h25.538V43.1h-31.497v46.819h32.632V84.81h-26.673V68.353zm96.191 21.565v-46.82h-5.675v38.875l-29.51-38.874h-6.81v46.819h5.675V51.044l29.51 38.874h6.81zm-279.495 76.329l-17.876-19.863h-7.662v46.819h5.675v-39.441l18.444 20.43h2.838l18.16-20.146v39.157h5.675v-46.819h-7.378l-17.876 19.863zm61.575 5.391h24.118v-5.107h-24.118v-15.039h25.821v-5.108h-31.78v46.819h32.915v-5.107h-26.956v-16.458zm48.237-20.146h17.025v41.711h5.675v-41.711h17.025v-5.108h-39.725v5.108zm87.68 19.011c1.418-.567 3.121-1.135 4.256-1.986 1.419-.851 2.27-2.27 3.405-3.689.851-1.419 1.419-3.405 1.419-5.675 0-1.986-.284-3.972-1.135-5.391-.852-1.419-1.703-2.554-2.838-3.689-1.135-.851-2.554-1.702-3.972-2.27-1.419-.567-2.838-.851-3.973-1.135-1.135-.284-2.554-.284-3.689-.284H495.07v46.819h5.959v-21.565h7.661l13.904 21.282.284.283h6.81l-14.471-22.132c.283 0 1.419-.284 2.554-.568zm2.553-9.08c-.283.851-.851 1.703-1.418 2.27-.852.851-1.987 1.419-3.406 1.986-1.418.568-3.405.852-5.675.852h-9.08v-15.039h9.08c2.27 0 4.257.284 5.675.851 1.419.568 2.554 1.135 3.406 1.986.851.852 1.418 1.419 1.418 2.27.284.852.568 1.703.568 2.271 0 .851-.284 1.702-.568 2.553zm42.846-15.039h-5.958v46.819h5.958v-46.819zm118.892 27.524c-1.418-1.702-3.121-3.121-4.823-3.973-1.987-.851-3.973-1.702-6.243-2.27-2.27-.567-4.256-1.134-5.959-1.702-1.702-.567-3.405-1.702-4.54-2.837-1.135-1.135-1.702-2.838-1.702-4.824 0-1.419.284-2.554.851-3.405.568-.852 1.419-1.703 2.27-2.554a9.461 9.461 0 013.405-1.419c1.419-.284 2.554-.567 3.972-.567 1.987 0 3.689.283 5.392 1.135 1.419.567 2.837 1.702 3.972 3.121l.284.567 5.108-3.405-.568-.567c-1.702-2.27-3.972-3.689-6.242-4.54s-5.108-1.419-7.662-1.419c-2.27 0-4.256.284-6.242.851-1.987.568-3.689 1.419-5.392 2.554-1.418 1.135-2.837 2.554-3.688 4.256-.852 1.703-1.419 3.689-1.419 5.675 0 2.27.284 4.257 1.135 5.675.851 1.419 1.702 2.838 3.121 3.973 1.135 1.135 2.554 1.702 4.256 2.554 1.419.567 3.122 1.135 4.824 1.702 1.703.568 3.122.852 4.824 1.419 1.419.568 2.837 1.135 3.972 1.703a6.692 6.692 0 012.554 2.269c.568.852.852 1.987.852 3.689 0 1.135-.284 2.27-.852 3.405a6.686 6.686 0 01-2.27 2.554c-.851.851-1.986 1.419-3.405 1.703-1.418.283-2.553.567-4.256.567-2.27 0-4.54-.567-6.243-1.419-1.702-.851-3.404-2.27-4.54-3.972l-.283-.568-5.675 3.405.567.568c1.986 2.554 4.54 4.54 7.378 5.391 2.837 1.135 5.959 1.703 9.364 1.703 1.986 0 3.972-.284 5.958-.852 1.987-.567 3.689-1.418 5.108-2.553 1.419-1.135 2.837-2.554 3.689-4.257.851-1.702 1.418-3.688 1.418-5.675-.283-3.688-1.135-5.958-2.27-7.661zM407.107 66.366c0-13.62-11.066-24.686-24.686-24.686s-24.687 11.066-24.687 24.686 11.067 24.687 24.687 24.687c13.62 0 24.686-11.067 24.686-24.687zm-5.675 0c0 10.499-8.512 19.012-19.011 19.012-10.499 0-19.011-8.513-19.011-19.012s8.512-19.011 19.011-19.011c10.499 0 19.011 8.512 19.011 19.011zm211.395 84.275c5.107 0 9.931 1.986 13.62 5.958l.567.568 3.973-3.972-.567-.568c-4.824-4.824-11.067-7.661-17.593-7.661-13.62 0-24.686 11.066-24.686 24.686s11.066 24.687 24.686 24.687c6.81 0 13.053-2.554 17.593-7.662l.567-.567-3.973-3.973-.567.568c-3.689 3.688-8.513 5.959-13.62 5.959-10.499 0-19.011-8.513-19.011-19.012s8.512-19.011 19.011-19.011zm-375.289-7.62c-1.082-1.694-2.722-5.386-2.584-12.033a114.166 114.166 0 00-4.203-48.269 113.306 113.306 0 00-8.786-21.042c-.148-.268-3.591-6.629-1.106-13.757a8.456 8.456 0 00-2.67-9.379l-.298-.2c-13.854-7.775-26.544-18-37.753-30.42l-.249-.236c-2.527-2.034-6.021-2.338-9.124-.787-3.53 1.765-8.161 1.992-13.722.686C145.686 3.88 133.808 2 121.726 2c-.949 0-1.893.072-2.84.095C123.194 55.674 35 145.5 45.416 210.873l42.356 21.682c.929.414 1.407 3.444 2.444 3.444 1.91 0 3.854-.74 5.474-2.086 1.21-1.004 5.743-4.287 13.27-4.335 4.26.476 8.555.721 12.836.724.055 0 .108-.003.163-.003.113 0 .223.004.336.004 24.373 0 47.81-7.825 67.105-21.98 3.742-2.273 8.352-4.211 11.671-3.758 3.588.464 7.14-1.319 9.053-4.601l.14-.292c6.549-16.47 15.729-32.206 27.312-46.806l.17-.254c1.744-2.986 1.663-6.661-.208-9.591z" fill="#fff"/><path d="M117.257 132.091l-6.699 30.022s-13.519-.213-32.83 10.545c-20.518 11.429-29.81 23.523-31.275 40.862a7.315 7.315 0 002.026 1.575l.356.143c14.04 4.343 27.393 11.313 39.728 20.748l.313.195c.122.064.256.087.38.144l10.516-7.568c18.291-15.802 23.74-61.231 25.109-108.682l-7.624 12.016z" fill="#CEEAF5"/><path d="M239.028 143.142c-1.078-1.71-2.713-5.436-2.575-12.147.599-4.805.915-9.656.915-14.543 0-11.759-1.756-23.252-5.104-34.183a115.152 115.152 0 00-8.755-21.244c-.148-.269-3.579-6.69-1.102-13.887 1.172-3.409.121-7.2-2.661-9.468l-.297-.2c-13.804-7.85-26.451-18.17-37.621-30.71l-.249-.239c-2.518-2.051-6-2.359-9.092-.794-3.517 1.782-8.132 2.012-13.673.694C147.495 2.679 135.658.78 123.618.78a112.127 112.127 0 00-30.469 4.206l-.194.032c-.384.074-3.864.633-7.059-2.816C83.89.04 81.041-.607 78.752.621l-.378.261c-6.79 5.803-14.77 10.078-23.78 12.73l-.404.168c-2.08 1.116-3.117 3.57-2.709 6.405.293 2.04.838 5.836-1.235 7.848l-.08.091a115.28 115.28 0 00-34.535 52.04l-.11.269c-.021.058-2.113 5.795-9.09 7.656-3.466.924-5.824 3.626-5.865 6.727l-.004.262.051.26c2.426 12.281 2.249 25.021-.54 37.921l-.047.437c-.04 2.87 1.963 5.425 5.227 6.668 2.733 1.04 7.308 2.783 9.21 7.702 4.851 17.028 13.72 32.956 25.623 46.034l.12.148c.008.01.176.218.397.509.621-.777 5.594-.694 6.236-1.454 0 0-3.257-5.182 3.492-11.622 16.355-15.61 36.228-26.331 60.228-28.987 3.387-.374 3.51-12.791 4.943-13.599 1.169-.659 3.378-1.44 7.988-1.44 4.093 0 7.23 1.066 8.319 2.256 2.254 2.463.611 12.511 4.045 12.911 25.021 2.92 45.435 14.04 63.26 31.436 5.666 5.529-2.772 14.051-2.772 14.051 1.295 1.711 8.912 3.935 14.172 3.935a9.81 9.81 0 001.195-1.618l.14-.295c6.526-16.627 15.674-32.512 27.217-47.251l.17-.255a9.355 9.355 0 00-.208-9.683" fill="#FCE183"/><path d="M124.805.805c-.396-.005-.79-.024-1.187-.024A112.072 112.072 0 0093.15 4.987l-.194.032c-.385.074-3.865.633-7.06-2.817C83.89.04 81.04-.608 78.752.62l-.379.262c-6.79 5.803-14.768 10.078-23.78 12.73l-.403.168c-2.08 1.116-3.117 3.57-2.71 6.405.294 2.04.84 5.836-1.235 7.848l-.079.091a115.277 115.277 0 00-34.536 52.04l-.11.269c-.02.057-2.113 5.795-9.089 7.656-3.465.923-5.824 3.626-5.866 6.727l-.003.262.052.26c2.426 12.281 2.247 25.021-.54 37.921l-.048.437c-.04 2.87 1.963 5.425 5.226 6.668 2.734 1.039 7.308 2.783 9.211 7.702 4.852 17.028 13.72 32.956 25.622 46.033l.121.149c.009.01.176.218.396.509.622-.777 5.594-.694 6.236-1.454 0 0-3.256-5.182 3.493-11.622a117.71 117.71 0 0114.14-11.568c-11.585-17.738-18.348-39.002-18.348-61.873 0-50.701 33.163-93.53 78.682-107.435" fill="#FECF34"/><path d="M122.756 30.441c-4.529.227-16.436 30.485-16.436 62.451 0 5.978.361 11.366 1.076 16.013a.346.346 0 00.348.291h16.551c.661-27.9-.27-55.942-1.539-78.755" fill="#CEEAF5"/><path d="M122.809 30.43c-.016 0-.036.01-.053.01 1.269 22.814 2.199 50.855 1.539 78.755h13.579a.345.345 0 00.349-.29c.714-4.648 1.075-10.036 1.075-16.013 0-32.086-11.998-62.461-16.489-62.461m7.47 99.868l6.347-16.154-12.467.009a626.447 626.447 0 01-.697 16.151l6.817-.006z" fill="#fff"/><path d="M109.968 116.635l5.37 13.676 8.125-.006c.301-5.341.53-10.735.697-16.151l-15.185.012.993 2.469z" fill="#CEEAF5"/><path d="M45.655 112.315c-3.25 3.296-3.25 8.657 0 11.953a8.262 8.262 0 0011.785 0c3.248-3.296 3.248-8.657 0-11.953a8.26 8.26 0 00-11.785 0m162.368 20.814a6.066 6.066 0 00-4.719.404 6.23 6.23 0 00-3.055 3.67c-1.035 3.299.767 6.837 4.018 7.885 2.213.716 4.612.121 6.259-1.55a6.287 6.287 0 001.514-2.524 6.318 6.318 0 00-.399-4.788 6.169 6.169 0 00-3.618-3.097M186.119 60.27a8.76 8.76 0 00-2.687-.474 8.765 8.765 0 00-4.07.935c-2.12 1.063-3.702 2.901-4.46 5.172a9.036 9.036 0 00.455 6.855 8.829 8.829 0 005.1 4.518 8.675 8.675 0 006.757-.455 8.894 8.894 0 002.341-1.701 8.976 8.976 0 002.118-3.472 9.038 9.038 0 00-.454-6.854 8.831 8.831 0 00-5.1-4.523M79.093 49.216a4.376 4.376 0 00-6.244 0c-1.72 1.745-1.72 4.586.001 6.331a4.374 4.374 0 006.243.002c1.72-1.746 1.72-4.587 0-6.333m43.72 9.397c-5.766 0-10.457 4.757-10.457 10.605 0 5.847 4.691 10.606 10.457 10.606 5.766 0 10.456-4.759 10.456-10.606 0-5.848-4.69-10.605-10.456-10.605" fill="#fff"/><path d="M59.192 135.611c8.183-4.29 12.958-13.404 11.881-22.678a2.464 2.464 0 00-.998-1.708 2.45 2.45 0 00-1.952-.417 2.461 2.461 0 00-1.915 2.709c.838 7.228-2.886 14.333-9.265 17.678a17.12 17.12 0 01-18.929-1.99 2.408 2.408 0 00-3.29.177 2.525 2.525 0 00-.702 1.89c.038.694.36 1.34.885 1.776a22.058 22.058 0 0014.055 5.095c3.533 0 7.07-.877 10.23-2.532m12.383-70.883c2.04.951 4.22 1.434 6.48 1.434 4.095 0 8.1-1.66 10.984-4.553a2.5 2.5 0 00-.16-3.66 2.4 2.4 0 00-3.279.137c-3.142 3.153-7.956 4.015-11.981 2.138-3.88-1.809-6.323-5.766-6.226-10.082.028-1.289-.9-2.371-2.158-2.514a2.403 2.403 0 00-1.896.596 2.478 2.478 0 00-.834 1.8 15.95 15.95 0 003.285 10.069 15.705 15.705 0 005.785 4.635m117.172 17.565c-4.6 2.412-9.805 2.756-14.658.97-1.195-.444-2.498.117-3.035 1.29a2.53 2.53 0 00-.038 2.006 2.478 2.478 0 001.435 1.388 22.809 22.809 0 007.884 1.41c3.674 0 7.36-.917 10.662-2.647 8.234-4.317 13.151-13.156 12.524-22.518a2.53 2.53 0 00-.924-1.786 2.445 2.445 0 00-1.915-.514 2.449 2.449 0 00-2.052 2.61c.503 7.397-3.375 14.38-9.883 17.791m33.916 52.448a3.595 3.595 0 00-.024-.281c-.862-7.025-5.025-12.86-11.137-15.609a2.39 2.39 0 00-1.966.01 2.507 2.507 0 00-1.342 1.524 2.508 2.508 0 001.362 3.027c2.881 1.31 5.174 3.515 6.633 6.38a14.17 14.17 0 01.896 10.744c-1.124 3.584-3.56 6.512-6.856 8.237a13.776 13.776 0 01-11.104.733 2.423 2.423 0 00-3.014 1.235 2.542 2.542 0 00-.073 2.045 2.434 2.434 0 001.416 1.392 18.645 18.645 0 0015.024-.986c6.67-3.497 10.572-10.568 10.185-18.451" fill="#000"/><path fill-rule="evenodd" clip-rule="evenodd" d="M236.428 130.992c-.137 6.71 1.497 10.436 2.575 12.146a9.358 9.358 0 01.208 9.682l-.171.257c-11.542 14.738-20.691 30.623-27.217 47.249l-.14.296c-1.905 3.313-5.444 5.112-9.021 4.645-3.307-.459-7.902 1.499-11.629 3.793-19.229 14.29-42.585 22.188-66.872 22.188l-.169-.002a9.188 9.188 0 00-.248 0l-.082.001a114.436 114.436 0 01-12.79-.73c-7.501.049-12.02 3.362-13.224 4.376-1.615 1.358-3.552 2.105-5.456 2.105a7.086 7.086 0 01-3.316-.809l-.313-.196c-12.336-9.433-25.687-16.405-39.727-20.746l-.357-.143c-2.908-1.518-4.511-4.834-4.136-8.475.694-6.727-4.113-12.329-4.162-12.384l-.12-.15c-11.903-13.077-20.771-29.006-25.623-46.033-1.903-4.92-6.477-6.662-9.211-7.703-3.263-1.242-5.266-3.796-5.226-6.667l.047-.437c2.788-12.9 2.966-25.64.54-37.921l-.051-.26.003-.262c.042-3.1 2.4-5.803 5.866-6.727 6.976-1.86 9.07-7.599 9.089-7.656l.111-.27a115.27 115.27 0 0134.535-52.038l.079-.092c2.074-2.01 1.529-5.805 1.236-7.845v-.002c-.408-2.836.63-5.29 2.708-6.406l.404-.168C63.578 10.956 71.56 6.68 78.35.878l.378-.262C81.015-.61 83.864.036 85.87 2.2c3.196 3.45 6.675 2.89 7.06 2.817l.194-.034A112.112 112.112 0 01123.593.778c12.042 0 23.878 1.898 35.196 5.64 5.542 1.317 10.156 1.087 13.674-.694 3.091-1.565 6.574-1.26 9.091.794l.249.238c11.171 12.54 23.817 22.86 37.622 30.71l.296.2c2.783 2.268 3.835 6.06 2.662 9.469-2.477 7.196.955 13.618 1.101 13.887a115.076 115.076 0 018.756 21.242 116.645 116.645 0 015.103 34.185c0 4.885-.316 9.738-.914 14.543zm-34.91 69.255c.603-.007 1.202.012 1.791.09 1.535.209 3.174-.626 4.063-2.085 6.637-16.887 15.978-33.11 27.716-48.117.692-1.291.631-2.977-.213-4.316-.273-.434-.574-.97-.881-1.603a115.822 115.822 0 01-2.157 7.7 2.439 2.439 0 01-1.228 1.444c-.35.18-.726.268-1.105.268-.268 0-.538-.045-.799-.134l-.001-.001c-1.272-.445-1.943-1.815-1.524-3.121a110.53 110.53 0 004.368-19.864c.024-.919.071-1.869.159-2.878.393-3.865.594-7.771.598-11.619a112.007 112.007 0 00-4.035-29.835 13.918 13.918 0 01-.09-.336 16.025 16.025 0 00-.102-.376 48.66 48.66 0 00-.29-.979c-.055-.18-.111-.362-.164-.543a109.543 109.543 0 00-26.217-44.46c-.934-.962-.94-2.524-.01-3.482.932-.957 2.577-.96 3.499-.007a115.439 115.439 0 0111.81 14.366c.153-1.559.475-3.19 1.051-4.863.465-1.357.09-2.88-.933-3.81-14.151-8.078-27.109-18.657-38.517-31.443-.912-.676-2.347-.734-3.659-.072-1.309.664-2.724 1.146-4.221 1.488 1.95.883 3.876 1.82 5.772 2.817.583.307 1.01.827 1.205 1.468.196.647.13 1.332-.185 1.926a2.416 2.416 0 01-3.285 1.013C158.667 10.862 141.456 6.62 124.161 6.62c-13.605 0-26.862 2.521-39.402 7.496-1.258.502-2.648-.096-3.161-1.361a2.522 2.522 0 01.015-1.933 2.44 2.44 0 011.351-1.333 71.78 71.78 0 012.11-.785l.778-.282A14.34 14.34 0 0182.3 5.604c-.448-.486-.88-.643-1.115-.643h-.008c-7.135 6.018-15.464 10.482-24.758 13.273-.09.168-.206.584-.113 1.23.171 1.194.422 2.958.322 4.88a111.554 111.554 0 019.191-6.288 2.386 2.386 0 011.863-.274 2.45 2.45 0 011.52 1.166 2.485 2.485 0 01-.864 3.37c-28.353 17.34-47.664 47.514-51.66 80.716-.152 1.274-1.188 2.193-2.415 2.193a2.444 2.444 0 01-1.936-.943 2.48 2.48 0 01-.514-1.839 113.55 113.55 0 012.246-12.595c-1.688 1.24-3.789 2.345-6.408 3.044-1.171.311-2.054 1.043-2.192 1.799 2.47 12.753 2.286 25.951-.544 39.237.114.647.901 1.346 1.999 1.763l.005.002c1.642.625 3.987 1.519 6.257 3.126-.546-2.768-1.024-5.553-1.362-8.361a2.47 2.47 0 01.513-1.835 2.431 2.431 0 011.672-.932c1.344-.151 2.517.815 2.681 2.179 3.408 28.276 18.022 54.719 40.093 72.547a2.494 2.494 0 01.426 3.459 2.44 2.44 0 01-1.959.976c-.55 0-1.075-.185-1.51-.536a110.426 110.426 0 01-4.65-3.987c.236 1.515.311 3.128.137 4.815-.156 1.519.34 2.822 1.297 3.424 14.422 4.495 28.135 11.652 40.758 21.273.952.406 2.19.112 3.248-.774.658-.554 2.092-1.65 4.248-2.719a110.94 110.94 0 01-20.206-6.801 2.437 2.437 0 01-1.295-1.39 2.512 2.512 0 01.067-1.93 2.418 2.418 0 013.215-1.223 105.843 105.843 0 0031.089 8.542h.015v.002c4.002.464 8.048.709 12.132.723 22.422-.038 43.85-6.845 62.044-19.696l.666-.465a45.124 45.124 0 011.79-1.173 109.04 109.04 0 0017.904-16.795c.885-1.041 2.389-1.17 3.422-.297.511.432.823 1.042.879 1.717a2.484 2.484 0 01-.582 1.818 114.6 114.6 0 01-8.39 8.865z" fill="#000"/><path d="M145.173 154.35a2.355 2.355 0 00-1.843.379c-.553.38-.923.954-1.043 1.62a2.465 2.465 0 001.94 2.876c19.197 3.912 36.731 13.41 50.706 27.469l.001.001c.477.48 1.09.722 1.704.731a2.404 2.404 0 001.732-.705c.477-.47.741-1.101.743-1.777a2.458 2.458 0 00-.716-1.766c-14.666-14.757-33.07-24.726-53.224-28.828m-39.893 1.578a2.483 2.483 0 00-1.037-1.624 2.39 2.39 0 00-1.847-.386C83.1 157.796 65.293 167.11 50.9 180.853a2.466 2.466 0 00-.763 1.748 2.504 2.504 0 00.697 1.801h.002a2.396 2.396 0 001.766.75 2.443 2.443 0 001.663-.687c13.718-13.094 30.686-21.97 49.074-25.67a2.463 2.463 0 001.941-2.867m67.18 22.555a2.38 2.38 0 00-1.867-.243 2.461 2.461 0 00-1.504 1.199 2.49 2.49 0 00.924 3.35 89.813 89.813 0 0112.343 8.777 2.45 2.45 0 001.586.588c.678 0 1.35-.288 1.833-.852.438-.51.651-1.164.598-1.839a2.461 2.461 0 00-.861-1.699 94.404 94.404 0 00-13.052-9.281m-11.316-1.198c.318.164.652.256.982.277a2.412 2.412 0 002.298-1.297 2.509 2.509 0 00.185-1.93 2.433 2.433 0 00-1.208-1.462 93.236 93.236 0 00-11.361-4.983 2.396 2.396 0 00-1.878.11 2.482 2.482 0 00-1.261 1.459 2.479 2.479 0 001.516 3.123 88.159 88.159 0 0110.727 4.703m-65.996-6.075a2.466 2.466 0 00-1.248-1.467 2.397 2.397 0 00-1.881-.125c-11.437 4.036-21.87 10.209-31.008 18.352a2.458 2.458 0 00-.822 1.721 2.511 2.511 0 00.642 1.824 2.4 2.4 0 001.837.807 2.447 2.447 0 001.59-.628c8.655-7.709 18.53-13.556 29.353-17.374a2.475 2.475 0 001.537-3.11m56.065 10.567a2.379 2.379 0 00-1.884.053 2.503 2.503 0 00-1.303 1.425 2.487 2.487 0 001.428 3.161c8.102 3.213 15.511 7.841 22.021 13.756a2.408 2.408 0 003.425-.134 2.502 2.502 0 00.667-1.82 2.456 2.456 0 00-.802-1.731c-6.965-6.328-14.889-11.278-23.552-14.71m-57.405 3.018a2.465 2.465 0 00-1.381-1.351 2.373 2.373 0 00-1.885.054 77.582 77.582 0 00-19.544 12.987 2.459 2.459 0 00-.803 1.728 2.51 2.51 0 00.668 1.824c.48.519 1.124.782 1.77.782a2.46 2.46 0 001.652-.647 72.663 72.663 0 0118.274-12.142 2.488 2.488 0 001.249-3.235m50.747 8.234a2.357 2.357 0 00-1.878.071 2.5 2.5 0 00.175 4.59 54.46 54.46 0 0116.54 10.148 2.463 2.463 0 001.647.635 2.41 2.41 0 001.778-.784 2.535 2.535 0 00.664-1.832 2.444 2.444 0 00-.815-1.718 59.356 59.356 0 00-18.111-11.11m-25.312-1.241a2.532 2.532 0 00-.927-1.711c-.521-.414-1.171-.604-1.813-.505-11.77 1.598-22.702 6.677-31.617 14.691a2.441 2.441 0 00-.808 1.722 2.548 2.548 0 00.668 1.83 2.406 2.406 0 001.773.778 2.47 2.47 0 001.65-.64c8.166-7.326 18.173-11.976 28.939-13.449a2.476 2.476 0 002.135-2.716m26.459 18.22a40.69 40.69 0 00-22.925-7.035 40.69 40.69 0 00-22.939 7.041 2.558 2.558 0 00-1.078 1.674 2.474 2.474 0 00.443 1.894 2.445 2.445 0 001.972 1.016c.458 0 .92-.133 1.328-.411a35.847 35.847 0 0120.274-6.244c7.262 0 14.27 2.157 20.262 6.238 1.073.731 2.521.46 3.301-.608.4-.549.555-1.219.441-1.891a2.564 2.564 0 00-1.079-1.674m-26.83-68.456a2.425 2.425 0 00-.595-1.791 2.472 2.472 0 00-1.767-.837c-1.308-.081-2.423.943-2.525 2.285-.292 3.705-.966 7.516-2.005 11.328-1.988 7.262-5.263 14.124-9.22 19.329-.811 1.064-.664 2.564.328 3.412l.036.031a2.382 2.382 0 001.822.565 2.419 2.419 0 001.678-.955c4.346-5.708 7.924-13.187 10.076-21.054 1.13-4.133 1.86-8.276 2.172-12.313m-10.282 43.64a2.396 2.396 0 001.84.555 2.45 2.45 0 001.685-.977c3.239-4.332 6.062-9.664 8.164-15.425a2.462 2.462 0 00-.087-1.903 2.486 2.486 0 00-1.434-1.294c-1.263-.434-2.62.23-3.087 1.511-1.933 5.284-4.507 10.157-7.447 14.092-.809 1.08-.647 2.591.365 3.441h.001zm33.621-8.188a2.407 2.407 0 001.837-.562l.001-.002c1.009-.856 1.164-2.367.352-3.444-3.985-5.287-7.287-12.253-9.301-19.616-1.056-3.862-1.745-7.727-2.048-11.487-.109-1.355-1.245-2.373-2.559-2.298a2.46 2.46 0 00-1.734.848 2.44 2.44 0 00-.594 1.807c.325 4.088 1.07 8.28 2.213 12.458 2.177 7.964 5.779 15.536 10.142 21.323a2.44 2.44 0 001.691.973m-3.434 10.548c-4.373-6.429-8.108-14.869-10.514-23.767-1.281-4.737-2.164-9.452-2.625-14.016a2.432 2.432 0 00-2.652-2.201 2.407 2.407 0 00-1.68.882 2.425 2.425 0 00-.545 1.799c.49 4.852 1.422 9.849 2.776 14.849 2.555 9.446 6.547 18.44 11.242 25.328a2.35 2.35 0 001.963 1.037 2.42 2.42 0 001.454-.486l-.364-.498.413.464c1.054-.793 1.287-2.282.532-3.391" fill="#000"/><path fill-rule="evenodd" clip-rule="evenodd" d="M122.814 79.823c-5.766 0-10.458-4.757-10.458-10.605 0-5.849 4.692-10.605 10.458-10.605 5.765 0 10.455 4.757 10.455 10.605 0 5.847-4.69 10.605-10.455 10.605zm0-4.97c3.062 0 5.554-2.527 5.554-5.635 0-3.107-2.492-5.634-5.554-5.634-3.064 0-5.556 2.527-5.556 5.633 0 3.109 2.492 5.636 5.556 5.636zM60.991 115.57c0 6.783-5.44 12.3-12.127 12.3-6.686 0-12.127-5.517-12.127-12.3 0-6.782 5.44-12.301 12.127-12.301 6.688 0 12.127 5.519 12.127 12.301zm-12.127-7.329c-3.984 0-7.225 3.288-7.225 7.329s3.241 7.33 7.225 7.33c3.984 0 7.227-3.289 7.227-7.33s-3.243-7.329-7.227-7.329zm145.45 32.751c-2.571-5.043-.616-11.272 4.36-13.88a9.976 9.976 0 017.743-.664c2.586.835 4.694 2.642 5.941 5.084a10.381 10.381 0 01.655 7.857c-.825 2.621-2.605 4.761-5.015 6.024a10.04 10.04 0 01-4.646 1.149c-3.824 0-7.288-2.134-9.038-5.57zm13.69-7.177a5.24 5.24 0 00-3.074-2.631 5.134 5.134 0 00-4.008.344 5.274 5.274 0 00-2.591 3.118 5.359 5.359 0 00.336 4.063c1.331 2.609 4.506 3.635 7.083 2.288a5.279 5.279 0 002.593-3.118 5.363 5.363 0 00-.339-4.064zM180.337 79c-1.405 0-2.816-.232-4.186-.701-3.293-1.128-5.959-3.494-7.506-6.663a13.307 13.307 0 01-.673-10.098c1.113-3.345 3.445-6.052 6.567-7.62a12.789 12.789 0 019.957-.678 13.048 13.048 0 015.2 3.327c.93.976 1.707 2.097 2.312 3.335a13.304 13.304 0 01.668 10.1c-1.114 3.345-3.446 6.051-6.567 7.62A12.847 12.847 0 01180.337 79zm-3.624-20.627a8.168 8.168 0 00-4.1 4.755 8.328 8.328 0 001.868 8.386 8.042 8.042 0 003.239 2.076 7.974 7.974 0 006.215-.423 8.166 8.166 0 004.099-4.757 8.318 8.318 0 00-.417-6.304 8.116 8.116 0 00-4.689-4.157 7.985 7.985 0 00-6.215.424zm-90.7-8.353c0 4.31-3.46 7.819-7.711 7.819-4.252 0-7.712-3.509-7.712-7.82 0-4.312 3.46-7.821 7.712-7.821 4.251 0 7.711 3.509 7.711 7.821zm-7.711-3.425c-1.861 0-3.375 1.537-3.375 3.424 0 1.888 1.514 3.424 3.375 3.424 1.863 0 3.377-1.536 3.377-3.424 0-1.887-1.514-3.424-3.377-3.424z" fill="#000"/><path fill-rule="evenodd" clip-rule="evenodd" d="M98.352 144.19a2.285 2.285 0 01-2.327-.035 2.369 2.369 0 01-1.155-2.051v-24.351c0-1.601.843-3.107 2.197-3.929l4.86-2.944a1.32 1.32 0 00.615-1.338c-.744-4.887-1.122-10.489-1.122-16.65 0-28.82 10.576-67.431 21.389-67.431 6.436 0 11.564 12.615 14.736 23.198 4.166 13.911 6.654 30.447 6.654 44.234 0 6.158-.379 11.76-1.122 16.646-.082.537.16 1.063.614 1.339l4.866 2.946a4.615 4.615 0 012.197 3.929v24.351a2.37 2.37 0 01-2.348 2.386c-.388 0-.777-.1-1.134-.3l-14.466-8.09a6.548 6.548 0 00-3.18-.83h-13.628a6.538 6.538 0 00-3.18.831l-14.466 8.089zm36.732-12.663l6.294-16.029a.175.175 0 01.103-.101.158.158 0 01.139.017l2.712 1.642a3.19 3.19 0 011.521 2.717l-.019 17.915a.033.033 0 01-.038.002l-10.64-5.951a.17.17 0 01-.072-.212zm-24.601.205l-10.713 5.924v-17.883a3.19 3.19 0 011.522-2.717l2.732-1.655a.144.144 0 01.123-.014c.029.01.069.034.09.085l6.311 16.074a.151.151 0 01-.065.186zm26.142-17.588l-6.347 16.156-14.939.011-5.371-13.676-.993-2.469 27.65-.022zm1.249-4.949a.344.344 0 00.348-.289c.714-4.649 1.076-10.035 1.076-16.013 0-32.087-11.999-62.462-16.489-62.462S106.32 60.806 106.32 92.893c0 5.978.361 11.364 1.076 16.013a.345.345 0 00.348.289h30.13z" fill="#000"/><path d="M135.084 131.527l6.294-16.03a.177.177 0 01.104-.1.157.157 0 01.139.016l2.711 1.642a3.192 3.192 0 011.521 2.718l-.019 17.915a.035.035 0 01-.037.002l-10.641-5.952a.17.17 0 01-.072-.211" fill="#fff"/><path d="M110.483 131.731l-10.713 5.924v-17.882c0-1.107.584-2.149 1.522-2.718l2.732-1.655a.147.147 0 01.123-.013c.029.01.069.033.09.085l6.311 16.074a.15.15 0 01-.065.185" fill="#CEEAF5"/><path d="M661.735 44.14h-6.094v16.68h-2.534V44.14H647V42h14.735v2.14zM684.108 42v18.82h-2.232V46.99c0-.184.004-.38.013-.59l.052-.644-6.461 11.767c-.201.394-.508.59-.919.59h-.368c-.412 0-.718-.196-.919-.59l-6.593-11.82c.053.464.079.893.079 1.287v13.83h-2.233V42h1.878c.228 0 .403.022.526.066.122.043.24.166.354.367l6.501 11.583c.105.21.206.43.302.657.105.228.201.46.289.696.087-.236.179-.468.276-.696.096-.236.201-.46.315-.67l6.382-11.57c.105-.201.219-.324.342-.367a1.76 1.76 0 01.538-.066h1.878z" fill="#fff"/></svg>