<?xml version="1.0" encoding="utf-8"?>
<svg version="1.1" id="Layer_1" xmlns="http://www.w3.org/2000/svg" x="0px" y="0px"
	 viewBox="0 0 217 243" style="enable-background:new 0 0 217 243;" xml:space="preserve">
<path d="M34.5,3.5C23.4,7,12.8,15.9,8.5,25.3c-4.3,9.5-4.6,15.6-4.3,82c0.4,57.2,0.5,62.7,2.2,67.1c2.1,5.4,9.9,14.5,15.4,17.8
	c1.1,0.6,2.1,1.3,2.8,1.7c0.7,0.4,0.9,1.3,0.5,2c-0.6,1-1.5,2.5-2.7,4.1c-4.4,6.6-5.9,12-5,18.7c0.8,7,5.1,13.5,11.1,17l4.5,2.6
	c0.2,0.1,0.5,0.2,0.7,0.2l67.1,0.1c37.2,0.1,76.3-0.1,86.9-0.3l17.7-0.5c0.8,0,1.5-0.7,1.5-1.5v-6.4v-6.3c0-0.8-0.7-1.5-1.5-1.5H191
	h-14.5c-0.8,0-1.5-0.7-1.5-1.5v-12v-12.7c0-0.5,0.3-1,0.7-1.3l3.1-2c6.2-3.9,12.7-11.8,14.6-17.8c1.5-4.9,1.6-11.8,1.4-73.4
	l-0.3-67.7c0-0.2-0.1-0.5-0.2-0.7l-3.6-7.3C184.6,13.5,173,5.1,159.3,3.1c-7.6-1.1-28.8-1.3-34.5-0.4l-2.6,0.5
	c-0.7,0.1-1.2,0.7-1.2,1.5v30.6v30.4c0,0.8-0.7,1.5-1.5,1.5h-17h-17c-0.8,0-1.5-0.7-1.5-1.5V35.2V4.4c0-0.7-0.5-1.3-1.1-1.4
	l-1.1-0.3C77.3,1.5,38.7,2.2,34.5,3.5z M68,104.2c8.7,4.8,13.7,14.6,12.7,24.7c-2.2,20.9-29,29.8-44.1,14.6c0,0,0-0.1-0.1-0.1
	c-4.9-6.4-8-11.6-7.3-19.9c0.7-9.9,6.7-17.5,16.4-21.1C51.5,100.3,62.6,101.2,68,104.2z M152.6,102.6c10.4,3.1,17.7,12.9,17.7,24
	c0,11.3-6.1,19.6-16.7,23.1c-19.2,6.4-37.9-8.4-34.2-29.7c0,0,0-0.1,0-0.1C123.6,106,138.2,98.3,152.6,102.6z M141.4,160.8
	c1.1,0,1.8,1.3,1.2,2.3c-1.6,2.6-5.2,7-8.7,10.1c-10.5,9.6-21.2,13.6-36.5,13.7c-10.9,0-16-1-24.6-5.1c-6.9-3.3-17.4-12.8-20.3-18.4
	l-0.5-1c-0.5-1,0.3-2.2,1.4-2.2l43.6,0.1C116.8,160.5,133.6,160.6,141.4,160.8z M98,210.6v9c0,0.8-0.7,1.5-1.5,1.5H76H55.5
	c-0.8,0-1.5-0.7-1.5-1.5v-9v-9c0-0.8,0.7-1.5,1.5-1.5H76h20.5c0.8,0,1.5,0.7,1.5,1.5V210.6z M150,211.1v9.5c0,0.8-0.7,1.5-1.5,1.5
	l-18.7-0.2l-18.9-0.3c-0.8,0-1.4-0.7-1.5-1.5l-0.3-9.4l-0.3-9.2c0-0.8,0.7-1.5,1.5-1.5h19.1h19c0.8,0,1.5,0.7,1.5,1.5V211.1z" fill="#E0B0FF"/>
</svg>