<?xml version="1.0" encoding="utf-8"?>
<!-- Generator: Adobe Illustrator 19.1.0, SVG Export Plug-In . SVG Version: 6.00 Build 0)  -->
<svg version="1.1" id="Layer_1" xmlns="http://www.w3.org/2000/svg" xmlns:xlink="http://www.w3.org/1999/xlink" x="0px" y="0px"
	 viewBox="0 0 513.2 130" style="enable-background:new 0 0 513.2 130;" xml:space="preserve">
<style type="text/css">
	.st0{fill-rule:evenodd;clip-rule:evenodd;fill:#FFFFFF;}
	.st1{fill:#99ADD9;}
</style>
<path id="XMLID_11_" class="st0" d="M19,47h18c8.3,0,15-6.7,15-15s-6.7-15-15-15H19V47z M25.5,64H19v34H0V0h40c17.6,0,32,14.4,32,32
	c0,14.8-10.1,27.6-24.5,31.1l-1.4,0.3L70.4,98H47.5L25.5,64z"/>
<path id="XMLID_203_" class="st0" d="M183,48c-9.4,0-17,7.6-17,17s7.6,17,17,17s17-7.6,17-17S192.4,48,183,48z M166,89v9h-18V0h18
	v41c0,0,6.4-10,22-10c16.5,0,30,15.3,30,34s-13.5,34-30,34C172.7,99,166,89,166,89z"/>
<polygon id="XMLID_202_" class="st0" points="338.2,94.1 312,32 330.7,32 347.5,74 364.3,32 383,32 342.2,130 323.6,130 "/>
<path id="XMLID_199_" class="st0" d="M19,47h18c8.3,0,15-6.7,15-15s-6.7-15-15-15H19V47z M25.5,64H19v34H0V0h40
	c17.6,0,32,14.4,32,32c0,14.8-10.1,27.6-24.5,31.1l-1.4,0.3L70.4,98H47.5L25.5,64z"/>
<path id="XMLID_196_" class="st0" d="M106,46c-12.6,0-15.6,12-15.6,12h31.1C121.6,58,118.6,46,106,46z M72,65c0-20,14-34,34-34
	c20,0,34,14,34,34c0,1.7-0.1,3.4-0.3,5H90v1c0,7.2,7.2,13,16,13c6,0,12.3-2.7,15.6-6.7l13.5,9C128.7,94.5,118.4,99,106,99
	C86,99,72,85,72,65z"/>
<rect id="XMLID_195_" x="226" y="32" class="st0" width="18" height="66"/>
<rect id="XMLID_194_" x="256" y="16" class="st0" width="18" height="82"/>
<rect id="XMLID_193_" x="286" class="st0" width="18" height="98"/>
<g id="XMLID_183_">
	<path id="XMLID_190_" class="st1" d="M440.9,32v44.5h-6.4v-7.6c-3.1,5.4-10,8.6-16.8,8.6c-6.5,0-11.9-2.2-16.3-6.5
		c-4.3-4.3-6.5-9.9-6.5-16.9s2.2-12.5,6.5-16.7c4.4-4.3,9.8-6.4,16.3-6.4c6.9,0,13.6,3,16.8,8.3V32H440.9z M406,66.3
		c3.1,3.1,7,4.8,11.7,4.8c4.8,0,8.8-1.5,11.9-4.5c3.2-3,4.9-7.2,4.9-12.5c0-5.1-1.7-9.2-5.1-12.2c-3.3-3-7.2-4.5-11.6-4.5
		c-4.7,0-8.6,1.5-11.7,4.6c-3.1,3-4.7,7-4.7,12.1C401.4,59,402.9,63.1,406,66.3z"/>
	<path id="XMLID_187_" class="st1" d="M451.6,98V32h6.4v7.7c3.1-5.4,10-8.7,16.8-8.7c6.5,0,11.9,2.2,16.2,6.6
		c4.4,4.3,6.6,9.9,6.6,16.9c0,7-2.2,12.5-6.6,16.7c-4.3,4.2-9.7,6.3-16.2,6.3c-6.9,0-13.6-2.9-16.8-8.2V98H451.6z M486.3,42.3
		c-3.1-3.2-7-4.9-11.6-4.9c-4.8,0-8.8,1.5-12,4.6c-3.1,3-4.8,7.2-4.8,12.5c0,5.1,1.7,9.2,5,12.2c3.4,3,7.3,4.4,11.7,4.4
		c4.7,0,8.6-1.5,11.7-4.5c3.1-3,4.7-7,4.7-12.1C491.1,49.6,489.5,45.5,486.3,42.3z"/>
	<path id="XMLID_184_" class="st1" d="M504.9,12.2c1.9-1.8,5-1.8,6.9,0c1.9,1.6,1.9,4.8,0,6.6c-1.9,1.6-5,1.6-6.9,0
		C503,17,503,13.8,504.9,12.2z M505.1,76.5V32h6.3v44.5H505.1z"/>
</g>
</svg>
