<svg width="244" height="31" fill="none" xmlns="http://www.w3.org/2000/svg"><path d="M25.038 15.5c0-.954-.357-1.789-1.073-2.504-.715-.715-1.55-1.073-2.503-1.073-.954 0-1.789.358-2.504 1.073-.716.715-1.073 1.55-1.073 2.504s.357 1.788 1.073 2.504c.715.715 1.55 1.073 2.504 1.073.953 0 1.788-.358 2.503-1.073.716-.716 1.073-1.55 1.073-2.504zm7.154-1.55v3.1c0 .12 0 .238-.119.358l-.238.238-2.623.358c-.12.477-.358.954-.597 1.192.358.477.835 1.073 1.55 1.908.12.12.12.238.12.358 0 .119 0 .238-.12.357-.238.358-.715.835-1.311 1.55-.596.716-1.073.954-1.312.954-.119 0-.238 0-.357-.12l-2.027-1.55c-.358.24-.835.359-1.312.478-.12 1.311-.238 2.146-.358 2.623 0 .357-.238.477-.476.477h-3.1c-.12 0-.239 0-.358-.12-.12-.119-.12-.238-.12-.357l-.357-2.623c-.477-.12-.835-.358-1.312-.477l-2.027 1.55c-.119.12-.238.12-.357.12-.12 0-.239 0-.358-.12-1.192-1.073-1.908-1.789-2.265-2.385-.12-.119-.12-.238-.12-.357 0-.12 0-.239.12-.358.119-.239.357-.477.715-.954s.596-.715.715-.954c-.238-.477-.477-.954-.596-1.43l-2.504-.358c-.119 0-.238-.12-.238-.12s-.12-.119-.12-.238v-3.1c0-.12 0-.239.12-.358l.238-.238 2.623-.358c.12-.477.358-.835.597-1.311-.358-.477-.835-1.193-1.55-1.908-.12-.12-.12-.239-.12-.358s0-.238.12-.357c.238-.358.715-.835 1.43-1.55.716-.716 1.073-.954 1.312-.954.12 0 .238 0 .358.119l1.907 1.55c.358-.239.835-.358 1.312-.477.12-1.312.238-2.146.358-2.623.119-.239.238-.358.477-.358h3.1c.119 0 .238 0 .357.12.12.119.12.238.12.357l.357 2.623c.477.12.835.358 1.312.477l2.027-1.55c.119-.12.238-.12.357-.12.12 0 .239 0 .358.12 1.192 1.073 2.027 1.908 2.265 2.385.12.119.12.119.12.357 0 .12 0 .239-.12.358-.119.239-.357.477-.715.954s-.596.715-.715.954c.238.477.477.954.596 1.311l2.504.358c.119 0 .238.12.238.12s.12.238.12.357z" fill="#45AAF2"/><path d="M0 16.335v-1.789a1.7 1.7 0 0 0 1.43-.715c.358-.477.478-1.073.478-1.789V4.77c0-1.43.477-2.623 1.311-3.457C4.173.358 5.127 0 6.32 0h2.146v2.027H6.32c-.596 0-1.192.238-1.669.835-.477.596-.715 1.192-.715 2.026V12.4c0 1.67-.597 2.623-1.67 3.1 1.073.477 1.67 1.55 1.67 3.1v7.63c0 .835.238 1.55.715 2.028.477.596 1.073.834 1.67.834h2.145V31H6.32c-1.192 0-2.265-.477-3.1-1.311-.954-.835-1.311-2.027-1.311-3.458v-7.393c0-.715-.12-1.311-.477-1.788A1.7 1.7 0 0 0 0 16.335zm34.577 12.638h2.146c.596 0 1.192-.238 1.67-.834.476-.597.715-1.193.715-2.027V18.6c0-1.67.596-2.742 1.669-3.1-1.073-.477-1.67-1.55-1.67-3.1V4.888c0-.834-.238-1.55-.715-2.026-.477-.597-1.073-.835-1.669-.835h-2.146V0h2.146c1.192 0 2.265.477 3.1 1.312.835.834 1.312 2.026 1.312 3.457v7.273c0 .716.119 1.312.477 1.789.357.477.834.715 1.311.715v1.789c-.477 0-.835.238-1.192.715-.358.477-.477 1.073-.477 1.788v7.393c0 1.43-.477 2.504-1.312 3.457-.954.835-2.027 1.312-3.219 1.312h-2.146v-2.027zm17.884-7.75l1.193-1.55c.596.716 1.311 1.192 2.146 1.67.835.476 1.788.596 2.861.596.716 0 1.312-.12 1.789-.239.477-.12.954-.358 1.192-.715.358-.12.596-.477.716-.716.119-.357.238-.596.238-.954 0-.477-.12-.834-.358-1.192a2.784 2.784 0 0 0-.834-.835c-.358-.238-.835-.357-1.312-.596-.477-.238-.954-.357-1.55-.477-.596-.119-1.073-.238-1.55-.476a8.281 8.281 0 0 1-1.55-.597c-.477-.238-.954-.477-1.311-.834-.358-.358-.716-.716-.835-1.193-.238-.476-.358-1.073-.358-1.669 0-1.311.477-2.384 1.55-3.22 1.073-.834 2.385-1.191 3.935-1.191 2.385 0 4.292.715 5.723 2.265l-1.192 1.43c-1.193-1.31-2.743-1.907-4.65-1.907-.954 0-1.789.239-2.385.715-.596.477-.954 1.073-.954 1.789 0 .358.12.715.358 1.073s.477.477.835.715c.357.239.834.358 1.311.477.477.12.954.239 1.55.477.596.239 1.073.477 1.55.596a8.28 8.28 0 0 1 1.55.597c.477.238.954.476 1.312.834.357.358.715.715.834 1.192.12.477.358 1.073.358 1.67 0 .477-.12.954-.239 1.43-.119.477-.357.835-.596 1.312l-1.073 1.073a3.562 3.562 0 0 1-1.669.715c-.835.239-1.55.358-2.385.358-2.623 0-4.65-.834-6.2-2.623zm18.958 2.385V7.512h2.027v6.796h9.42V7.392h2.026v16.096h-2.027v-7.392h-9.419v7.392h-2.027v.12zm20.985 0V7.512h2.027v16.096h-2.027zm9.657 0V7.512h6.439c1.55 0 2.742.476 3.696 1.43.954.954 1.312 2.146 1.312 3.458a5.193 5.193 0 0 1-1.312 3.458c-.954.834-2.146 1.311-3.696 1.311h-4.531v6.439h-1.908zm2.027-8.227h4.173c.954 0 1.67-.239 2.385-.835.715-.596.954-1.311.954-2.265 0-.954-.358-1.67-.954-2.266-.596-.596-1.431-.834-2.385-.834h-4.173v6.2zm15.5 8.227V7.512h11.804v3.577h-7.631v2.503h7.512v3.577h-7.512v2.742h7.631v3.577h-11.804v.12zm18.123 0V7.512h4.174l6.557 8.823V7.512h4.173v16.096h-4.054l-6.796-9.3v9.3h-4.054zm20.866-8.108c0-1.192.238-2.385.715-3.458.477-1.073 1.073-1.907 1.908-2.623.835-.715 1.669-1.311 2.742-1.669 1.073-.358 2.146-.596 3.458-.596.835 0 1.669.12 2.385.358.715.238 1.43.476 1.907.834.596.358 1.073.835 1.431 1.192l1.073 1.431-3.458 1.789a4.103 4.103 0 0 0-1.43-1.431c-.597-.358-1.312-.596-2.027-.596-1.312 0-2.385.477-3.22 1.311-.834.835-1.311 2.027-1.311 3.339 0 1.311.477 2.384 1.311 3.338.835.835 1.908 1.312 3.22 1.312.596 0 1.073-.12 1.669-.239.596-.238.954-.477 1.311-.715v-1.192h-3.576v-3.577h7.75v6.438c-1.908 2.146-4.293 3.1-7.154 3.1-1.193 0-2.385-.238-3.458-.596a7.074 7.074 0 0 1-2.742-1.67c-.835-.715-1.431-1.55-1.908-2.622-.358-1.073-.596-2.266-.596-3.458zm22.058 8.108V7.512h4.173v16.096h-4.173zm10.85 0V7.512h4.292l6.558 8.823V7.512h4.173v16.096h-4.054l-6.796-9.3v9.3h-4.173zm21.7 0V7.512h11.803v3.577h-7.63v2.503h7.511v3.577h-7.511v2.742h7.63v3.577h-11.803v.12zm18.123-13.712c0-.715.238-1.43.834-1.908.596-.476 1.193-.834 1.908-.834.477 0 .954.12 1.431.358.477.238.715.596.954.953.238.358.357.835.357 1.431 0 .715-.238 1.43-.834 1.908-.597.477-1.193.835-1.908.835-.715 0-1.431-.239-1.908-.835-.477-.596-.834-1.193-.834-1.908zm.477 0c0 .596.238 1.192.715 1.67.477.476 1.073.715 1.669.715.596 0 1.192-.239 1.669-.716a2.353 2.353 0 0 0 .716-1.669c0-.715-.239-1.192-.716-1.67a2.356 2.356 0 0 0-1.669-.714c-.715 0-1.192.238-1.669.715-.477.358-.715.954-.715 1.67zm1.311 1.55v-3.1h1.312c.238 0 .477.12.715.239s.238.357.238.715-.119.596-.238.715c-.119.12-.358.239-.477.239l.835 1.311h-.596l-.835-1.311h-.596v1.311h-.358v-.119zm.358-1.55h.834c.12 0 .239 0 .358-.12.239-.238.239-.357.239-.476 0-.12 0-.358-.12-.477-.119-.12-.238-.12-.357-.12h-.835v1.193h-.119z" fill="#162948"/></svg>