<?xml version="1.0" encoding="UTF-8" standalone="no"?>
<!-- Created with Inkscape (http://www.inkscape.org/) -->

<svg
   xmlns:osb="http://www.openswatchbook.org/uri/2009/osb"
   xmlns:dc="http://purl.org/dc/elements/1.1/"
   xmlns:cc="http://creativecommons.org/ns#"
   xmlns:rdf="http://www.w3.org/1999/02/22-rdf-syntax-ns#"
   xmlns:svg="http://www.w3.org/2000/svg"
   xmlns="http://www.w3.org/2000/svg"
   xmlns:xlink="http://www.w3.org/1999/xlink"
   xmlns:sodipodi="http://sodipodi.sourceforge.net/DTD/sodipodi-0.dtd"
   xmlns:inkscape="http://www.inkscape.org/namespaces/inkscape"
   width="800"
   height="200"
   id="svg2"
   version="1.1"
   inkscape:version="0.48.4 r9939"
   sodipodi:docname="furkot-banner-black-4x1.svg"
   inkscape:export-filename="/home/dkrzemin/Dropbox/code42day-images/furkot/scenic/furkot-banner-white-4x1-132.png"
   inkscape:export-xdpi="59.4"
   inkscape:export-ydpi="59.4">
  <defs
     id="defs4">
    <linearGradient
       gradientUnits="userSpaceOnUse"
       y2="1079.3622"
       x2="101"
       y1="852.36218"
       x1="100.5"
       id="linearGradient5996"
       xlink:href="#linearGradient5990"
       inkscape:collect="always" />
    <linearGradient
       id="linearGradient5826">
      <stop
         id="stop5828"
         offset="0"
         style="stop-color:#68ae15;stop-opacity:1;" />
      <stop
         style="stop-color:#68ae15;stop-opacity:0.49803922;"
         offset="0.5"
         id="stop5932" />
      <stop
         id="stop5830"
         offset="1"
         style="stop-color:#68ae15;stop-opacity:0;" />
    </linearGradient>
    <linearGradient
       id="linearGradient5934">
      <stop
         style="stop-color:#68ae15;stop-opacity:0;"
         offset="0"
         id="stop5936" />
      <stop
         id="stop5954"
         offset="0.375"
         style="stop-color:#68ae15;stop-opacity:0;" />
      <stop
         id="stop5938"
         offset="0.75"
         style="stop-color:#68ae15;stop-opacity:0;" />
      <stop
         style="stop-color:#ffffff;stop-opacity:0;"
         offset="1"
         id="stop5940" />
    </linearGradient>
    <linearGradient
       osb:paint="solid"
       id="linearGradient5984">
      <stop
         id="stop5986"
         offset="0"
         style="stop-color:#67ae15;stop-opacity:1;" />
    </linearGradient>
    <linearGradient
       id="linearGradient5990">
      <stop
         id="stop5992"
         offset="0"
         style="stop-color:#67ae15;stop-opacity:1;" />
      <stop
         id="stop5994"
         offset="1"
         style="stop-color:#ffffff;stop-opacity:1;" />
    </linearGradient>
    <linearGradient
       inkscape:collect="always"
       xlink:href="#linearGradient5990"
       id="linearGradient3110"
       gradientUnits="userSpaceOnUse"
       x1="100.5"
       y1="852.36218"
       x2="101"
       y2="1079.3622" />
    <linearGradient
       inkscape:collect="always"
       xlink:href="#linearGradient5990"
       id="linearGradient3122"
       gradientUnits="userSpaceOnUse"
       x1="100.5"
       y1="852.36218"
       x2="100.5"
       y2="1129.7767"
       gradientTransform="matrix(2.4,0,0,4,-132.14287,-2897.0865)" />
  </defs>
  <sodipodi:namedview
     id="base"
     pagecolor="#ffffff"
     bordercolor="#666666"
     borderopacity="1.0"
     inkscape:pageopacity="0.0"
     inkscape:pageshadow="2"
     inkscape:zoom="1"
     inkscape:cx="212.1"
     inkscape:cy="334.5"
     inkscape:document-units="px"
     inkscape:current-layer="layer1"
     showgrid="false"
     inkscape:showpageshadow="false"
     inkscape:snap-page="true"
     inkscape:window-width="1440"
     inkscape:window-height="876"
     inkscape:window-x="0"
     inkscape:window-y="24"
     inkscape:window-maximized="1"
     showborder="true"
     inkscape:snap-bbox="false" />
  <metadata
     id="metadata7">
    <rdf:RDF>
      <cc:Work
         rdf:about="">
        <dc:format>image/svg+xml</dc:format>
        <dc:type
           rdf:resource="http://purl.org/dc/dcmitype/StillImage" />
        <dc:title></dc:title>
      </cc:Work>
    </rdf:RDF>
  </metadata>
  <g
     inkscape:label="Layer 1"
     inkscape:groupmode="layer"
     id="layer1"
     transform="translate(0,-852.36218)">
    <g
       inkscape:label="Layer 1"
       id="layer1-5"
       transform="matrix(1.6666667,0,0,0.25,220.23809,724.27163)">
      <rect
         style="fill:#000000;fill-opacity:0;stroke:none"
         id="rect5824"
         width="480"
         height="800"
         x="-132.14285"
         y="512.36218" />
    </g>
    <g
       id="layer3"
       inkscape:label="icon"
       transform="matrix(0.8125,0,0,0.8125,0.47271225,178.5679)">
      <path
         id="path5885"
         d="M 214.51371,999.40299 H 191.4977 l 2.26881,-16.83523 7.0864,0.9568 5.1824,-38.46079 -4.24,-6.75522 -1.432,-22.52321 c 0,0 -0.8624,-6.34241 -6.2592,-7.0672 l -80.296,-10.8224 c -5.3968,-0.728 -7.9104,5.15839 -7.9104,5.15839 l -7.339204,21.33923 -5.881599,5.3888 -5.185599,38.4608 6.0736,0.8192 -2.307202,17.1264 14.507204,1.9536 2.3088,-17.1232 71.18399,9.5952 -2.3072,17.12323 12.36001,1.6656 h -34.3712 V 988.16776 H 67.110508 V 1006.891 H 227.11051 l -12.5968,-7.48801 z m -72.0208,-70.12002 c -0.9424,-1.95681 -2.4368,-4.02561 -4.7504,-5.104 -2.52,-1.17764 -3.616,-3.22563 -4.0768,-5.01283 0.9712,-1.11041 1.6752,-2.63681 1.9104,-4.38401 0.5152,-3.81919 -1.408,-7.23199 -4.296,-7.62079 -2.8896,-0.3904 -5.648,2.392 -6.1616,6.21119 -0.32,2.3648 0.296,4.56959 1.4944,6.0016 l -0.448,1.5248 c 0,0 -2.1584,-0.44159 -5.0224,-0.0175 0.056,-1.09119 -0.10721,-2.2336 -1.1648,-1.57439 0,0 -0.9216,-0.672 -1.1216,0.1856 0,0 -0.9536,-0.7632 -1.1216,0.1856 0,0 -1.088,-0.4 -1.2096,0.5136 0,0 -1.8736,1.6112 -2.2288,3.51202 -0.5904,0.448 -1.1664,0.96161 -1.7216,1.54721 l -5.448,-0.73441 2.9552,-21.92962 84.68,11.4144 -2.9536,21.92963 -49.3152,-6.648 z"
         inkscape:connector-curvature="0" />
    </g>
    <g
       style="font-size:144px;font-style:normal;font-variant:normal;font-weight:normal;font-stretch:normal;text-align:center;line-height:125%;letter-spacing:4px;word-spacing:0px;writing-mode:lr-tb;text-anchor:middle;fill:#000000;fill-opacity:1;stroke:none;font-family:Luckiest Guy;-inkscape-font-specification:Luckiest Guy"
       id="text3124">
      <path
         d="M 297.1,901.7 C 296.8,906.1 296.5,910.4 296.3,914.7 296.1,919.1 295.8,923.4 295.4,927.8 L 265.6,929.4 265.6,938.2 291.5,938.2 290,960 265.4,960.7 265.6,1002 230,1003 232.3,901.7 297.1,901.7"
         style=""
         id="path3027" />
      <path
         d="M 388.6,904.1 C 386.5,920.6 384.7,937 383.2,953.3 381.7,969.7 380.3,986.1 378.9,1003 L 350.1,1005 351.4,993.9 C 350.4,995 349.3,995.9 348,996.7 346.8,997.5 345.5,998.2 344.1,998.7 342.7,999.2 341.2,999.5 339.8,999.8 338.2,999.9 336.8,1000 335.5,1000 332.3,999.9 329.3,999.3 326.5,998.1 323.6,996.9 321.1,995.3 318.7,993.4 316.4,991.3 314.3,989 312.4,986.4 310.5,983.7 308.9,980.9 307.6,978 306.4,975.1 305.4,972.1 304.7,969 304,966 303.7,963 303.7,960.2 303.7,955.9 303.7,951.6 303.9,947.1 304.1,942.5 304.4,938 304.8,933.4 305.2,928.9 305.8,924.4 306.4,919.9 307.1,915.5 308,911.2 309,907.2 314.7,907.4 320.5,907.7 326.3,907.9 332,908.2 337.8,908.2 343.5,908.1 342.4,912.2 341.3,916.3 340.2,920.4 339.2,924.5 338.3,928.6 337.4,932.8 336.6,936.9 335.9,941.1 335.4,945.3 334.9,949.4 334.6,953.7 334.6,957.9 334.6,958.9 334.7,960.3 334.8,962.1 334.9,964 335.1,965.8 335.5,967.5 335.9,969.3 336.5,970.9 337.3,972.3 338.1,973.6 339.3,974.2 340.8,974.2 342.6,974.2 344.2,973.5 345.6,972 347,970.4 348.2,968.4 349.3,965.8 350.4,963.2 351.3,960.2 352.1,956.9 352.9,953.5 353.5,950 354,946.3 354.6,942.6 355,938.9 355.4,935.1 355.7,931.4 355.9,927.9 356.1,924.6 356.2,921.3 356.4,918.3 356.4,915.7 356.5,913 356.6,911 356.6,909.5 356.6,908.6 356.5,907.7 356.5,906.8 356.4,905.9 356.4,905 356.3,904.1 359.3,904.2 362.3,904.2 365.3,904.3 368.3,904.3 371.4,904.3 374.4,904.3 376.8,904.3 379.1,904.3 381.4,904.3 383.8,904.3 386.2,904.2 388.6,904.1"
         style=""
         id="path3029" />
      <path
         d="M 479.2,935.3 C 479.2,938.9 478.9,942.3 478.3,945.3 477.6,948.2 476.7,950.9 475.3,953.4 473.9,955.9 472.2,958.2 470,960.3 467.9,962.4 465.3,964.4 462.2,966.4 L 479,996.2 447.3,1002 436.5,972.4 427.8,972.7 426.5,1002 396.3,1002 C 396.5,991.2 396.7,980.6 396.9,970 397.1,959.4 397.4,948.8 397.7,938.1 397.8,932.7 397.9,927.4 398,922.1 398.1,916.8 398.2,911.4 398.5,906 401.8,904.8 405,903.8 408.2,903 411.4,902.2 414.6,901.6 417.8,901.2 421,900.7 424.3,900.4 427.6,900.3 430.9,900.1 434.3,900 437.8,900 443.1,900 448.3,900.7 453.2,902.2 458.2,903.7 462.7,905.9 466.5,908.8 470.4,911.8 473.4,915.5 475.7,919.9 478.1,924.3 479.2,929.4 479.2,935.3 M 447.7,937.5 C 447.7,935.6 447.5,933.8 446.9,932.1 446.4,930.5 445.6,929.1 444.5,927.9 443.5,926.7 442.2,925.7 440.6,925.1 439,924.4 437.2,924 435.1,924 434.1,924 433.2,924.1 432.3,924.2 431.5,924.3 430.6,924.5 429.7,924.7 L 428.6,950.9 430.3,950.9 C 432.3,950.9 434.4,950.6 436.4,950.1 438.5,949.6 440.4,948.8 442,947.7 443.7,946.6 445.1,945.3 446.1,943.6 447.2,941.9 447.7,939.9 447.7,937.5"
         style=""
         id="path3031" />
      <path
         d="M 574.4,912.2 543.4,949.2 571.9,997.6 539.3,1003 517.9,974.4 516.8,1002 487.5,1003 489.8,902.4 522.5,904.2 520,933.2 540.4,903.8 574.4,912.2"
         style=""
         id="path3033" />
      <path
         d="M 659.4,949.2 C 659.4,953.5 658.9,957.6 657.9,961.6 656.9,965.5 655.5,969.2 653.6,972.7 651.8,976.2 649.5,979.3 646.9,982.2 644.2,985.1 641.2,987.6 637.9,989.6 634.6,991.7 631.1,993.3 627.2,994.5 623.3,995.6 619.1,996.2 614.8,996.2 610.6,996.2 606.5,995.6 602.7,994.5 598.9,993.5 595.3,992 592,990 588.7,988.1 585.7,985.7 582.9,983 580.3,980.3 578,977.2 576,973.9 574.2,970.5 572.7,966.9 571.6,963 570.6,959.2 570.1,955.2 570.1,951 570.1,946.9 570.6,943 571.5,939.1 572.5,935.1 573.9,931.4 575.8,928 577.6,924.5 579.9,921.3 582.5,918.4 585.1,915.5 588.1,913 591.3,910.9 594.6,908.8 598.1,907.1 601.9,906 605.7,904.8 609.7,904.2 613.9,904.2 620.7,904.2 626.9,905.3 632.5,907.4 638.1,909.5 642.9,912.5 646.9,916.4 650.8,920.3 653.9,925.1 656.1,930.6 658.3,936.2 659.4,942.4 659.4,949.2 M 628.1,951 C 628.1,949 627.8,947.1 627.2,945.2 626.7,943.3 625.8,941.6 624.7,940.1 623.6,938.6 622.2,937.4 620.5,936.5 618.8,935.6 616.9,935.1 614.8,935.1 612.6,935.1 610.6,935.5 608.9,936.3 607.1,937.1 605.6,938.2 604.4,939.6 603.2,941 602.2,942.6 601.6,944.5 600.9,946.3 600.6,948.3 600.6,950.3 600.6,952.3 600.9,954.3 601.4,956.2 602,958.2 602.8,960 604,961.6 605.1,963.2 606.5,964.5 608.1,965.4 609.8,966.4 611.7,966.9 613.9,966.9 616.1,966.9 618.1,966.5 619.9,965.7 621.6,964.8 623.1,963.6 624.4,962.1 625.6,960.6 626.5,958.9 627.2,957 627.8,955.1 628.1,953.1 628.1,951"
         style=""
         id="path3035" />
      <path
         d="M 742.9,903.9 742.2,933.7 721.2,934.6 718.7,999.8 689,1001 686.4,936.1 665.4,937.2 666.2,904.1 742.9,903.9"
         style=""
         id="path3037" />
    </g>
  </g>
</svg>
