<svg id="billingo_logo" data-name="billingo logo" xmlns="http://www.w3.org/2000/svg" width="184" height="48" viewBox="0 0 184 48">
  <circle id="Ellipse_23850" data-name="Ellipse 23850" cx="20" cy="20" r="20" transform="translate(2 2)" fill="#fff"/>
  <g id="billingo_logo_w" data-name="billingo logo w">
    <path id="logo_new" data-name="logo new" d="M149.551,47.886c-1.944-.488-3.514-2.557-2.638-6.087.968-3.9,3.985-5.645,6.411-7.059l.166-.1-1.274,5.273a5.541,5.541,0,0,0-1.729,2.778c-.539,1.989.816,3.666,1.942-.895.5-2.037.635-2.553.635-2.553l1.265-5.1.262-1.059a9.774,9.774,0,0,1-4.583,1.206,6.9,6.9,0,0,1-5.6-2.593,7.382,7.382,0,0,1-1.163-6.365,10.871,10.871,0,0,1,10.072-8.063,6.9,6.9,0,0,1,5.6,2.588,7.383,7.383,0,0,1,1.164,6.365L156,42.693C155.13,46.2,152.68,48,150.484,48A3.855,3.855,0,0,1,149.551,47.886Zm-2.737-21.659a3.679,3.679,0,0,0,.492,3.2,3.316,3.316,0,0,0,2.7,1.169,7.242,7.242,0,0,0,6.5-5.258,3.675,3.675,0,0,0-.493-3.2,3.306,3.306,0,0,0-2.7-1.167A7.245,7.245,0,0,0,146.814,26.227ZM0,22.02A21.925,21.925,0,1,1,21.924,44.039,21.972,21.972,0,0,1,0,22.02Zm13.849-9.073-3.075,12.39A7.373,7.373,0,0,0,11.937,31.7a6.9,6.9,0,0,0,5.6,2.593h5.5a9.392,9.392,0,0,0,8.705-6.966,6.467,6.467,0,0,0-1.028-5.577c-.08-.1-.168-.195-.253-.289A8.364,8.364,0,0,0,33.5,16.936a5.875,5.875,0,0,0-.937-5.062A5.583,5.583,0,0,0,28.1,9.8H17.808A4.2,4.2,0,0,0,13.849,12.947ZM163,31.7a7.38,7.38,0,0,1-1.164-6.366,10.873,10.873,0,0,1,10.073-8.063,6.9,6.9,0,0,1,5.6,2.588,6.479,6.479,0,0,1,.715,1.176l.017-.009a1.559,1.559,0,0,0,1.022.846,3.587,3.587,0,0,0,2.811-.545L184,24.486a7.7,7.7,0,0,1-4.009,1.188,6.441,6.441,0,0,1-1.182-.122c-.039.225-.076.453-.134.675A10.872,10.872,0,0,1,168.6,34.295,6.9,6.9,0,0,1,163,31.7Zm2.41-5.476a3.677,3.677,0,0,0,.491,3.2,3.316,3.316,0,0,0,2.7,1.169,7.242,7.242,0,0,0,6.5-5.258,3.679,3.679,0,0,0-.492-3.2,3.308,3.308,0,0,0-2.7-1.166A7.243,7.243,0,0,0,165.412,26.227ZM102.921,31.7a6.323,6.323,0,0,1-.409-.6,10.459,10.459,0,0,1-7.253,3.194,6.9,6.9,0,0,1-5.6-2.593c-.126-.164-.237-.336-.347-.508a9.351,9.351,0,0,1-6.589,3.1,6.072,6.072,0,0,1-4.91-2.333,7.685,7.685,0,0,1-1.13-6.626l1.385-5.582L81.9,19.74l-1.649,6.487a4.051,4.051,0,0,0,.459,3.458,2.433,2.433,0,0,0,2.008.909c2.42,0,5.065-2.408,5.773-5.258l2.589-10.427c.651-2.623,2.267-4.541,4.323-5.134a3.817,3.817,0,0,1,3.769.855c.687.666,1.728,2.222.994,5.171a18.238,18.238,0,0,1-7.349,10.384l1.636-6.739a11.781,11.781,0,0,0,2.382-4.414c.5-1.792-1.127-3.8-2.226.769s-2.546,10.425-2.546,10.425h0a3.673,3.673,0,0,0,.492,3.2,3.313,3.313,0,0,0,2.7,1.169,7.242,7.242,0,0,0,6.5-5.258l2.589-10.427c.65-2.623,2.267-4.541,4.322-5.134a3.819,3.819,0,0,1,3.77.855c.686.666,1.728,2.222.995,5.171a18.243,18.243,0,0,1-7.349,10.384l1.694-6.792a10.186,10.186,0,0,0,2.368-4.361c.545-2.219-1.2-3.375-2.227.769s-2.589,10.425-2.589,10.425a3.68,3.68,0,0,0,.491,3.2,3.318,3.318,0,0,0,2.7,1.169,7.241,7.241,0,0,0,6.5-5.258h0a.036.036,0,0,1,0-.017l1.385-5.58h3.835L118.6,26.21a4.049,4.049,0,0,0,.459,3.458,2.429,2.429,0,0,0,2.007.91c2.421,0,5.065-2.408,5.774-5.259l1.216-4.9a4.205,4.205,0,0,1,3.96-3.147h4.117a5.673,5.673,0,0,1,4.608,2.141,6.055,6.055,0,0,1,.965,5.221l-2.4,9.642h-3.82l2.652-10.538a2.36,2.36,0,0,0-.293-2.049,2.064,2.064,0,0,0-1.707-.719h-4.117a.6.6,0,0,0-.387.346l-1.216,4.893c-1.123,4.527-5.228,8.067-9.346,8.067a6.066,6.066,0,0,1-4.909-2.331,6.339,6.339,0,0,1-.488-.734,10.441,10.441,0,0,1-7.145,3.084A6.9,6.9,0,0,1,102.921,31.7ZM59.776,34.295a6.9,6.9,0,0,1-5.6-2.593,7.385,7.385,0,0,1-1.163-6.365l3.076-12.39A4.2,4.2,0,0,1,60.045,9.8h10.29A5.586,5.586,0,0,1,74.8,11.875a5.876,5.876,0,0,1,.937,5.062A8.364,8.364,0,0,1,72.7,21.463c.085.094.173.185.254.289a6.465,6.465,0,0,1,1.026,5.577,9.39,9.39,0,0,1-8.7,6.966Zm-.117-20.453L56.584,26.227a3.677,3.677,0,0,0,.491,3.2,3.316,3.316,0,0,0,2.7,1.169h5.5a5.724,5.724,0,0,0,5.131-4.159,2.766,2.766,0,0,0-.355-2.406,2.454,2.454,0,0,0-1.983-.857c-.046,0-.093.006-.139.006H62.194v-.017l.913-3.681h4.826c.035,0,.072,0,.106-.006v0l.038,0a4.821,4.821,0,0,0,4.091-3.431,2.175,2.175,0,0,0-.266-1.888,1.891,1.891,0,0,0-1.565-.655H60.045A.6.6,0,0,0,59.659,13.842ZM17.538,30.594a3.316,3.316,0,0,1-2.7-1.169,3.676,3.676,0,0,1-.491-3.2l3.075-12.385a.6.6,0,0,1,.386-.343H28.1a1.893,1.893,0,0,1,1.567.655,2.18,2.18,0,0,1,.265,1.888,4.821,4.821,0,0,1-4.092,3.431l-.037,0v0c-.034,0-.071.006-.106.006H20.869l-.914,3.681v.017h5.74c.047,0,.093,0,.139-.006a2.455,2.455,0,0,1,1.983.857,2.762,2.762,0,0,1,.355,2.406,5.724,5.724,0,0,1-5.131,4.159ZM116.746,15.51a3.575,3.575,0,0,1,3.265-2.627,1.982,1.982,0,0,1,1.962,2.627,3.57,3.57,0,0,1-3.265,2.623A1.979,1.979,0,0,1,116.746,15.51Zm-38.342,0a3.574,3.574,0,0,1,3.265-2.627,1.983,1.983,0,0,1,1.962,2.627,3.57,3.57,0,0,1-3.266,2.623A1.979,1.979,0,0,1,78.4,15.51Z" fill="#10355a"/>
  </g>
</svg>
