<?xml version="1.0" encoding="iso-8859-1"?>
<!-- Generator: Adobe Illustrator 22.1.0, SVG Export Plug-In . SVG Version: 6.00 Build 0)  -->
<svg version="1.1" id="&#x30EC;&#x30A4;&#x30E4;&#x30FC;_1"
	 xmlns="http://www.w3.org/2000/svg" xmlns:xlink="http://www.w3.org/1999/xlink" x="0px" y="0px" viewBox="0 0 620 116.268"
	 style="enable-background:new 0 0 620 116.268;" xml:space="preserve">
<g>
	<g>
		<g>
			<g>
				<g>
					<path style="fill:#005BAB;" d="M467.74,110.082h1.326c0.064,0,0.147-0.046,0.183-0.105l5.473-8.962l2.974,10.254
						c0.019,0.066,0.087,0.115,0.157,0.115h5.747c0.063,0,0.103-0.049,0.082-0.111l-6.058-19.185
						c-0.019-0.061-0.093-0.116-0.162-0.116h-2.152c-0.072,0-0.157,0.045-0.193,0.104l-7.378,11.44l-7.379-11.44
						c-0.037-0.059-0.123-0.104-0.192-0.104h-2.156c-0.067,0-0.141,0.055-0.159,0.116l-6.059,19.185
						c-0.021,0.061,0.022,0.111,0.085,0.111h5.744c0.07,0,0.139-0.049,0.157-0.115l2.976-10.254l5.474,8.962
						c0.034,0.059,0.117,0.105,0.184,0.105H467.74z"/>
					<path style="fill:#005BAB;" d="M452.056,100.529v-0.005c-0.01-0.055-0.06-0.096-0.118-0.096h-0.77h-5.675h-9.92
						c-0.868,0-1.568,0.703-1.568,1.569c0,0.865,0.7,1.566,1.568,1.566h9.727c-1.161,3.063-5.079,5.311-9.727,5.311
						c-5.567,0-10.077-3.22-10.077-7.193c0-3.972,4.509-7.195,10.077-7.195c3.037,0,5.76,0.961,7.608,2.484
						c0.008,0.005,0.013,0.011,0.021,0.018c0.016,0.013,0.039,0.015,0.064,0.015h6.689c0.066,0,0.123-0.053,0.123-0.12
						c0-0.029-0.011-0.055-0.03-0.076c-0.003-0.008-0.007-0.008-0.009-0.012c-2.85-3.034-8.26-5.08-14.467-5.08
						c-9.167,0-16.599,4.462-16.599,9.967c0,5.508,7.432,9.968,16.599,9.968c9.163,0,16.594-4.461,16.594-9.968
						C452.166,101.292,452.128,100.903,452.056,100.529"/>
					<path style="fill:#005BAB;" d="M499.907,91.713c-9.166,0-16.595,4.461-16.595,9.969c0,5.507,7.429,9.966,16.595,9.966
						s16.599-4.459,16.599-9.966C516.506,96.174,509.073,91.713,499.907,91.713 M499.907,108.873c-5.56,0-10.072-3.22-10.072-7.191
						c0-3.974,4.512-7.197,10.072-7.197c5.566,0,10.078,3.224,10.078,7.197C509.986,105.653,505.473,108.873,499.907,108.873"/>
				</g>
			</g>
			<path style="fill:#38393C;" d="M586.48,111.077c-0.015,0.17,0.114,0.307,0.287,0.307h3.468c0.165,0,0.317-0.138,0.329-0.307
				l0.592-7.937c0.015-0.171-0.111-0.309-0.284-0.309h-3.465c-0.171,0-0.32,0.138-0.332,0.309L586.48,111.077z"/>
			<path style="fill:#38393C;" d="M606.537,102.831c-0.171,0-0.299,0.138-0.284,0.309l0.602,7.937
				c0.012,0.17,0.162,0.307,0.332,0.307h3.468c0.171,0,0.494-0.138,0.479-0.307l-0.796-7.937c-0.012-0.171-0.161-0.309-0.335-0.309
				H606.537z"/>
			<path style="fill:#38393C;" d="M610.224,98.901c0.168,0,0.308-0.143,0.308-0.311v-3.336c0-0.171-0.141-0.31-0.308-0.31h-9.267
				c-0.177,0-0.308-0.138-0.308-0.311v-2.35c0-0.17-0.141-0.31-0.311-0.31h-3.34c-0.168,0-0.308,0.14-0.308,0.31v2.35
				c0,0.173-0.138,0.311-0.311,0.311h-9.199c-0.171,0-0.311,0.14-0.311,0.31v3.336c0,0.168,0.141,0.311,0.311,0.311h9.199
				c0.174,0,0.311,0.138,0.311,0.308v11.866c0,0.172,0.141,0.31,0.308,0.31h3.34c0.171,0,0.311-0.138,0.311-0.31V99.209
				c0-0.171,0.132-0.308,0.308-0.308H610.224z"/>
			<path style="fill:#51779F;" d="M612.471,96.588c0,0.171,0.135,0.31,0.305,0.31h2.352c0.168,0,0.311-0.139,0.311-0.31v-4.566
				c0-0.171-0.144-0.31-0.311-0.31h-2.352c-0.171,0-0.305,0.139-0.305,0.31V96.588z"/>
			<path style="fill:#51779F;" d="M617.032,96.588c0,0.171,0.141,0.31,0.308,0.31h2.352c0.168,0,0.308-0.139,0.308-0.31v-4.566
				c0-0.171-0.141-0.31-0.308-0.31h-2.352c-0.167,0-0.308,0.139-0.308,0.31V96.588z"/>
			<path style="fill:#38393C;" d="M521.644,105.541c-0.078,0.08-0.078,0.213,0,0.293l2.505,2.503c0.081,0.081,0.212,0.081,0.293,0
				l9.07-9.069c0.078-0.081,0.215-0.081,0.293,0l11.847,11.865c0.078,0.082,0.209,0.082,0.293,0l2.502-2.502
				c0.078-0.08,0.078-0.213,0-0.294l-14.639-14.664c-0.078-0.083-0.216-0.083-0.296-0.002L521.644,105.541z"/>
			<path style="fill:#51779F;" d="M545.93,97.556c1.616,0,2.924-1.308,2.924-2.922c0-1.612-1.308-2.922-2.924-2.922
				c-1.613,0-2.918,1.31-2.918,2.922C543.012,96.248,544.317,97.556,545.93,97.556"/>
			<path style="fill:#38393C;" d="M555.057,111.178c-0.015,0.114,0.069,0.207,0.182,0.207h3.845c0.114,0,0.221-0.093,0.23-0.207
				l2.08-17.279c0.015-0.113-0.069-0.205-0.182-0.205h-3.842c-0.114,0-0.222,0.092-0.236,0.205L555.057,111.178z"/>
			<path style="fill:#38393C;" d="M570.623,93.694c-0.117,0-0.198,0.092-0.183,0.205l2.098,17.279
				c0.015,0.114,0.12,0.207,0.233,0.207h3.842c0.114,0,0.201-0.093,0.186-0.207l-2.098-17.279c-0.015-0.113-0.123-0.205-0.234-0.205
				H570.623z"/>
			<path style="fill:#51779F;" d="M580.336,91.712c-1.61,0-2.921,1.31-2.921,2.922c0,1.614,1.311,2.922,2.921,2.922
				c1.616,0,2.924-1.308,2.924-2.922C583.26,93.022,581.952,91.712,580.336,91.712"/>
		</g>
		<g>
			<path style="fill:#9A9DA6;" d="M392.427,95.607v6.989h0.061c0.124-0.165,0.283-0.34,0.477-0.517
				c0.194-0.18,0.427-0.346,0.695-0.498c0.269-0.152,0.583-0.279,0.943-0.385c0.359-0.103,0.766-0.156,1.224-0.156
				c0.706,0,1.356,0.135,1.949,0.406c0.595,0.269,1.106,0.64,1.534,1.11c0.429,0.47,0.759,1.022,0.998,1.659
				c0.233,0.636,0.352,1.32,0.352,2.053c0,0.734-0.117,1.423-0.342,2.064c-0.23,0.641-0.553,1.204-0.977,1.679
				c-0.421,0.479-0.93,0.86-1.534,1.14c-0.6,0.284-1.28,0.427-2.043,0.427c-0.705,0-1.365-0.152-1.982-0.456
				c-0.615-0.303-1.094-0.747-1.442-1.329h-0.04v1.495h-2.363V95.607H392.427z M398.129,106.269c0-0.387-0.059-0.772-0.176-1.151
				c-0.118-0.381-0.292-0.723-0.528-1.027c-0.236-0.305-0.535-0.549-0.891-0.736c-0.359-0.186-0.782-0.281-1.267-0.281
				c-0.456,0-0.863,0.099-1.223,0.292s-0.666,0.441-0.924,0.747c-0.255,0.304-0.45,0.649-0.58,1.035
				c-0.131,0.388-0.198,0.776-0.198,1.163s0.067,0.77,0.198,1.151c0.129,0.38,0.325,0.723,0.58,1.028
				c0.258,0.304,0.564,0.548,0.924,0.734c0.361,0.186,0.767,0.28,1.223,0.28c0.485,0,0.908-0.096,1.267-0.29
				c0.356-0.195,0.655-0.442,0.891-0.747c0.236-0.304,0.41-0.65,0.528-1.038C398.07,107.043,398.129,106.656,398.129,106.269z"/>
			<path style="fill:#9A9DA6;" d="M401.732,101.333h2.761l2.777,7.236h0.04l2.468-7.236h2.591l-4.708,12.091
				c-0.176,0.456-0.371,0.86-0.578,1.213c-0.209,0.353-0.457,0.651-0.746,0.892c-0.292,0.242-0.636,0.426-1.029,0.548
				c-0.393,0.126-0.867,0.19-1.421,0.19c-0.207,0-0.418-0.013-0.632-0.033c-0.215-0.02-0.435-0.06-0.652-0.114l0.207-2.156
				c0.164,0.054,0.327,0.092,0.484,0.111c0.161,0.023,0.308,0.034,0.449,0.034c0.262,0,0.483-0.034,0.662-0.093
				c0.18-0.064,0.332-0.16,0.457-0.291c0.123-0.132,0.236-0.296,0.333-0.486c0.096-0.195,0.198-0.424,0.31-0.687l0.499-1.265
				L401.732,101.333z"/>
		</g>
	</g>
	<g>
		<path d="M118.948,99.75c-0.454,0-0.599-0.204-0.615-0.541V59.777h-12.859v47.817c-0.002,0.084-0.029,2.09,1.248,3.35
			c0.663,0.654,1.536,0.984,2.595,0.984h30.504V99.75H118.948z"/>
		<path d="M204.323,63.944v47.989h11.901V91.944c0-0.002,0.008-0.192,0.105-0.288c0.055-0.057,0.158-0.085,0.306-0.085h5.041
			c0.008,0,0.764,0.026,1.07,0.648l11.106,19.711h13.934l-13.5-21.699c3.437-0.786,6.12-2.412,7.985-4.84
			c2.006-2.615,3.024-5.824,3.024-9.537c0-3.055-0.561-5.655-1.669-7.727c-1.111-2.073-2.632-3.747-4.521-4.973
			c-1.87-1.214-4.069-2.091-6.537-2.608c-2.439-0.51-5.049-0.768-7.755-0.768h-16.447C204.109,59.777,204.323,63.944,204.323,63.944
			z M216.225,70.662c0-0.135,0-0.415,0.427-0.415h7.749c1.004,0,2.053,0.072,3.115,0.212c1.01,0.132,1.92,0.389,2.7,0.767
			c0.741,0.359,1.361,0.885,1.844,1.564c0.47,0.66,0.708,1.583,0.708,2.746c0,1.363-0.312,2.63-0.795,3.228
			c-0.55,0.678-1.248,1.182-2.078,1.499c-0.873,0.334-1.872,0.537-2.969,0.606c-1.152,0.071-2.24,0.107-3.269,0.107h-6.991
			c-0.099,0-0.277-0.012-0.359-0.092c-0.068-0.066-0.082-0.187-0.082-0.244V70.662z"/>
		<path d="M343.791,70.604h24.169V59.777h-32.684c-2.476,0-3.174,2.021-3.197,3.103v46.316c-0.002,0.123,0.01,1.226,0.815,2.01
			c0.491,0.48,1.15,0.722,1.957,0.722h33.109v-11.031h-24.066c-0.483,0-0.565-0.361-0.565-0.467v-9.31
			c0-0.21,0.068-0.498,0.553-0.498h22.873V80.204h-22.867c-0.312,0-0.559-0.069-0.559-0.589v-8.502
			C343.333,70.781,343.461,70.604,343.791,70.604z"/>
		<path d="M71.052,58.141c-14.797,0-25.131,11.396-25.131,27.712c0,16.574,10.099,27.711,25.131,27.711
			c14.797,0,25.131-11.395,25.131-27.711C96.183,69.795,85.613,58.141,71.052,58.141z M71.052,68.978
			c8.574,0,12.412,8.502,12.412,16.927c0,7.808-3.25,16.926-12.412,16.926c-11.202,0-12.412-11.837-12.412-16.926
			C58.64,78.097,61.89,68.978,71.052,68.978z"/>
		<path d="M340.724,25.688L183.98,0L30.5,25.691c-0.994,0.19-2.876,1.24-2.876,3.853V45.74l11.689-0.068v-9.86
			c0-0.391,0.368-0.504,0.454-0.525L183.98,11.112l147.501,24.176c0.166,0.031,0.448,0.14,0.448,0.525v9.86l11.689,0.068V29.544
			C343.617,26.931,341.734,25.881,340.724,25.688z"/>
		<path d="M39.215,111.635l-0.353-11.068c-4.353,2.003-10.857,1.839-10.857,1.839c-2.018,0-3.928-0.399-5.671-1.187
			c-1.751-0.789-3.297-1.908-4.595-3.326c-1.304-1.424-2.345-3.132-3.094-5.077c-0.751-1.944-1.133-4.52-1.133-6.878
			c0-2.307,0.382-5.221,1.133-7.192c0.747-1.963,1.801-3.68,3.127-5.104c1.32-1.416,2.903-2.536,4.691-3.321
			c0.029-0.012,2.991-1.196,5.915-1.196c0,0,4.807-0.378,10.469,1.743l0.368-11.041C34.914,58.163,28.8,58.141,28.8,58.141
			c-4.012,0.071-7.736,0.714-11.073,1.913c-3.593,1.292-6.745,3.169-9.364,5.58c-2.622,2.415-4.696,5.377-6.159,8.805
			C0.741,77.863,0,81.732,0,85.939s0.741,8.077,2.203,11.501c1.466,3.432,3.538,6.395,6.159,8.806
			c2.62,2.411,5.771,4.288,9.364,5.58c3.34,1.199,7.065,1.842,11.085,1.912C28.812,113.738,34.834,113.788,39.215,111.635z"/>
		<path d="M317.924,59.777h-9.235c-0.092,0-2.279,0.034-3.782,3.004l-9.991,20.197l-9.915-20.138
			c-1.343-3.027-3.897-3.062-4.006-3.062h-8.712c-2.651,0-3.239,2.22-3.245,3.397v48.755h11.595V75.904l9.069,18.775
			c0.111,0.206,1.127,2.01,2.552,2.01h4.895c1.56,0,2.417-1.686,2.451-1.756l9.59-19.115v36.112H321V62.835
			C321.002,60.432,318.992,59.784,317.924,59.777z"/>
		<path d="M170.099,58.141c-14.797,0-25.131,11.396-25.131,27.712c0,16.574,10.099,27.711,25.131,27.711
			c14.797,0,25.131-11.395,25.131-27.711C195.23,69.795,184.66,58.141,170.099,58.141z M170.099,68.978
			c8.574,0,12.412,8.502,12.412,16.927c0,7.808-3.25,16.926-12.412,16.926c-11.202,0-12.412-11.837-12.412-16.926
			C157.687,78.097,160.937,68.978,170.099,68.978z"/>
	</g>
</g>
</svg>
