<svg xmlns="http://www.w3.org/2000/svg" width="62" height="70" viewBox="0 0 62 70">
    <defs>
        <linearGradient id="prefix__a" x1="89.485%" x2="10.515%" y1="0%" y2="100%">
            <stop offset="0%" stop-color="#00CEFF"/>
            <stop offset="100%" stop-color="#8344FF"/>
        </linearGradient>
    </defs>
    <path fill="url(#prefix__a)" fill-rule="evenodd" d="M33.735.784l24.953 14.407c1.811 1.046 2.927 2.979 2.927 5.07v28.813c0 2.092-1.116 4.025-2.927 5.07L33.735 68.552c-1.812 1.046-4.043 1.046-5.855 0L2.927 54.145C1.116 53.099 0 51.166 0 49.075V20.26c0-2.091 1.116-4.024 2.927-5.07L27.88.784c1.812-1.045 4.043-1.045 5.855 0zm12.924 19.48h-25.33l-6.078 8.105h6.079v22.898l8.105-10.74h7.092l6.08-8.105H29.434v-4.053H40.58l6.079-8.105z"/>
</svg>
