<?xml version="1.0" encoding="UTF-8" standalone="no"?>
<!-- Created with Inkscape (http://www.inkscape.org/) -->

<svg
   xmlns:dc="http://purl.org/dc/elements/1.1/"
   xmlns:cc="http://creativecommons.org/ns#"
   xmlns:rdf="http://www.w3.org/1999/02/22-rdf-syntax-ns#"
   xmlns:svg="http://www.w3.org/2000/svg"
   xmlns="http://www.w3.org/2000/svg"
   xmlns:sodipodi="http://sodipodi.sourceforge.net/DTD/sodipodi-0.dtd"
   xmlns:inkscape="http://www.inkscape.org/namespaces/inkscape"
   width="159.40884mm"
   height="86.240112mm"
   viewBox="0 0 159.40884 86.240112"
   version="1.1"
   id="svg8"
   inkscape:version="0.92.4 5da689c313, 2019-01-14"
   sodipodi:docname="idea_simple_logo_gravitee.svg"
   inkscape:export-filename="/tmp/idea_simple_logo.png"
   inkscape:export-xdpi="156.78999"
   inkscape:export-ydpi="156.78999">
  <defs
     id="defs2" />
  <sodipodi:namedview
     id="base"
     pagecolor="#ffffff"
     bordercolor="#666666"
     borderopacity="1.0"
     inkscape:pageopacity="0.0"
     inkscape:pageshadow="2"
     inkscape:zoom="2.2772158"
     inkscape:cx="301.24506"
     inkscape:cy="162.97344"
     inkscape:document-units="mm"
     inkscape:current-layer="layer1"
     showgrid="false"
     inkscape:window-width="1920"
     inkscape:window-height="1016"
     inkscape:window-x="0"
     inkscape:window-y="27"
     inkscape:window-maximized="1"
     fit-margin-top="0"
     fit-margin-left="0"
     fit-margin-right="0"
     fit-margin-bottom="0" />
  <metadata
     id="metadata5">
    <rdf:RDF>
      <cc:Work
         rdf:about="">
        <dc:format>image/svg+xml</dc:format>
        <dc:type
           rdf:resource="http://purl.org/dc/dcmitype/StillImage" />
        <dc:title></dc:title>
      </cc:Work>
    </rdf:RDF>
  </metadata>
  <g
     inkscape:label="Layer 1"
     inkscape:groupmode="layer"
     id="layer1"
     transform="translate(-14.579961,-10.16096)">
    <g
       id="g3866"
       style="fill:#ffffff;stroke-width:1.20485198"
       transform="matrix(0.82997759,0,0,0.82997759,16.030456,9.0589672)">
      <path
         d="M 31.621981,23.14166 V 88.67857 H 14.579961 V 23.14166 Z"
         style="font-style:normal;font-variant:normal;font-weight:normal;font-stretch:normal;font-size:82.90278625px;line-height:125%;font-family:Impact;-inkscape-font-specification:Impact;letter-spacing:0px;word-spacing:0px;fill:#ffffff;fill-opacity:1;stroke:none;stroke-width:0.31878376px;stroke-linecap:butt;stroke-linejoin:miter;stroke-opacity:1"
         id="path4554"
         inkscape:connector-curvature="0" />
      <path
         d="m 73.478391,10.16096 -12.57251,2.12696 q -12.1734,2.05943 -16.255,3.89947 -4.12152,1.8468 -5.92448,4.77934 -1.80298,2.93254 -1.82833,6.18017 -0.0321,3.20774 1.52091,12.38766 l 3.82851,22.63053 q 1.47199,8.70099 2.80982,11.51274 1.29117,2.77858 3.61031,4.11055 2.3124,1.29206 5.42064,1.46416 3.10149,0.13218 9.12831,-0.8874 L 84.410256,74.7797 Z m -14.9329,13.89852 7.19112,42.50709 q -3.63205,0.61444 -4.71331,-0.68062 -1.088,-1.33497 -2.18186,-7.80083 L 54.594291,32.98 q -0.74274,-4.39041 -0.67267,-5.67497 0.0701,-1.28456 0.97335,-2.01215 0.89654,-0.7675 3.65052,-1.2334 z"
         style="font-style:normal;font-variant:normal;font-weight:normal;font-stretch:normal;font-size:82.90278625px;line-height:125%;font-family:Impact;-inkscape-font-specification:Impact;letter-spacing:0px;word-spacing:0px;fill:#ffffff;fill-opacity:1;stroke:none;stroke-width:0.31878376px;stroke-linecap:butt;stroke-linejoin:miter;stroke-opacity:1"
         id="path4556"
         inkscape:connector-curvature="0" />
      <path
         d="m 106.49381,24.53086 26.17827,11.05518 -5.10239,12.08228 -10.47877,-4.42522 -4.83468,11.44833 9.80753,4.14175 -4.85041,11.48562 -9.80753,-4.14176 -5.60634,13.27559 11.52292,4.86616 -5.10239,12.08228 -27.222434,-11.49613 z"
         style="font-style:normal;font-variant:normal;font-weight:normal;font-stretch:normal;font-size:82.90278625px;line-height:125%;font-family:Impact;-inkscape-font-specification:Impact;letter-spacing:0px;word-spacing:0px;fill:#ffffff;fill-opacity:1;stroke:none;stroke-width:0.31878376px;stroke-linecap:butt;stroke-linejoin:miter;stroke-opacity:1"
         id="path4558"
         inkscape:connector-curvature="0" />
      <path
         d="m 164.23316,13.47611 9.75565,65.53691 H 156.54198 L 155.6919,67.23338 h -6.11246 l -1.01199,11.77964 h -17.64923 l 8.66269,-65.53691 z m -9.02702,42.13955 q -1.29535,-11.13197 -2.59071,-27.48584 -2.59071,18.78266 -3.23839,27.48584 z"
         style="font-style:normal;font-variant:normal;font-weight:normal;font-stretch:normal;font-size:82.90278625px;line-height:125%;font-family:Impact;-inkscape-font-specification:Impact;letter-spacing:0px;word-spacing:0px;fill:#ffffff;fill-opacity:1;stroke:none;stroke-width:0.31878376px;stroke-linecap:butt;stroke-linejoin:miter;stroke-opacity:1"
         id="path4560"
         inkscape:connector-curvature="0" />
    </g>
  </g>
</svg>
