<svg width="1218" height="582" viewBox="0 0 121 37" fill="none" xmlns="http://www.w3.org/2000/svg">
<g clip-path="url(#clip0)">
<path d="M0 4.49237H9.80935C11.7767 4.38593 13.7178 4.99601 15.2926 6.21578C15.94 6.73087 16.4617 7.39453 16.8163 8.15401C17.1708 8.9135 17.3485 9.74781 17.335 10.5905C17.335 13.218 15.8447 14.9963 12.8642 15.9255C14.2709 16.0842 15.5682 16.7823 16.4984 17.8811C17.3894 18.9362 17.8707 20.2934 17.8496 21.6919C17.8807 22.5377 17.7178 23.379 17.3742 24.1477C17.0306 24.9164 16.5159 25.5907 15.8719 26.116C14.5529 27.21 12.7143 27.757 10.3559 27.757H0V4.49237ZM5.49993 8.80132V13.8387H9.10212C9.79279 13.8736 10.4724 13.6502 11.0159 13.2096C11.2657 12.9738 11.4607 12.6829 11.586 12.3585C11.7114 12.0341 11.7639 11.6847 11.7398 11.3365C11.7627 10.9861 11.7097 10.6349 11.5845 10.3083C11.4593 9.9817 11.265 9.68786 11.0159 9.44827C10.4767 8.99788 9.79533 8.76832 9.10212 8.80342L5.49993 8.80132ZM5.49993 23.4496H9.64871C10.3342 23.474 11.0023 23.2248 11.5138 22.7539C11.7646 22.5075 11.9606 22.208 12.0883 21.8762C12.216 21.5443 12.2724 21.1877 12.2537 20.8312C12.2707 20.4729 12.2166 20.1148 12.0949 19.7787C11.9732 19.4426 11.7864 19.1356 11.5458 18.8763C11.3046 18.6325 11.0176 18.442 10.7023 18.3165C10.3871 18.1911 10.0503 18.1335 9.71268 18.147H5.49924L5.49993 23.4496Z" fill="#304659"/>
<path d="M24.7038 7.1772C24.1704 7.74339 23.4626 8.10085 22.7015 8.1884C21.9405 8.27595 21.1735 8.08811 20.5321 7.65708C19.8907 7.22605 19.4146 6.57868 19.1854 5.82574C18.9563 5.0728 18.9883 4.2612 19.276 3.52991C19.5637 2.79861 20.0892 2.19315 20.7624 1.81718C21.4357 1.4412 22.2149 1.31813 22.9665 1.46903C23.7181 1.61993 24.3955 2.03541 24.8826 2.64433C25.3696 3.25325 25.6361 4.01757 25.6363 4.80667C25.6473 5.24662 25.5702 5.68433 25.4098 6.09218C25.2493 6.50003 25.009 6.86934 24.7038 7.1772ZM19.6865 27.7581V9.26467H25.1864V27.7581H19.6865Z" fill="#304659"/>
<path d="M72.6995 25.3383C71.1612 23.4258 70.3193 21.0198 70.3193 18.5358C70.3193 16.0518 71.1612 13.6458 72.6995 11.7334C73.4224 10.8826 74.3157 10.2036 75.318 9.74298C76.3202 9.2824 77.4074 9.05115 78.5047 9.06541C79.5238 9.01304 80.5394 9.22525 81.4582 9.68262C82.3771 10.14 83.1697 10.8279 83.7633 11.6831V9.26608H89.2633V27.7597H83.7633V25.0746C83.1874 25.9884 82.3948 26.7358 81.4606 27.2461C80.5263 27.7564 79.4812 28.0129 78.4241 27.9912C77.3408 27.9998 76.2684 27.7673 75.2804 27.3094C74.2924 26.8516 73.4121 26.1791 72.6995 25.3383ZM82.5742 21.891C82.9874 21.442 83.3063 20.9099 83.511 20.3281C83.7158 19.7464 83.8019 19.1276 83.764 18.5101C83.8029 17.8952 83.7172 17.2785 83.5123 16.6996C83.3075 16.1206 82.988 15.592 82.5742 15.1471C82.217 14.773 81.7909 14.4761 81.3209 14.2739C80.8508 14.0718 80.3463 13.9684 79.837 13.9699C79.3277 13.9713 78.8238 14.0776 78.3548 14.2825C77.8859 14.4874 77.4614 14.7866 77.1063 15.1628C76.693 15.6118 76.3741 16.1438 76.1693 16.7255C75.9646 17.3072 75.8785 17.9261 75.9164 18.5437C75.8774 19.1589 75.963 19.7757 76.1679 20.3549C76.3727 20.9341 76.6923 21.4631 77.1063 21.9081C77.4635 22.2821 77.8898 22.5789 78.3598 22.7809C78.8299 22.9829 79.3344 23.0862 79.8437 23.0846C80.353 23.083 80.8569 22.9766 81.3258 22.7716C81.7947 22.5667 82.2191 22.2672 82.5742 21.891Z" fill="#304659"/>
<path d="M99.6968 22.9529H101.659V27.7582H98.8609C97.1941 27.8665 95.5419 27.3807 94.1815 26.3824C93.0768 25.4661 92.5247 23.892 92.5251 21.6601V13.9718H90.8506V9.26542H92.523V4.75879H98.023V9.26542H101.629V13.9718H98.0271V21.6601C98.0253 22.5214 98.5818 22.9524 99.6968 22.9529Z" fill="#304659"/>
<path d="M104.437 25.3383C102.898 23.4258 102.057 21.0198 102.057 18.5358C102.057 16.0518 102.898 13.6458 104.437 11.7334C105.16 10.8826 106.053 10.2036 107.055 9.74298C108.057 9.2824 109.145 9.05115 110.242 9.06541C111.261 9.01304 112.277 9.22525 113.196 9.68262C114.114 10.14 114.907 10.8279 115.501 11.6831V9.26608H121.001V27.7597H115.503V25.0746C114.927 25.9884 114.134 26.7358 113.2 27.2461C112.266 27.7564 111.221 28.0129 110.163 27.9912C109.08 28.0001 108.007 27.7676 107.019 27.3098C106.03 26.8519 105.15 26.1794 104.437 25.3383ZM114.311 21.891C114.725 21.442 115.044 20.9099 115.248 20.3281C115.453 19.7464 115.539 19.1276 115.501 18.5101C115.54 17.8952 115.454 17.2785 115.25 16.6996C115.045 16.1206 114.725 15.592 114.311 15.1471C113.954 14.773 113.528 14.4761 113.058 14.2739C112.588 14.0718 112.084 13.9684 111.574 13.9699C111.065 13.9713 110.561 14.0776 110.092 14.2825C109.623 14.4874 109.199 14.7866 108.844 15.1628C108.43 15.6118 108.111 16.1438 107.907 16.7255C107.702 17.3072 107.616 17.9261 107.654 18.5437C107.615 19.1589 107.7 19.7757 107.905 20.3549C108.11 20.9341 108.43 21.4631 108.844 21.9081C109.201 22.2821 109.627 22.5789 110.097 22.7809C110.567 22.9829 111.072 23.0862 111.581 23.0846C112.09 23.083 112.594 22.9766 113.063 22.7716C113.532 22.5667 113.956 22.2672 114.311 21.891Z" fill="#304659"/>
<path d="M36.7014 21.4438C36.6604 21.4438 36.6186 21.451 36.5769 21.451C36.1737 21.4538 35.7746 21.3675 35.4065 21.198C35.0383 21.0285 34.7097 20.7797 34.4427 20.4683C34.1758 20.1569 33.9766 19.7902 33.8587 19.3929C33.7408 18.9956 33.7069 18.5769 33.7592 18.1649C33.8116 17.753 33.949 17.3572 34.1622 17.0045C34.3754 16.6519 34.6594 16.3504 34.9952 16.1203C35.3309 15.8903 35.7107 15.737 36.1087 15.6709C36.5068 15.6048 36.914 15.6274 37.3029 15.737L39.7598 16.4085L39.7862 13.7893C39.8034 12.1078 40.3629 10.48 41.3764 9.162C42.39 7.84404 43.8001 6.91081 45.3848 6.50928C46.9695 6.10774 48.6388 6.26069 50.1299 6.94402C51.621 7.62735 52.8492 8.80222 53.6212 10.2838L54.4418 11.853L56.06 11.2232C56.7439 10.957 57.4752 10.8446 58.2048 10.8934C58.9344 10.9423 59.6454 11.1515 60.2901 11.5068C60.9348 11.8621 61.4983 12.3553 61.9428 12.9535C62.3873 13.5516 62.7025 14.2408 62.8673 14.9748C63.0321 15.7088 63.0426 16.4707 62.8982 17.2092C62.7538 17.9478 62.4578 18.6458 62.0301 19.2568C61.6023 19.8678 61.0527 20.3774 60.4181 20.7515C59.7835 21.1257 59.0786 21.3556 58.3507 21.426L58.0802 21.4517L36.7014 21.4438Z" fill="#E36327"/>
<path d="M36.9019 23.4884V23.4711C36.7948 23.479 36.6877 23.4884 36.5786 23.4884C35.8952 23.4898 35.2194 23.3406 34.5964 23.0511C33.9735 22.7615 33.4177 22.3382 32.9664 21.8095C32.5151 21.2807 32.1785 20.6587 31.9793 19.9851C31.7801 19.3115 31.7229 18.6017 31.8114 17.9034C31.8999 17.2051 32.1322 16.5344 32.4926 15.9361C32.853 15.3378 33.3333 14.8258 33.9013 14.4342C34.4693 14.0427 35.112 13.7808 35.7862 13.6658C36.4604 13.5509 37.1507 13.5856 37.8108 13.7678C37.8225 12.5159 38.0722 11.2784 38.5459 10.1254C37.4417 9.39615 36.1497 9.02702 34.8387 9.06632C33.7414 9.05206 32.6542 9.28331 31.6519 9.74389C30.6497 10.2045 29.7564 10.8835 29.0335 11.7343C27.4952 13.6467 26.6533 16.0527 26.6533 18.5367C26.6533 21.0207 27.4952 23.4267 29.0335 25.3392C29.7462 26.1798 30.6268 26.852 31.6149 27.3096C32.603 27.7672 33.6754 27.9996 34.7587 27.9907C35.8159 28.0124 36.861 27.7559 37.7952 27.2456C38.7295 26.7353 39.522 25.9879 40.098 25.0741V27.6595C40.198 28.8505 39.8399 30.0344 39.1008 30.9559C38.7753 31.2988 38.3843 31.5687 37.9527 31.7484C37.521 31.9281 37.0579 32.0137 36.5925 31.9999C34.5341 31.9999 33.2476 31.3036 32.733 29.9111H27.3297C27.3659 30.946 27.631 31.9586 28.1048 32.8719C28.5785 33.7851 29.2484 34.5749 30.0634 35.1808C31.6716 36.3297 33.8479 36.9042 36.5925 36.9042C38.0024 36.9318 39.4046 36.6843 40.7253 36.1747C41.8224 35.7566 42.7932 35.0478 43.5396 34.1196C44.9484 32.2854 45.6781 29.9945 45.5979 27.6567V23.4868L36.9019 23.4884Z" fill="#304659"/>
<path d="M66.3885 7.72301C64.0705 5.56848 61.1115 4.49121 57.5117 4.49121H49.5674V4.58586C50.7943 4.92712 51.9409 5.52253 52.9371 6.33568C53.9333 7.14883 54.7582 8.16273 55.3615 9.31537C56.3092 8.94662 57.3225 8.79099 58.3334 8.85894C59.3443 8.92688 60.3294 9.21669 61.2227 9.70918C62.1159 10.2017 62.8965 10.8853 63.5123 11.7142C64.128 12.5432 64.5646 13.4982 64.7928 14.5153C65.0209 15.5324 65.0353 16.5881 64.835 17.6114C64.6347 18.6347 64.2244 19.602 63.6315 20.4485C63.0386 21.2949 62.2768 22.0008 61.3974 22.519C60.518 23.0371 59.5412 23.3556 58.5325 23.4528V23.4871H49.5674V27.7565H57.5117C61.1139 27.7565 64.0728 26.674 66.3885 24.509C67.4867 23.4235 68.3606 22.1204 68.9575 20.678C69.5545 19.2356 69.8622 17.6838 69.8622 16.1157C69.8622 14.5476 69.5545 12.9957 68.9575 11.5533C68.3606 10.1109 67.4867 8.80777 66.3885 7.72231V7.72301Z" fill="#304659"/>
<path d="M101.144 30.574C101.663 30.5479 102.174 30.7116 102.587 31.0362C102.953 31.3471 103.215 31.7679 103.337 32.24L102.582 32.3955C102.48 32.0612 102.287 31.7641 102.026 31.5399C101.776 31.3305 101.463 31.2188 101.142 31.2246C100.915 31.2225 100.691 31.2763 100.489 31.3814C100.287 31.4864 100.112 31.6398 99.9784 31.8287C99.6449 32.3188 99.4821 32.9108 99.5166 33.5084C99.4883 34.1127 99.6318 34.7124 99.9297 35.2339C100.058 35.4431 100.238 35.6134 100.451 35.7276C100.664 35.8418 100.903 35.8957 101.142 35.8838C101.525 35.9064 101.901 35.7783 102.195 35.5255C102.323 35.4046 102.423 35.2563 102.49 35.0911C102.557 34.9259 102.588 34.7477 102.581 34.5689H103.336C103.347 34.8395 103.3 35.1093 103.196 35.3581C103.092 35.6069 102.935 35.8281 102.736 36.0056C102.27 36.383 101.685 36.572 101.093 36.5367C100.769 36.5457 100.447 36.4757 100.154 36.3325C99.8604 36.1894 99.604 35.9769 99.4054 35.7125C98.9493 35.0764 98.7217 34.2968 98.7614 33.507C98.7156 32.7281 98.9532 31.9596 99.4276 31.3514C99.6399 31.0989 99.904 30.8981 100.201 30.7636C100.498 30.6292 100.82 30.5644 101.144 30.574Z" fill="#304659"/>
<path d="M104.662 30.1982H105.364V36.4326H104.662V30.1982Z" fill="#304659"/>
<path d="M108.718 31.9469C108.985 31.9359 109.25 31.9833 109.498 32.086C109.745 32.1886 109.968 32.3442 110.153 32.5424C110.507 33.0329 110.699 33.6282 110.699 34.2399C110.699 34.8516 110.507 35.447 110.153 35.9376C109.767 36.3192 109.253 36.5322 108.719 36.5322C108.184 36.5322 107.67 36.3192 107.284 35.9376C106.93 35.447 106.738 34.8516 106.738 34.2399C106.738 33.6282 106.93 33.0329 107.284 32.5424C107.469 32.3442 107.692 32.1886 107.939 32.086C108.187 31.9833 108.452 31.9359 108.718 31.9469ZM109.988 34.2399C110.012 33.8064 109.9 33.3765 109.668 33.0139C109.559 32.8661 109.417 32.7483 109.254 32.6708C109.09 32.5933 108.91 32.5584 108.731 32.5695C108.55 32.5591 108.37 32.5943 108.205 32.6717C108.04 32.7491 107.896 32.8665 107.785 33.0139C107.548 33.3742 107.432 33.8051 107.457 34.2399C107.433 34.6721 107.542 35.101 107.768 35.4659C107.874 35.6139 108.015 35.7322 108.177 35.8097C108.339 35.8872 108.518 35.9215 108.696 35.9096C108.878 35.9195 109.06 35.8844 109.226 35.8072C109.392 35.7301 109.538 35.613 109.651 35.4659C109.894 35.108 110.013 34.6761 109.988 34.2399Z" fill="#304659"/>
<path d="M114.998 35.5606C114.887 35.8502 114.691 36.0973 114.438 36.2678C114.186 36.4383 113.888 36.524 113.586 36.513C113.162 36.5335 112.747 36.3861 112.426 36.101C112.27 35.9334 112.149 35.7333 112.074 35.5139C111.998 35.2946 111.968 35.061 111.987 34.829V32.043H112.689V34.7702C112.689 35.5088 113.02 35.8779 113.683 35.8775C113.863 35.8822 114.042 35.8433 114.205 35.7639C114.367 35.6845 114.51 35.5667 114.62 35.4202C114.87 35.0844 115.003 34.6717 114.998 34.2485V32.043H115.7V36.427H114.998V35.5606Z" fill="#304659"/>
<path d="M120.244 32.7053V30.1973H120.94V36.4317H120.372L120.282 35.6992C120.163 35.9553 119.975 36.1713 119.741 36.322C119.519 36.4617 119.263 36.5346 119.003 36.5326C118.745 36.5366 118.49 36.4811 118.256 36.3703C118.021 36.2594 117.814 36.096 117.649 35.892C117.271 35.425 117.076 34.8293 117.102 34.2217C117.074 33.6209 117.266 33.0309 117.64 32.5692C117.808 32.3684 118.017 32.2086 118.252 32.101C118.487 31.9935 118.742 31.9409 118.999 31.9473C119.255 31.9403 119.507 32.0077 119.727 32.1418C119.948 32.2759 120.127 32.4711 120.244 32.7053ZM119.036 32.5863C118.868 32.5858 118.702 32.6261 118.552 32.7039C118.401 32.7817 118.271 32.8948 118.171 33.0342C117.941 33.3904 117.819 33.8087 117.82 34.2363C117.82 34.6638 117.944 35.0816 118.175 35.4369C118.273 35.5759 118.401 35.6893 118.549 35.7679C118.697 35.8466 118.861 35.8884 119.028 35.8899C119.184 35.893 119.34 35.8643 119.485 35.8054C119.631 35.7465 119.764 35.6586 119.876 35.5466C119.995 35.4268 120.089 35.2835 120.152 35.1253C120.215 34.9672 120.247 34.7976 120.245 34.6266V33.91C120.254 33.7324 120.228 33.5547 120.168 33.3879C120.108 33.2212 120.016 33.0687 119.897 32.9397C119.785 32.8235 119.65 32.7323 119.502 32.6715C119.354 32.6108 119.196 32.5817 119.036 32.5863Z" fill="#304659"/>
</g>
<defs>
<clipPath id="clip0">
<rect width="1218" height="357" fill="white" transform="translate(0 1.47656)"/>
</clipPath>
</defs>
</svg>
