<svg xmlns="http://www.w3.org/2000/svg" viewBox="0 0 448.06 438.65"><defs><style>.cls-1{fill:#2e3031;}.cls-2{fill:#fff;}.cls-3{fill:#f8af02;}</style></defs><title>Fichier 1</title><g id="Calque_2" data-name="Calque 2"><g id="Calque_1-2" data-name="Calque 1"><rect class="cls-1" y="200.26" width="448.06" height="91.44" rx="20.04" ry="20.04"/><path class="cls-1" d="M375.57,351.28a540.37,540.37,0,0,0-303.07,0c-8.56,2.5-15.44-2.3-15.44-11V295.73c0-8.72,6.88-18.05,15.44-20.55a540.37,540.37,0,0,1,303.07,0C384.13,277.68,391,287,391,295.73v44.53C391,349,384.13,353.78,375.57,351.28Z"/><path class="cls-1" d="M61.4,201.83c4.36,3.48,10.47,3.29,16,3.6s12,1.95,14.22,7.06c1.22,2.78.88,6,1.35,9,1.49,9.66,10.83,15.92,19.61,20.23,36.16,17.72,77.45,23.08,117.66,20.83s79.63-11.81,118.39-22.7c8.17-2.3,17.9-6.49,18.5-15,.36-5-3.05-9.74-7.34-12.4s-9.38-3.66-14.34-4.61c-19.76-3.81-40.24-7.59-59.81-2.94-22.7,5.4-42.15,21.72-65.34,24.27-26,2.85-50.12-12-74.42-21.71-18.31-7.3-37.57-11.76-56.9-15.37-6.32-1.18-18.87-6-25.1-4.1A7.88,7.88,0,0,0,61.4,201.83Z"/><path class="cls-1" d="M336.94,93.17c7,5.56,15.2,9.54,22.14,15.21s12.79,13.78,12.46,22.73c1.12-7.51-3.12-15-8.85-20s-12.83-8-19.61-11.47-13.56-7.51-17.83-13.8a70.17,70.17,0,0,0,31.93,34.57c7.67,4,16.19,6.61,22.84,12.14S391,148,386.75,155.5c2.57-5.93.32-13.1-4-17.92s-10.29-7.75-16.24-10.29-12.1-4.84-17.21-8.8c8.38,11.32,20.9,18.77,33.34,25.36,3.25,1.72,6.73,3.45,10.4,3.24s7.46-3.14,7.21-6.81c.14,3.65-3.71,6.44-7.36,6.55s-7.06-1.67-10.28-3.4-6.64-3.5-10.29-3.35a116.35,116.35,0,0,1,36.16,26.78,73.08,73.08,0,0,0-40.38-24.62,215.14,215.14,0,0,1,37.48,31.5,80.23,80.23,0,0,0-25-18.8,30.89,30.89,0,0,1,6.77,28.31c-.37-13.38-10.67-25.85-23.73-28.74a87.91,87.91,0,0,1,18.77,31l-16.79-27.17,6.83,35.14c.68,3.53,1.35,7.25.14,10.63s-5.06,6.08-8.38,4.74A16,16,0,0,0,355.8,179c3.69,3.12,6.75,7.24,7.61,12s-.89,10.15-5,12.71S348,205,346,200.59c1.23,4.46,7.77,5.7,11.36,2.79s4.33-8.29,3-12.71-4.38-8.1-7.33-11.65a59.5,59.5,0,0,1,1.29,21.64,40.56,40.56,0,0,1-.38-24.09c1.66-5.57,4.5-10.73,6.33-16.24s2.58-11.77.06-17c-2.17-4.53-6.43-7.61-10.25-10.87-15.87-13.51-26.19-32.3-35.32-51-4.49-9.22-8.79-18.55-13.61-27.62-2.4-4.52-4.93-9-7.66-13.29-1.94-3.06-8.26-9.41-8.13-12.62,11.06,5.07,19.47,22.62,25.63,32.52C318.31,72.25,325.87,84.4,336.94,93.17Z"/><path class="cls-1" d="M118.6,83.52c-2.84,4.87-5.87,9.92-10.64,12.92-5.49,3.46-12.33,3.62-18.68,4.94a50.29,50.29,0,0,0-33.89,25.67c-.06-7.88,5.63-14.91,12.54-18.72s14.89-5,22.69-6.19a69.74,69.74,0,0,0-24.68,19.4,45.67,45.67,0,0,1,22.36-16,77.86,77.86,0,0,1-43.95,32.72c-2.59-2.59-.89-7.88,2.71-8.48-3.15,0-4.9,4.39-3.2,7s5.42,3.38,8.44,2.5,5.52-3,7.91-5a63.34,63.34,0,0,0-28.72,26.57A45,45,0,0,1,60.1,136.63L35.42,157.26l20.9-15.79L28.83,183.14a80.61,80.61,0,0,1,34.28-35.06c-8,15.1-16.1,30.91-16.46,48-.5-17.19,11.75-33.94,28.28-38.68a60.13,60.13,0,0,0-23.68,30.28c-2.73,7.83-3.79,16.46-1.6,24.46s8,15.27,15.79,18a30.64,30.64,0,0,1-13.6-23.78c-.57-12.13,6.14-23.38,13.71-32.87a46.86,46.86,0,0,0-3.8,47.19,39.33,39.33,0,0,1,5.15-35.79c4.55-6.25,11.28-11.85,11.69-19.57.32-5.86-3.19-11.13-6-16.28s-5.06-11.53-2.28-16.7c3-5.56,10.11-6.95,16.16-8.76a58.29,58.29,0,0,0,29-20.32c3.39-4.38,17.71-27.43,10.61-31.9C123,74.4,120.86,79.65,118.6,83.52Z"/><path class="cls-1" d="M121.72,205.47a97.51,97.51,0,0,0,18.41,31.21,36.89,36.89,0,0,1-13.48-30.87,84.64,84.64,0,0,0,33.08,37.39,33.47,33.47,0,0,1-19.46-28.59A183.62,183.62,0,0,1,160,238.23l-2.27-11.59c6.22-.7,12,3.35,16.27,7.91s7.93,9.92,13.25,13.2,13.23,3.68,17.11-1.24A21.09,21.09,0,0,1,176,229.93a18.48,18.48,0,0,1,13.5,5c3.48,3.49,5.11,8.93,3.48,13.58s-6.77,8-11.6,7c4.22,3.37,11,.39,13.36-4.47s1.5-10.6.32-15.87l15,18.72a21.72,21.72,0,0,1-4.54-12.06,10.52,10.52,0,0,1,10.3,9.17,38.45,38.45,0,0,0,14.71-17.66c-.37,13-12,24.59-24.95,25,5,2.16,11,.56,15.47-2.67s7.59-7.85,10.66-12.39l12.64-18.65c2.64-3.89,5.89-8.15,10.56-8.57,5.09-.45,9.43,4.13,10.89,9,2.12,7.15-.29,15.13-5,20.91s-11.46,9.59-18.47,12.14a27.53,27.53,0,0,0,24.43-35.7,11.71,11.71,0,0,1,5.59,10.32l-2.89-16.36A59.74,59.74,0,0,0,307.54,228c-6.55.15-13.32-.53-19-3.7s-10.16-9.3-9.79-15.83a28.87,28.87,0,0,0,12.22,13.37l-.62-9a17.51,17.51,0,0,1,7.33,7.33,39.45,39.45,0,0,0,3.54-21.13,19.29,19.29,0,0,1,3.57,21.61,25.63,25.63,0,0,0-.2-26.27,19.06,19.06,0,0,1,4.24,22.54,20.41,20.41,0,0,0,.92-24.05c3.73-1.77,7.85-3.08,12-2.58s8.13,3.17,9.24,7.14-1.7,8.88-5.82,9.1c5.7-1.71,8-10.45,3.32-14.14-1.87-1.48-4.34-2-6.71-2.26a62.3,62.3,0,0,0-24.27,1.73c-2.92.81-6.07,1.83-8.9.75-2.68-1-4.34-3.65-6.28-5.77-7.15-7.85-19.21-9.32-29.58-7s-19.73,7.71-29.51,11.84c-25.36,10.71-53.66,12.82-81.09,10.48-6.64-.56-13.52-1.35-19.81.86a22,22,0,0,0-12.43,11.22c3,.77,5.89-1.75,7.26-4.52s1.84-5.94,3.47-8.57,5.16-4.55,7.8-3"/><path class="cls-1" d="M219.85,3.88s.45-8.73-25.8,0c-28.16,9.38-51,24.81-71.07,64.18-14.75,28.86-32.53,37.41-55.38,57.3-20.47,17.83-32.24,56-34.48,66.65a88.92,88.92,0,0,1,18.62-17.65c14.5-9.79,24.54-9.85,24.54-9.85s-25.76,22.74-21.58,40.2c3.55,14.79,21.65,20.36,33.65,14.48,10.89-5.34,11.8-17.13,11.8-17.13s-9.16,9.53-16.82,9.53-15.73-4.24-12.47-14.81,26-15.87,26-15.87-14.06,6.94-15.19,15.87A6.32,6.32,0,0,0,86,203.65s-3.47-6.12,1.29-10.45c5.9-5.35,16.75-6.74,23,.2,14,15.55,27.61,32.3,64.79,51.68,40.33,21-44-35.07-.65-34.54s47.19,7.93,45,18.51-17.45,12.69-17.84,7.43c-.36-4.75,6.45-8.49,6.45-8.49s-12.71,1.26-12.47,10c.18,6.88,7.22,10.19,19.69,9.66s23.93-8.07,26.8-12.83,3.64,7.56,0,11.19-10.05,5.93-16.66,6.8c0,0,12.47,4.33,23.32,0S265.24,240.66,268.5,228s-1.83-33.56-11.59-50,40.9,64,41.74,35.16c0,0,1-10.68,8.75-17.19,6-5,10.28-7.93,19.07-9.83,11.44-2.47,20,1.7,25.91,7,4.76,4.33,1.28,10.45,1.28,10.45a6.31,6.31,0,0,0,4.34-6.87c-1.13-8.93-15.18-15.87-15.18-15.87s22.78,5.29,26,15.87-4.68,14.81-12.47,14.81-16.82-9.53-16.82-9.53.91,11.79,11.8,17.13c12,5.88,30.1.31,33.65-14.48,4.18-17.46-21.58-40.2-21.58-40.2s10,.06,24.54,9.85A88.92,88.92,0,0,1,406.59,192c-2.24-10.64-20.57-44.15-43.37-59-16.74-10.94-31.74-36-46.49-64.9-20.11-39.37-42.91-54.8-71.08-64.18-26.24-8.73-25.8,0-25.8,0"/><path class="cls-2" d="M314.32,103.84c0,53.23-43.15,115.57-96.39,115.57s-96.38-62.34-96.38-115.57a96,96,0,0,1,12.22-47c16.49-29.46,48-17.75,84.16-17.75,36.6,0,68.44-11.23,84.76,18.82A96,96,0,0,1,314.32,103.84Z"/><path class="cls-1" d="M217.94,220.2c-25.07,0-49.5-13.54-68.78-38.12-17.78-22.68-28.4-51.92-28.4-78.24a97.2,97.2,0,0,1,12.33-47.4c12.91-23.06,35-21.35,60.64-19.37,7.79.6,15.85,1.23,24.21,1.23,8.15,0,16-.56,23.65-1.1,26.23-1.85,48.87-3.45,61.79,20.32a97.38,97.38,0,0,1,11.73,46.32c0,26.32-10.62,55.56-28.4,78.24C267.43,206.66,243,220.2,217.94,220.2ZM173.27,37.55c-16.55,0-29.82,3.6-38.81,19.66a95.7,95.7,0,0,0-12.13,46.63c0,52,42.65,114.79,95.61,114.79s95.6-62.8,95.6-114.79A95.75,95.75,0,0,0,302,58.27c-12.43-22.88-33.57-21.39-60.3-19.5-7.65.54-15.56,1.1-23.76,1.1-8.42,0-16.51-.63-24.34-1.23C186.39,38.08,179.59,37.55,173.27,37.55Z"/><path class="cls-1" d="M146.43,177l12.65-4.46-6.33,11.18,6.43-4.53L156.67,196l5.92-13.57s5.32-4,3.77,4.49a93.93,93.93,0,0,1-4.24,15.47l7.72-14.91s3,9.85,1.7,14.91,1.53-9.58,8-10.65,5.71,1.33,5.71,1.33l0,15.18,5.14-15.18a6.67,6.67,0,0,1,7.51,0c3.88,2.67,6,17.58,6,17.58l2.32-7.19,5.11,11.44s4.17-16.77,3.8-18.9.62,3.46,1.16,9,5.47-9.58,7-11.31-1.38,19.83-1.38,19.83l5.78-15.7s-1.3,4.79,2.59,10.65,7.14,6.38,7.14,6.38-5.59-6.65-5.59-13,4.72-8.12,4.72-8.12l9.93,10L244.16,192a13,13,0,0,1,8.09,8.72c2.12,7,1.66-1.27,1.94-5a25.23,25.23,0,0,0,0-5.38s-3.09-3.41,3.07,2.71,9,4,9,4-1,.7-4.13-3.33,0-5.76,0-5.76l6.73,5.09-1.37-8.47,11.65-.58-4.53-4.75,12.1,3.07L279.16,174l4.2,2.13-.77-5.69,12.16,9.85s7.77,9.58,1,14.11-38,46-49.29,47.12-62.15.8-76.84-9.05-30.78-33.28-30.78-33.28Z"/><path class="cls-1" d="M192.29,86.41s6.43,1.29,7.2-2.78-14.37-20.78-16.33-21.17-17.47,5.89-19.25,8.25-2.39,7.07-.31,10.8,2.14,1,2.14,1-2.1-4.78,0-8-3.07,1.88,2.66,9.57-8.85,10.59-8.85,10.59l-17.58,4s-6.44,10.35-4,16.6,5.55-.74,10.26.4,11.36,5.32,11.36,5.32l8,2.24s-7.28,4.53-8,9.37a28,28,0,0,0,0,8.7s-2.32-.32-7-.52-11.19-4-17.77-8.18-16.05-15.47-16-22.8.61-22.06,2.77-24.22,20.23-33,31-35.56,29.55-1.57,32.06-.78,5.66-2.55,11.75,2.36,18.07,27.15,14.14,32.43.78,10.81.78,10.81-2.41,26.54-7.51,24.7-2.94-9.47-5.64-14.27-5.8-16.7-5.8-16.7Z"/><path class="cls-1" d="M152.51,140.62c3.28-.12,5.3.25,8.07,4.19a33.38,33.38,0,0,0,9.22,9.63c5,3.67,11,8.76,22,7s15.49-3.32,21.91-4.18,8.91-.37,15.72,1,11.91,4.28,22.26,4.6,22.92-13.34,25.54-18.39,12.05-6.53,13.88-6.53-3.67-1.12-7.86-.56-8.42,5-13.73,8.78c-2.77,2-6,4.22-10.23,4a31.75,31.75,0,0,1-13.22-4c-3-1.94-3.29-6.5-5.18-3.11S227,153.18,219.7,153.8s-11.66,2-17.81-2-10-10.8-11.29-9.9-6.22,6.2-9.58,6.94-6.64,2.22-10.43,1.29a17.58,17.58,0,0,1-7-4s-2.24-3.66-4-5S152.51,140.62,152.51,140.62Z"/><path class="cls-1" d="M193.59,112.87c1.57,1.26-10.47,6-12.2,6.36a48,48,0,0,1-17.88.38c-1.57-.28-11.75-5.08-11.83-5-6.28,2.7,11.29,8.74,11.31,8.74,1,.23,2.84,5.05,2.87,5.17,0-2.53.63-1.16,1.73-5.19,1.52,0,1.56,7.54,1.31,9.37,0-.22,1.48-8.54,3.14-9.33.61.83.69,3.21.72,4.35q.19-.06.06.42c-.18.49,1.93-4.81,1.85-4.75,2.22,0,2.78,7.18,4,9.19,0,.22-1.72-8.27-.84-9.28,1.7.23,1.57,2.2,2.31,4.39C180.56,125,196,114.8,193.59,112.87Z"/><path class="cls-1" d="M129.06,78.45s-10.45,6.57-4.44,14.7,11,5.9,11,5.9l2.31-1.36a32.75,32.75,0,0,1-5.82-1.21c-2.41-.83-8.14-5.64-8-8.69s.55-4.62,2.49-6.29A7.85,7.85,0,0,0,129.06,78.45Z"/><circle class="cls-2" cx="253.63" cy="115.33" r="3.87"/><path class="cls-2" d="M215.38,156.82c-2.84,0-8.2-.22-12.09-1.68s-8.43-5.5-13.19-10.33a6.74,6.74,0,0,1-.59,1.06c-.32.49-3.83,5.5-14.66,6.41-.43,0-.86.05-1.28.05-8.24,0-15.45-7.09-16.09-15.8-.52-7.16,3.92-16.27,18.16-18.35a23.77,23.77,0,0,1,3.48-.27c10.08,0,13.49,7.32,16.5,13.78,3.55,7.63,6.91,14.83,20.51,14.83s17-7.2,20.51-14.83c3-6.46,6.42-13.78,16.5-13.78a24,24,0,0,1,3.49.27c14.23,2.08,18.67,11.19,18.15,18.35-.64,8.71-7.85,15.8-16.08,15.8h0c-.42,0-.85,0-1.28-.05-10.22-.86-13.93-5.38-14.62-6.35a4.88,4.88,0,0,1-.42-.72,16.77,16.77,0,0,1-1.27,1.34l-.52.48c-2.46,2.29-6.57,6.12-12.64,8.15A42.47,42.47,0,0,1,215.38,156.82Z"/><path class="cls-1" d="M253.14,121.05a20.85,20.85,0,0,1,3,.24c23.83,3.49,16.54,27.9,2.52,27.9-.33,0-.68,0-1-.05-9.59-.8-12.33-5-12.33-5s-1.48-1.88,1.3-4a4.34,4.34,0,0,1,2.63-1.05,2.58,2.58,0,0,1,1.8.68s2.86-5.12-.71-5.12a4,4,0,0,0-.58,0c-4.44.55-8.41,7.4-10.82,9.61s-6.19,6-12,7.95a39.66,39.66,0,0,1-11.56,1.48c-4.22,0-8.36-.48-11-1.48-5.33-2-14.14-11.74-17.2-15-1.82-1.93-2.52-2.15-3.34-2.15l-.78,0a5.52,5.52,0,0,1-1.42-.18,1.88,1.88,0,0,0-.5-.07c-2,0-1.72,3.77-1.72,3.77s6.19,1.38,7.49,2.49,0,3,0,3-2.74,4.25-12.33,5c-.34,0-.69.05-1,.05-14,0-21.31-24.41,2.52-27.9a20.85,20.85,0,0,1,3-.24c18.13,0,8.88,28.61,37,28.61s18.87-28.61,37-28.61m0-6.28c-12.08,0-16.28,9-19.35,15.59-3.52,7.56-6.06,13-17.66,13s-14.14-5.45-17.66-13c-3.07-6.58-7.27-15.59-19.35-15.59a27.37,27.37,0,0,0-3.94.3c-16.37,2.39-21.45,13.18-20.83,21.69.76,10.49,9.2,18.71,19.22,18.71.51,0,1,0,1.55-.06,8.4-.71,13-3.71,15.31-5.86,4.16,4,8.21,7.2,11.75,8.53,4.36,1.64,10.14,1.88,13.21,1.88a45.79,45.79,0,0,0,13.55-1.8,36,36,0,0,0,13.22-8.31c2.39,2.12,7,4.88,15,5.56.52,0,1,.06,1.55.06,10,0,18.46-8.22,19.22-18.71.62-8.51-4.46-19.3-20.83-21.69a27.26,27.26,0,0,0-3.94-.3Z"/><path class="cls-1" d="M262.13,131.52c-1.85-1.85-3-2.71-7.46-1.23s-8.56,4.8-16,12.44-11.06,10.33-21.32,10.36h-2.25c-10.26,0-14-2.75-21.32-10.36s-11.46-11-16-12.44-5.61-.62-7.46,1.23a8.53,8.53,0,0,0-1.92,6.65c.27,2,3,4.5,3,4.5s2.87,2.35,5.91,2.28,4.63-1.48,6.35-3.94-.86-3.82,1-4.19,3.76,3,5.9,5.41c4,4.45,12,11.55,19.12,12,1.05.06,1.91.07,2.65.06h9.28l-.05,0,1.21-.05c7.14-.42,15.1-7.52,19.12-12,2.14-2.37,4-5.78,5.9-5.41s-.74,1.72,1,4.19,3.39,3.88,6.35,3.94,5.91-2.28,5.91-2.28,2.7-2.54,3-4.5A8.53,8.53,0,0,0,262.13,131.52Z"/><path class="cls-1" d="M254.2,178.79c-9.76,0-15.43-2.28-20.91-4.49-4.36-1.76-8.49-3.42-14.41-3.72-5.83.3-9.95,2-14.32,3.72-5.48,2.21-11.15,4.49-20.9,4.49-1,0-2.14,0-3.28-.08-6.65-.33-10.83-3.18-14.19-5.47-1.93-1.32-3.6-2.45-5.16-2.63l-.44,0a16.72,16.72,0,0,0-3.54.61,26,26,0,0,1-6.25,1c-4.89,0-9.05-2.37-12.74-7.25-3.47-4.58-4.75-8.9-3.81-12.84,1.36-5.67,6.82-8.38,7.05-8.49a16,16,0,0,1,5.55-1.28c3.17,0,6.35,1.62,10,5.12a51.26,51.26,0,0,1,5.1,6c4.69,6.16,10,13.14,22.14,15a49.58,49.58,0,0,0,7.54.58,48.45,48.45,0,0,0,20.22-4.55,21.89,21.89,0,0,1,2-.82,13.59,13.59,0,0,1,3.59-.49,11,11,0,0,1,1.44.09,10.83,10.83,0,0,1,1.43-.09,13.59,13.59,0,0,1,3.59.49,21.89,21.89,0,0,1,2,.82A48.45,48.45,0,0,0,246.21,169a49.58,49.58,0,0,0,7.54-.58c12.13-1.87,17.45-8.85,22.15-15a50.27,50.27,0,0,1,5.09-6c3.66-3.5,6.84-5.12,10-5.12a15.8,15.8,0,0,1,5.48,1.25c.31.14,5.76,2.85,7.12,8.52.94,3.94-.34,8.26-3.8,12.84-3.69,4.88-7.86,7.25-12.75,7.25a26,26,0,0,1-6.25-1,16.72,16.72,0,0,0-3.54-.61l-.44,0c-1.56.18-3.23,1.31-5.16,2.63-3.36,2.29-7.54,5.14-14.19,5.47C256.33,178.77,255.24,178.79,254.2,178.79Z"/><path class="cls-1" d="M291,143.07a15.07,15.07,0,0,1,5.21,1.21s13.31,6.47,3,20.15c-4.18,5.52-8.37,6.93-12.12,6.93-3.94,0-7.38-1.56-9.79-1.56a4.58,4.58,0,0,0-.53,0c-4.56.52-8.85,7.58-19.3,8.1-1.13,0-2.2.08-3.23.08-17.48,0-21.83-7.52-35.27-8.22-13.45.7-17.81,8.22-35.28,8.22-1,0-2.1,0-3.23-.08-10.45-.52-14.74-7.58-19.3-8.1a4.58,4.58,0,0,0-.53,0c-2.41,0-5.85,1.56-9.79,1.56-3.75,0-7.94-1.41-12.12-6.93-10.35-13.68,3-20.15,3-20.15a15.07,15.07,0,0,1,5.21-1.21c2.58,0,5.52,1.14,9.46,4.9,6.78,6.47,10.85,18.68,27.67,21.27a51.32,51.32,0,0,0,7.66.59c12.42,0,20.31-4.78,22.48-5.4a12.33,12.33,0,0,1,3.37-.46,10,10,0,0,1,1.44.09,9.78,9.78,0,0,1,1.43-.09,12.33,12.33,0,0,1,3.37.46c2.17.62,10.07,5.4,22.48,5.4a51.32,51.32,0,0,0,7.66-.59c16.83-2.59,20.89-14.8,27.67-21.27,3.94-3.76,6.89-4.9,9.46-4.9m0-1.57c-3.38,0-6.74,1.7-10.55,5.34a52.37,52.37,0,0,0-5.18,6.13c-4.6,6.05-9.82,12.89-21.64,14.71a49.21,49.21,0,0,1-7.42.58,47.67,47.67,0,0,1-19.9-4.49,19.12,19.12,0,0,0-2.15-.85,13.68,13.68,0,0,0-3.8-.53,13,13,0,0,0-1.43.08,13.42,13.42,0,0,0-1.44-.08,13.68,13.68,0,0,0-3.8.53,19.12,19.12,0,0,0-2.15.85,47.62,47.62,0,0,1-19.9,4.49,49.31,49.31,0,0,1-7.42-.58c-11.82-1.82-17-8.66-21.64-14.71a52.37,52.37,0,0,0-5.18-6.13c-3.81-3.64-7.16-5.34-10.55-5.34a16.58,16.58,0,0,0-5.75,1.3l-.07,0-.08,0c-.24.12-6,3-7.46,9-1,4.18.32,8.72,3.94,13.5,3.85,5.08,8.22,7.55,13.37,7.55a27.1,27.1,0,0,0,6.43-1,16.42,16.42,0,0,1,3.36-.6l.35,0c1.37.16,3,1.24,4.81,2.5,3.26,2.22,7.72,5.27,14.59,5.61,1.13.05,2.24.08,3.31.08,9.91,0,15.66-2.31,21.21-4.55,4.28-1.73,8.32-3.35,14.07-3.67,5.74.32,9.78,1.94,14.06,3.67,5.55,2.24,11.29,4.55,21.21,4.55,1.07,0,2.18,0,3.31-.08,6.87-.34,11.33-3.39,14.59-5.61,1.85-1.26,3.44-2.34,4.81-2.5l.35,0a16.42,16.42,0,0,1,3.36.6,27.18,27.18,0,0,0,6.43,1c5.15,0,9.52-2.47,13.37-7.55,3.62-4.78,4.94-9.32,3.94-13.5-1.44-6-7.22-8.9-7.46-9l-.08,0-.07,0a16.53,16.53,0,0,0-5.75-1.3Z"/><path class="cls-2" d="M174.34,175.43a10,10,0,0,1-2.68-.48c-3-.86-9.52-5.67-9.78-14.65a10.76,10.76,0,0,1,2.92-7.91,6.33,6.33,0,0,1,3.9-2.14,1.78,1.78,0,0,1,1.74,1.18c.48,1.38-.89,2.45-1.41,2.85-2.67,2.08-.75,6.7-.13,7.73,1.25,2.08,3.83,3.54,4.75,3.54h.22a5.6,5.6,0,0,1,4.55,2,5.07,5.07,0,0,1,.73,4.47,5.39,5.39,0,0,1-2.45,2.9,5.46,5.46,0,0,1-2.36.54Z"/><path class="cls-1" d="M168.69,151.82c.46,0,.41.42-.62,1.22-3.62,2.82-1.37,8.35-.51,9.78,1.4,2.34,4.42,4.3,6.09,4.3h.22a4.08,4.08,0,0,1,3.29,1.34,3.53,3.53,0,0,1,.5,3,3.33,3.33,0,0,1-3.32,2.37,9,9,0,0,1-2.39-.46c-2.49-.7-8.26-5-8.5-13.14-.16-5.81,4.11-8.44,5.24-8.44m0-3.14h0a7.68,7.68,0,0,0-5,2.62,12.34,12.34,0,0,0-3.36,9c.29,9.93,7.39,15.12,10.79,16.07l.14,0a11.1,11.1,0,0,0,3.1.54,7.16,7.16,0,0,0,3-.68,6.86,6.86,0,0,0,3.23-3.74l0,0v0a6.6,6.6,0,0,0-.95-5.92,7.19,7.19,0,0,0-5.81-2.61h-.17a7.16,7.16,0,0,1-3.45-2.77c-.32-.52-2-4.31-.25-5.68s2.49-3,1.93-4.6a3.35,3.35,0,0,0-3.24-2.24Z"/><path class="cls-2" d="M185.2,176.42a7.37,7.37,0,0,1-3.78-1.27c-2.76-1.55-7.9-7.77-6-16.55,1.32-6.15,6.28-8.22,8.34-8.22a1.91,1.91,0,0,1,2.05,1.44c.34,1.58-1.44,2.37-2,2.64-3.09,1.38-2.32,6.32-2,7.47.72,2.33,2.91,4.38,3.78,4.57a5.74,5.74,0,0,1,4.15,3.05,5.06,5.06,0,0,1-.36,4.52,5.35,5.35,0,0,1-3.06,2.23,5.5,5.5,0,0,1-1.13.12Z"/><path class="cls-1" d="M183.75,152c.75,0,.79.43-.61,1.06-4.19,1.88-3.32,7.78-2.82,9.38.81,2.63,3.33,5.29,5,5.64a4.1,4.1,0,0,1,3,2.12,3.51,3.51,0,0,1-.23,3.06,3.17,3.17,0,0,1-2.87,1.62,6.25,6.25,0,0,1-3.13-1.12c-2.26-1.28-6.83-6.85-5.13-14.79,1.13-5.27,5.34-7,6.81-7m0-3.15c-3.16,0-8.49,3-9.88,9.46-2.09,9.72,3.58,16.45,6.65,18.18l.13.07A8.76,8.76,0,0,0,185.2,178a7,7,0,0,0,1.43-.15,6.87,6.87,0,0,0,4-2.85l0,0,0,0a6.62,6.62,0,0,0,.49-6,7.21,7.21,0,0,0-5.19-4,7.19,7.19,0,0,1-2.69-3.51c-.18-.59-.92-4.67,1.1-5.58,3.06-1.37,3.14-3.35,2.92-4.4a3.5,3.5,0,0,0-3.59-2.68Z"/><path class="cls-2" d="M264.4,174.44a5.49,5.49,0,0,1-2.37-.53,5.32,5.32,0,0,1-2.42-2.86,5,5,0,0,1,.71-4.52,5.61,5.61,0,0,1,4.54-2h.21c.94,0,3.52-1.46,4.76-3.54.62-1,2.55-5.65-.12-7.73-.52-.4-1.89-1.47-1.42-2.85a1.8,1.8,0,0,1,1.75-1.18,6.29,6.29,0,0,1,3.89,2.14,10.73,10.73,0,0,1,2.92,7.92c-.25,9-6.73,13.78-9.64,14.6A10,10,0,0,1,264.4,174.44Z"/><path class="cls-1" d="M270,150.83c1.13,0,5.41,2.64,5.24,8.44-.23,8.12-6,12.44-8.49,13.14a9,9,0,0,1-2.39.46,3.33,3.33,0,0,1-3.32-2.37,3.53,3.53,0,0,1,.5-3,4.07,4.07,0,0,1,3.28-1.34h.23c1.66,0,4.69-2,6.09-4.3.86-1.43,3.11-7-.51-9.78-1-.8-1.08-1.22-.63-1.22m0-3.14a3.35,3.35,0,0,0-3.23,2.24c-.56,1.62.09,3.17,1.93,4.6s.06,5.16-.25,5.68A7.19,7.19,0,0,1,265,163h-.18a7.18,7.18,0,0,0-5.8,2.61,6.61,6.61,0,0,0-1,5.92l0,0v0a6.82,6.82,0,0,0,3.24,3.74,7.16,7.16,0,0,0,3,.68,10.81,10.81,0,0,0,3.1-.54l.14,0c3.39-1,10.5-6.13,10.79-16.07a12.33,12.33,0,0,0-3.37-9.05,7.64,7.64,0,0,0-5-2.62Z"/><path class="cls-2" d="M253.54,175.43a5.5,5.5,0,0,1-1.13-.12,5.37,5.37,0,0,1-3-2.19,5.1,5.1,0,0,1-.38-4.56,5.74,5.74,0,0,1,4.15-3.05c.87-.19,3.06-2.24,3.78-4.57.36-1.15,1.13-6.08-2-7.47-.59-.26-2.36-1.06-2-2.64a1.9,1.9,0,0,1,2-1.43c2.07,0,7,2.07,8.35,8.22,1.89,8.77-3.25,15-5.89,16.48A7.71,7.71,0,0,1,253.54,175.43Z"/><path class="cls-1" d="M255,151c1.48,0,5.68,1.7,6.82,7,1.7,7.94-2.88,13.51-5.13,14.78a6.27,6.27,0,0,1-3.13,1.13,4.12,4.12,0,0,1-.83-.09,3.93,3.93,0,0,1-2-1.54,3.53,3.53,0,0,1-.24-3.06,4.17,4.17,0,0,1,3-2.12c1.62-.35,4.13-3,5-5.64.5-1.59,1.36-7.5-2.82-9.38-1.41-.63-1.36-1.06-.62-1.06m0-3.15h0a3.49,3.49,0,0,0-3.58,2.68c-.23,1.06-.15,3,2.91,4.4,2,.91,1.29,5,1.11,5.58a7.19,7.19,0,0,1-2.69,3.51,7.2,7.2,0,0,0-5.19,4,6.66,6.66,0,0,0,.48,6l0,0,0,0a6.88,6.88,0,0,0,4,2.86,7.89,7.89,0,0,0,1.44.14,8.88,8.88,0,0,0,4.55-1.46l.12-.07c3.08-1.74,8.75-8.47,6.66-18.18-1.39-6.46-6.72-9.47-9.89-9.47Z"/><path class="cls-1" d="M334.63,122.46c-1.26-10.86-4.27-21.42-7.4-31.89-1.24-4.13-13.78-26.64-24.12-36.22h0a54.45,54.45,0,0,0-17.16-14.71l-.7-.52c-9.11-6.17-19.93-9.21-30.65-11.7-13.82-3.23-27.89-5.72-42.08-6-17.79-.38-35.85,2.78-51.69,10.88a80.62,80.62,0,0,0-25.25,20h0c-10.62,11.12-24.11,34.13-25.34,38.26-3.13,10.47-6.14,21-7.4,31.89-.75,6.53-.84,13.26,1.07,19.55s6.06,12.13,12,14.92,13.75,1.95,18.21-2.88c2.4-2.6,6.38-3.28,3.84-5.75,3.71-4,7.37-2.91,12.39-1.6-8.44-3.78,6,1.27,6,1.27,5.12,5.32-5.27-20.41-6-10.61-11.16-5.92-20.55-12.78-24.3-24.84a31.61,31.61,0,0,0,13.64,16.06c.14.23.28.47.43.69l-.41-.67a31.63,31.63,0,0,0,4.41,2.17c-2.68-1-5.86-7.87-7.23-10.28a66,66,0,0,1-4.16-8.74A57.35,57.35,0,0,1,132.92,84a60.64,60.64,0,0,0,5.83,19.56A33,33,0,0,1,140.91,75a73.76,73.76,0,0,1,1.63,48.11,153.24,153.24,0,0,0,10.23-52.3,150,150,0,0,1,3.35,34.84,94.26,94.26,0,0,0,3.31-48.75,201.27,201.27,0,0,1,20.21,31.63,110.2,110.2,0,0,0-6.78-28.75c15,7.57,24.68,23.26,28.13,39.68s3.52,26.13-.44,42.42c6.61-13.63,7.95-15.91,9.37-31,1.88,9,2,13.37-.87,22.15,3.85-8.18,6.36-12.76,8-21.65l-.54,8.21c8.07-22.66,16.23-45.9,16.11-69.95C245.24,59.31,247,95.58,247,111.46c2.69-9.82,8.06-41.07,4.28-50.52,6.91,8.16,4.78,32,5.35,42.71,1.82-6.14,8.59-26.07,7.73-32.41,3.21,7.42,6.45,14.91,11.05,21.57s10.68,12.54,18.19,15.55A46,46,0,0,1,274.42,72.6c3.27,7.58,6.59,15.26,11.77,21.69,4.59,5.69,10.89,10.35,18,11.77-.76,4.38,7.25-10.27,4.57-6.73,2.16-2-5.65,14.63-3.95,12.24a66.72,66.72,0,0,1-4.23,8.92c-1.38,2.41-4.55,9.25-7.23,10.28a31.64,31.64,0,0,0,18.07-18.25A49.06,49.06,0,0,1,287.83,141a32.06,32.06,0,0,0,19.48-9.56c-3.84,8.41-6.1,11.53-14.54,15.31,5-1.31,2.59,3,7.05.28-2.54,2.47,1.12,4.47,3.52,7.07,4.46,4.83,12.26,5.67,18.21,2.88s10.1-8.63,12-14.92S335.38,129,334.63,122.46Zm-46.83-41,10.87,13.75L295.4,76.32a28.65,28.65,0,0,0,6.29,11.39c1.54,4.69,3.08,8.94,2.93,14a29.37,29.37,0,0,1-.32,3.5A31,31,0,0,1,287.8,81.44Z"/><path class="cls-1" d="M160.58,178s8.53,9.23,21.54,9.82,23.22-3.47,30-4.06,11.52-.76,19,1.18,10.72,3.15,19.39,2.71,14-1.4,18.13-3.76,6.68-4.09,6.68-4.09a55.61,55.61,0,0,1-19.84,11c-3.35,1-21.41,2.94-32.41,2.94s-25.94.53-35.3-1.05-12.28-2.88-19.34-6.81S160.58,178,160.58,178Z"/><path class="cls-1" d="M217.93,189.56s-11.07-1.31-11.59,3.14-2.94,4.38.52,11.93,12.07,14.78,12.07,14.78l-39.84,6.29-38.23-27.5L150.32,176l8.15-9.37,6.5,1.93s-2.68,1.25-3.05,5.34,9.9,10.12,18,11.95,28.79-1.31,28.79-1.31Z"/><path class="cls-1" d="M154.48,58.86S121.44,74.48,123,90s5.21,37.61,16.63,38.6,21.85-4,26.06-5.81,6-4.25,11.81-3.57,14.66,4.85,19.9,1.85,19.38-4,14.93-26.15-15-49.92-26-49.92S154.48,58.86,154.48,58.86Z"/><path class="cls-1" d="M155.16,146.15,160,156.1c.26.52.63,1.12,1.21,1.13s1-.57,1.08-1.12.05-1.13.21-1.66c.32-1,1.32-1.59,2.18-2.2s1.72-1.52,1.52-2.55a3.06,3.06,0,0,0-.66-1.21l-5.81-7.67a11.73,11.73,0,0,0-2.69-2.84,4,4,0,0,0-2.79-.79c-1.13.29-1.12,1.1-1.15,2.25C153.06,141.8,154.15,144.08,155.16,146.15Z"/><path class="cls-1" d="M168.48,160.65a8.57,8.57,0,0,0,3.59,4.49,2.37,2.37,0,0,0,1.83.45,2.09,2.09,0,0,0,1.19-2.33c-.11-1-.58-1.91-.69-2.9s.18-2.18,0-3.26A3.8,3.8,0,0,0,171.9,154C167.81,152.59,167.58,158.05,168.48,160.65Z"/><path class="cls-2" d="M330.58,198.75c-22.06,0-38.63-10.25-44.39-17.15l-.42-.5c-4.17-5-8.1-9.68-8-17.71.09-6.13,5.6-11.63,5.83-11.86A18.56,18.56,0,0,1,295.43,147a16.82,16.82,0,0,1,3.6.39c4.28,1,10.07,4.9,13.49,13.09,2.55,6.12,15.78,14.8,27.59,16.21a37,37,0,0,0,4.09.2c4.78,0,28.81-.91,33.22-18.95,1.24-5.08,2.79-7.35,5-7.35.78,0,2.68.36,3.34,3.69,1.35,6.79-2.49,28.57-26.83,38.68A73.71,73.71,0,0,1,330.58,198.75Z"/><path class="cls-1" d="M295.43,149.09a14,14,0,0,1,3.14.35c4.19.93,9.12,4.91,12,11.84s16.83,16,29.28,17.49a37.84,37.84,0,0,0,4.34.22c10.53,0,31-3.21,35.27-20.56,1-4.06,2.09-5.75,3-5.75,3.44,0,3,27-24.3,38.32a71.47,71.47,0,0,1-27.55,5.65c-21.23,0-37.39-10-42.78-16.4-4.2-5-8-9.33-7.92-16.83.07-5.34,5.2-10.39,5.2-10.39a16.47,16.47,0,0,1,10.35-3.94m0-4.21h0A20.48,20.48,0,0,0,282.21,150l0,0,0,0c-.65.64-6.37,6.46-6.46,13.34-.12,8.8,4.25,14,8.48,19.08l.42.5c6,7.2,23.23,17.91,46,17.91a75.81,75.81,0,0,0,29.17-6c23.67-9.83,30-31.57,28.08-41-1-5-4.39-5.39-5.4-5.39-4.86,0-6.4,6.28-7.05,9-4,16.51-26.68,17.35-31.18,17.35a33.61,33.61,0,0,1-3.84-.19c-11.82-1.41-23.86-10-25.9-14.93-3.11-7.48-8.85-13-15-14.33a18.42,18.42,0,0,0-4.05-.45Z"/><path class="cls-2" d="M108.09,198.74A73.21,73.21,0,0,1,79.9,193c-24.18-10-28-31.69-26.66-38.43.66-3.32,2.54-3.67,3.32-3.67,2.21,0,3.74,2.25,5,7.3C65.92,176.1,89.81,177,94.55,177a36.18,36.18,0,0,0,4.06-.21c11.74-1.4,24.89-10,27.42-16.11,3.4-8.14,9.15-12.05,13.41-13a16.61,16.61,0,0,1,3.57-.39,18.52,18.52,0,0,1,11.72,4.47c.27.27,5.75,5.73,5.83,11.83.11,8-3.8,12.65-7.94,17.59l-.42.51c-5.73,6.85-22.2,17-44.11,17Z"/><path class="cls-1" d="M143,149.39a16.41,16.41,0,0,1,10.29,3.91s5.1,5,5.17,10.33c.1,7.45-3.7,11.73-7.88,16.73-5.35,6.41-21.41,16.29-42.5,16.29A71.15,71.15,0,0,1,80.7,191C53.6,179.78,53.14,153,56.56,153c.86,0,2,1.68,2.95,5.71,4.21,17.24,24.57,20.43,35,20.43a37.26,37.26,0,0,0,4.31-.22c12.38-1.48,26.24-10.49,29.1-17.38s7.77-10.84,11.93-11.77a14.45,14.45,0,0,1,3.12-.34m0-4.18a18.82,18.82,0,0,0-4,.44c-6.09,1.36-11.79,6.81-14.89,14.24-2,4.87-14,13.44-25.74,14.84a32.92,32.92,0,0,1-3.81.19c-4.47,0-27-.83-31-17.24-.65-2.67-2.18-8.9-7-8.91h0c-1,0-4.38.39-5.37,5.35-1.88,9.4,4.39,31,27.91,40.78a75.36,75.36,0,0,0,29,5.93c22.63,0,39.74-10.64,45.71-17.79l.42-.51c4.2-5,8.55-10.2,8.43-19-.09-6.83-5.77-12.61-6.42-13.25l0,0,0,0a20.4,20.4,0,0,0-13.14-5Z"/><path class="cls-2" d="M203.64,103.85c.43-21.95-1.83-43.85-4.08-65.69a267.57,267.57,0,0,1,8.15,51.78l-.35-53.46A271.75,271.75,0,0,1,212,75.78c2.87-12.54,2.88-25.53,2.88-38.38a116.56,116.56,0,0,1,1.86,25.09l.41-28.95c0-1.15.9-2.79,1.82-2.09l1.83,15.75A47.52,47.52,0,0,1,222,29.47a16.4,16.4,0,0,1,2.44,10.29A74.83,74.83,0,0,0,218.23,9a40,40,0,0,1,1,12.72L212.85,5.48l-.08,17.07A31,31,0,0,1,209.58,5a55.28,55.28,0,0,0-2.45,20.24,85.53,85.53,0,0,1,0-19.39A25.8,25.8,0,0,0,202.43,23a16.06,16.06,0,0,1,1.81-16.1,25.69,25.69,0,0,0-6.91,13.58c-1.23-5.35,1.37-10.77,3.9-15.65a269.64,269.64,0,0,0-24.46,13.67c-12.31,7.74-24.49,17-30.56,30.26A112.17,112.17,0,0,1,188,19.21a117.1,117.1,0,0,0-32.05,25,159,159,0,0,0,29.69-16.76L175,43.79c1-1.54,4.69-2.95,6.18-4.37a27.8,27.8,0,0,0,7.85-14.12c.54-2.54,0-5.6.76-7.94,3.06,4.05,4.56,10.66,6,15.52a146.08,146.08,0,0,1,3.9,16.64,258.38,258.38,0,0,1,3.38,34.67C203.39,90.74,203.52,97.29,203.64,103.85Z"/><path class="cls-1" d="M233.06,47.42a46,46,0,0,1,5.79,35.75l1-31.67a211.72,211.72,0,0,1,6.38,34.34L250,47.34a82.56,82.56,0,0,0,25.53,58.06,34.25,34.25,0,0,1-15.7-19.91,64.22,64.22,0,0,1-1.8-11.72l-1.44-15.9c5.2,0,9.88,3.65,12.45,8.17s3.39,9.81,3.8,15,.46,10.44,1.73,15.48l-3.47-36c2.12,8.18,7,16.48,15,19.13A20.85,20.85,0,0,1,299.88,95.9a66.77,66.77,0,0,0-7.66-27.65,53.17,53.17,0,0,1,19.86,19.86c1.71,3,3.15,6.32,3.1,9.78-.07,5.25-3.47,9.78-6.72,13.9a40.81,40.81,0,0,1-6.9,7.41,13.72,13.72,0,0,1-9.41,3.13c7-1.35,14.65-3.11,18.86-8.86,4.05-5.52,3.63-13.13,2-19.78a66.45,66.45,0,0,0-27.49-39,114,114,0,0,0-16.38-8.6c-8.72-3.93-18.53-7.62-27.61-4.62-4.24,1.41-8.36,5.06-8,9.51a135.62,135.62,0,0,1-1.4,33.49c2.21-5.07,2.38-10.84,1.45-16.3s-2.91-10.66-4.88-15.83c6.58,12.24-2.62,28.72,4.24,40.81a107.45,107.45,0,0,1-6.88-43.32c.1-2.19.37-4.6,2-6.1a9,9,0,0,1,4.7-1.81c8.87-1.57,17.83-3.14,26.83-2.68,3.22.17,6.56.64,9.21,2.47s4.4,5.32,3.28,8.34"/><path class="cls-1" d="M271.89,212.84a8.29,8.29,0,0,1,2.9-6.78,24.24,24.24,0,0,1,6.53-3.92L292.41,197c3.19-1.49,6.48-3,10-3.23,4-.25,7.9,1.18,11.76,2.29a75.15,75.15,0,0,0,46.34-1.72c4.71-1.74,10-4,14.51-1.65,4.29,2.21,5.74,8.12,3.9,12.59s-6.23,7.46-10.86,8.83-9.54,1.32-14.36,1.27l-38.27-.42c-10.3-.12-21.41-1.84-31.12,2C279.82,218.66,272.69,219.44,271.89,212.84Z"/><path class="cls-1" d="M360,164.65a8,8,0,0,0,3.74,5.15,6.54,6.54,0,0,0,1.27.56,6.46,6.46,0,0,0,5-.41C380.3,164.33,358.35,157.52,360,164.65Z"/><path class="cls-1" d="M264,219.53a24.55,24.55,0,0,0,3.26,18.12,1.63,1.63,0,0,0,1,.85c.9.15,1.32-1.05,1.54-1.95,1.46-6,9.1-8.62,11.1-14.45a8.86,8.86,0,0,0-1.46-8.26C273.55,206.62,265.5,212.32,264,219.53Z"/><path class="cls-1" d="M206.8,197.5c-.85,2.15-.29,4.56.27,6.8l2.28,9a15.61,15.61,0,0,1-10.82-8.6,12.41,12.41,0,0,1,2.15-13.34,14.49,14.49,0,0,1,8.69-3.92c2.93-.35,8.64-.75,11.08,1C217.82,193.17,209.12,191.65,206.8,197.5Z"/><path class="cls-1" d="M228.91,386.35c-32-7.23-59.19-32.51-68.78-63.85l27.35,35a77.4,77.4,0,0,1-8-30.06c.54,18.05,9.23,35.13,21.08,48.76s26.76,24.22,41.8,34.22c-27.39-10.06-46.11-39.83-43.3-68.87a107.36,107.36,0,0,0,27.57,41.83l-4.44-25.29a216.86,216.86,0,0,0,101,80.56,147.09,147.09,0,0,1-68.22-79.35c2.4,27.4,31.55,49.25,58.52,43.87-11.8-.54-23.82-2.73-34-8.75s-18.28-16.34-19.41-28.11a91.79,91.79,0,0,0,28.4,19.87c-22.84-12.81-36.94-39.72-34.48-65.79a97.31,97.31,0,0,0,16.23,41.39l-6.34-39.67c-6.07,17.92.41,39.36,15.39,50.92l-2.65-46.35a66,66,0,0,0,17.1,31.89l8.49-33a99.42,99.42,0,0,1-2.24,45A85.72,85.72,0,0,0,308.67,326a75.09,75.09,0,0,1-16.22,55.53,273.53,273.53,0,0,0,21.93-38.13c2.69-5.7,5.15-12.59,2-18-2.43-4.19-7.4-6.06-12-7.63-27.92-9.53-56.26-19.15-85.71-21-16.43-1-90.93,5.07-77.2,35.07,6.06,13.26,27.48,25.16,39.41,32.53A210.72,210.72,0,0,0,228.91,386.35Z"/><path class="cls-2" d="M9,256.76s-2.8,3.42-.66,8.66c1.63,4,16.09,5.46,21.9,7.47,5,1.73,9.17,5.44,10,6.72s3.15,4.88,3.15,4.88-2.41-9.28-6.54-15.4-6.17-9-10.11-12.38-6.67-4.73-7.94-5a5.16,5.16,0,0,0-4.34.37A13.83,13.83,0,0,0,9,256.76Z"/><path class="cls-1" d="M43.42,286.84a2.36,2.36,0,0,1-2-1.1s-2.24-3.55-3.09-4.8a22.81,22.81,0,0,0-8.87-5.82,69.39,69.39,0,0,0-7.06-1.74c-8.86-1.91-14.77-3.43-16.26-7.07A11.19,11.19,0,0,1,7,255.44,16.47,16.47,0,0,1,13.4,250a7.22,7.22,0,0,1,5.71-.63l.27.06c2.17.52,5.43,2.54,8.92,5.55,4.24,3.64,6.41,6.74,10.53,12.84,4.31,6.38,6.77,15.73,6.87,16.12a2.35,2.35,0,0,1-2.28,2.95ZM10.84,258.22c-.08.1-1.88,2.52-.33,6.31.82,1.64,9,3.39,12.88,4.24A75.31,75.31,0,0,1,31,270.66a26.83,26.83,0,0,1,5.75,2.86,31.32,31.32,0,0,0-1.82-3.11c-4.26-6.31-6.08-8.79-9.7-11.91s-6.08-4.33-6.94-4.53l-.32-.08a2.69,2.69,0,0,0-2.4.24A11.82,11.82,0,0,0,11,258l-.19.27ZM9,256.76H9Z"/><path class="cls-2" d="M19.48,242s-2.35,4.31,1.06,9.59c2.62,4,18.68,2.63,25.43,3.63,5.8.85,9.06,3.23,10.27,4.45a82,82,0,0,1,5,7.24s-3.08-11.39-8.84-17.21-8.58-8.53-13.58-11.41-8.24-3.79-9.69-3.86a5.71,5.71,0,0,0-4.67,1.29A15.39,15.39,0,0,0,19.48,242Z"/><path class="cls-1" d="M61.28,269.26a2.34,2.34,0,0,1-2-1.09,76.56,76.56,0,0,0-4.71-6.84c-.49-.48-3.19-2.93-8.95-3.78a78.64,78.64,0,0,0-8.09-.45c-10-.25-16.68-.68-19-4.23a12.15,12.15,0,0,1-1.26-11.8,18,18,0,0,1,5.73-7.2A7.77,7.77,0,0,1,29,232.06h.31c2.44.12,6.36,1.64,10.76,4.18,5.34,3.08,8.34,6,14.08,11.8,6.13,6.19,9.3,17.75,9.43,18.24a2.34,2.34,0,0,1-1.32,2.77A2.28,2.28,0,0,1,61.28,269.26ZM21.57,243.1c-.07.14-1.6,3.26.95,7.2,1.12,1.73,10.59,2,15.14,2.09a78.1,78.1,0,0,1,8.66.5,24.58,24.58,0,0,1,7.33,2.2,22.35,22.35,0,0,0-2.88-3.73c-6-6-8.47-8.36-13.09-11s-7.62-3.5-8.62-3.55l-.36,0a3.25,3.25,0,0,0-2.74.81,13.6,13.6,0,0,0-4.26,5.22A1.69,1.69,0,0,1,21.57,243.1ZM19.48,242h0Z"/><path class="cls-2" d="M28,226.35s-.32,5.36,5.52,9c4.47,2.78,13.34-4.11,20.5-6.28,6.14-1.85,10.85-1.16,14.67,1.45,1.55,1.06,9.76,9.39,9.76,9.39s-3.15-14.71-13.21-21.53c-7.43-5-13.47-4.22-19.77-4.75s-9.94.09-11.4.69a6.31,6.31,0,0,0-4,3.46A16.88,16.88,0,0,0,28,226.35Z"/><path class="cls-1" d="M78.43,242.27a2.38,2.38,0,0,1-1.68-.7c-4-4-8.55-8.52-9.41-9.1-3.44-2.35-7.46-2.71-12.66-1.14a53.46,53.46,0,0,0-7.32,3.15c-5.68,2.77-11,5.39-15.1,2.87-6.33-3.94-6.64-9.7-6.64-10.92a19.33,19.33,0,0,1,2.3-9.7,8.36,8.36,0,0,1,4.92-4.46l.31-.12c1.15-.48,4.67-1.52,12.5-.87,1.14.1,2.27.15,3.41.2,5.1.23,10.89.49,17.48,5,10.72,7.27,14.06,22.35,14.2,23A2.36,2.36,0,0,1,79.55,242,2.33,2.33,0,0,1,78.43,242.27ZM30.34,226.46c0,.18-.08,4.09,4.41,6.88,1.84,1.15,6.66-1.21,10.54-3.1a57.21,57.21,0,0,1,8-3.42c6.58-2,12-1.42,16.68,1.75a28.14,28.14,0,0,1,2.53,2.21,27.7,27.7,0,0,0-8.63-10.44c-5.49-3.72-10.14-3.93-15-4.15-1.2-.06-2.39-.11-3.59-.21-5.94-.5-9.27.09-10.3.52l-.37.15a3.71,3.71,0,0,0-2.45,2.19,15,15,0,0,0-1.81,7.27C30.34,226.22,30.34,226.35,30.34,226.46Z"/><path class="cls-2" d="M436.91,254.94s3.06,3.2,1.33,8.59c-1.33,4.12-15.62,6.68-21.27,9.14-4.84,2.1-8.72,6.14-9.49,7.47s-2.75,5.11-2.75,5.11,1.68-9.44,5.32-15.86,5.46-9.43,9.13-13.12,6.28-5.24,7.52-5.64a5.15,5.15,0,0,1,4.36,0A13.88,13.88,0,0,1,436.91,254.94Z"/><path class="cls-1" d="M404.73,287.61a2.54,2.54,0,0,1-.77-.13,2.35,2.35,0,0,1-1.55-2.65c.07-.4,1.79-9.91,5.59-16.6,3.64-6.41,5.56-9.66,9.51-13.62,3.25-3.27,6.34-5.54,8.47-6.22l.26-.09a7.25,7.25,0,0,1,5.75.19,16.38,16.38,0,0,1,6.77,5,11.19,11.19,0,0,1,1.72,10.77c-1.2,3.73-7,5.71-15.66,8.3a72.63,72.63,0,0,0-6.91,2.28,22.7,22.7,0,0,0-8.38,6.49c-.76,1.32-2.72,5-2.72,5A2.36,2.36,0,0,1,404.73,287.61Zm24.16-35.09a3.6,3.6,0,0,0-1.16.26l-.32.1c-.83.27-3.16,1.64-6.56,5.05s-5,6-8.75,12.63a29.64,29.64,0,0,0-1.57,3.25,26.13,26.13,0,0,1,5.5-3.3,72.35,72.35,0,0,1,7.44-2.48c3.84-1.14,11.84-3.53,12.52-5.23,1.27-3.94-.77-6.21-.79-6.23a2.26,2.26,0,0,1-.23-.29,12,12,0,0,0-4.83-3.45A3.09,3.09,0,0,0,428.89,252.52Z"/><path class="cls-2" d="M425.3,241s2.68,4.12-.31,9.64c-2.3,4.22-18.42,4.07-25.08,5.59-5.71,1.29-8.78,3.92-9.89,5.22a83.62,83.62,0,0,0-4.46,7.61s2.18-11.58,7.48-17.83,7.9-9.17,12.66-12.43,7.92-4.42,9.36-4.6a5.69,5.69,0,0,1,4.75.93A15.32,15.32,0,0,1,425.3,241Z"/><path class="cls-1" d="M385.56,271.46a2.35,2.35,0,0,1-2.32-2.79c.1-.5,2.37-12.28,8-18.93,5.27-6.21,8-9.36,13.12-12.85,4.19-2.87,8-4.69,10.41-5l.3,0a7.8,7.8,0,0,1,6.05,1.35A17.89,17.89,0,0,1,427.4,240a12.13,12.13,0,0,1-.34,11.85c-2,3.72-8.67,4.67-18.59,5.69-3.13.33-6.09.63-8,1.07-5.68,1.3-8.19,3.95-8.63,4.47a75.16,75.16,0,0,0-4.17,7.18A2.35,2.35,0,0,1,385.56,271.46Zm31.07-35a8.56,8.56,0,0,0-.93.08l-.35.05c-1,.12-3.86,1.14-8.32,4.2s-6.71,5.55-12.19,12a22.56,22.56,0,0,0-2.59,3.94,25.08,25.08,0,0,1,7.14-2.76A80.21,80.21,0,0,1,408,252.8c4.53-.46,13.95-1.44,14.93-3.25,2.25-4.13.48-7.13.4-7.25s-.12-.21-.16-.3h0a13.48,13.48,0,0,0-4.65-4.87A3.11,3.11,0,0,0,416.63,236.45Z"/><path class="cls-2" d="M415.62,226.09s.73,5.33-4.81,9.4c-4.24,3.12-13.62-3.07-20.92-4.67-6.27-1.38-10.9-.32-14.52,2.58-1.46,1.17-9,10.12-9,10.12s2-14.92,11.51-22.49c7-5.59,13.1-5.25,19.34-6.27s9.91-.68,11.42-.19a6.28,6.28,0,0,1,4.28,3.14A16.84,16.84,0,0,1,415.62,226.09Z"/><path class="cls-1" d="M366.37,245.88A2.38,2.38,0,0,1,364,243.2c.09-.64,2.25-15.94,12.38-24,6.23-5,12-5.67,17-6.29,1.13-.14,2.26-.28,3.39-.46,7.75-1.26,11.35-.5,12.53-.11l.33.11a8.31,8.31,0,0,1,5.24,4.06,19.46,19.46,0,0,1,3,9.49c.1,1.21.23,7-5.77,11.4-3.85,2.83-9.4.63-15.28-1.69a53.67,53.67,0,0,0-7.55-2.58c-5.29-1.16-9.28-.49-12.53,2.12-.81.64-5.05,5.49-8.68,9.8A2.37,2.37,0,0,1,366.37,245.88Zm18.38-18a26.33,26.33,0,0,1,5.65.66,56.6,56.6,0,0,1,8.26,2.79c4,1.59,9,3.57,10.75,2.28,4.27-3.13,3.89-7,3.87-7.21s0-.24,0-.34h0a15,15,0,0,0-2.36-7.12,3.75,3.75,0,0,0-2.62-2l-.38-.12c-1-.34-4.41-.68-10.31.28-1.19.19-2.37.34-3.56.49-4.88.59-9.5,1.16-14.68,5.29a27.8,27.8,0,0,0-7.8,11.08,28.34,28.34,0,0,1,2.35-2.39A16.77,16.77,0,0,1,384.75,227.86Z"/><path class="cls-2" d="M187.53,285.82a.84.84,0,0,0-.35-.07.88.88,0,0,0-.75.43l-1.12,1.88a.87.87,0,0,0-.08.72.9.9,0,0,0,.49.54,25.13,25.13,0,0,1,7,4.39.92.92,0,0,0,.63.26h.06a.85.85,0,0,0,.65-.35l1.39-1.87a.87.87,0,0,0-.11-1.18A30.66,30.66,0,0,0,187.53,285.82Z"/><path class="cls-2" d="M184.61,294.3a22.55,22.55,0,0,0-6.3,1.12c0-.54,0-1.11,0-1.68,0-.8,0-1.6,0-2.39a30.09,30.09,0,0,0,5.57-1.21.89.89,0,0,0,.59-1l-.39-2.22a.87.87,0,0,0-.43-.62,1,1,0,0,0-.75-.06,21.49,21.49,0,0,1-4.51,1.15c0-1.16.05-2.29.08-3.2a1.55,1.55,0,0,0,.92-1.27.92.92,0,0,0-.21-.66.88.88,0,0,0-.62-.3l-3.21-.19h0a.85.85,0,0,0-.6.24.86.86,0,0,0-.28.64v5.12c-1.44.1-3.06.14-5,.14h-1.77a.85.85,0,0,0-.62.26.9.9,0,0,0-.26.64l0,2.16a.88.88,0,0,0,.87.87h1.59c1.94,0,3.61-.05,5.17-.16v5.16A23.08,23.08,0,0,0,170.6,299c-2.73,1.93-4.35,4.48-4.35,6.83,0,3.34,2.63,5.77,6.25,5.77a5.64,5.64,0,0,0,5.87-5.93c0-.34,0-1.1,0-2.05,0-1.28,0-3,0-4.35a21.78,21.78,0,0,1,6.28-1.27h.07c3.42,0,5.55,1.76,5.55,4.59,0,2.17-1.12,4.48-4.26,4.48a5.25,5.25,0,0,1-4.4-2.27.87.87,0,0,0-.69-.33h-.06a.89.89,0,0,0-.7.43,13.86,13.86,0,0,1-1.07,1.55.87.87,0,0,0,0,1.09,8.31,8.31,0,0,0,6.89,3.4c5.08,0,8.35-3.28,8.35-8.35S190.47,294.3,184.61,294.3Zm-10.13,11.24c0,1.47-.76,2.33-2,2.33a2.07,2.07,0,0,1-2.36-2.14c0-1.06,1.06-2.59,2.52-3.63.6-.42,1.23-.81,1.85-1.16,0,1.16,0,2.25,0,3.11C174.48,304.72,174.48,305.25,174.48,305.54Z"/><path class="cls-2" d="M220.89,306.94a.91.91,0,0,0-.55-.18h-.14a75,75,0,0,1-11.11.72c-7.63,0-7.63-2.42-7.63-3.22,0-3.16,6.63-7.17,17-10.24a2.36,2.36,0,0,0,.75.13,1.32,1.32,0,0,0,.64-.13.88.88,0,0,0,.45-1l-.82-2.64a.9.9,0,0,0-.44-.52,1,1,0,0,0-.41-.1.86.86,0,0,0-.27,0,94.06,94.06,0,0,0-9.16,3.46c-.54-1.77-.66-4.87-.65-8.89a1.61,1.61,0,0,0,1-1.36.9.9,0,0,0-.81-1l-3.5-.28h-.07a.87.87,0,0,0-.88.88c0,6.67.33,10.25,1.19,12.42-5.47,3-8.12,6-8.09,9.36,0,4.65,4,7,11.78,7a104.63,104.63,0,0,0,11.49-.58.87.87,0,0,0,.77-.94l-.19-2.32A.91.91,0,0,0,220.89,306.94Z"/><path class="cls-2" d="M239,293.25a17.36,17.36,0,0,0-4.74.71c2.47-2.48,5.67-5.61,7.65-7.34a2.06,2.06,0,0,0,1.13-.46.88.88,0,0,0,.3-.62.84.84,0,0,0-.22-.64l-1.88-2.07a.87.87,0,0,0-.65-.29.9.9,0,0,0-.42.1l-.39.22c-1,.22-9.79.82-13.91.82a.89.89,0,0,0-.66.3.91.91,0,0,0-.21.69l.32,2.67a.86.86,0,0,0,.37.62.85.85,0,0,0,.5.16.83.83,0,0,0,.22,0,2,2,0,0,0,.86-.47c1.94-.12,5.88-.36,8.56-.55-4.67,4.68-11.3,11.4-13.71,14.18a.88.88,0,0,0,0,1.2l1.59,1.56a.9.9,0,0,0,.62.25h0a.88.88,0,0,0,.64-.31,30.93,30.93,0,0,1,2.49-2.68,18.43,18.43,0,0,1,10.85-4.22c2.59,0,5.69.79,5.69,4.55s-4.07,5.38-13.61,5.79a.91.91,0,0,0-.74.46.88.88,0,0,0,0,.86,8.28,8.28,0,0,1,.67,1.88.89.89,0,0,0,.87.7h0c7.25-.36,16.89-1.76,16.89-9.75C248.24,296.43,244.71,293.25,239,293.25Z"/><path class="cls-2" d="M276.33,303.05a12.28,12.28,0,0,1-1.28-1.69.91.91,0,0,0-.68-.42h-.07a.89.89,0,0,0-.66.3c-3.32,3.75-7.05,5.74-10.78,5.74s-5.47-2.07-5.47-6.14c0-4.33.28-12.16.53-16.13a1.58,1.58,0,0,0,1-1.24.88.88,0,0,0-.8-1l-3.46-.29h-.07a.89.89,0,0,0-.58.22.84.84,0,0,0-.3.61c-.23,4-.51,13.85-.51,17.82,0,6.59,3.41,10.22,9.62,10.22,5,0,9.68-2.33,13.56-6.75A.88.88,0,0,0,276.33,303.05Z"/><path class="cls-3" d="M111.85,228.62a21.21,21.21,0,0,1,7.87,1.39,16.87,16.87,0,0,1,6,4,17.4,17.4,0,0,1,3.85,6.26,25.85,25.85,0,0,1,0,16.55,17.75,17.75,0,0,1-3.85,6.3,16.55,16.55,0,0,1-6,4,22.85,22.85,0,0,1-15.75,0,16.8,16.8,0,0,1-6-4,18,18,0,0,1-3.89-6.3,25.68,25.68,0,0,1,0-16.55A17.62,17.62,0,0,1,97.92,234a17.12,17.12,0,0,1,6-4A21.38,21.38,0,0,1,111.85,228.62Zm0,32.7c3.22,0,5.61-1.08,7.15-3.24s2.32-5.34,2.32-9.51-.77-7.35-2.32-9.54-3.93-3.28-7.15-3.28-5.68,1.1-7.24,3.3-2.33,5.37-2.33,9.52.77,7.31,2.33,9.49S108.59,261.32,111.85,261.32Z"/><path class="cls-3" d="M148.86,268.52q-5,0-7.73-2.84t-2.71-7.87V236.2h-3.93a1.86,1.86,0,0,1-1.3-.49,1.9,1.9,0,0,1-.55-1.47v-3.7l6.23-1,2-10.57a1.86,1.86,0,0,1,.7-1.17,2.23,2.23,0,0,1,1.37-.41h4.83v12.18h10.18v6.64H147.73v21a4.08,4.08,0,0,0,.91,2.83,3,3,0,0,0,2.41,1,4.32,4.32,0,0,0,1.45-.21,8.48,8.48,0,0,0,1-.43c.29-.16.55-.3.77-.44a1.29,1.29,0,0,1,.68-.2,1.06,1.06,0,0,1,.68.2,3.33,3.33,0,0,1,.57.63l2.79,4.52a14.21,14.21,0,0,1-4.68,2.57A17.63,17.63,0,0,1,148.86,268.52Z"/><path class="cls-3" d="M179.46,228.62a21.19,21.19,0,0,1,7.86,1.39,17,17,0,0,1,6,4,17.38,17.38,0,0,1,3.84,6.26,25.85,25.85,0,0,1,0,16.55,17.73,17.73,0,0,1-3.84,6.3,16.68,16.68,0,0,1-6,4,22.82,22.82,0,0,1-15.74,0,16.75,16.75,0,0,1-6.06-4,17.81,17.81,0,0,1-3.88-6.3,25.5,25.5,0,0,1,0-16.55,17.47,17.47,0,0,1,3.88-6.26,17.08,17.08,0,0,1,6.06-4A21.34,21.34,0,0,1,179.46,228.62Zm0,32.7q4.83,0,7.14-3.24t2.32-9.51q0-6.25-2.32-9.54t-7.14-3.28c-3.27,0-5.69,1.1-7.24,3.3s-2.34,5.37-2.34,9.52.78,7.31,2.34,9.49S176.19,261.32,179.46,261.32Z"/><path class="cls-2" d="M204.75,267.92V229.71h3.85a2.07,2.07,0,0,1,1.5.42,2.48,2.48,0,0,1,.57,1.43l.45,6a17.53,17.53,0,0,1,4.85-6.24,11.4,11.4,0,0,1,9.64-1.89,10,10,0,0,1,2.37,1l-.86,5a1.14,1.14,0,0,1-1.17.94,5.83,5.83,0,0,1-1.63-.36,10.14,10.14,0,0,0-3-.36,8.67,8.67,0,0,0-5.87,2,15.36,15.36,0,0,0-3.94,5.92v24.33Z"/><path class="cls-2" d="M246.43,229.11a19.62,19.62,0,0,1,7.56,1.4,16,16,0,0,1,5.74,4,17.53,17.53,0,0,1,3.62,6.2,26.89,26.89,0,0,1,0,16.27,17.66,17.66,0,0,1-3.62,6.19,15.79,15.79,0,0,1-5.74,3.94,21.4,21.4,0,0,1-15.12,0,15.91,15.91,0,0,1-5.75-3.94,17.44,17.44,0,0,1-3.66-6.19,26.49,26.49,0,0,1,0-16.27,17.31,17.31,0,0,1,3.66-6.2,16.08,16.08,0,0,1,5.75-4A19.62,19.62,0,0,1,246.43,229.11Zm0,34.1q5.65,0,8.45-3.8t2.79-10.57q0-6.84-2.79-10.64t-8.45-3.81a11.8,11.8,0,0,0-5,1,9.25,9.25,0,0,0-3.52,2.83,12.38,12.38,0,0,0-2.11,4.54,24.18,24.18,0,0,0-.7,6.1,23.93,23.93,0,0,0,.7,6.07,12.11,12.11,0,0,0,2.11,4.5,9.29,9.29,0,0,0,3.52,2.81A11.65,11.65,0,0,0,246.43,263.21Z"/><path class="cls-2" d="M291.45,236a1.49,1.49,0,0,1-1.39.83,2.71,2.71,0,0,1-1.29-.41c-.48-.28-1.06-.59-1.75-.93a16.68,16.68,0,0,0-2.47-.94,11.81,11.81,0,0,0-3.4-.43,9.94,9.94,0,0,0-3,.43,7.15,7.15,0,0,0-2.32,1.19,5.29,5.29,0,0,0-1.47,1.75,4.72,4.72,0,0,0-.51,2.17,3.58,3.58,0,0,0,.85,2.45,7.23,7.23,0,0,0,2.24,1.7,19,19,0,0,0,3.17,1.26c1.18.37,2.4.76,3.64,1.17s2.46.88,3.64,1.38a13.28,13.28,0,0,1,3.17,1.88,8.57,8.57,0,0,1,2.24,2.78,8.4,8.4,0,0,1,.85,3.94,12.41,12.41,0,0,1-.94,4.88,10.73,10.73,0,0,1-2.79,3.89,13.59,13.59,0,0,1-4.53,2.58,18.6,18.6,0,0,1-6.19.94,19.28,19.28,0,0,1-7.24-1.3,18.37,18.37,0,0,1-5.5-3.34l1.58-2.56a2.17,2.17,0,0,1,.72-.75,2,2,0,0,1,1.09-.27,2.54,2.54,0,0,1,1.43.53q.76.53,1.83,1.17a13.91,13.91,0,0,0,2.61,1.17,11.93,11.93,0,0,0,3.83.52,10.5,10.5,0,0,0,3.43-.5,7.25,7.25,0,0,0,2.45-1.38,5.41,5.41,0,0,0,1.45-2,6.27,6.27,0,0,0,.47-2.41,4,4,0,0,0-.85-2.62,7,7,0,0,0-2.24-1.78,17.81,17.81,0,0,0-3.19-1.28c-1.19-.36-2.41-.75-3.66-1.15s-2.46-.86-3.66-1.38a12.71,12.71,0,0,1-3.18-1.94,8.9,8.9,0,0,1-2.25-2.88,9.45,9.45,0,0,1-.85-4.17,10.27,10.27,0,0,1,3.55-7.75,13.18,13.18,0,0,1,4.26-2.44,17.17,17.17,0,0,1,5.77-.9,18.28,18.28,0,0,1,6.77,1.19,16.06,16.06,0,0,1,5.19,3.26Z"/><path class="cls-2" d="M298.53,267.92V212.36h6.72v22.48a20.74,20.74,0,0,1,5.43-4.17,14.55,14.55,0,0,1,6.86-1.56,13.84,13.84,0,0,1,5.53,1,10.74,10.74,0,0,1,4,2.94,13.28,13.28,0,0,1,2.43,4.58,20.07,20.07,0,0,1,.83,5.92v24.33h-6.72V243.59a10.29,10.29,0,0,0-2-6.73c-1.32-1.6-3.33-2.39-6.05-2.39A11.21,11.21,0,0,0,310,235.9a18,18,0,0,0-4.77,3.88v28.14Z"/><path class="cls-2" d="M345.63,217.72a4.37,4.37,0,0,1-.4,1.83,5.29,5.29,0,0,1-1.06,1.51,4.92,4.92,0,0,1-1.52,1,4.47,4.47,0,0,1-1.85.38,4.29,4.29,0,0,1-1.83-.38,4.88,4.88,0,0,1-1.51-1,5,5,0,0,1-1-1.51,4.5,4.5,0,0,1-.37-1.83,4.76,4.76,0,0,1,.37-1.87,4.81,4.81,0,0,1,1-1.54,4.91,4.91,0,0,1,1.51-1,4.44,4.44,0,0,1,1.83-.38,4.64,4.64,0,0,1,1.85.38,5,5,0,0,1,1.52,1,5,5,0,0,1,1.06,1.54A4.62,4.62,0,0,1,345.63,217.72Zm-1.51,12v38.21H337.4V229.71Z"/></g></g></svg>