<?xml version="1.0" encoding="UTF-8" standalone="no"?>
<!-- Created with Inkscape (http://www.inkscape.org/) -->

<svg
   xmlns:dc="http://purl.org/dc/elements/1.1/"
   xmlns:cc="http://creativecommons.org/ns#"
   xmlns:rdf="http://www.w3.org/1999/02/22-rdf-syntax-ns#"
   xmlns:svg="http://www.w3.org/2000/svg"
   xmlns="http://www.w3.org/2000/svg"
   xmlns:sodipodi="http://sodipodi.sourceforge.net/DTD/sodipodi-0.dtd"
   xmlns:inkscape="http://www.inkscape.org/namespaces/inkscape"
   id="svg2"
   version="1.1"
   inkscape:version="0.48.4 r9939"
   width="187.7875"
   height="94.9375"
   xml:space="preserve"
   sodipodi:docname="re-deal-logo-cmyk.eps"><metadata
     id="metadata8"><rdf:RDF><cc:Work
         rdf:about=""><dc:format>image/svg+xml</dc:format><dc:type
           rdf:resource="http://purl.org/dc/dcmitype/StillImage" /><dc:title></dc:title></cc:Work></rdf:RDF></metadata><defs
     id="defs6" /><sodipodi:namedview
     pagecolor="#ffffff"
     bordercolor="#666666"
     borderopacity="1"
     objecttolerance="10"
     gridtolerance="10"
     guidetolerance="10"
     inkscape:pageopacity="0"
     inkscape:pageshadow="2"
     inkscape:window-width="640"
     inkscape:window-height="480"
     id="namedview4"
     showgrid="false"
     inkscape:zoom="1.9223856"
     inkscape:cx="93.893753"
     inkscape:cy="47.46875"
     inkscape:window-x="65"
     inkscape:window-y="24"
     inkscape:window-maximized="0"
     inkscape:current-layer="g10" /><g
     id="g10"
     inkscape:groupmode="layer"
     inkscape:label="ink_ext_XXXXXX"
     transform="matrix(1.25,0,0,-1.25,0,94.9375)"><g
       id="g12"
       transform="scale(0.1,0.1)"><path
         d="m 594.871,759.477 808.059,0 c 54.64,0 99.35,-45.286 99.35,-100.633 l 0,-452.844 c 0,-55.348 -44.71,-100.633 -99.35,-100.633 l -803.383,0 L 495.52,0 l 0,658.844 c 0,55.347 44.71,100.633 99.351,100.633"
         style="fill:#54bd72;fill-opacity:1;fill-rule:nonzero;stroke:none"
         id="path14" /><path
         d="m 66.375,449.313 39.152,0 c 5.957,0 12.266,0.207 18.934,0.636 6.664,0.422 12.695,1.703 18.086,3.832 5.387,2.125 9.855,5.457 13.398,10 3.547,4.528 5.321,10.914 5.321,19.141 0,7.66 -1.559,13.762 -4.676,18.301 -3.129,4.535 -7.098,8.011 -11.918,10.429 -4.828,2.403 -10.356,4.036 -16.594,4.891 -6.242,0.852 -12.344,1.273 -18.297,1.273 l -43.406,0 0,-68.503 z M 0,573.988 l 116.59,0 c 15.316,0 29.855,-1.496 43.617,-4.472 13.754,-2.981 25.813,-7.946 36.164,-14.891 10.356,-6.953 18.574,-16.316 24.684,-28.082 6.093,-11.773 9.148,-26.457 9.148,-44.043 0,-21.273 -5.531,-39.359 -16.594,-54.254 -11.066,-14.891 -27.238,-24.324 -48.511,-28.293 l 76.597,-127.234 -79.578,0 -62.9764,120.426 -32.7656,0 0,-120.426 -66.375,0 0,301.269"
         style="fill:#54bd72;fill-opacity:1;fill-rule:nonzero;stroke:none"
         id="path16" /><path
         d="m 398.707,399.523 c 0.277,10.778 -3.269,20 -10.637,27.661 -7.382,7.66 -16.886,11.492 -28.515,11.492 -7.09,0 -13.332,-1.145 -18.719,-3.41 -5.395,-2.27 -10,-5.18 -13.832,-8.719 -3.828,-3.551 -6.809,-7.66 -8.934,-12.34 -2.125,-4.684 -3.336,-9.578 -3.613,-14.684 l 84.25,0 z M 452.75,308.465 C 442.531,295.41 429.625,285.34 414.027,278.254 398.422,271.16 382.254,267.617 365.52,267.617 c -15.895,0 -30.856,2.547 -44.891,7.66 -14.047,5.102 -26.25,12.403 -36.598,21.911 -10.359,9.503 -18.511,20.917 -24.468,34.257 -5.958,13.332 -8.934,28.223 -8.934,44.676 0,16.449 2.976,31.34 8.934,44.68 5.957,13.332 14.109,24.746 24.468,34.254 10.348,9.5 22.551,16.808 36.598,21.914 14.035,5.101 28.996,7.66 44.891,7.66 14.746,0 28.144,-2.559 40.21,-7.66 12.051,-5.106 22.266,-12.414 30.633,-21.914 8.367,-9.508 14.821,-20.922 19.364,-34.254 4.535,-13.34 6.808,-28.231 6.808,-44.68 l 0,-20 -148.078,0 c 2.547,-12.195 8.082,-21.914 16.594,-29.144 8.512,-7.239 19.004,-10.852 31.484,-10.852 10.492,0 19.363,2.34 26.594,7.023 7.238,4.672 13.547,10.7 18.941,18.082 l 44.68,-32.765"
         style="fill:#54bd72;fill-opacity:1;fill-rule:nonzero;stroke:none"
         id="path18" /><path
         d="m 642.746,333.992 34.469,0 c 15.32,0 29.574,1.559 42.765,4.684 13.188,3.117 24.61,8.297 34.254,15.531 9.641,7.231 17.235,16.734 22.766,28.508 5.527,11.765 8.297,26.172 8.297,43.187 0,14.754 -2.77,27.586 -8.297,38.516 -5.531,10.914 -12.977,19.926 -22.344,27.016 -9.359,7.093 -20.351,12.414 -32.976,15.957 -12.629,3.547 -25.891,5.32 -39.782,5.32 l -39.152,0 0,-178.719 z m -66.379,239.996 99.574,0 c 24.11,0 47.02,-2.699 68.715,-8.09 21.707,-5.386 40.641,-14.113 56.805,-26.164 16.172,-12.062 29.008,-27.738 38.516,-47.023 9.503,-19.289 14.253,-42.699 14.253,-70.207 0,-24.399 -4.613,-45.891 -13.832,-64.465 -9.218,-18.582 -21.636,-34.191 -37.234,-46.812 -15.601,-12.625 -33.613,-22.196 -54.039,-28.719 -20.426,-6.531 -41.848,-9.789 -64.25,-9.789 l -108.508,0 0,301.269"
         style="fill:#ffffff;fill-opacity:1;fill-rule:nonzero;stroke:none"
         id="path20" /><path
         d="m 1010.95,399.523 c 0.28,10.778 -3.27,20 -10.64,27.661 -7.38,7.66 -16.88,11.492 -28.509,11.492 -7.094,0 -13.332,-1.145 -18.723,-3.41 -5.394,-2.27 -10,-5.18 -13.832,-8.719 -3.828,-3.551 -6.805,-7.66 -8.933,-12.34 -2.125,-4.684 -3.336,-9.578 -3.614,-14.684 l 84.251,0 z m 54.04,-91.058 c -10.21,-13.055 -23.12,-23.125 -38.72,-30.211 -15.6,-7.094 -31.774,-10.637 -48.508,-10.637 -15.895,0 -30.856,2.547 -44.891,7.66 -14.047,5.102 -26.25,12.403 -36.598,21.911 -10.359,9.503 -18.511,20.917 -24.468,34.257 -5.957,13.332 -8.934,28.223 -8.934,44.676 0,16.449 2.977,31.34 8.934,44.68 5.957,13.332 14.109,24.746 24.468,34.254 10.348,9.5 22.551,16.808 36.598,21.914 14.035,5.101 28.996,7.66 44.891,7.66 14.746,0 28.148,-2.559 40.208,-7.66 12.05,-5.106 22.27,-12.414 30.64,-21.914 8.36,-9.508 14.82,-20.922 19.36,-34.254 4.54,-13.34 6.81,-28.231 6.81,-44.68 l 0,-20 -148.081,0 c 2.547,-12.195 8.082,-21.914 16.594,-29.144 8.512,-7.239 19.004,-10.852 31.484,-10.852 10.493,0 19.364,2.34 26.593,7.023 7.24,4.672 13.55,10.7 18.94,18.082 l 44.68,-32.765"
         style="fill:#ffffff;fill-opacity:1;fill-rule:nonzero;stroke:none"
         id="path22" /><path
         d="m 1216.89,363.355 c -4.82,0 -10.84,-0.21 -18.08,-0.636 -7.23,-0.426 -14.19,-1.641 -20.85,-3.621 -6.67,-1.989 -12.34,-4.965 -17.02,-8.934 -4.68,-3.976 -7.02,-9.508 -7.02,-16.594 0,-7.66 3.26,-13.34 9.78,-17.023 6.53,-3.684 13.34,-5.527 20.43,-5.527 6.24,0 12.27,0.843 18.09,2.546 5.81,1.707 10.98,4.118 15.53,7.239 4.53,3.117 8.15,7.086 10.85,11.914 2.69,4.82 4.04,10.492 4.04,17.023 l 0,13.613 -15.75,0 z m 15.75,-64.675 -0.85,0 c -7.1,-11.071 -16.53,-19.012 -28.3,-23.832 -11.77,-4.821 -24.19,-7.231 -37.23,-7.231 -9.65,0 -18.94,1.352 -27.87,4.035 -8.94,2.696 -16.81,6.743 -23.62,12.129 -6.8,5.387 -12.2,12.059 -16.17,20 -3.97,7.938 -5.95,17.164 -5.95,27.664 0,11.91 2.19,21.973 6.59,30.207 4.4,8.223 10.35,15.036 17.87,20.426 7.51,5.387 16.1,9.57 25.75,12.555 9.64,2.98 19.64,5.168 29.99,6.594 10.36,1.414 20.71,2.265 31.07,2.554 10.35,0.278 19.92,0.422 28.72,0.422 0,11.348 -4.04,20.356 -12.13,27.02 -8.08,6.664 -17.65,10 -28.72,10 -10.5,0 -20.07,-2.203 -28.72,-6.594 -8.66,-4.402 -16.38,-10.422 -23.19,-18.082 l -34.05,34.891 c 11.92,11.062 25.82,19.359 41.71,24.89 15.88,5.535 32.34,8.301 49.36,8.301 18.72,0 34.1,-2.344 46.17,-7.024 12.05,-4.675 21.69,-11.558 28.93,-20.632 7.23,-9.086 12.27,-20.215 15.11,-33.41 2.83,-13.188 4.25,-28.438 4.25,-45.739 l 0,-105.105 -58.72,0 0,25.961"
         style="fill:#ffffff;fill-opacity:1;fill-rule:nonzero;stroke:none"
         id="path24" /><path
         d="m 1318.72,272.719 63.832,0 0,321.695 -63.832,0 0,-321.695 z"
         style="fill:#ffffff;fill-opacity:1;fill-rule:nonzero;stroke:none"
         id="path26" /></g></g></svg>