<svg id="Réteg_2" data-name="Réteg 2" xmlns="http://www.w3.org/2000/svg" viewBox="0 0 245.2 38.84"><defs><style>.cls-1{fill:#ed1c24;}.cls-2{fill:#fff;}</style></defs><title>Artboard 2</title><path class="cls-1" d="M31.57,11.06V0L20.46,11.06H11.21L3.81,3.65V27.73a11.1,11.1,0,0,0,11.1,11.11H31.6V11.06Z"/><rect class="cls-2" x="7.17" y="14.85" width="21.07" height="9.58" rx="4.62" ry="4.62"/><circle cx="23.04" cy="19.64" r="3.7"/><path class="cls-1" d="M12.3,16.73a3,3,0,1,1-3,3,3,3,0,0,1,3-3m0-.74A3.71,3.71,0,1,0,16,19.71h0A3.72,3.72,0,0,0,12.3,16Z"/><path class="cls-2" d="M19.37,27.25a.38.38,0,0,0-.53,0h0l-1.13,1.13-1.14-1.13a.37.37,0,1,0-.58.46.17.17,0,0,0,.06.06l1.29,1.29v2.52a.37.37,0,0,0,.37.37.39.39,0,0,0,.37-.37V29.06l1.29-1.29A.37.37,0,0,0,19.37,27.25Z"/><path class="cls-2" d="M2.53,28.67H10a.29.29,0,0,0,.28-.28.28.28,0,0,0-.26-.28H2.53a.26.26,0,0,0-.28.26s0,0,0,0A.28.28,0,0,0,2.53,28.67Z"/><path class="cls-2" d="M11.44,29.45H1.1a.28.28,0,0,0-.27.28A.28.28,0,0,0,1.1,30H11.44a.29.29,0,0,0,.28-.28A.28.28,0,0,0,11.44,29.45Z"/><path class="cls-2" d="M10,30.79H2.53a.26.26,0,0,0-.28.26s0,0,0,0a.28.28,0,0,0,.28.28H10a.29.29,0,0,0,.28-.28.28.28,0,0,0-.26-.28Z"/><path class="cls-2" d="M25.43,28.39h7.51a.28.28,0,0,0,0-.56H25.43a.28.28,0,0,0,0,.56Z"/><path class="cls-2" d="M34.36,29.17H24a.28.28,0,0,0-.29.28.29.29,0,0,0,.28.28H34.36a.28.28,0,0,0,0-.56Z"/><path class="cls-2" d="M32.94,30.51H25.43a.28.28,0,0,0,0,.56h7.51a.28.28,0,0,0,0-.56Z"/><path class="cls-1" d="M45.22,18.4h0A3.74,3.74,0,0,0,38,19.67a4,4,0,0,0,.31,1.48A12.15,12.15,0,0,1,26.81,37.39h0A12.43,12.43,0,0,1,23.6,37,15.2,15.2,0,0,0,45.22,18.4Z"/><path d="M67.44,38.6A11.91,11.91,0,0,1,58.59,35a12,12,0,0,1-3.54-8.86h0A12.26,12.26,0,0,1,67,13.62h.66a14,14,0,0,1,5.46,1,12.76,12.76,0,0,1,4.07,2.78l-3.37,3.9a9.17,9.17,0,0,0-6.19-2.73,6.5,6.5,0,0,0-5,2.18,7.61,7.61,0,0,0-2,5.34h0a7.82,7.82,0,0,0,2,5.38,6.49,6.49,0,0,0,5,2.2A7.64,7.64,0,0,0,71,32.94a13.82,13.82,0,0,0,3-2.15l3.37,3.42a14.47,14.47,0,0,1-4.29,3.23A13,13,0,0,1,67.44,38.6Z"/><path d="M99.23,35a13.42,13.42,0,0,1-18.35,0,11.9,11.9,0,0,1-3.64-8.84h0a12,12,0,0,1,3.67-8.86,13.42,13.42,0,0,1,18.35,0,11.88,11.88,0,0,1,3.65,8.81h0A12,12,0,0,1,99.23,35ZM84.87,31.5a6.88,6.88,0,0,0,5.24,2.19,6.79,6.79,0,0,0,5.21-2.16,7.54,7.54,0,0,0,2-5.38h0a7.55,7.55,0,0,0-2.06-5.38,7.36,7.36,0,0,0-10.47-.05,7.62,7.62,0,0,0-2,5.35h0A7.6,7.6,0,0,0,84.87,31.5Z"/><path d="M105.05,38.2V14H110L121.27,28.9V14h5.2V38.2H122L110.29,22.84V38.2Z"/><path d="M129.71,38.2V14h18.41v4.82H135V24h11.54v4.84H135v9.28Z"/><path d="M150,38.2V14h5.32V38.2Z"/><path d="M170.4,38.6a12.51,12.51,0,0,1-9.14-3.51,12,12,0,0,1-3.56-8.94h0a12.11,12.11,0,0,1,3.62-8.86,12.25,12.25,0,0,1,9.05-3.64,15.14,15.14,0,0,1,5.3.81,13.74,13.74,0,0,1,4.18,2.41l-3.34,4a11.43,11.43,0,0,0-2.94-1.86,8.62,8.62,0,0,0-3.37-.59,6.36,6.36,0,0,0-4.92,2.28,7.58,7.58,0,0,0-2,5.3h0a7.61,7.61,0,0,0,2.05,5.47,6.89,6.89,0,0,0,5.26,2.18,8.31,8.31,0,0,0,5-1.36V28.87h-5.35V24.23h10.49v10.5A15.49,15.49,0,0,1,170.4,38.6Z"/><path class="cls-1" d="M194.87,38.6A11.41,11.41,0,0,1,186.28,35a12.27,12.27,0,0,1-3.43-8.86h0a12.4,12.4,0,0,1,3.46-8.85,11.37,11.37,0,0,1,8.62-3.65,12.51,12.51,0,0,1,5.16,1,16.3,16.3,0,0,1,4.22,2.89l-1.26,1.31a11.46,11.46,0,0,0-8.15-3.51,9.54,9.54,0,0,0-7.27,3.1,10.84,10.84,0,0,0-2.91,7.73h0a10.8,10.8,0,0,0,2.95,7.73A9.53,9.53,0,0,0,194.93,37a10,10,0,0,0,4.45-.92,15,15,0,0,0,3.87-2.83l1.2,1.17a16,16,0,0,1-4.34,3.09A12.17,12.17,0,0,1,194.87,38.6Z"/><path class="cls-1" d="M204.73,38.2,216,13.85h1.74L229,38.2h-2l-3.1-6.78H209.67l-3.1,6.78Zm5.69-8.4h12.73l-6.34-13.92Z"/><path class="cls-1" d="M235.06,38.2V15.69h-8.41V14H245.2v1.65h-8.43V38.2Z"/></svg>