<?xml version="1.0" encoding="utf-8"?>
<!-- Generator: Adobe Illustrator 17.0.0, SVG Export Plug-In . SVG Version: 6.00 Build 0)  -->
<!DOCTYPE svg PUBLIC "-//W3C//DTD SVG 1.1//EN" "http://www.w3.org/Graphics/SVG/1.1/DTD/svg11.dtd">
<svg version="1.1" id="Layer_1" xmlns="http://www.w3.org/2000/svg" xmlns:xlink="http://www.w3.org/1999/xlink" x="0px" y="0px"
	 width="99px" height="36px" viewBox="0 0 99 36" enable-background="new 0 0 99 36" xml:space="preserve">
<g>
	<g>
		<g>
			<g>
				<path fill="#FFFFFF" d="M7.69,13.07c-0.48,7.74,6.57,7.66,6.57,7.66c-0.37,1.57-1.03,3.13-1.03,3.13s-4.45-0.38-7.37,1.49
					c-5.69,3.68-6.25,9.66-0.35,9.25c5-0.33,8.5-3.82,10.94-8.17c0.11,0,1.52-0.02,2.17,0c0.67,0.03,0.67-0.32,0.67-0.32
					s0.2-0.6,0.55-1.57c0.25-0.7-0.6-0.66-0.6-0.66l-1.55,0.01c2.96-6.64,3.9-14.27,4.12-16.3C23.15-4.82,8.3,3.21,7.69,13.07z
					 M11.46,27.61c-0.73,0.92-2.76,3.54-3.98,4.03c-1.21,0.47-4.32,0.66-1.93-2.44c1.9-2.51,4.49-2.63,5.67-2.64
					C12.43,26.55,11.71,27.29,11.46,27.61z M17.45,7.92c-0.06,0.33-1.48,8.28-1.96,9.5c-0.43,1.05-1.32,2.58-2.92-0.3
					c-1.53-2.73-0.3-7.59,2.09-10.68C17.78,2.41,17.73,6.26,17.45,7.92z"/>
			</g>
		</g>
		<g>
			<path fill="#FFFFFF" d="M29.73,5.78c1.59,0,2.67-1.6,2.7-2.74c0.03-1.14-0.8-1.92-2.39-1.82c-1.59,0.1-2.22,1.39-2.22,2.58
				C27.82,4.98,28.76,5.78,29.73,5.78z"/>
		</g>
		<g>
			<g>
				<path fill="#FFFFFF" d="M97.61,22.18c-0.07-0.19-0.13-0.31-0.34-0.81c-0.15-0.36-0.6-0.05-0.88,0.12
					c-7.08,4.16-10.75,2-11.25,1.74c-0.12-0.06-0.21-0.14-0.21-0.14c5.3-2.34,7.91-8.44,4.9-11.08c-5.21-4.57-13.04,5.47-9.29,10.57
					c0.3,0.41,0.25,0.41,0.25,0.41s-1.32,1.28-4.22,1.55c-1.15,0.11-2.22-0.12-3.09-0.43l-0.01-0.07c0,0-0.55-2.57-2.81-3.4
					c0,0,5.72-2.33,8.98-9.73c3.73-8.47-3.22-14.23-8.13-4.98c-0.37,0.69-3.56,8.85-5.64,16.57c-0.78,0.78-1.97,1.69-3.24,1.69
					c-2.23,0-2.54-2.02,0.08-7.28c1.07-2.15,1.99-4.04,1.99-4.04s0.55-0.94,0.01-1.31c-0.9-0.62-1.96-1.02-1.96-1.02
					s-0.99-0.48-1.9,1.65c0,0-0.79-1.01-2.52-1.01c-6.29,0-10.29,5.53-10.94,9.94c-0.8,1.06-2.59,3.12-4.49,3.12
					c-2.35,0-1.48-2.55-0.96-3.76c0.52-1.21,3.42-5.66,0.9-7.16c-2.75-1.63-3.38-1.89-3.38-1.89s1.18-3-1.77-3.12
					c-2.95-0.12-2.91,3.47-1.47,3.72c0,0-0.23,0.64-0.38,1.06c-0.13,0.35-2.6,7.51-5.39,10.15c-0.51,0.41-1.06,0.75-1.65,0.94
					c-0.01,0-0.03,0.01-0.04,0.01c0,0,0,0-0.01,0.01c-0.33,0.1-0.67,0.16-1.02,0.17c-1.86,0.01-2.09-0.61-1.47-2.9
					c0.63-2.29,2.76-8.01,3.19-9.29c0.43-1.27-0.34-1.23-0.62-1.23c-0.28,0-2.12-0.02-2.5,0c-0.35,0.02-0.74,0.37-1.23,1.65
					c-0.49,1.28-1.37,3.96-2.84,8.34c-1.48,4.39,2.15,5.75,4.56,5.75c1.6,0,7.08-0.58,10.72-12.02c0,0,1.32-0.35,2.14,0.89
					c0.82,1.24-2.22,3.9-2.35,7.41c-0.12,3.51,3.47,3.44,4.78,3.44c1.23,0,3.3-0.58,5.31-2.83c0.34,1.73,1.45,2.93,3.45,2.93
					c4.52,0,6.52-4.45,7.45-5.34c0,0-2.98,5.47,3.52,5.3c1.46-0.04,2.49-0.36,3.26-0.81c-0.36,1.56-0.64,3.04-0.82,4.39
					c-0.94,7.02,9.37,6.66,9.45-3.38c4.38,0.93,8.24-1.94,8.24-1.94c7.34,4.29,14.81-1.32,15.28-1.63
					C97.79,22.72,97.68,22.37,97.61,22.18z M71.16,17c0.15-0.51,2.45-6.9,2.89-8c1.93-4.92,4.59-5.96,3.76-2.48
					c-1.48,6.24-5.47,10.04-6.28,10.91C70.72,18.29,70.99,17.57,71.16,17z M52.56,23.82c-3.49,0,1.12-10.03,6-10.03
					C62.1,13.79,54.52,23.82,52.56,23.82z M68.81,31.95c-1.54,1.14-0.77-2.43-0.35-3.9c0.43-1.47,0.9-3.42,0.9-3.42
					s0.74,0.99,1.77,1.18C71.13,25.81,71.25,30.16,68.81,31.95z M86.84,13.99c2.68,0.25,0.53,4.21-3.31,7.03
					C82.84,17.76,84.36,13.76,86.84,13.99z"/>
			</g>
		</g>
	</g>
</g>
</svg>
