<svg xmlns="http://www.w3.org/2000/svg" width="912" height="134.5" viewBox="-7 639.2 912 134.5"><path fill="#616161" d="M215.1 744.7V668h21.4c4.9 0 9.2.9 13.1 2.5 4 1.6 7.6 4 10.4 7 2.9 3.1 5.2 6.7 6.8 11 1.6 4.3 2.3 9 2.3 14.4v7c0 5.2-.7 10.1-2.3 14.4-1.6 4.3-4 7.9-6.8 11s-6.5 5.4-10.4 7c-4.1 1.6-8.6 2.5-13.5 2.5H215v-.1h.1zm6.5-71.1v65.7h14.6c4.1 0 7.7-.7 11.2-2.2 3.2-1.4 6.1-3.4 8.5-5.9 2.3-2.5 4.1-5.8 5.4-9.4s1.8-7.6 1.8-11.9v-7.2c0-4.5-.7-8.5-2-12.1s-3.1-6.7-5.4-9.2-5-4.5-8.3-5.9c-3.2-1.4-6.8-2.2-10.8-2.2h-14.9v.3h-.1zm55.3 41.8c0-4.1.5-7.9 1.8-11.5s2.9-6.5 5.2-9.2c2.2-2.5 4.9-4.5 8.1-5.9 3.1-1.4 6.7-2.2 10.4-2.2 4 0 7.4.7 10.6 2.2 3.1 1.4 5.8 3.4 8.1 5.9 2.2 2.5 4 5.6 5 9.2 1.3 3.6 1.8 7.4 1.8 11.5v1.8c0 4.1-.5 7.9-1.8 11.5s-2.9 6.5-5 9.2c-2.2 2.5-4.9 4.5-8.1 5.9-3.1 1.4-6.7 2.2-10.4 2.2s-7.4-.7-10.4-2.2c-3.1-1.4-5.8-3.4-8.1-5.9-2.2-2.5-4-5.6-5.2-9.2-1.3-3.6-1.8-7.4-1.8-11.5v-1.8h-.2zm6.3 1.8c0 3.1.4 6.1 1.3 9 .9 2.9 2.2 5.2 3.8 7.4 1.6 2.2 3.6 3.8 5.9 5 2.3 1.3 5.2 2 8.3 2 3.1 0 5.8-.7 8.3-2 2.3-1.3 4.3-2.9 5.9-5 1.6-2.2 2.9-4.7 3.8-7.4.9-2.9 1.3-5.8 1.3-9v-1.8c0-3.1-.4-5.9-1.3-8.8-.9-2.9-2.2-5.4-3.8-7.4-1.6-2.2-3.6-3.8-6.1-5.2-2.3-1.3-5.2-2-8.3-2-3.1 0-5.8.7-8.1 2s-4.3 3.1-5.9 5.2c-1.6 2.2-2.9 4.7-3.8 7.4-.9 2.9-1.3 5.8-1.3 8.8v1.8zm91.1 20.3c-1.8 2.5-4.1 4.7-7.2 6.1s-6.7 2.2-11 2.2c-2.9 0-5.4-.4-7.6-1.3-2.3-.7-4.3-2-5.9-3.8-1.6-1.8-2.9-4-3.8-6.7-.9-2.7-1.3-6.1-1.3-9.9v-36.5h6.3v36.7c0 3.1.4 5.6 1.1 7.6s1.6 3.6 2.9 4.9 2.5 2.2 4.1 2.7 3.2.7 5 .7c2.5 0 4.7-.4 6.7-.9s3.6-1.4 5-2.3c1.4-1.1 2.5-2.2 3.4-3.6s1.6-2.9 2.2-4.5v-41.2h6.3v57.1h-6.1l-.1-7.3zm66-20.7c0 4.3-.5 8.3-1.4 11.7-.9 3.6-2.3 6.7-4.3 9.2-1.8 2.5-4.1 4.5-6.8 5.9-2.7 1.4-5.8 2.2-9.2 2.2-4.1 0-7.7-.7-10.8-2.3s-5.4-3.8-7.4-6.5l-.2 7.7h-5.8v-81h6.3v32.2c2-2.9 4.3-5.2 7.2-6.8 2.9-1.6 6.5-2.5 10.6-2.5 3.4 0 6.7.7 9.4 2 2.7 1.4 5 3.2 6.8 5.9 1.8 2.5 3.2 5.6 4.3 9.2.9 3.6 1.4 7.6 1.4 12.1v1.1h-.1v-.1zm-6.3-1.1c0-3.2-.4-6.5-.9-9.4-.7-2.9-1.6-5.4-3.1-7.6-1.4-2.2-3.1-3.8-5.2-5-2.1-1.2-4.7-1.8-7.6-1.8-2.3 0-4.5.4-6.3.9-1.8.7-3.4 1.4-4.7 2.5-1.3 1.1-2.5 2.3-3.4 3.8-.9 1.4-1.6 2.9-2.2 4.3v25.7c.7 1.4 1.4 2.9 2.5 4.3 1.1 1.3 2.2 2.5 3.6 3.4s2.9 1.8 4.7 2.3c1.8.5 3.8.9 5.9.9 2.9 0 5.4-.5 7.4-1.8 2.2-1.3 3.8-2.9 5.2-5 1.4-2.2 2.3-4.7 3.1-7.4.7-2.9.9-5.9.9-9.4l.1-.7zm23.6 29h-6.3v-81h6.3v81zm36.9 1.1c-3.8 0-7.2-.7-10.3-2.2s-5.8-3.2-8.1-5.8c-2.3-2.5-4-5.4-5.2-8.8-1.3-3.4-2-7.2-2-11.2v-2.3c0-4.3.7-8.5 2-11.9 1.3-3.6 3.1-6.7 5.4-9.2 2.2-2.5 4.9-4.5 7.7-5.8 2.9-1.4 6.1-2 9.4-2 3.6 0 6.8.7 9.7 2 2.9 1.3 5.2 3.1 7 5.4 1.8 2.3 3.4 5 4.3 8.3.9 3.2 1.4 6.7 1.4 10.4v3.8h-40.7v1.3c0 3.1.5 6.1 1.4 8.8.9 2.7 2.3 5.2 4 7.2 1.8 2 3.8 3.6 6.1 4.9 2.3 1.3 5 1.8 7.9 1.8 3.4 0 6.3-.5 9-1.8 2.5-1.3 4.9-3.2 7-5.9l4 3.1c-.9 1.4-2 2.7-3.2 4-1.3 1.3-2.7 2.3-4.3 3.2s-3.6 1.6-5.6 2.2c-2 .3-4.4.5-6.9.5zm-1.2-53.8c-2.3 0-4.7.5-6.7 1.4s-3.8 2.2-5.4 4c-1.6 1.6-2.9 3.8-3.8 6.1-1.1 2.3-1.6 5-2 7.9h34.2v-.7c0-2.3-.5-4.7-1.1-7-.7-2.2-1.8-4.1-3.1-5.9-1.4-1.8-3.1-3.1-5-4.1-2.1-1.2-4.4-1.7-7.1-1.7zm89.1 28.8c-.4 4-1.3 7.4-2.7 10.4-1.4 3.1-3.2 5.8-5.6 7.9-2.3 2.2-5.2 3.8-8.5 4.9-3.2 1.1-7 1.8-11.3 1.8s-8.3-.9-11.9-2.5c-3.6-1.6-6.7-4-9.2-7-2.5-3.1-4.5-6.7-5.9-11-1.4-4.3-2-9-2-14v-9.7c0-5.2.7-9.9 2-14.2 1.4-4.3 3.2-7.9 5.9-11 2.5-3.1 5.6-5.4 9.2-7 3.6-1.6 7.7-2.5 12.2-2.5 4.1 0 7.7.5 11 1.6 3.2 1.1 6.1 2.7 8.5 4.9 2.3 2.2 4.1 4.9 5.6 7.9 1.4 3.1 2.3 6.7 2.7 10.6h-6.5c-.4-3.1-1.1-5.9-2.2-8.3-1.1-2.5-2.3-4.5-4.1-6.1s-3.8-2.9-6.3-3.8-5.4-1.3-8.6-1.3c-3.6 0-6.8.7-9.5 2.2-2.9 1.4-5.2 3.4-7.2 5.9s-3.4 5.6-4.5 9.2c-1.1 3.6-1.6 7.6-1.6 11.9v9.7c0 4.1.5 8.1 1.4 11.7s2.3 6.7 4.3 9.2 4.3 4.7 7 6.1 5.9 2.2 9.5 2.2c6.8 0 11.9-1.6 15.3-4.9 3.4-3.2 5.6-8.1 6.3-14.6h6.7v-.2zm18.5 23.9h-6.3v-81h6.3v81zm15.5-73.4c0-1.3.4-2.2 1.1-3.1s1.8-1.3 3.2-1.3 2.3.4 3.2 1.3c.7.9 1.3 1.8 1.3 3.1s-.4 2.2-1.3 3.1c-.7.7-1.8 1.3-3.2 1.3s-2.3-.4-3.2-1.3c-.8-1-1.1-2.1-1.1-3.1zm7.4 73.4h-6.3v-57.1h6.3v57.1zm35.1-4.3c2 0 4-.4 5.8-.9s3.4-1.4 4.9-2.5c1.4-1.1 2.7-2.5 3.6-4.1.9-1.6 1.4-3.6 1.6-5.8h6.1c-.2 2.7-.9 5.2-2 7.6-1.3 2.3-2.9 4.3-4.9 5.9s-4.3 2.9-6.8 4c-2.5.9-5.4 1.4-8.3 1.4-4 0-7.6-.7-10.6-2.2-3.1-1.4-5.6-3.4-7.6-6.1-2-2.5-3.6-5.6-4.7-9-1.1-3.4-1.6-7.2-1.6-11.2v-2.2c0-4 .5-7.7 1.6-11.2 1.1-3.4 2.5-6.5 4.7-9 2-2.5 4.5-4.5 7.6-6.1 3.1-1.4 6.5-2.2 10.4-2.2 3.1 0 5.9.5 8.5 1.4 2.7.9 4.9 2.3 6.8 4.1 2 1.8 3.4 4 4.7 6.5 1.1 2.5 1.8 5.4 2 8.5h-6.1c-.2-2.3-.7-4.3-1.4-6.3-.9-1.8-2-3.4-3.4-4.7s-3.1-2.3-5-3.1c-1.8-.7-4-1.1-6.1-1.1-3.2 0-6.1.7-8.3 2-2.3 1.3-4.1 3.1-5.6 5-1.4 2.2-2.5 4.7-3.1 7.4-.7 2.7-.9 5.8-.9 8.6v2.2c0 3.1.4 5.9.9 8.8s1.6 5.2 3.1 7.4c1.4 2.2 3.2 3.8 5.6 5 2.3 1.4 5 1.9 8.5 1.9zm45.9-24.3l-7.2 7v21.8h-6.3v-81h6.3v51.8l5.9-6.5 21.8-21.4h7.9L709.1 712l26.3 32.9h-7.6l-23-28.8z"/><path fill="#369647" d="M93.8 639.2c-5.8 0-11.3.7-16.7 2.2 28.6 7.4 49.9 33.1 50.4 63.7v2.6c-.7 18-15.7 32.4-33.7 32.4-6.1 0-11.9-1.6-16.7-4.5-10.1-5.8-16.8-16.6-16.8-29.2 0-12.6 6.8-23.2 16.7-29.2-4.9-2.9-10.6-4.5-16.7-4.5-18.2 0-32.9 14.4-33.5 32.4v2.6c.5 30.8 21.8 56.5 50.4 63.7 5.4 1.4 11 2.2 16.7 2.2 37.1 0 67.1-30.1 67.1-67.1 0-37.2-30.1-67.3-67.2-67.3z"/><path fill="#AEEA00" d="M127.3 705.1c-.5-30.8-21.8-56.5-50.4-63.7-5.4-1.4-11-2.2-16.7-2.2-37.1 0-67.2 30.1-67.2 67.2s30.1 67.1 67.1 67.1c5.8 0 11.3-.7 16.7-2.2-28.4-7.4-49.7-32.9-50.2-63.7V705c.7-18 15.5-32.4 33.5-32.4 6.1 0 11.9 1.6 16.7 4.5 10.1 5.8 16.7 16.6 16.7 29.2s-6.8 23.2-16.7 29.2c5 2.7 10.8 4.5 16.9 4.5 18.2 0 32.9-14.4 33.5-32.4v-1.3c.1-.3.1-.8.1-1.2z"/><linearGradient id="a" gradientUnits="userSpaceOnUse" x1="19.194" y1="322.279" x2="19.194" y2="247.904" gradientTransform="matrix(1.8 0 0 -1.8 25.6 1219.7)"><stop offset="0" stop-opacity=".6"/><stop offset=".6" stop-opacity=".1"/></linearGradient><path opacity=".15" fill="url(#a)" d="M127.3 705.1c-.5-30.8-21.8-56.5-50.4-63.7-5.4-1.4-11-2.2-16.7-2.2-37.1 0-67.2 30.1-67.2 67.2s30.1 67.1 67.1 67.1c5.8 0 11.3-.7 16.7-2.2-28.4-7.4-49.7-32.9-50.2-63.7V705c.7-18 15.5-32.4 33.5-32.4 6.1 0 11.9 1.6 16.7 4.5 10.1 5.8 16.7 16.6 16.7 29.2s-6.8 23.2-16.7 29.2c5 2.7 10.8 4.5 16.9 4.5 18.2 0 32.9-14.4 33.5-32.4v-1.3c.1-.3.1-.8.1-1.2z"/><linearGradient id="b" gradientUnits="userSpaceOnUse" x1="37.944" y1="248.257" x2="37.944" y2="322.567" gradientTransform="matrix(1.8 0 0 -1.8 25.6 1219.7)"><stop offset="0" stop-opacity=".6"/><stop offset=".6" stop-opacity=".1"/></linearGradient><path opacity=".15" fill="url(#b)" d="M93.8 639.2c-5.8 0-11.3.7-16.7 2.2 28.6 7.4 49.9 33.1 50.4 63.7v2.6c-.7 18-15.7 32.4-33.7 32.4-6.1 0-11.9-1.6-16.7-4.5-10.1-5.8-16.8-16.6-16.8-29.2 0-12.6 6.8-23.2 16.7-29.2-4.9-2.9-10.6-4.5-16.7-4.5-18.2 0-32.9 14.4-33.5 32.4v2.6c.5 30.8 21.8 56.5 50.4 63.7 5.4 1.4 11 2.2 16.7 2.2 37.1 0 67.1-30.1 67.1-67.1 0-37.2-30.1-67.3-67.2-67.3z"/><linearGradient id="c" gradientUnits="userSpaceOnUse" x1="9.686" y1="278.124" x2="22.349" y2="237.405" gradientTransform="matrix(1.8 0 0 -1.8 25.6 1219.7)"><stop offset="0" stop-opacity=".5"/><stop offset=".75" stop-opacity=".03"/></linearGradient><path opacity=".4" fill="url(#c)" d="M76.9 771.4c-28.4-7.4-49.7-32.9-50.2-63.7v-.2.5c.4 26.1 9.7 49.3 24.3 65 3.1.4 6.1.7 9.2.7 5.7-.2 11.5-.9 16.7-2.3z"/><linearGradient id="d" gradientUnits="userSpaceOnUse" x1="2.126" y1="294.467" x2="38.719" y2="294.467" gradientTransform="matrix(1.8 0 0 -1.8 25.6 1219.7)"><stop offset="0" stop-opacity=".9"/><stop offset=".6" stop-opacity=".1"/></linearGradient><path opacity=".25" fill="url(#d)" d="M27 705.3c5.2-17.3 23.2-27.4 40.9-22.5.5.2 1.3.4 1.8.5 2.2-2.3 4.7-4.3 7.4-5.9-4.9-2.9-10.6-4.5-16.7-4.5-18.2 0-32.9 14.4-33.4 32.4l-.1 1.1c-.2-.4-.1-.8.1-1.1z"/><g fill="#AAA"><path d="M777.5 736.1c0 1.3-.2 2.5-.5 3.6s-.8 2-1.3 2.8c-.6.8-1.3 1.4-2.2 1.9-.8.4-1.8.7-2.9.7-1.2 0-2.2-.2-3-.6-.8-.4-1.6-1-2.2-1.8l-.1 2h-2.8v-25h3v9.3c.6-.7 1.3-1.3 2.1-1.7s1.8-.6 2.9-.6c1.1 0 2.1.2 2.9.7.9.4 1.6 1 2.1 1.8.6.8 1 1.7 1.3 2.8s.5 2.3.5 3.7v.4h.2zm-3-.3c0-.9-.1-1.7-.2-2.5-.2-.8-.4-1.5-.8-2-.4-.6-.8-1.1-1.4-1.4-.6-.3-1.3-.5-2.2-.5-.6 0-1.1.1-1.5.2-.4.1-.8.3-1.2.6-.4.3-.7.5-.9.9-.3.3-.5.7-.7 1.1v7.6c.2.4.4.8.7 1.1l.9.9c.4.3.8.4 1.2.6.4.1.9.2 1.5.2.8 0 1.5-.2 2.1-.5.6-.3 1-.8 1.4-1.4.4-.6.6-1.3.8-2 .2-.8.3-1.6.3-2.5v-.4zM786.6 740.3l4.1-13.2h3.2l-7.1 20.4c-.2.4-.4.9-.6 1.4-.3.5-.6 1-1 1.4s-.9.8-1.5 1.1c-.6.3-1.3.4-2.1.4h-.4c-.2 0-.3 0-.5-.1-.2 0-.3-.1-.5-.1-.1 0-.2-.1-.3-.1v-2.4h.8c.5 0 1 0 1.4-.1s.7-.3 1-.5c.3-.2.6-.5.8-.9s.4-.8.6-1.4l.7-1.8-6.3-17.4h3.3l4.4 13.3zM822.9 741.6c-.2.3-.5.7-.9 1.1s-.9.8-1.6 1.1c-.7.3-1.5.6-2.4.9-1 .2-2.1.4-3.4.4-1.4 0-2.8-.3-4-.8s-2.3-1.2-3.1-2.2c-.9-1-1.6-2.1-2-3.5-.5-1.4-.7-3-.7-4.8v-1.9c0-1.8.2-3.4.6-4.7.4-1.4 1-2.6 1.8-3.5.8-1 1.8-1.7 3-2.2s2.5-.8 4.1-.8c1.4 0 2.5.2 3.6.5 1 .4 1.9.9 2.6 1.5.7.6 1.3 1.4 1.7 2.3.4.9.7 1.9.9 2.9H820c-.1-.6-.3-1.2-.6-1.8-.3-.6-.6-1.1-1.1-1.5-.5-.4-1-.8-1.6-1-.7-.2-1.4-.4-2.3-.4-1.1 0-2.1.2-2.9.6-.8.4-1.5 1-2 1.7s-.9 1.7-1.2 2.7c-.3 1.1-.4 2.3-.4 3.6v1.9c0 1.4.2 2.6.5 3.7s.8 2 1.4 2.7c.6.7 1.3 1.3 2.1 1.7s1.8.6 2.8.6c.8 0 1.6-.1 2.2-.2.6-.1 1.1-.3 1.5-.4.4-.2.7-.4 1-.6s.5-.4.6-.6v-5.3h-5.5v-2.5h8.6v8.8h-.2zM825.7 735.7c0-1.3.2-2.5.6-3.6.4-1.1.9-2 1.6-2.8.7-.8 1.5-1.4 2.5-1.9s2.1-.7 3.3-.7c1.3 0 2.4.2 3.4.7s1.8 1.1 2.5 1.9c.7.8 1.2 1.8 1.6 2.8.4 1.1.6 2.3.6 3.6v.4c0 1.3-.2 2.5-.6 3.6-.4 1.1-.9 2-1.6 2.8-.7.8-1.5 1.4-2.5 1.9s-2.1.7-3.3.7-2.4-.2-3.3-.7-1.8-1.1-2.5-1.9-1.2-1.7-1.6-2.8c-.4-1.1-.6-2.3-.6-3.6v-.4h-.1zm3 .4c0 .9.1 1.7.3 2.5.2.8.5 1.5.9 2.1s.9 1.1 1.6 1.4c.6.3 1.4.5 2.2.5s1.6-.2 2.2-.5c.6-.3 1.2-.8 1.6-1.4.4-.6.7-1.3.9-2.1.2-.8.3-1.6.3-2.5v-.4c0-.9-.1-1.7-.3-2.5-.2-.8-.5-1.5-.9-2.1s-.9-1.1-1.6-1.4c-.6-.4-1.4-.5-2.2-.5s-1.5.2-2.2.5c-.6.4-1.1.8-1.6 1.4-.4.6-.7 1.3-.9 2.1-.2.8-.3 1.6-.3 2.5v.4zM844.7 735.7c0-1.3.2-2.5.6-3.6.4-1.1.9-2 1.6-2.8.7-.8 1.5-1.4 2.5-1.9s2.1-.7 3.3-.7 2.4.2 3.4.7 1.8 1.1 2.5 1.9c.7.8 1.2 1.8 1.6 2.8.4 1.1.6 2.3.6 3.6v.4c0 1.3-.2 2.5-.6 3.6-.4 1.1-.9 2-1.6 2.8-.7.8-1.5 1.4-2.5 1.9s-2.1.7-3.3.7-2.4-.2-3.3-.7c-1-.5-1.8-1.1-2.5-1.9s-1.2-1.7-1.6-2.8c-.4-1.1-.6-2.3-.6-3.6v-.4h-.1zm3 .4c0 .9.1 1.7.3 2.5.2.8.5 1.5.9 2.1s.9 1.1 1.6 1.4c.6.3 1.4.5 2.2.5s1.6-.2 2.2-.5c.6-.3 1.2-.8 1.6-1.4.4-.6.7-1.3.9-2.1.2-.8.3-1.6.3-2.5v-.4c0-.9-.1-1.7-.3-2.5-.2-.8-.5-1.5-.9-2.1s-.9-1.1-1.6-1.4c-.6-.4-1.4-.5-2.2-.5s-1.5.2-2.2.5c-.6.4-1.1.8-1.6 1.4-.4.6-.7 1.3-.9 2.1-.2.8-.3 1.6-.3 2.5v.4zM863.7 735.8c0-1.3.2-2.6.5-3.7s.8-2 1.4-2.8c.6-.8 1.3-1.4 2.2-1.8.9-.4 1.8-.7 2.9-.7 1.1 0 2.1.2 2.9.6.8.4 1.5 1 2.1 1.7l.1-2h2.8v17.3c0 1.2-.2 2.2-.5 3.1-.4.9-.9 1.7-1.5 2.3-.7.6-1.5 1.1-2.4 1.4-.9.3-1.9.5-3 .5-.5 0-1-.1-1.6-.2-.6-.1-1.2-.3-1.8-.5-.6-.2-1.2-.5-1.7-.9-.6-.4-1-.9-1.4-1.5l1.6-1.8c.4.5.8.8 1.1 1.1.4.3.8.5 1.2.7.4.2.8.3 1.2.4s.8.1 1.2.1c.7 0 1.3-.1 1.9-.3.6-.2 1.1-.5 1.5-.9s.7-.9.9-1.5.3-1.3.3-2v-1.5c-.6.7-1.3 1.2-2.1 1.5-.8.4-1.8.5-2.8.5-1.1 0-2-.2-2.9-.7-.9-.4-1.6-1.1-2.2-1.9-.6-.8-1.1-1.7-1.4-2.8-.3-1.1-.5-2.3-.5-3.7zm3 .3c0 .9.1 1.7.3 2.5.2.8.5 1.5.8 2 .4.6.9 1 1.4 1.4.6.3 1.3.5 2.1.5.5 0 1-.1 1.4-.2.4-.1.8-.3 1.2-.5.3-.2.6-.5.9-.8.3-.3.5-.7.7-1v-8c-.2-.4-.4-.7-.7-1-.3-.3-.6-.6-.9-.8-.3-.2-.7-.4-1.1-.5-.4-.1-.9-.2-1.4-.2-.8 0-1.5.2-2.1.5-.6.3-1.1.8-1.5 1.4-.4.6-.7 1.3-.8 2-.2.8-.3 1.6-.3 2.5v.2zM885.8 744.7h-3v-25h3v25zM898 745c-1.2 0-2.3-.2-3.3-.6-1-.4-1.8-1-2.5-1.8s-1.3-1.7-1.6-2.7c-.4-1-.6-2.2-.6-3.4v-.7c0-1.4.2-2.7.6-3.8.4-1.1 1-2.1 1.7-2.9s1.5-1.4 2.5-1.8c.9-.4 1.9-.6 2.9-.6 1.3 0 2.3.2 3.3.7.9.4 1.7 1 2.3 1.8.6.8 1 1.7 1.3 2.7.3 1.1.4 2.2.4 3.4v1.4h-11.9c0 .8.2 1.6.4 2.3.2.7.6 1.3 1 1.8.5.5 1 .9 1.6 1.2.6.3 1.4.5 2.2.5 1.1 0 2-.2 2.7-.7.7-.4 1.4-1 1.9-1.7l1.8 1.4c-.3.4-.6.9-1 1.3s-.9.8-1.4 1.1c-.5.3-1.2.6-1.8.8-.9.2-1.7.3-2.5.3zm-.4-15.8c-.6 0-1.2.1-1.7.3-.5.2-1 .5-1.4 1-.4.4-.7 1-1 1.6s-.4 1.4-.5 2.2h8.8v-.2c0-.6-.1-1.2-.3-1.7-.2-.6-.4-1.1-.7-1.5-.3-.5-.8-.8-1.3-1.1-.5-.4-1.1-.6-1.9-.6z"/></g></svg>