<?xml version="1.0" encoding="utf-8"?>
<!-- Generator: Adobe Illustrator 18.1.1, SVG Export Plug-In . SVG Version: 6.00 Build 0)  -->
<svg version="1.1" id="Layer_1" xmlns="http://www.w3.org/2000/svg" xmlns:xlink="http://www.w3.org/1999/xlink" x="0px" y="0px"
	 viewBox="693.5 357 113 36" enable-background="new 693.5 357 113 36" xml:space="preserve">
<g>
	<g>
		<path fill="#E52054" d="M728.5,383.4c-1.4,0-2.4-0.4-3-1v5.3h-3.4v-15.9h3.4v0.8c0.6-0.5,1.6-1.1,3-1.1c3.1,0,5.8,2.4,5.8,6
			C734.2,381,731.6,383.4,728.5,383.4z M728.2,380.3c1.5,0,2.7-1.3,2.7-3s-1.1-3-2.7-3c-1.5,0-2.7,1.3-2.7,3
			S726.7,380.3,728.2,380.3z"/>
	</g>
	<g>
		<path fill="#E52054" d="M799.6,371c3.4,0,6.2,2.5,6.2,6c0,3.4-2.7,6-6.2,6s-6.2-2.5-6.2-6C793.5,373.5,796.2,371,799.6,371z
			 M799.6,379.8c1.5,0,2.7-1.3,2.7-2.9c0-1.6-1.1-2.9-2.7-2.9c-1.6,0-2.7,1.3-2.7,2.9C796.9,378.6,798.1,379.8,799.6,379.8z"/>
	</g>
	<g>
		<path fill="#E52054" d="M743.5,371c3.4,0,6.2,2.5,6.2,6c0,3.4-2.7,6-6.2,6s-6.2-2.5-6.2-6C737.5,373.5,740.2,371,743.5,371z
			 M743.5,379.8c1.5,0,2.7-1.3,2.7-2.9c0-1.6-1.1-2.9-2.7-2.9c-1.6,0-2.7,1.3-2.7,2.9C740.8,378.6,742.1,379.8,743.5,379.8z"/>
	</g>
	<g>
		<path fill="#E52054" d="M779.4,378.8c1.1,0,2,0.9,2,2s-0.9,2-2,2s-2-0.9-2-2C777.3,379.7,778.1,378.8,779.4,378.8z"/>
	</g>
	<g>
		<path fill="#E52054" d="M694.4,366.5h3.4v3.1h-3.4V366.5z M694.4,371.4h3.4v11.5h-3.4V371.4z"/>
	</g>
	<g>
		<path fill="#E52054" d="M786.9,366.5h3.4v3.1h-3.4V366.5z M786.9,371.4h3.4v11.5h-3.4V371.4z"/>
	</g>
	<g>
		<path fill="#E52054" d="M728.7,383.4c-1.4,0-2.4-0.4-3-1v5.3h-3.4v-15.9h3.4v0.8c0.6-0.5,1.6-1.1,3-1.1c3.1,0,5.8,2.4,5.8,6
			C734.3,381,731.7,383.4,728.7,383.4z M728.3,380.3c1.5,0,2.7-1.3,2.7-3s-1.1-3-2.7-3s-2.7,1.3-2.7,3S726.8,380.3,728.3,380.3z"/>
	</g>
	<g>
		<path fill="#E52054" d="M756.3,382.9H753v-11.5h6.6v3h-3.4L756.3,382.9L756.3,382.9z"/>
	</g>
	<g>
		<path fill="#E52054" d="M765.2,382.9v-8.3h-2v-3h2v-3.3h3.5v3.3h3v3h-3.4v5.3h3.1v3H765.2L765.2,382.9z"/>
	</g>
	<g>
		<path fill="#E52054" d="M718.8,382.9h-3.4v-8.3h-3.8v8.4h-3.4v-8.4h-3.8v8.4h-3.4v-11.5h17.5v11.3L718.8,382.9L718.8,382.9
			L718.8,382.9z"/>
	</g>
</g>
</svg>
