<?xml version="1.0" encoding="UTF-8"?>
<!DOCTYPE svg PUBLIC "-//W3C//DTD SVG 1.1//EN" "http://www.w3.org/Graphics/SVG/1.1/DTD/svg11.dtd">
<svg version="1.1" baseProfile="full" xmlns="http://www.w3.org/2000/svg" xmlns:xlink="http://www.w3.org/1999/xlink" xmlns:ev="http://www.w3.org/2001/xml-events" height="80px" width="80px">
<path fill="rgb( 250, 213, 8 )" d="M0,0 C0,0 80,0 80,0 C80,0 80,80 80,80 C80,80 0,80 0,80 C0,80 0,0 0,0 Z "/>
<path fill="rgb( 44, 45, 45 )" d="M71.99,46.085 C71.881,46.718 70.997,47.958 69.447,47.958 C68.906,47.958 68.343,47.803 67.773,47.497 C67.275,47.151 66.779,46.861 66.288,46.629 C65.287,46.158 64.292,45.919 63.331,45.919 C62.339,45.919 61.744,46.181 61.719,46.192 C61.719,46.192 61.638,46.228 61.638,46.228 C61.638,46.228 61.461,45.908 61.461,45.908 C61.461,45.908 61.537,45.861 61.537,45.861 C63.095,44.907 65.433,44.408 66.938,44.408 C67.119,44.408 67.288,44.415 67.44,44.43 C68.758,44.554 71.472,45.395 71.723,45.482 C71.942,45.557 72.042,45.782 71.99,46.085 ZM63.524,47.58 C63.524,47.58 63.638,47.599 63.638,47.599 C63.638,47.599 63.603,47.958 63.603,47.958 C63.603,47.958 61.164,47.958 61.164,47.958 C57.517,47.958 54.363,45.196 53.929,41.647 C53.929,41.647 48.422,43.737 48.422,43.737 C48.422,43.737 48.439,43.445 48.439,43.445 C48.517,42.09 48.95,41.524 50.294,41.027 C50.294,41.027 52.563,40.158 52.563,40.158 C52.243,37.529 49.904,35.481 47.204,35.481 C44.228,35.481 41.807,37.862 41.807,40.789 C41.807,43.717 44.228,46.099 47.204,46.099 C47.204,46.099 47.396,46.099 47.396,46.099 C47.396,46.099 47.396,47.958 47.396,47.958 C47.396,47.958 47.204,47.958 47.204,47.958 C43.559,47.958 40.405,45.196 39.968,41.647 C39.968,41.647 34.462,43.737 34.462,43.737 C34.462,43.737 34.479,43.445 34.479,43.445 C34.558,42.088 34.992,41.523 36.336,41.027 C36.336,41.027 38.605,40.158 38.605,40.158 C38.284,37.53 35.944,35.481 33.245,35.481 C30.269,35.481 27.848,37.862 27.848,40.789 C27.848,43.717 30.269,46.099 33.245,46.099 C33.245,46.099 33.436,46.099 33.436,46.099 C33.436,46.099 33.436,47.958 33.436,47.958 C33.436,47.958 33.245,47.958 33.245,47.958 C29.952,47.958 27.045,45.74 26.202,42.636 C25.216,45.541 22.421,47.542 19.284,47.542 C18.126,47.542 16.975,47.269 15.956,46.753 C15.956,46.753 15.786,46.667 15.786,46.667 C15.786,46.667 16.653,45.013 16.653,45.013 C16.653,45.013 16.823,45.098 16.823,45.098 C17.592,45.486 18.42,45.683 19.284,45.683 C22.261,45.683 24.683,43.301 24.683,40.373 C24.683,37.446 22.261,35.064 19.284,35.064 C16.308,35.064 13.888,37.446 13.888,40.373 C13.888,40.373 13.888,46.626 13.888,46.626 C13.888,46.626 13.886,46.626 13.886,46.626 C13.86,48.43 12.925,49.619 12.259,49.891 C12.259,49.891 11.994,50 11.994,50 C11.994,50 11.994,40.373 11.994,40.373 C11.994,36.42 15.265,33.204 19.284,33.204 C22.577,33.204 25.484,35.422 26.328,38.527 C27.313,35.622 30.108,33.621 33.245,33.621 C36.484,33.621 39.305,35.702 40.224,38.724 C41.142,35.702 43.964,33.621 47.204,33.621 C50.098,33.621 52.718,35.321 53.873,37.899 C53.873,37.899 53.873,32.001 53.873,32.001 C53.873,32.001 54.138,32.109 54.138,32.109 C54.757,32.362 55.693,32.744 55.758,34.461 C55.758,34.461 55.764,34.481 55.764,34.481 C55.764,34.481 55.765,34.504 55.765,34.504 C55.765,34.504 55.766,40.789 55.766,40.789 C55.766,42.503 56.546,44.099 57.964,45.283 C58.063,45.363 58.166,45.442 58.268,45.518 C59.612,46.52 61.101,47.044 62.113,47.306 C62.876,47.505 63.422,47.569 63.524,47.58 Z "/>
</svg>