<?xml version="1.0" encoding="UTF-8" standalone="no"?>
<!-- Created with Inkscape (http://www.inkscape.org/) -->
<svg id="svg2" xmlns:rdf="http://www.w3.org/1999/02/22-rdf-syntax-ns#" xmlns="http://www.w3.org/2000/svg" height="512" width="512" version="1.1" xmlns:cc="http://creativecommons.org/ns#" xmlns:xlink="http://www.w3.org/1999/xlink" viewBox="0 0 512 512.00002" xmlns:dc="http://purl.org/dc/elements/1.1/">
 <title id="title3425">Request Baskets</title>
 <defs id="defs4">
  <linearGradient id="b" y2="786.99" gradientUnits="userSpaceOnUse" x2="237.81" y1="763.09" x1="109.14">
   <stop id="stop6227" stop-color="#0ff" offset="0"/>
   <stop id="stop6229" stop-color="#0ff" stop-opacity="0" offset="1"/>
  </linearGradient>
  <linearGradient id="a" y2="797.48" gradientUnits="userSpaceOnUse" x2="454.1" y1="756.25" x1="282.8">
   <stop id="stop6235" stop-color="#0f0" offset="0"/>
   <stop id="stop6237" stop-color="#0f0" stop-opacity="0" offset="1"/>
  </linearGradient>
 </defs>
 <metadata id="metadata7">
  <rdf:RDF>
   <cc:Work rdf:about="">
    <dc:format>image/svg+xml</dc:format>
    <dc:type rdf:resource="http://purl.org/dc/dcmitype/StillImage"/>
    <dc:title>Request Baskets</dc:title>
    <cc:license rdf:resource="http://creativecommons.org/licenses/by-sa/3.0/"/>
    <dc:creator>
     <cc:Agent>
      <dc:title>https://github.com/darklynx</dc:title>
     </cc:Agent>
    </dc:creator>
    <dc:subject>
     <rdf:Bag>
      <rdf:li>HTTP requests basket logo</rdf:li>
     </rdf:Bag>
    </dc:subject>
    <dc:description>Request Baskets service logo</dc:description>
   </cc:Work>
   <cc:License rdf:about="http://creativecommons.org/licenses/by-sa/3.0/">
    <cc:permits rdf:resource="http://creativecommons.org/ns#Reproduction"/>
    <cc:permits rdf:resource="http://creativecommons.org/ns#Distribution"/>
    <cc:requires rdf:resource="http://creativecommons.org/ns#Notice"/>
    <cc:requires rdf:resource="http://creativecommons.org/ns#Attribution"/>
    <cc:permits rdf:resource="http://creativecommons.org/ns#DerivativeWorks"/>
    <cc:requires rdf:resource="http://creativecommons.org/ns#ShareAlike"/>
   </cc:License>
  </rdf:RDF>
 </metadata>
 <g id="layer1" transform="translate(0 -540.36)">
  <ellipse id="path6288" fill-opacity=".88776" rx="253.91" ry="255.1" cy="797.26" cx="256.3" fill="#f2f2f2"/>
  <path id="rect3820" fill="#d4aa00" d="m74.039 818.67h365.54c11.409 0 23.729 9.3058 20.958 16.917l-49.789 136.75c-2.7712 7.6114-9.1848 14.163-20.594 14.163h-259.48c-11.409 0-17.522-6.6064-20.594-14.163l-55.188-135.75c-3.0715-7.5567 7.7286-17.919 19.138-17.919z"/>
  <g>
   <path id="path4677" fill="url(#b)" d="m110 819.78a56.569 96.591 0 0 1 24.624 -97.474 56.569 96.591 0 0 1 62.17 -0.00001 56.569 96.591 0 0 1 24.624 97.474"/>
   <path id="path4679" d="m283.71 823.54a59.662 114.67 0 0 1 25.971 -115.71 59.662 114.67 0 0 1 65.57 0 59.662 114.67 0 0 1 25.971 115.71" fill="url(#a)"/>
   <text id="text6379" style="word-spacing:0px;letter-spacing:0px" font-weight="bold" xml:space="preserve" transform="matrix(.94696 -.18480 .16317 1.0242 0 0)" line-height="125%" font-size="71.484px" y="796.74725" x="14.205831" font-family="sans-serif" fill="#333333"><tspan id="tspan6381" x="14.205831" y="796.74725">P</tspan></text>
   <text id="text6375" style="word-spacing:0px;letter-spacing:0px" font-weight="bold" xml:space="preserve" transform="matrix(.88825 -.33421 .35001 .99411 0 0)" line-height="125%" font-size="64.798px" y="822.8692" x="45.614708" font-family="sans-serif" fill="#333333"><tspan id="tspan6377" x="45.614708" y="822.8692">G</tspan></text>
  </g>
  <path id="path4681" d="m186.89 829.73a68.501 96.591 0 0 1 29.818 -97.474 68.501 96.591 0 0 1 75.284 0 68.501 96.591 0 0 1 29.818 97.474" fill="#f55"/>
  <text id="text6371" style="word-spacing:0px;letter-spacing:0px" font-weight="bold" xml:space="preserve" transform="matrix(.90749 .35190 -.33241 .97304 0 0)" line-height="125%" font-size="70.068px" y="650.12897" x="483.52075" font-family="sans-serif" fill="#333333"><tspan id="tspan6373" x="483.52075" y="650.12897">D</tspan></text>
  <rect id="rect3834" ry="17.3" height="34.6" width="428" y="818.78" x="43.772" fill="#784421"/>
  <path id="path3846" fill="#d4aa00" d="m258.09 609.96c109.22 0 197.75 83.789 197.71 187.51-0.0439 6.7381-5.36 11.909-11.918 11.909-6.5577 0-11.874-5.1708-11.886-12.104-0.0118-91.843-77.662-165.85-173.45-165.85-95.786 0-173.44 74.003-173.37 165.68 0.06721 6.7667-5.5394 11.938-12.456 11.938-6.9161 0-12.523-5.1708-12.456-11.742 0.0672-103.55 88.605-187.34 197.82-187.34z"/>
  <g id="g4671" fill="#d40000" transform="matrix(.99969 0 0 .99775 2.703 35.412)">
   <g id="g4665" transform="matrix(-.67284 0 0 .69375 333.71 140.65)">
    <path id="path4660" d="m338.67 721.03c5.6302-29.58-120.9 22.445-137.19 4.188-10.953-13.59-9.8299-84.147 28.379-90.376 32.209 1.7705 98.413 140.81 108.81 86.188z"/>
    <path id="path4663" d="m270.32 706.88c-5.6302 29.58 120.9-22.445 137.19-4.188 10.953 13.59 9.8299 84.147-28.379 90.376-32.209-1.7705-98.413-140.81-108.81-86.188z"/>
   </g>
   <ellipse id="path4669" rx="17.333" ry="16.667" cy="635.7" cx="129.33"/>
  </g>
  <g fill="#a05a2c" fill-opacity=".54082">
   <rect id="rect6257" transform="rotate(90)" ry="8.747" height="76.633" width="16.403" y="-186.23" x="885.01"/>
   <rect id="rect6261" ry="8.2015" transform="rotate(90)" height="93.361" width="16.403" y="-356.5" x="935.8"/>
   <rect id="rect6263" transform="rotate(90)" ry="8.0735" height="113.08" width="16.403" y="-329.61" x="885.01"/>
   <rect id="rect6265" transform="rotate(90)" ry="8.2015" height="73.048" width="16.403" y="-231.63" x="935.8"/>
   <rect id="rect6267" ry="7.4427" transform="rotate(90)" height="52.736" width="16.403" y="-409.67" x="885.01"/>
  </g>
 </g>
</svg>
